<svg version="1.1" xmlns="http://www.w3.org/2000/svg" xmlns:xlink="http://www.w3.org/1999/xlink" width="2156" height="1372"><defs/><g><g transform="translate(2,2) scale(1,1)"><path fill="none" stroke="#000000" d="M 8 8 L 2144 8 L 2144 1360 L 8 1360 L 8 8" stroke-miterlimit="10"/></g><g transform="translate(2,2) scale(1,1)"><path fill="#ffffff" stroke="none" d="M 8 8 L 8 49 L 340 49 L 360.5 28.5 L 360.5 8 L 8 8"/></g><g transform="translate(2,2) scale(1,1)"><path fill="none" stroke="#000000" d="M 8 8 L 8 49 L 340 49 L 360.5 28.5 L 360.5 8 L 8 8 L 8 8" stroke-miterlimit="10"/></g><g transform="translate(2,2) scale(1,1)"><g><path fill="none" stroke="none"/><text fill="#000000" stroke="none" font-family="Arial" font-size="32px" font-style="normal" font-weight="normal" text-decoration="none" x="52.796875" y="40">Afficher Commande</text></g></g><g transform="translate(2,2) scale(1,1)"><g><path fill="none" stroke="none"/><text fill="#000000" stroke="none" font-family="Arial" font-size="32px" font-style="normal" font-weight="bold" text-decoration="none" x="11.2265625" y="40">sd</text></g></g><g transform="translate(2,2) scale(1,1)"><path fill="#ffffff" stroke="none" d="M 448.438096590909 47.3 C 448.438096590909 43.82060576 451.3164983130909 41 454.8671875 41 C 458.4178766869091 41 461.2962784090909 43.82060576 461.2962784090909 47.3 C 461.2962784090909 50.779394239999995 458.4178766869091 53.6 454.8671875 53.6 C 451.3164983130909 53.6 448.438096590909 50.779394239999995 448.438096590909 47.3 Z"/></g><g transform="translate(2,2) scale(1,1)"><path fill="none" stroke="#000000" d="M 448.438096590909 47.3 C 448.438096590909 43.82060576 451.3164983130909 41 454.8671875 41 C 458.4178766869091 41 461.2962784090909 43.82060576 461.2962784090909 47.3 C 461.2962784090909 50.779394239999995 458.4178766869091 53.6 454.8671875 53.6 C 451.3164983130909 53.6 448.438096590909 50.779394239999995 448.438096590909 47.3 Z" stroke-miterlimit="10"/></g><g transform="translate(2,2) scale(1,1)"><path fill="none" stroke="#000000" d="M 454.8671875 53.6 L 454.8671875 66.4" stroke-miterlimit="10"/></g><g transform="translate(2,2) scale(1,1)"><path fill="none" stroke="#000000" d="M 448.0599147727272 58.4 L 461.67446022727273 58.4" stroke-miterlimit="10"/></g><g transform="translate(2,2) scale(1,1)"><path fill="none" stroke="#000000" d="M 454.8671875 66.4 L 445.4126420454545 79" stroke-miterlimit="10"/></g><g transform="translate(2,2) scale(1,1)"><path fill="none" stroke="#000000" d="M 454.8671875 66.4 L 464.32173295454544 79" stroke-miterlimit="10"/></g><g transform="translate(2,2) scale(1,1)"><g><path fill="none" stroke="none"/><text fill="#000000" stroke="none" font-family="Arial" font-size="32px" font-style="normal" font-weight="bold" text-decoration="none" x="321.5" y="114">Employer: Actor1</text></g></g><g transform="translate(2,2) scale(1,1)"><path fill="none" stroke="#000000" d="M 455.5 124 L 455.5 1304" stroke-miterlimit="10" stroke-dasharray="3"/></g><g transform="translate(2,2) scale(1,1)"><rect fill="#C0C0C0" stroke="none" x="767" y="47" width="159" height="39" opacity="0.2"/></g><g transform="translate(2,2) scale(1,1)"><rect fill="#ffffff" stroke="none" x="760" y="40" width="159" height="39"/></g><g transform="translate(2,2) scale(1,1)"><path fill="none" stroke="#000000" d="M 760 40 L 919 40 L 919 79 L 760 79 L 760 40 Z Z" stroke-miterlimit="10"/></g><g transform="translate(2,2) scale(1,1)"><g><path fill="none" stroke="none"/><text fill="#000000" stroke="none" font-family="Arial" font-size="32px" font-style="normal" font-weight="bold" text-decoration="none" x="839.5" y="62.5"></text></g></g><g transform="translate(2,2) scale(1,1)"><path fill="none" stroke="#000000" d="M 840.5 80 L 840.5 1336" stroke-miterlimit="10" stroke-dasharray="3"/></g><g transform="translate(2,2) scale(1,1)"><rect fill="#C0C0C0" stroke="none" x="1239" y="47" width="203.90625" height="39" opacity="0.2"/></g><g transform="translate(2,2) scale(1,1)"><rect fill="#ffffff" stroke="none" x="1232" y="40" width="203.90625" height="39"/></g><g transform="translate(2,2) scale(1,1)"><path fill="none" stroke="#000000" d="M 1232 40 L 1435.90625 40 L 1435.90625 79 L 1232 79 L 1232 40 Z Z" stroke-miterlimit="10"/></g><g transform="translate(2,2) scale(1,1)"><g><path fill="none" stroke="none"/><text fill="#000000" stroke="none" font-family="Arial" font-size="32px" font-style="normal" font-weight="bold" text-decoration="none" x="1241.5" y="74">:Commande</text></g></g><g transform="translate(2,2) scale(1,1)"><path fill="none" stroke="#000000" d="M 1334.5 80 L 1334.5 1336" stroke-miterlimit="10" stroke-dasharray="3"/></g><g transform="translate(2,2) scale(1,1)"><rect fill="#C0C0C0" stroke="none" x="1607" y="47" width="127" height="39" opacity="0.2"/></g><g transform="translate(2,2) scale(1,1)"><rect fill="#ffffff" stroke="none" x="1600" y="40" width="127" height="39"/></g><g transform="translate(2,2) scale(1,1)"><path fill="none" stroke="#000000" d="M 1600 40 L 1727 40 L 1727 79 L 1600 79 L 1600 40 Z Z" stroke-miterlimit="10"/></g><g transform="translate(2,2) scale(1,1)"><g><path fill="none" stroke="none"/><text fill="#000000" stroke="none" font-family="Arial" font-size="32px" font-style="normal" font-weight="bold" text-decoration="none" x="1613.71875" y="74">:Achat</text></g></g><g transform="translate(2,2) scale(1,1)"><path fill="none" stroke="#000000" d="M 1664.5 80 L 1664.5 1328" stroke-miterlimit="10" stroke-dasharray="3"/></g><g transform="translate(2,2) scale(1,1)"><rect fill="#C0C0C0" stroke="none" x="2023" y="47" width="95" height="39" opacity="0.2"/></g><g transform="translate(2,2) scale(1,1)"><rect fill="#ffffff" stroke="none" x="2016" y="40" width="95" height="39"/></g><g transform="translate(2,2) scale(1,1)"><path fill="none" stroke="#000000" d="M 2016 40 L 2111 40 L 2111 79 L 2016 79 L 2016 40 Z Z" stroke-miterlimit="10"/></g><g transform="translate(2,2) scale(1,1)"><g><path fill="none" stroke="none"/><text fill="#000000" stroke="none" font-family="Arial" font-size="32px" font-style="normal" font-weight="bold" text-decoration="none" x="2035.0625" y="73.5">:BD</text></g></g><g transform="translate(2,2) scale(1,1)"><path fill="none" stroke="#000000" d="M 2064.5 80 L 2064.5 1320" stroke-miterlimit="10" stroke-dasharray="3"/></g><g transform="translate(2,2) scale(1,1)"><rect fill="#C0C0C0" stroke="none" x="1799" y="47" width="205.640625" height="39" opacity="0.2"/></g><g transform="translate(2,2) scale(1,1)"><rect fill="#ffffff" stroke="none" x="1792" y="40" width="205.640625" height="39"/></g><g transform="translate(2,2) scale(1,1)"><path fill="none" stroke="#000000" d="M 1792 40 L 1997.640625 40 L 1997.640625 79 L 1792 79 L 1792 40 Z Z" stroke-miterlimit="10"/></g><g transform="translate(2,2) scale(1,1)"><g><path fill="none" stroke="none"/><text fill="#000000" stroke="none" font-family="Arial" font-size="32px" font-style="normal" font-weight="bold" text-decoration="none" x="1801.5" y="74">:Notification</text></g></g><g transform="translate(2,2) scale(1,1)"><path fill="none" stroke="#000000" d="M 1895.5 80 L 1895.5 904" stroke-miterlimit="10" stroke-dasharray="3"/></g><g transform="translate(2,2) scale(1,1)"><path fill="none" stroke="#000000" d="M 455 161 L 833 161" stroke-miterlimit="10"/></g><g transform="translate(2,2) scale(1,1)"><path fill="#000000" stroke="none" d="M 822.8373251423759 165.209517756016 L 833 161 L 822.8373251423758 156.790482243984"/></g><g transform="translate(2,2) scale(1,1)"><path fill="none" stroke="#000000" d="M 822.8373251423759 165.209517756016 L 833 161 L 822.8373251423758 156.790482243984 L 822.8373251423759 165.209517756016" stroke-miterlimit="10"/></g><g transform="translate(2,2) scale(1,1)"><g><path fill="none" stroke="none"/><text fill="#000000" stroke="none" font-family="Arial" font-size="32px" font-style="normal" font-weight="normal" text-decoration="none" x="454.5" y="162">1 : Ouvrir page commande</text></g></g><g transform="translate(2,2) scale(1,1)"><rect fill="#ffffff" stroke="none" x="833" y="161" width="13" height="28"/></g><g transform="translate(2,2) scale(1,1)"><path fill="none" stroke="#000000" d="M 833 161 L 846 161 L 846 189 L 833 189 L 833 161 Z Z" stroke-miterlimit="10"/></g><g transform="translate(2,2) scale(1,1)"><path fill="none" stroke="#000000" d="M 1664 248 L 840 248" stroke-miterlimit="10" stroke-dasharray="3"/></g><g transform="translate(2,2) scale(1,1)"><path fill="none" stroke="#000000" d="M 850.1626748576241 243.790482243984 L 840 248 L 850.1626748576241 252.209517756016" stroke-miterlimit="10"/></g><g transform="translate(2,2) scale(1,1)"><g><path fill="none" stroke="none"/><text fill="#000000" stroke="none" font-family="Arial" font-size="32px" font-style="normal" font-weight="normal" text-decoration="none" x="1156.5" y="269">2 : Compter()</text></g></g><g transform="translate(2,2) scale(1,1)"><path fill="none" stroke="#000000" d="M 1334 473 L 1657 473" stroke-miterlimit="10"/></g><g transform="translate(2,2) scale(1,1)"><path fill="#000000" stroke="none" d="M 1646.837325142376 477.209517756016 L 1657 473 L 1646.837325142376 468.790482243984"/></g><g transform="translate(2,2) scale(1,1)"><path fill="none" stroke="#000000" d="M 1646.837325142376 477.209517756016 L 1657 473 L 1646.837325142376 468.790482243984 L 1646.837325142376 477.209517756016" stroke-miterlimit="10"/></g><g transform="translate(2,2) scale(1,1)"><g><path fill="none" stroke="none"/><text fill="#000000" stroke="none" font-family="Arial" font-size="32px" font-style="normal" font-weight="normal" text-decoration="none" x="1408.5" y="474">3 : Afficher()</text></g></g><g transform="translate(2,2) scale(1,1)"><rect fill="#ffffff" stroke="none" x="1657" y="473" width="13" height="28"/></g><g transform="translate(2,2) scale(1,1)"><path fill="none" stroke="#000000" d="M 1657 473 L 1670 473 L 1670 501 L 1657 501 L 1657 473 Z Z" stroke-miterlimit="10"/></g><g transform="translate(2,2) scale(1,1)"><rect fill="#ffffff" stroke="none" x="1592" y="544" width="512" height="111"/></g><g transform="translate(2,2) scale(1,1)"><path fill="none" stroke="#000000" d="M 1592 544 L 2104 544 L 2104 655 L 1592 655 L 1592 544 Z Z" stroke-miterlimit="10"/></g><g transform="translate(2,2) scale(1,1)"><path fill="none" stroke="#000000" d="M 1592 544 L 1592 585 L 1639.34375 585 L 1659.84375 564.5 L 1659.84375 544 L 1592 544 L 1592 544" stroke-miterlimit="10"/></g><g transform="translate(2,2) scale(1,1)"><g><path fill="none" stroke="none"/><text fill="#000000" stroke="none" font-family="Arial" font-size="32px" font-style="normal" font-weight="normal" text-decoration="none" x="1881.921875" y="564.5"></text></g></g><g transform="translate(2,2) scale(1,1)"><g><path fill="none" stroke="none"/><text fill="#000000" stroke="none" font-family="Arial" font-size="32px" font-style="normal" font-weight="bold" text-decoration="none" x="1595.21875" y="576">ref</text></g></g><g transform="translate(2,2) scale(1,1)"><path fill="none" stroke="#000000" d="M 1664 599 L 2057 599" stroke-miterlimit="10"/></g><g transform="translate(2,2) scale(1,1)"><path fill="#000000" stroke="none" d="M 2046.837325142376 603.209517756016 L 2057 599 L 2046.837325142376 594.790482243984"/></g><g transform="translate(2,2) scale(1,1)"><path fill="none" stroke="#000000" d="M 2046.837325142376 603.209517756016 L 2057 599 L 2046.837325142376 594.790482243984 L 2046.837325142376 603.209517756016" stroke-miterlimit="10"/></g><g transform="translate(2,2) scale(1,1)"><g><path fill="none" stroke="none"/><text fill="#000000" stroke="none" font-family="Arial" font-size="32px" font-style="normal" font-weight="normal" text-decoration="none" x="1783.5" y="600">4 : Afficher</text></g></g><g transform="translate(2,2) scale(1,1)"><rect fill="#ffffff" stroke="none" x="2057" y="599" width="13" height="28"/></g><g transform="translate(2,2) scale(1,1)"><path fill="none" stroke="#000000" d="M 2057 599 L 2070 599 L 2070 627 L 2057 627 L 2057 599 Z Z" stroke-miterlimit="10"/></g><g transform="translate(2,2) scale(1,1)"><path fill="none" stroke="#000000" d="M 1334 660 L 840 660" stroke-miterlimit="10" stroke-dasharray="3"/></g><g transform="translate(2,2) scale(1,1)"><path fill="none" stroke="#000000" d="M 850.1626748576241 655.790482243984 L 840 660 L 850.1626748576241 664.209517756016" stroke-miterlimit="10"/></g><g transform="translate(2,2) scale(1,1)"><g><path fill="none" stroke="none"/><text fill="#000000" stroke="none" font-family="Arial" font-size="32px" font-style="normal" font-weight="normal" text-decoration="none" x="1016.5" y="681">5 : Option</text></g></g><g transform="translate(2,2) scale(1,1)"><path fill="none" stroke="#000000" d="M 1895 736 L 840 736" stroke-miterlimit="10" stroke-dasharray="3"/></g><g transform="translate(2,2) scale(1,1)"><path fill="none" stroke="#000000" d="M 850.1626748576241 731.790482243984 L 840 736 L 850.1626748576241 740.209517756016" stroke-miterlimit="10"/></g><g transform="translate(2,2) scale(1,1)"><g><path fill="none" stroke="none"/><text fill="#000000" stroke="none" font-family="Arial" font-size="32px" font-style="normal" font-weight="normal" text-decoration="none" x="1165.5" y="757">6 : Alerter (message_erreur)</text></g></g><g transform="translate(2,2) scale(1,1)"><path fill="none" stroke="#000000" d="M 455 864 L 833 864" stroke-miterlimit="10"/></g><g transform="translate(2,2) scale(1,1)"><path fill="#000000" stroke="none" d="M 822.8373251423759 868.209517756016 L 833 864 L 822.8373251423758 859.790482243984"/></g><g transform="translate(2,2) scale(1,1)"><path fill="none" stroke="#000000" d="M 822.8373251423759 868.209517756016 L 833 864 L 822.8373251423758 859.790482243984 L 822.8373251423759 868.209517756016" stroke-miterlimit="10"/></g><g transform="translate(2,2) scale(1,1)"><g><path fill="none" stroke="none"/><text fill="#000000" stroke="none" font-family="Arial" font-size="32px" font-style="normal" font-weight="normal" text-decoration="none" x="504.5" y="865">7 : Cliquer  boutton </text></g></g><g transform="translate(2,2) scale(1,1)"><rect fill="#ffffff" stroke="none" x="833" y="864" width="13" height="28"/></g><g transform="translate(2,2) scale(1,1)"><path fill="none" stroke="#000000" d="M 833 864 L 846 864 L 846 892 L 833 892 L 833 864 Z Z" stroke-miterlimit="10"/></g><g transform="translate(2,2) scale(1,1)"><path fill="none" stroke="#000000" d="M 840 928 L 1327 928" stroke-miterlimit="10"/></g><g transform="translate(2,2) scale(1,1)"><path fill="#000000" stroke="none" d="M 1316.837325142376 932.209517756016 L 1327 928 L 1316.837325142376 923.790482243984"/></g><g transform="translate(2,2) scale(1,1)"><path fill="none" stroke="#000000" d="M 1316.837325142376 932.209517756016 L 1327 928 L 1316.837325142376 923.790482243984 L 1316.837325142376 932.209517756016" stroke-miterlimit="10"/></g><g transform="translate(2,2) scale(1,1)"><g><path fill="none" stroke="none"/><text fill="#000000" stroke="none" font-family="Arial" font-size="32px" font-style="normal" font-weight="normal" text-decoration="none" x="1014.5" y="929">8 : getId()</text></g></g><g transform="translate(2,2) scale(1,1)"><rect fill="#ffffff" stroke="none" x="1327" y="928" width="13" height="28"/></g><g transform="translate(2,2) scale(1,1)"><path fill="none" stroke="#000000" d="M 1327 928 L 1340 928 L 1340 956 L 1327 956 L 1327 928 Z Z" stroke-miterlimit="10"/></g><g transform="translate(2,2) scale(1,1)"><path fill="none" stroke="#000000" d="M 1334 1024 L 2057 1024" stroke-miterlimit="10"/></g><g transform="translate(2,2) scale(1,1)"><path fill="#000000" stroke="none" d="M 2046.837325142376 1028.2095177560159 L 2057 1024 L 2046.837325142376 1019.790482243984"/></g><g transform="translate(2,2) scale(1,1)"><path fill="none" stroke="#000000" d="M 2046.837325142376 1028.2095177560159 L 2057 1024 L 2046.837325142376 1019.790482243984 L 2046.837325142376 1028.2095177560159" stroke-miterlimit="10"/></g><g transform="translate(2,2) scale(1,1)"><g><path fill="none" stroke="none"/><text fill="#000000" stroke="none" font-family="Arial" font-size="32px" font-style="normal" font-weight="normal" text-decoration="none" x="1341.3984375" y="1025">9 : Enregistrer(idachat, commande_encours=true)</text></g></g><g transform="translate(2,2) scale(1,1)"><rect fill="#ffffff" stroke="none" x="2057" y="1024" width="13" height="28"/></g><g transform="translate(2,2) scale(1,1)"><path fill="none" stroke="#000000" d="M 2057 1024 L 2070 1024 L 2070 1052 L 2057 1052 L 2057 1024 Z Z" stroke-miterlimit="10"/></g><g transform="translate(2,2) scale(1,1)"><path fill="none" stroke="#000000" d="M 1334 1099 L 455 1099" stroke-miterlimit="10" stroke-dasharray="3"/></g><g transform="translate(2,2) scale(1,1)"><path fill="none" stroke="#000000" d="M 465.16267485762415 1094.7904822439841 L 455 1099 L 465.16267485762415 1103.2095177560159" stroke-miterlimit="10"/></g><g transform="translate(2,2) scale(1,1)"><g><path fill="none" stroke="none"/><text fill="#000000" stroke="none" font-family="Arial" font-size="32px" font-style="normal" font-weight="normal" text-decoration="none" x="125.5" y="1138">10 : Affiche commande dans onglet livrasoin encours  chez client , chez entrpise onglet commande encours</text></g></g><g transform="translate(2,2) scale(1,1)"><path fill="none" stroke="#000000" d="M 1334 1226 L 840 1226" stroke-miterlimit="10" stroke-dasharray="3"/></g><g transform="translate(2,2) scale(1,1)"><path fill="none" stroke="#000000" d="M 850.1626748576241 1221.7904822439841 L 840 1226 L 850.1626748576241 1230.2095177560159" stroke-miterlimit="10"/></g><g transform="translate(2,2) scale(1,1)"><g><path fill="none" stroke="none"/><text fill="#000000" stroke="none" font-family="Arial" font-size="32px" font-style="normal" font-weight="normal" text-decoration="none" x="984.5" y="1247">11 : Compter()</text></g></g><g transform="translate(2,2) scale(1,1)"><path fill="none" stroke="#000000" d="M 784 384 L 2112 384 L 2112 808 L 784 808 L 784 384" stroke-miterlimit="10"/></g><g transform="translate(2,2) scale(1,1)"><path fill="#ffffff" stroke="none" d="M 784 384 L 784 425 L 1923.21875 425 L 1943.71875 404.5 L 1943.71875 384 L 784 384"/></g><g transform="translate(2,2) scale(1,1)"><path fill="none" stroke="#000000" d="M 784 384 L 784 425 L 1923.21875 425 L 1943.71875 404.5 L 1943.71875 384 L 784 384 L 784 384" stroke-miterlimit="10"/></g><g transform="translate(2,2) scale(1,1)"><g><path fill="none" stroke="none"/><text fill="#000000" stroke="none" font-family="Arial" font-size="32px" font-style="normal" font-weight="normal" text-decoration="none" x="828.796875" y="416">Compter() &gt; 0 &amp;&amp; commande_encours == false &amp;&amp; commande_livre == false</text></g></g><g transform="translate(2,2) scale(1,1)"><g><path fill="none" stroke="none"/><text fill="#000000" stroke="none" font-family="Arial" font-size="32px" font-style="normal" font-weight="bold" text-decoration="none" x="787.2265625" y="416">alt</text></g></g><g transform="translate(2,2) scale(1,1)"><path fill="none" stroke="#000000" d="M 784 697 L 2112 697" stroke-miterlimit="10" stroke-dasharray="10,3"/></g></g></svg>