<svg version="1.1" xmlns="http://www.w3.org/2000/svg" xmlns:xlink="http://www.w3.org/1999/xlink" width="1972" height="1260"><defs/><g><g transform="translate(10,2) scale(1,1)"><path fill="none" stroke="#000000" d="M 8 8 L 1952 8 L 1952 1248 L 8 1248 L 8 8" stroke-miterlimit="10"/></g><g transform="translate(10,2) scale(1,1)"><path fill="#ffffff" stroke="none" d="M 8 8 L 8 49 L 322.765625 49 L 343.265625 28.5 L 343.265625 8 L 8 8"/></g><g transform="translate(10,2) scale(1,1)"><path fill="none" stroke="#000000" d="M 8 8 L 8 49 L 322.765625 49 L 343.265625 28.5 L 343.265625 8 L 8 8 L 8 8" stroke-miterlimit="10"/></g><g transform="translate(10,2) scale(1,1)"><g><path fill="none" stroke="none"/><text fill="#000000" stroke="none" font-family="Arial" font-size="32px" font-style="normal" font-weight="normal" text-decoration="none" x="52.796875" y="40.5">Déclarer Employer</text></g></g><g transform="translate(10,2) scale(1,1)"><g><path fill="none" stroke="none"/><text fill="#000000" stroke="none" font-family="Arial" font-size="32px" font-style="normal" font-weight="bold" text-decoration="none" x="11.2265625" y="40">sd</text></g></g><g transform="translate(10,2) scale(1,1)"><rect fill="#C0C0C0" stroke="none" x="527" y="47" width="119" height="39" opacity="0.2"/></g><g transform="translate(10,2) scale(1,1)"><rect fill="#ffffff" stroke="none" x="520" y="40" width="119" height="39"/></g><g transform="translate(10,2) scale(1,1)"><path fill="none" stroke="#000000" d="M 520 40 L 639 40 L 639 79 L 520 79 L 520 40 Z Z" stroke-miterlimit="10"/></g><g transform="translate(10,2) scale(1,1)"><g><path fill="none" stroke="none"/><text fill="#000000" stroke="none" font-family="Arial" font-size="32px" font-style="normal" font-weight="bold" text-decoration="none" x="579.5" y="62.5"></text></g></g><g transform="translate(10,2) scale(1,1)"><path fill="none" stroke="#000000" d="M 580.5 80 L 580.5 1216" stroke-miterlimit="10" stroke-dasharray="3"/></g><g transform="translate(10,2) scale(1,1)"><rect fill="#C0C0C0" stroke="none" x="879" y="47" width="175.484375" height="39" opacity="0.2"/></g><g transform="translate(10,2) scale(1,1)"><rect fill="#ffffff" stroke="none" x="872" y="40" width="175.484375" height="39"/></g><g transform="translate(10,2) scale(1,1)"><path fill="none" stroke="#000000" d="M 872 40 L 1047.484375 40 L 1047.484375 79 L 872 79 L 872 40 Z Z" stroke-miterlimit="10"/></g><g transform="translate(10,2) scale(1,1)"><g><path fill="none" stroke="none"/><text fill="#000000" stroke="none" font-family="Arial" font-size="32px" font-style="normal" font-weight="bold" text-decoration="none" x="881.5" y="73.5">:Personne</text></g></g><g transform="translate(10,2) scale(1,1)"><path fill="none" stroke="#000000" d="M 960.5 80 L 960.5 1208" stroke-miterlimit="10" stroke-dasharray="3"/></g><g transform="translate(10,2) scale(1,1)"><rect fill="#C0C0C0" stroke="none" x="1151" y="47" width="157.75" height="39" opacity="0.2"/></g><g transform="translate(10,2) scale(1,1)"><rect fill="#ffffff" stroke="none" x="1144" y="40" width="157.75" height="39"/></g><g transform="translate(10,2) scale(1,1)"><path fill="none" stroke="#000000" d="M 1144 40 L 1301.75 40 L 1301.75 79 L 1144 79 L 1144 40 Z Z" stroke-miterlimit="10"/></g><g transform="translate(10,2) scale(1,1)"><g><path fill="none" stroke="none"/><text fill="#000000" stroke="none" font-family="Arial" font-size="32px" font-style="normal" font-weight="bold" text-decoration="none" x="1153.5" y="74">:Declarer</text></g></g><g transform="translate(10,2) scale(1,1)"><path fill="none" stroke="#000000" d="M 1223.5 80 L 1223.5 1208" stroke-miterlimit="10" stroke-dasharray="3"/></g><g transform="translate(10,2) scale(1,1)"><rect fill="#C0C0C0" stroke="none" x="1799" y="47" width="75.875" height="39" opacity="0.2"/></g><g transform="translate(10,2) scale(1,1)"><rect fill="#ffffff" stroke="none" x="1792" y="40" width="75.875" height="39"/></g><g transform="translate(10,2) scale(1,1)"><path fill="none" stroke="#000000" d="M 1792 40 L 1867.875 40 L 1867.875 79 L 1792 79 L 1792 40 Z Z" stroke-miterlimit="10"/></g><g transform="translate(10,2) scale(1,1)"><g><path fill="none" stroke="none"/><text fill="#000000" stroke="none" font-family="Arial" font-size="32px" font-style="normal" font-weight="bold" text-decoration="none" x="1801.5" y="73.5">:BD</text></g></g><g transform="translate(10,2) scale(1,1)"><path fill="none" stroke="#000000" d="M 1830.5 80 L 1830.5 1216" stroke-miterlimit="10" stroke-dasharray="3"/></g><g transform="translate(10,2) scale(1,1)"><path fill="#ffffff" stroke="none" d="M 123.4302840909091 47.3 C 123.4302840909091 43.82060576 126.3086858130909 41 129.859375 41 C 133.4100641869091 41 136.28846590909092 43.82060576 136.28846590909092 47.3 C 136.28846590909092 50.779394239999995 133.4100641869091 53.6 129.859375 53.6 C 126.3086858130909 53.6 123.4302840909091 50.779394239999995 123.4302840909091 47.3 Z"/></g><g transform="translate(10,2) scale(1,1)"><path fill="none" stroke="#000000" d="M 123.4302840909091 47.3 C 123.4302840909091 43.82060576 126.3086858130909 41 129.859375 41 C 133.4100641869091 41 136.28846590909092 43.82060576 136.28846590909092 47.3 C 136.28846590909092 50.779394239999995 133.4100641869091 53.6 129.859375 53.6 C 126.3086858130909 53.6 123.4302840909091 50.779394239999995 123.4302840909091 47.3 Z" stroke-miterlimit="10"/></g><g transform="translate(10,2) scale(1,1)"><path fill="none" stroke="#000000" d="M 129.859375 53.6 L 129.859375 66.4" stroke-miterlimit="10"/></g><g transform="translate(10,2) scale(1,1)"><path fill="none" stroke="#000000" d="M 123.05210227272728 58.4 L 136.66664772727273 58.4" stroke-miterlimit="10"/></g><g transform="translate(10,2) scale(1,1)"><path fill="none" stroke="#000000" d="M 129.859375 66.4 L 120.40482954545455 79" stroke-miterlimit="10"/></g><g transform="translate(10,2) scale(1,1)"><path fill="none" stroke="#000000" d="M 129.859375 66.4 L 139.31392045454547 79" stroke-miterlimit="10"/></g><g transform="translate(10,2) scale(1,1)"><g><path fill="none" stroke="none"/><text fill="#000000" stroke="none" font-family="Arial" font-size="32px" font-style="normal" font-weight="bold" text-decoration="none" x="18.734375" y="113.5">Patron: Actor1</text></g></g><g transform="translate(10,2) scale(1,1)"><path fill="none" stroke="#000000" d="M 130.5 124 L 130.5 1200" stroke-miterlimit="10" stroke-dasharray="3"/></g><g transform="translate(10,2) scale(1,1)"><rect fill="#ffffff" stroke="none" x="128" y="144" width="840" height="111"/></g><g transform="translate(10,2) scale(1,1)"><path fill="none" stroke="#000000" d="M 128 144 L 968 144 L 968 255 L 128 255 L 128 144 Z Z" stroke-miterlimit="10"/></g><g transform="translate(10,2) scale(1,1)"><path fill="none" stroke="#000000" d="M 128 144 L 128 185 L 175.34375 185 L 195.84375 164.5 L 195.84375 144 L 128 144 L 128 144" stroke-miterlimit="10"/></g><g transform="translate(10,2) scale(1,1)"><g><path fill="none" stroke="none"/><text fill="#000000" stroke="none" font-family="Arial" font-size="32px" font-style="normal" font-weight="normal" text-decoration="none" x="581.921875" y="164.5"></text></g></g><g transform="translate(10,2) scale(1,1)"><g><path fill="none" stroke="none"/><text fill="#000000" stroke="none" font-family="Arial" font-size="32px" font-style="normal" font-weight="bold" text-decoration="none" x="131.21875" y="176">ref</text></g></g><g transform="translate(10,2) scale(1,1)"><path fill="none" stroke="#000000" d="M 130 197 L 953 197" stroke-miterlimit="10"/></g><g transform="translate(10,2) scale(1,1)"><path fill="#000000" stroke="none" d="M 942.8373251423759 201.209517756016 L 953 197 L 942.8373251423758 192.790482243984"/></g><g transform="translate(10,2) scale(1,1)"><path fill="none" stroke="#000000" d="M 942.8373251423759 201.209517756016 L 953 197 L 942.8373251423758 192.790482243984 L 942.8373251423759 201.209517756016" stroke-miterlimit="10"/></g><g transform="translate(10,2) scale(1,1)"><g><path fill="none" stroke="none"/><text fill="#000000" stroke="none" font-family="Arial" font-size="32px" font-style="normal" font-weight="normal" text-decoration="none" x="354.5" y="198">1 : Rechercher(recherche)</text></g></g><g transform="translate(10,2) scale(1,1)"><rect fill="#ffffff" stroke="none" x="953" y="197" width="13" height="28"/></g><g transform="translate(10,2) scale(1,1)"><path fill="none" stroke="#000000" d="M 953 197 L 966 197 L 966 225 L 953 225 L 953 197 Z Z" stroke-miterlimit="10"/></g><g transform="translate(10,2) scale(1,1)"><path fill="none" stroke="#000000" d="M 960 282 L 586 282" stroke-miterlimit="10"/></g><g transform="translate(10,2) scale(1,1)"><path fill="none" stroke="#000000" d="M 596.1626748576241 277.790482243984 L 586 282 L 596.1626748576241 286.209517756016" stroke-miterlimit="10"/></g><g transform="translate(10,2) scale(1,1)"><g><path fill="none" stroke="none"/><text fill="#000000" stroke="none" font-family="Arial" font-size="32px" font-style="normal" font-weight="normal" text-decoration="none" x="685.5" y="303">2 : Afficher()</text></g></g><g transform="translate(10,2) scale(1,1)"><rect fill="#ffffff" stroke="none" x="573" y="282" width="13" height="28"/></g><g transform="translate(10,2) scale(1,1)"><path fill="none" stroke="#000000" d="M 573 282 L 586 282 L 586 310 L 573 310 L 573 282 Z Z" stroke-miterlimit="10"/></g><g transform="translate(10,2) scale(1,1)"><path fill="none" stroke="#000000" d="M 130 352 L 573 352" stroke-miterlimit="10"/></g><g transform="translate(10,2) scale(1,1)"><path fill="#000000" stroke="none" d="M 562.8373251423759 356.209517756016 L 573 352 L 562.8373251423758 347.790482243984"/></g><g transform="translate(10,2) scale(1,1)"><path fill="none" stroke="#000000" d="M 562.8373251423759 356.209517756016 L 573 352 L 562.8373251423758 347.790482243984 L 562.8373251423759 356.209517756016" stroke-miterlimit="10"/></g><g transform="translate(10,2) scale(1,1)"><g><path fill="none" stroke="none"/><text fill="#000000" stroke="none" font-family="Arial" font-size="32px" font-style="normal" font-weight="normal" text-decoration="none" x="85.5" y="353.5">3 : Sélectionner information personne</text></g></g><g transform="translate(10,2) scale(1,1)"><rect fill="#ffffff" stroke="none" x="573" y="352" width="13" height="28"/></g><g transform="translate(10,2) scale(1,1)"><path fill="none" stroke="#000000" d="M 573 352 L 586 352 L 586 380 L 573 380 L 573 352 Z Z" stroke-miterlimit="10"/></g><g transform="translate(10,2) scale(1,1)"><path fill="none" stroke="#000000" d="M 580 408 L 610 408 L 610 428 L 586 428" stroke-miterlimit="10"/></g><g transform="translate(10,2) scale(1,1)"><path fill="#000000" stroke="none" d="M 596.1626748576241 423.790482243984 L 586 428 L 596.1626748576241 432.209517756016"/></g><g transform="translate(10,2) scale(1,1)"><path fill="none" stroke="#000000" d="M 596.1626748576241 423.790482243984 L 586 428 L 596.1626748576241 432.209517756016 L 596.1626748576241 423.790482243984" stroke-miterlimit="10"/></g><g transform="translate(10,2) scale(1,1)"><g><path fill="none" stroke="none"/><text fill="#000000" stroke="none" font-family="Arial" font-size="32px" font-style="normal" font-weight="normal" text-decoration="none" x="601.5" y="428">4 : getId()</text></g></g><g transform="translate(10,2) scale(1,1)"><rect fill="#ffffff" stroke="none" x="573" y="428" width="13" height="28"/></g><g transform="translate(10,2) scale(1,1)"><path fill="none" stroke="#000000" d="M 573 428 L 586 428 L 586 456 L 573 456 L 573 428 Z Z" stroke-miterlimit="10"/></g><g transform="translate(10,2) scale(1,1)"><path fill="none" stroke="#000000" d="M 580 504 L 130 504" stroke-miterlimit="10" stroke-dasharray="3"/></g><g transform="translate(10,2) scale(1,1)"><path fill="none" stroke="#000000" d="M 140.16267485762415 499.790482243984 L 130 504 L 140.16267485762415 508.209517756016" stroke-miterlimit="10"/></g><g transform="translate(10,2) scale(1,1)"><g><path fill="none" stroke="none"/><text fill="#000000" stroke="none" font-family="Arial" font-size="32px" font-style="normal" font-weight="normal" text-decoration="none" x="231.5" y="525">5 : afficher option</text></g></g><g transform="translate(10,2) scale(1,1)"><path fill="none" stroke="#000000" d="M 130 594 L 573 594" stroke-miterlimit="10"/></g><g transform="translate(10,2) scale(1,1)"><path fill="#000000" stroke="none" d="M 562.8373251423759 598.209517756016 L 573 594 L 562.8373251423758 589.790482243984"/></g><g transform="translate(10,2) scale(1,1)"><path fill="none" stroke="#000000" d="M 562.8373251423759 598.209517756016 L 573 594 L 562.8373251423758 589.790482243984 L 562.8373251423759 598.209517756016" stroke-miterlimit="10"/></g><g transform="translate(10,2) scale(1,1)"><g><path fill="none" stroke="none"/><text fill="#000000" stroke="none" font-family="Arial" font-size="32px" font-style="normal" font-weight="normal" text-decoration="none" x="230.5" y="595">6 : Cliquer option</text></g></g><g transform="translate(10,2) scale(1,1)"><rect fill="#ffffff" stroke="none" x="573" y="594" width="13" height="28"/></g><g transform="translate(10,2) scale(1,1)"><path fill="none" stroke="#000000" d="M 573 594 L 586 594 L 586 622 L 573 622 L 573 594 Z Z" stroke-miterlimit="10"/></g><g transform="translate(10,2) scale(1,1)"><path fill="none" stroke="#000000" d="M 1223 752 L 1823 752" stroke-miterlimit="10"/></g><g transform="translate(10,2) scale(1,1)"><path fill="#000000" stroke="none" d="M 1812.837325142376 756.209517756016 L 1823 752 L 1812.837325142376 747.790482243984"/></g><g transform="translate(10,2) scale(1,1)"><path fill="none" stroke="#000000" d="M 1812.837325142376 756.209517756016 L 1823 752 L 1812.837325142376 747.790482243984 L 1812.837325142376 756.209517756016" stroke-miterlimit="10"/></g><g transform="translate(10,2) scale(1,1)"><g><path fill="none" stroke="none"/><text fill="#000000" stroke="none" font-family="Arial" font-size="32px" font-style="normal" font-weight="normal" text-decoration="none" x="1288.5" y="753">7 : Declarer(idpatron,idpersonne)</text></g></g><g transform="translate(10,2) scale(1,1)"><rect fill="#ffffff" stroke="none" x="1823" y="752" width="13" height="28"/></g><g transform="translate(10,2) scale(1,1)"><path fill="none" stroke="#000000" d="M 1823 752 L 1836 752 L 1836 780 L 1823 780 L 1823 752 Z Z" stroke-miterlimit="10"/></g><g transform="translate(10,2) scale(1,1)"><path fill="none" stroke="#000000" d="M 960 822 L 1823 822" stroke-miterlimit="10"/></g><g transform="translate(10,2) scale(1,1)"><path fill="#000000" stroke="none" d="M 1812.837325142376 826.209517756016 L 1823 822 L 1812.837325142376 817.790482243984"/></g><g transform="translate(10,2) scale(1,1)"><path fill="none" stroke="#000000" d="M 1812.837325142376 826.209517756016 L 1823 822 L 1812.837325142376 817.790482243984 L 1812.837325142376 826.209517756016" stroke-miterlimit="10"/></g><g transform="translate(10,2) scale(1,1)"><g><path fill="none" stroke="none"/><text fill="#000000" stroke="none" font-family="Arial" font-size="32px" font-style="normal" font-weight="normal" text-decoration="none" x="1103.5" y="823">8 : Modifier(idpersonne,statut=employer)</text></g></g><g transform="translate(10,2) scale(1,1)"><rect fill="#ffffff" stroke="none" x="1823" y="822" width="13" height="28"/></g><g transform="translate(10,2) scale(1,1)"><path fill="none" stroke="#000000" d="M 1823 822 L 1836 822 L 1836 850 L 1823 850 L 1823 822 Z Z" stroke-miterlimit="10"/></g><g transform="translate(10,2) scale(1,1)"><path fill="none" stroke="#000000" d="M 960 956 L 1823 956" stroke-miterlimit="10"/></g><g transform="translate(10,2) scale(1,1)"><path fill="#000000" stroke="none" d="M 1812.837325142376 960.209517756016 L 1823 956 L 1812.837325142376 951.790482243984"/></g><g transform="translate(10,2) scale(1,1)"><path fill="none" stroke="#000000" d="M 1812.837325142376 960.209517756016 L 1823 956 L 1812.837325142376 951.790482243984 L 1812.837325142376 960.209517756016" stroke-miterlimit="10"/></g><g transform="translate(10,2) scale(1,1)"><g><path fill="none" stroke="none"/><text fill="#000000" stroke="none" font-family="Arial" font-size="32px" font-style="normal" font-weight="normal" text-decoration="none" x="1103.5" y="957">9 : Modifier(idpersonne,statut=employer)</text></g></g><g transform="translate(10,2) scale(1,1)"><rect fill="#ffffff" stroke="none" x="1823" y="956" width="13" height="28"/></g><g transform="translate(10,2) scale(1,1)"><path fill="none" stroke="#000000" d="M 1823 956 L 1836 956 L 1836 984 L 1823 984 L 1823 956 Z Z" stroke-miterlimit="10"/></g><g transform="translate(10,2) scale(1,1)"><path fill="none" stroke="#000000" d="M 1223 1032 L 1823 1032" stroke-miterlimit="10"/></g><g transform="translate(10,2) scale(1,1)"><path fill="#000000" stroke="none" d="M 1812.837325142376 1036.2095177560159 L 1823 1032 L 1812.837325142376 1027.7904822439841"/></g><g transform="translate(10,2) scale(1,1)"><path fill="none" stroke="#000000" d="M 1812.837325142376 1036.2095177560159 L 1823 1032 L 1812.837325142376 1027.7904822439841 L 1812.837325142376 1036.2095177560159" stroke-miterlimit="10"/></g><g transform="translate(10,2) scale(1,1)"><g><path fill="none" stroke="none"/><text fill="#000000" stroke="none" font-family="Arial" font-size="32px" font-style="normal" font-weight="normal" text-decoration="none" x="1274.5" y="1033">10 : Demettre(idpatron,idemployer)</text></g></g><g transform="translate(10,2) scale(1,1)"><rect fill="#ffffff" stroke="none" x="1823" y="1032" width="13" height="28"/></g><g transform="translate(10,2) scale(1,1)"><path fill="none" stroke="#000000" d="M 1823 1032 L 1836 1032 L 1836 1060 L 1823 1060 L 1823 1032 Z Z" stroke-miterlimit="10"/></g><g transform="translate(10,2) scale(1,1)"><path fill="none" stroke="#000000" d="M 472 680 L 1920 680 L 1920 1136 L 472 1136 L 472 680" stroke-miterlimit="10"/></g><g transform="translate(10,2) scale(1,1)"><path fill="#ffffff" stroke="none" d="M 472 680 L 472 721 L 770.875 721 L 791.375 700.5 L 791.375 680 L 472 680"/></g><g transform="translate(10,2) scale(1,1)"><path fill="none" stroke="#000000" d="M 472 680 L 472 721 L 770.875 721 L 791.375 700.5 L 791.375 680 L 472 680 L 472 680" stroke-miterlimit="10"/></g><g transform="translate(10,2) scale(1,1)"><g><path fill="none" stroke="none"/><text fill="#000000" stroke="none" font-family="Arial" font-size="32px" font-style="normal" font-weight="normal" text-decoration="none" x="516.796875" y="712">boutton == definir</text></g></g><g transform="translate(10,2) scale(1,1)"><g><path fill="none" stroke="none"/><text fill="#000000" stroke="none" font-family="Arial" font-size="32px" font-style="normal" font-weight="bold" text-decoration="none" x="475.2265625" y="712">alt</text></g></g><g transform="translate(10,2) scale(1,1)"><path fill="none" stroke="#000000" d="M 472 908 L 1920 908" stroke-miterlimit="10" stroke-dasharray="10,3"/></g><g transform="translate(10,2) scale(1,1)"><path fill="none" stroke="#000000" d="M 488 936 L 1904 936 L 1904 1103 L 488 1103 L 488 936" stroke-miterlimit="10"/></g><g transform="translate(10,2) scale(1,1)"><path fill="#ffffff" stroke="none" d="M 488 936 L 488 977 L 826 977 L 846.5 956.5 L 846.5 936 L 488 936"/></g><g transform="translate(10,2) scale(1,1)"><path fill="none" stroke="#000000" d="M 488 936 L 488 977 L 826 977 L 846.5 956.5 L 846.5 936 L 488 936 L 488 936" stroke-miterlimit="10"/></g><g transform="translate(10,2) scale(1,1)"><g><path fill="none" stroke="none"/><text fill="#000000" stroke="none" font-family="Arial" font-size="32px" font-style="normal" font-weight="normal" text-decoration="none" x="532.796875" y="968">boutton == demettre</text></g></g><g transform="translate(10,2) scale(1,1)"><g><path fill="none" stroke="none"/><text fill="#000000" stroke="none" font-family="Arial" font-size="32px" font-style="normal" font-weight="bold" text-decoration="none" x="491.2265625" y="968">alt</text></g></g></g></svg>