<svg version="1.1" xmlns="http://www.w3.org/2000/svg" xmlns:xlink="http://www.w3.org/1999/xlink" width="2596" height="1324"><defs/><g><g transform="translate(-14,10) scale(1,1)"><path fill="none" stroke="#000000" d="M 24 0 L 2600 0 L 2600 1304 L 24 1304 L 24 0" stroke-miterlimit="10"/></g><g transform="translate(-14,10) scale(1,1)"><path fill="#ffffff" stroke="none" d="M 24 0 L 24 41 L 321.0625 41 L 341.5625 20.5 L 341.5625 0 L 24 0"/></g><g transform="translate(-14,10) scale(1,1)"><path fill="none" stroke="#000000" d="M 24 0 L 24 41 L 321.0625 41 L 341.5625 20.5 L 341.5625 0 L 24 0 L 24 0" stroke-miterlimit="10"/></g><g transform="translate(-14,10) scale(1,1)"><g><path fill="none" stroke="none"/><text fill="#000000" stroke="none" font-family="Arial" font-size="32px" font-style="normal" font-weight="normal" text-decoration="none" x="68.796875" y="32">Ajouter au Panier</text></g></g><g transform="translate(-14,10) scale(1,1)"><g><path fill="none" stroke="none"/><text fill="#000000" stroke="none" font-family="Arial" font-size="32px" font-style="normal" font-weight="bold" text-decoration="none" x="27.2265625" y="32">sd</text></g></g><g transform="translate(-14,10) scale(1,1)"><path fill="#ffffff" stroke="none" d="M 327.438096590909 47.3 C 327.438096590909 43.82060576 330.3164983130909 41 333.8671875 41 C 337.4178766869091 41 340.2962784090909 43.82060576 340.2962784090909 47.3 C 340.2962784090909 50.779394239999995 337.4178766869091 53.6 333.8671875 53.6 C 330.3164983130909 53.6 327.438096590909 50.779394239999995 327.438096590909 47.3 Z"/></g><g transform="translate(-14,10) scale(1,1)"><path fill="none" stroke="#000000" d="M 327.438096590909 47.3 C 327.438096590909 43.82060576 330.3164983130909 41 333.8671875 41 C 337.4178766869091 41 340.2962784090909 43.82060576 340.2962784090909 47.3 C 340.2962784090909 50.779394239999995 337.4178766869091 53.6 333.8671875 53.6 C 330.3164983130909 53.6 327.438096590909 50.779394239999995 327.438096590909 47.3 Z" stroke-miterlimit="10"/></g><g transform="translate(-14,10) scale(1,1)"><path fill="none" stroke="#000000" d="M 333.8671875 53.6 L 333.8671875 66.4" stroke-miterlimit="10"/></g><g transform="translate(-14,10) scale(1,1)"><path fill="none" stroke="#000000" d="M 327.0599147727272 58.4 L 340.67446022727273 58.4" stroke-miterlimit="10"/></g><g transform="translate(-14,10) scale(1,1)"><path fill="none" stroke="#000000" d="M 333.8671875 66.4 L 324.4126420454545 79" stroke-miterlimit="10"/></g><g transform="translate(-14,10) scale(1,1)"><path fill="none" stroke="#000000" d="M 333.8671875 66.4 L 343.32173295454544 79" stroke-miterlimit="10"/></g><g transform="translate(-14,10) scale(1,1)"><g><path fill="none" stroke="none"/><text fill="#000000" stroke="none" font-family="Arial" font-size="32px" font-style="normal" font-weight="bold" text-decoration="none" x="200.5" y="113.5">Personne: Actor1</text></g></g><g transform="translate(-14,10) scale(1,1)"><path fill="none" stroke="#000000" d="M 334.5 124 L 334.5 1192" stroke-miterlimit="10" stroke-dasharray="3"/></g><g transform="translate(-14,10) scale(1,1)"><rect fill="#C0C0C0" stroke="none" x="767" y="47" width="271" height="39" opacity="0.2"/></g><g transform="translate(-14,10) scale(1,1)"><rect fill="#ffffff" stroke="none" x="760" y="40" width="271" height="39"/></g><g transform="translate(-14,10) scale(1,1)"><path fill="none" stroke="#000000" d="M 760 40 L 1031 40 L 1031 79 L 760 79 L 760 40 Z Z" stroke-miterlimit="10"/></g><g transform="translate(-14,10) scale(1,1)"><g><path fill="none" stroke="none"/><text fill="#000000" stroke="none" font-family="Arial" font-size="32px" font-style="normal" font-weight="bold" text-decoration="none" x="895.5" y="62.5"></text></g></g><g transform="translate(-14,10) scale(1,1)"><path fill="none" stroke="#000000" d="M 896.5 80 L 896.5 1248" stroke-miterlimit="10" stroke-dasharray="3"/></g><g transform="translate(-14,10) scale(1,1)"><rect fill="#C0C0C0" stroke="none" x="1551" y="347" width="359" height="39" opacity="0.2"/></g><g transform="translate(-14,10) scale(1,1)"><rect fill="#ffffff" stroke="none" x="1544" y="340" width="359" height="39"/></g><g transform="translate(-14,10) scale(1,1)"><path fill="none" stroke="#000000" d="M 1544 340 L 1903 340 L 1903 379 L 1544 379 L 1544 340 Z Z" stroke-miterlimit="10"/></g><g transform="translate(-14,10) scale(1,1)"><g><path fill="none" stroke="none"/><text fill="#000000" stroke="none" font-family="Arial" font-size="32px" font-style="normal" font-weight="bold" text-decoration="none" x="1669.2578125" y="374">:Panier</text></g></g><g transform="translate(-14,10) scale(1,1)"><path fill="none" stroke="#000000" d="M 1724.5 380 L 1724.5 1248" stroke-miterlimit="10" stroke-dasharray="3"/></g><g transform="translate(-14,10) scale(1,1)"><path fill="#ffffff" stroke="none" d="M 1256 576 L 1581 576 L 1591 586 L 1591 711 L 1256 711 L 1256 576"/></g><g transform="translate(-14,10) scale(1,1)"><path fill="none" stroke="#000000" d="M 1256 576 L 1581 576 L 1591 586 L 1591 711 L 1256 711 L 1256 576 L 1256 576" stroke-miterlimit="10"/></g><g transform="translate(-14,10) scale(1,1)"><path fill="none" stroke="#000000" d="M 1581 576 L 1581 586 L 1591 586 L 1581 576" stroke-miterlimit="10"/></g><g transform="translate(-14,10) scale(1,1)"><g><path fill="none" stroke="none"/><text fill="#000000" stroke="none" font-family="Arial" font-size="32px" font-style="normal" font-weight="normal" text-decoration="none" x="1261" y="605">la quantité est</text><text fill="#000000" stroke="none" font-family="Arial" font-size="32px" font-style="normal" font-weight="normal" text-decoration="none" x="1261" y="637">numérique et</text><text fill="#000000" stroke="none" font-family="Arial" font-size="32px" font-style="normal" font-weight="normal" text-decoration="none" x="1261" y="669">suppérieur à 0</text></g></g><g transform="translate(-14,10) scale(1,1)"><path fill="none" stroke="#000000" d="M 926 682 L 1255 657" stroke-miterlimit="10" stroke-dasharray="3"/></g><g transform="translate(-14,10) scale(1,1)"><rect fill="#C0C0C0" stroke="none" x="2263" y="47" width="205.640625" height="39" opacity="0.2"/></g><g transform="translate(-14,10) scale(1,1)"><rect fill="#ffffff" stroke="none" x="2256" y="40" width="205.640625" height="39"/></g><g transform="translate(-14,10) scale(1,1)"><path fill="none" stroke="#000000" d="M 2256 40 L 2461.640625 40 L 2461.640625 79 L 2256 79 L 2256 40 Z Z" stroke-miterlimit="10"/></g><g transform="translate(-14,10) scale(1,1)"><g><path fill="none" stroke="none"/><text fill="#000000" stroke="none" font-family="Arial" font-size="32px" font-style="normal" font-weight="bold" text-decoration="none" x="2265.5" y="74">:Notification</text></g></g><g transform="translate(-14,10) scale(1,1)"><path fill="none" stroke="#000000" d="M 2359.5 80 L 2359.5 1232" stroke-miterlimit="10" stroke-dasharray="3"/></g><g transform="translate(-14,10) scale(1,1)"><path fill="none" stroke="#000000" d="M 334 161 L 889 161" stroke-miterlimit="10"/></g><g transform="translate(-14,10) scale(1,1)"><path fill="#000000" stroke="none" d="M 878.8373251423759 165.209517756016 L 889 161 L 878.8373251423758 156.790482243984"/></g><g transform="translate(-14,10) scale(1,1)"><path fill="none" stroke="#000000" d="M 878.8373251423759 165.209517756016 L 889 161 L 878.8373251423758 156.790482243984 L 878.8373251423759 165.209517756016" stroke-miterlimit="10"/></g><g transform="translate(-14,10) scale(1,1)"><g><path fill="none" stroke="none"/><text fill="#000000" stroke="none" font-family="Arial" font-size="32px" font-style="normal" font-weight="normal" text-decoration="none" x="355.5" y="162">1 : Cliquer boutton ajouter au panier</text></g></g><g transform="translate(-14,10) scale(1,1)"><rect fill="#ffffff" stroke="none" x="889" y="161" width="13" height="28"/></g><g transform="translate(-14,10) scale(1,1)"><path fill="none" stroke="#000000" d="M 889 161 L 902 161 L 902 189 L 889 189 L 889 161 Z Z" stroke-miterlimit="10"/></g><g transform="translate(-14,10) scale(1,1)"><path fill="none" stroke="#000000" d="M 896 200 L 926 200 L 926 220 L 902 220" stroke-miterlimit="10"/></g><g transform="translate(-14,10) scale(1,1)"><path fill="#000000" stroke="none" d="M 912.1626748576241 215.790482243984 L 902 220 L 912.1626748576241 224.209517756016"/></g><g transform="translate(-14,10) scale(1,1)"><path fill="none" stroke="#000000" d="M 912.1626748576241 215.790482243984 L 902 220 L 912.1626748576241 224.209517756016 L 912.1626748576241 215.790482243984" stroke-miterlimit="10"/></g><g transform="translate(-14,10) scale(1,1)"><g><path fill="none" stroke="none"/><text fill="#000000" stroke="none" font-family="Arial" font-size="32px" font-style="normal" font-weight="normal" text-decoration="none" x="950.5" y="219">2 : getId()</text></g></g><g transform="translate(-14,10) scale(1,1)"><rect fill="#ffffff" stroke="none" x="889" y="220" width="13" height="28"/></g><g transform="translate(-14,10) scale(1,1)"><path fill="none" stroke="#000000" d="M 889 220 L 902 220 L 902 248 L 889 248 L 889 220 Z Z" stroke-miterlimit="10"/></g><g transform="translate(-14,10) scale(1,1)"><path fill="none" stroke="#000000" d="M 896 256 L 926 256 L 926 276 L 902 276" stroke-miterlimit="10"/></g><g transform="translate(-14,10) scale(1,1)"><path fill="#000000" stroke="none" d="M 912.1626748576241 271.790482243984 L 902 276 L 912.1626748576241 280.209517756016"/></g><g transform="translate(-14,10) scale(1,1)"><path fill="none" stroke="#000000" d="M 912.1626748576241 271.790482243984 L 902 276 L 912.1626748576241 280.209517756016 L 912.1626748576241 271.790482243984" stroke-miterlimit="10"/></g><g transform="translate(-14,10) scale(1,1)"><g><path fill="none" stroke="none"/><text fill="#000000" stroke="none" font-family="Arial" font-size="32px" font-style="normal" font-weight="normal" text-decoration="none" x="935.5" y="275">3 : Verifier(quantite)</text></g></g><g transform="translate(-14,10) scale(1,1)"><rect fill="#ffffff" stroke="none" x="889" y="276" width="13" height="28"/></g><g transform="translate(-14,10) scale(1,1)"><path fill="none" stroke="#000000" d="M 889 276 L 902 276 L 902 304 L 889 304 L 889 276 Z Z" stroke-miterlimit="10"/></g><g transform="translate(-14,10) scale(1,1)"><path fill="none" stroke="#000000" d="M 896 360 L 1544 360" stroke-miterlimit="10" stroke-dasharray="3"/></g><g transform="translate(-14,10) scale(1,1)"><path fill="none" stroke="#000000" d="M 1533.837325142376 364.209517756016 L 1544 360 L 1533.837325142376 355.790482243984" stroke-miterlimit="10"/></g><g transform="translate(-14,10) scale(1,1)"><g><path fill="none" stroke="none"/><text fill="#000000" stroke="none" font-family="Arial" font-size="32px" font-style="normal" font-weight="normal" text-decoration="none" x="1119.5" y="361">4 : Enregistrer</text></g></g><g transform="translate(-14,10) scale(1,1)"><g><path fill="none" stroke="none"/><text fill="#000000" stroke="none" font-family="Arial" font-size="32px" font-style="normal" font-weight="normal" text-decoration="none" x="1157.5" y="345">«create»</text></g></g><g transform="translate(-14,10) scale(1,1)"><path fill="none" stroke="#000000" d="M 896 472 L 1717 472" stroke-miterlimit="10"/></g><g transform="translate(-14,10) scale(1,1)"><path fill="#000000" stroke="none" d="M 1706.837325142376 476.209517756016 L 1717 472 L 1706.837325142376 467.790482243984"/></g><g transform="translate(-14,10) scale(1,1)"><path fill="none" stroke="#000000" d="M 1706.837325142376 476.209517756016 L 1717 472 L 1706.837325142376 467.790482243984 L 1706.837325142376 476.209517756016" stroke-miterlimit="10"/></g><g transform="translate(-14,10) scale(1,1)"><g><path fill="none" stroke="none"/><text fill="#000000" stroke="none" font-family="Arial" font-size="32px" font-style="normal" font-weight="normal" text-decoration="none" x="1209.5" y="473">5 : Clignoter()</text></g></g><g transform="translate(-14,10) scale(1,1)"><rect fill="#ffffff" stroke="none" x="1717" y="472" width="13" height="28"/></g><g transform="translate(-14,10) scale(1,1)"><path fill="none" stroke="#000000" d="M 1717 472 L 1730 472 L 1730 500 L 1717 500 L 1717 472 Z Z" stroke-miterlimit="10"/></g><g transform="translate(-14,10) scale(1,1)"><path fill="none" stroke="#000000" d="M 334 567 L 889 567" stroke-miterlimit="10"/></g><g transform="translate(-14,10) scale(1,1)"><path fill="#000000" stroke="none" d="M 878.8373251423759 571.209517756016 L 889 567 L 878.8373251423758 562.790482243984"/></g><g transform="translate(-14,10) scale(1,1)"><path fill="none" stroke="#000000" d="M 878.8373251423759 571.209517756016 L 889 567 L 878.8373251423758 562.790482243984 L 878.8373251423759 571.209517756016" stroke-miterlimit="10"/></g><g transform="translate(-14,10) scale(1,1)"><g><path fill="none" stroke="none"/><text fill="#000000" stroke="none" font-family="Arial" font-size="32px" font-style="normal" font-weight="normal" text-decoration="none" x="483.5" y="568.5">6 : Saisie quantité</text></g></g><g transform="translate(-14,10) scale(1,1)"><rect fill="#ffffff" stroke="none" x="889" y="567" width="13" height="28"/></g><g transform="translate(-14,10) scale(1,1)"><path fill="none" stroke="#000000" d="M 889 567 L 902 567 L 902 595 L 889 595 L 889 567 Z Z" stroke-miterlimit="10"/></g><g transform="translate(-14,10) scale(1,1)"><path fill="none" stroke="#000000" d="M 896 608 L 926 608 L 926 628 L 902 628" stroke-miterlimit="10"/></g><g transform="translate(-14,10) scale(1,1)"><path fill="#000000" stroke="none" d="M 912.1626748576241 623.790482243984 L 902 628 L 912.1626748576241 632.209517756016"/></g><g transform="translate(-14,10) scale(1,1)"><path fill="none" stroke="#000000" d="M 912.1626748576241 623.790482243984 L 902 628 L 912.1626748576241 632.209517756016 L 912.1626748576241 623.790482243984" stroke-miterlimit="10"/></g><g transform="translate(-14,10) scale(1,1)"><g><path fill="none" stroke="none"/><text fill="#000000" stroke="none" font-family="Arial" font-size="32px" font-style="normal" font-weight="normal" text-decoration="none" x="913.5" y="628">7 : getId()</text></g></g><g transform="translate(-14,10) scale(1,1)"><rect fill="#ffffff" stroke="none" x="889" y="628" width="13" height="28"/></g><g transform="translate(-14,10) scale(1,1)"><path fill="none" stroke="#000000" d="M 889 628 L 902 628 L 902 656 L 889 656 L 889 628 Z Z" stroke-miterlimit="10"/></g><g transform="translate(-14,10) scale(1,1)"><path fill="none" stroke="#000000" d="M 896 672 L 926 672 L 926 692 L 902 692" stroke-miterlimit="10"/></g><g transform="translate(-14,10) scale(1,1)"><path fill="#000000" stroke="none" d="M 912.1626748576241 687.790482243984 L 902 692 L 912.1626748576241 696.209517756016"/></g><g transform="translate(-14,10) scale(1,1)"><path fill="none" stroke="#000000" d="M 912.1626748576241 687.790482243984 L 902 692 L 912.1626748576241 696.209517756016 L 912.1626748576241 687.790482243984" stroke-miterlimit="10"/></g><g transform="translate(-14,10) scale(1,1)"><g><path fill="none" stroke="none"/><text fill="#000000" stroke="none" font-family="Arial" font-size="32px" font-style="normal" font-weight="normal" text-decoration="none" x="868.5" y="692">8 : Verifier(quantite)</text></g></g><g transform="translate(-14,10) scale(1,1)"><rect fill="#ffffff" stroke="none" x="889" y="692" width="13" height="28"/></g><g transform="translate(-14,10) scale(1,1)"><path fill="none" stroke="#000000" d="M 889 692 L 902 692 L 902 720 L 889 720 L 889 692 Z Z" stroke-miterlimit="10"/></g><g transform="translate(-14,10) scale(1,1)"><path fill="none" stroke="#000000" d="M 896 816 L 1717 816" stroke-miterlimit="10"/></g><g transform="translate(-14,10) scale(1,1)"><path fill="#000000" stroke="none" d="M 1706.837325142376 820.209517756016 L 1717 816 L 1706.837325142376 811.790482243984"/></g><g transform="translate(-14,10) scale(1,1)"><path fill="none" stroke="#000000" d="M 1706.837325142376 820.209517756016 L 1717 816 L 1706.837325142376 811.790482243984 L 1706.837325142376 820.209517756016" stroke-miterlimit="10"/></g><g transform="translate(-14,10) scale(1,1)"><g><path fill="none" stroke="none"/><text fill="#000000" stroke="none" font-family="Arial" font-size="32px" font-style="normal" font-weight="normal" text-decoration="none" x="1091.5" y="817">9 : Enregistrer(quantite,indice)</text></g></g><g transform="translate(-14,10) scale(1,1)"><rect fill="#ffffff" stroke="none" x="1717" y="816" width="13" height="28"/></g><g transform="translate(-14,10) scale(1,1)"><path fill="none" stroke="#000000" d="M 1717 816 L 1730 816 L 1730 844 L 1717 844 L 1717 816 Z Z" stroke-miterlimit="10"/></g><g transform="translate(-14,10) scale(1,1)"><path fill="none" stroke="#000000" d="M 2359 912 L 896 912" stroke-miterlimit="10" stroke-dasharray="3"/></g><g transform="translate(-14,10) scale(1,1)"><path fill="none" stroke="#000000" d="M 906.1626748576241 907.790482243984 L 896 912 L 906.1626748576241 916.209517756016" stroke-miterlimit="10"/></g><g transform="translate(-14,10) scale(1,1)"><g><path fill="none" stroke="none"/><text fill="#000000" stroke="none" font-family="Arial" font-size="32px" font-style="normal" font-weight="normal" text-decoration="none" x="1497.5" y="933">10 : Reinitialliser()</text></g></g><g transform="translate(-14,10) scale(1,1)"><path fill="none" stroke="#000000" d="M 2359 968 L 896 968" stroke-miterlimit="10" stroke-dasharray="3"/></g><g transform="translate(-14,10) scale(1,1)"><path fill="none" stroke="#000000" d="M 906.1626748576241 963.790482243984 L 896 968 L 906.1626748576241 972.209517756016" stroke-miterlimit="10"/></g><g transform="translate(-14,10) scale(1,1)"><g><path fill="none" stroke="none"/><text fill="#000000" stroke="none" font-family="Arial" font-size="32px" font-style="normal" font-weight="normal" text-decoration="none" x="1473.5" y="989">11 : Alerter(message)</text></g></g><g transform="translate(-14,10) scale(1,1)"><path fill="none" stroke="#000000" d="M 792 744 L 2472 744 L 2472 1040 L 792 1040 L 792 744" stroke-miterlimit="10"/></g><g transform="translate(-14,10) scale(1,1)"><path fill="#ffffff" stroke="none" d="M 792 744 L 792 785 L 1186.875 785 L 1207.375 764.5 L 1207.375 744 L 792 744"/></g><g transform="translate(-14,10) scale(1,1)"><path fill="none" stroke="#000000" d="M 792 744 L 792 785 L 1186.875 785 L 1207.375 764.5 L 1207.375 744 L 792 744 L 792 744" stroke-miterlimit="10"/></g><g transform="translate(-14,10) scale(1,1)"><g><path fill="none" stroke="none"/><text fill="#000000" stroke="none" font-family="Arial" font-size="32px" font-style="normal" font-weight="normal" text-decoration="none" x="836.796875" y="776">Verifier(quantite) == true</text></g></g><g transform="translate(-14,10) scale(1,1)"><g><path fill="none" stroke="none"/><text fill="#000000" stroke="none" font-family="Arial" font-size="32px" font-style="normal" font-weight="bold" text-decoration="none" x="795.2265625" y="776">alt</text></g></g><g transform="translate(-14,10) scale(1,1)"><path fill="none" stroke="#000000" d="M 792 900 L 2472 900" stroke-miterlimit="10" stroke-dasharray="10,3"/></g></g></svg>