<svg version="1.1" xmlns="http://www.w3.org/2000/svg" xmlns:xlink="http://www.w3.org/1999/xlink" width="1796" height="708"><defs/><g><g transform="translate(-22,-14) scale(1,1)"><path fill="none" stroke="#000000" d="M 32 24 L 1808 24 L 1808 712 L 32 712 L 32 24" stroke-miterlimit="10"/></g><g transform="translate(-22,-14) scale(1,1)"><path fill="#ffffff" stroke="none" d="M 32 24 L 32 65 L 498.578125 65 L 519.078125 44.5 L 519.078125 24 L 32 24"/></g><g transform="translate(-22,-14) scale(1,1)"><path fill="none" stroke="#000000" d="M 32 24 L 32 65 L 498.578125 65 L 519.078125 44.5 L 519.078125 24 L 32 24 L 32 24" stroke-miterlimit="10"/></g><g transform="translate(-22,-14) scale(1,1)"><g><path fill="none" stroke="none"/><text fill="#000000" stroke="none" font-family="Arial" font-size="32px" font-style="normal" font-weight="normal" text-decoration="none" x="76.796875" y="56">ArreterTransitionAutomatique</text></g></g><g transform="translate(-22,-14) scale(1,1)"><g><path fill="none" stroke="none"/><text fill="#000000" stroke="none" font-family="Arial" font-size="32px" font-style="normal" font-weight="bold" text-decoration="none" x="35.2265625" y="56">sd</text></g></g><g transform="translate(-22,-14) scale(1,1)"><rect fill="#C0C0C0" stroke="none" x="663" y="47" width="143" height="39" opacity="0.2"/></g><g transform="translate(-22,-14) scale(1,1)"><rect fill="#ffffff" stroke="none" x="656" y="40" width="143" height="39"/></g><g transform="translate(-22,-14) scale(1,1)"><path fill="none" stroke="#000000" d="M 656 40 L 799 40 L 799 79 L 656 79 L 656 40 Z Z" stroke-miterlimit="10"/></g><g transform="translate(-22,-14) scale(1,1)"><g><path fill="none" stroke="none"/><text fill="#000000" stroke="none" font-family="Arial" font-size="32px" font-style="normal" font-weight="bold" text-decoration="none" x="727.5" y="62.5"></text></g></g><g transform="translate(-22,-14) scale(1,1)"><path fill="none" stroke="#000000" d="M 728.5 80 L 728.5 664" stroke-miterlimit="10" stroke-dasharray="3"/></g><g transform="translate(-22,-14) scale(1,1)"><path fill="#ffffff" stroke="none" d="M 251.43809659090908 47.3 C 251.43809659090908 43.82060576 254.3164983130909 41 257.8671875 41 C 261.4178766869091 41 264.2962784090909 43.82060576 264.2962784090909 47.3 C 264.2962784090909 50.779394239999995 261.4178766869091 53.6 257.8671875 53.6 C 254.3164983130909 53.6 251.43809659090908 50.779394239999995 251.43809659090908 47.3 Z"/></g><g transform="translate(-22,-14) scale(1,1)"><path fill="none" stroke="#000000" d="M 251.43809659090908 47.3 C 251.43809659090908 43.82060576 254.3164983130909 41 257.8671875 41 C 261.4178766869091 41 264.2962784090909 43.82060576 264.2962784090909 47.3 C 264.2962784090909 50.779394239999995 261.4178766869091 53.6 257.8671875 53.6 C 254.3164983130909 53.6 251.43809659090908 50.779394239999995 251.43809659090908 47.3 Z" stroke-miterlimit="10"/></g><g transform="translate(-22,-14) scale(1,1)"><path fill="none" stroke="#000000" d="M 257.8671875 53.6 L 257.8671875 66.4" stroke-miterlimit="10"/></g><g transform="translate(-22,-14) scale(1,1)"><path fill="none" stroke="#000000" d="M 251.05991477272727 58.4 L 264.67446022727273 58.4" stroke-miterlimit="10"/></g><g transform="translate(-22,-14) scale(1,1)"><path fill="none" stroke="#000000" d="M 257.8671875 66.4 L 248.41264204545453 79" stroke-miterlimit="10"/></g><g transform="translate(-22,-14) scale(1,1)"><path fill="none" stroke="#000000" d="M 257.8671875 66.4 L 267.32173295454544 79" stroke-miterlimit="10"/></g><g transform="translate(-22,-14) scale(1,1)"><g><path fill="none" stroke="none"/><text fill="#000000" stroke="none" font-family="Arial" font-size="32px" font-style="normal" font-weight="bold" text-decoration="none" x="124.5" y="113.5">Personne: Actor1</text></g></g><g transform="translate(-22,-14) scale(1,1)"><path fill="none" stroke="#000000" d="M 258.5 124 L 258.5 656" stroke-miterlimit="10" stroke-dasharray="3"/></g><g transform="translate(-22,-14) scale(1,1)"><rect fill="#C0C0C0" stroke="none" x="975" y="47" width="159" height="39" opacity="0.2"/></g><g transform="translate(-22,-14) scale(1,1)"><rect fill="#ffffff" stroke="none" x="968" y="40" width="159" height="39"/></g><g transform="translate(-22,-14) scale(1,1)"><path fill="none" stroke="#000000" d="M 968 40 L 1127 40 L 1127 79 L 968 79 L 968 40 Z Z" stroke-miterlimit="10"/></g><g transform="translate(-22,-14) scale(1,1)"><g><path fill="none" stroke="none"/><text fill="#000000" stroke="none" font-family="Arial" font-size="32px" font-style="normal" font-weight="bold" text-decoration="none" x="992.375" y="74">:Article</text></g></g><g transform="translate(-22,-14) scale(1,1)"><path fill="none" stroke="#000000" d="M 1048.5 80 L 1048.5 648" stroke-miterlimit="10" stroke-dasharray="3"/></g><g transform="translate(-22,-14) scale(1,1)"><rect fill="#C0C0C0" stroke="none" x="1415" y="47" width="207" height="39" opacity="0.2"/></g><g transform="translate(-22,-14) scale(1,1)"><rect fill="#ffffff" stroke="none" x="1408" y="40" width="207" height="39"/></g><g transform="translate(-22,-14) scale(1,1)"><path fill="none" stroke="#000000" d="M 1408 40 L 1615 40 L 1615 79 L 1408 79 L 1408 40 Z Z" stroke-miterlimit="10"/></g><g transform="translate(-22,-14) scale(1,1)"><g><path fill="none" stroke="none"/><text fill="#000000" stroke="none" font-family="Arial" font-size="32px" font-style="normal" font-weight="bold" text-decoration="none" x="1483.0625" y="73.5">:BD</text></g></g><g transform="translate(-22,-14) scale(1,1)"><path fill="none" stroke="#000000" d="M 1512.5 80 L 1512.5 664" stroke-miterlimit="10" stroke-dasharray="3"/></g><g transform="translate(-22,-14) scale(1,1)"><path fill="none" stroke="#000000" d="M 720 488 L 733 488" stroke-miterlimit="10"/></g><g transform="translate(-22,-14) scale(1,1)"><path fill="none" stroke="#000000" d="M 720 552 L 733 552" stroke-miterlimit="10"/></g><g transform="translate(-22,-14) scale(1,1)"><path fill="none" stroke="#000000" d="M 727 488 L 727 552" stroke-miterlimit="10"/></g><g transform="translate(-22,-14) scale(1,1)"><path fill="none" stroke="#000000" d="M 727 488 L 723 496" stroke-miterlimit="10"/></g><g transform="translate(-22,-14) scale(1,1)"><path fill="none" stroke="#000000" d="M 727 488 L 731 496" stroke-miterlimit="10"/></g><g transform="translate(-22,-14) scale(1,1)"><path fill="none" stroke="#000000" d="M 727 552 L 723 544" stroke-miterlimit="10"/></g><g transform="translate(-22,-14) scale(1,1)"><path fill="none" stroke="#000000" d="M 727 552 L 731 544" stroke-miterlimit="10"/></g><g transform="translate(-22,-14) scale(1,1)"><g><path fill="none" stroke="none"/><text fill="#000000" stroke="none" font-family="Arial" font-size="32px" font-style="normal" font-weight="normal" text-decoration="none" x="673.625" y="516">{0..0}</text></g></g><g transform="translate(-22,-14) scale(1,1)"><path fill="none" stroke="#000000" d="M 258 168 L 721 168" stroke-miterlimit="10"/></g><g transform="translate(-22,-14) scale(1,1)"><path fill="#000000" stroke="none" d="M 710.8373251423759 172.209517756016 L 721 168 L 710.8373251423758 163.790482243984"/></g><g transform="translate(-22,-14) scale(1,1)"><path fill="none" stroke="#000000" d="M 710.8373251423759 172.209517756016 L 721 168 L 710.8373251423758 163.790482243984 L 710.8373251423759 172.209517756016" stroke-miterlimit="10"/></g><g transform="translate(-22,-14) scale(1,1)"><g><path fill="none" stroke="none"/><text fill="#000000" stroke="none" font-family="Arial" font-size="32px" font-style="normal" font-weight="normal" text-decoration="none" x="245.5" y="169">1 : Click option Suiivant/Precedent</text></g></g><g transform="translate(-22,-14) scale(1,1)"><rect fill="#ffffff" stroke="none" x="721" y="168" width="13" height="28"/></g><g transform="translate(-22,-14) scale(1,1)"><path fill="none" stroke="#000000" d="M 721 168 L 734 168 L 734 196 L 721 196 L 721 168 Z Z" stroke-miterlimit="10"/></g><g transform="translate(-22,-14) scale(1,1)"><rect fill="#ffffff" stroke="none" x="944" y="200" width="615" height="87"/></g><g transform="translate(-22,-14) scale(1,1)"><path fill="none" stroke="#000000" d="M 944 200 L 1559 200 L 1559 287 L 944 287 L 944 200 Z Z" stroke-miterlimit="10"/></g><g transform="translate(-22,-14) scale(1,1)"><path fill="none" stroke="#000000" d="M 944 200 L 944 241 L 991.34375 241 L 1011.84375 220.5 L 1011.84375 200 L 944 200 L 944 200" stroke-miterlimit="10"/></g><g transform="translate(-22,-14) scale(1,1)"><g><path fill="none" stroke="none"/><text fill="#000000" stroke="none" font-family="Arial" font-size="32px" font-style="normal" font-weight="normal" text-decoration="none" x="1285.421875" y="220.5"></text></g></g><g transform="translate(-22,-14) scale(1,1)"><g><path fill="none" stroke="none"/><text fill="#000000" stroke="none" font-family="Arial" font-size="32px" font-style="normal" font-weight="bold" text-decoration="none" x="947.21875" y="232">ref</text></g></g><g transform="translate(-22,-14) scale(1,1)"><path fill="none" stroke="#000000" d="M 1048 248 L 1505 248" stroke-miterlimit="10"/></g><g transform="translate(-22,-14) scale(1,1)"><path fill="#000000" stroke="none" d="M 1494.837325142376 252.209517756016 L 1505 248 L 1494.837325142376 243.790482243984"/></g><g transform="translate(-22,-14) scale(1,1)"><path fill="none" stroke="#000000" d="M 1494.837325142376 252.209517756016 L 1505 248 L 1494.837325142376 243.790482243984 L 1494.837325142376 252.209517756016" stroke-miterlimit="10"/></g><g transform="translate(-22,-14) scale(1,1)"><g><path fill="none" stroke="none"/><text fill="#000000" stroke="none" font-family="Arial" font-size="32px" font-style="normal" font-weight="normal" text-decoration="none" x="1189.5" y="249">2 : Afficher()</text></g></g><g transform="translate(-22,-14) scale(1,1)"><rect fill="#ffffff" stroke="none" x="1505" y="248" width="13" height="28"/></g><g transform="translate(-22,-14) scale(1,1)"><path fill="none" stroke="#000000" d="M 1505 248 L 1518 248 L 1518 276 L 1505 276 L 1505 248 Z Z" stroke-miterlimit="10"/></g><g transform="translate(-22,-14) scale(1,1)"><path fill="none" stroke="#000000" d="M 728 343 L 1041 343" stroke-miterlimit="10"/></g><g transform="translate(-22,-14) scale(1,1)"><path fill="#000000" stroke="none" d="M 1030.837325142376 347.209517756016 L 1041 343 L 1030.837325142376 338.790482243984"/></g><g transform="translate(-22,-14) scale(1,1)"><path fill="none" stroke="#000000" d="M 1030.837325142376 347.209517756016 L 1041 343 L 1030.837325142376 338.790482243984 L 1030.837325142376 347.209517756016" stroke-miterlimit="10"/></g><g transform="translate(-22,-14) scale(1,1)"><g><path fill="none" stroke="none"/><text fill="#000000" stroke="none" font-family="Arial" font-size="32px" font-style="normal" font-weight="normal" text-decoration="none" x="727.5" y="344">3 : nombre_image = 4</text></g></g><g transform="translate(-22,-14) scale(1,1)"><rect fill="#ffffff" stroke="none" x="1041" y="343" width="13" height="28"/></g><g transform="translate(-22,-14) scale(1,1)"><path fill="none" stroke="#000000" d="M 1041 343 L 1054 343 L 1054 371 L 1041 371 L 1041 343 Z Z" stroke-miterlimit="10"/></g><g transform="translate(-22,-14) scale(1,1)"><path fill="none" stroke="#000000" d="M 400 416 L 1560 416 L 1560 575 L 400 575 L 400 416" stroke-miterlimit="10"/></g><g transform="translate(-22,-14) scale(1,1)"><path fill="#ffffff" stroke="none" d="M 400 416 L 400 457 L 791.359375 457 L 811.859375 436.5 L 811.859375 416 L 400 416"/></g><g transform="translate(-22,-14) scale(1,1)"><path fill="none" stroke="#000000" d="M 400 416 L 400 457 L 791.359375 457 L 811.859375 436.5 L 811.859375 416 L 400 416 L 400 416" stroke-miterlimit="10"/></g><g transform="translate(-22,-14) scale(1,1)"><g><path fill="none" stroke="none"/><text fill="#000000" stroke="none" font-family="Arial" font-size="32px" font-style="normal" font-weight="normal" text-decoration="none" x="462.59375" y="448">Page accueille ouverte</text></g></g><g transform="translate(-22,-14) scale(1,1)"><g><path fill="none" stroke="none"/><text fill="#000000" stroke="none" font-family="Arial" font-size="32px" font-style="normal" font-weight="bold" text-decoration="none" x="403.2265625" y="445">seq</text></g></g></g></svg>