<svg version="1.1" xmlns="http://www.w3.org/2000/svg" xmlns:xlink="http://www.w3.org/1999/xlink" width="1276" height="716"><defs/><g><g transform="translate(-6,-62) scale(1,1)"><rect fill="#C0C0C0" stroke="none" x="487" y="407" width="82.79999999999995" height="15" opacity="0.2"/></g><g transform="translate(-6,-62) scale(1,1)"><rect fill="#C0C0C0" stroke="none" x="487" y="421" width="207" height="153" opacity="0.2"/></g><g transform="translate(-6,-62) scale(1,1)"><rect fill="#ffffff" stroke="none" x="480" y="415" width="207" height="152"/></g><g transform="translate(-6,-62) scale(1,1)"><path fill="none" stroke="#000000" d="M 480 415 L 687 415 L 687 567 L 480 567 L 480 415 Z Z" stroke-miterlimit="10"/></g><g transform="translate(-6,-62) scale(1,1)"><rect fill="#ffffff" stroke="none" x="480" y="400" width="82.79999999999995" height="15"/></g><g transform="translate(-6,-62) scale(1,1)"><path fill="none" stroke="#000000" d="M 480 400 L 562.8 400 L 562.8 415 L 480 415 L 480 400 Z Z" stroke-miterlimit="10"/></g><g transform="translate(-6,-62) scale(1,1)"><rect fill="#ffffff" stroke="none" x="480" y="414" width="207" height="153"/></g><g transform="translate(-6,-62) scale(1,1)"><path fill="none" stroke="#000000" d="M 480 414 L 687 414 L 687 567 L 480 567 L 480 414 Z Z" stroke-miterlimit="10"/></g><g transform="translate(-6,-62) scale(1,1)"><g><path fill="none" stroke="none"/><text fill="#000000" stroke="none" font-family="Arial" font-size="32px" font-style="normal" font-weight="bold" text-decoration="none" x="495.5078125" y="449">Notification</text></g></g><g transform="translate(-6,-62) scale(1,1)"><rect fill="#C0C0C0" stroke="none" x="47" y="87" width="201.6" height="15" opacity="0.2"/></g><g transform="translate(-6,-62) scale(1,1)"><rect fill="#C0C0C0" stroke="none" x="47" y="101" width="504" height="226" opacity="0.2"/></g><g transform="translate(-6,-62) scale(1,1)"><rect fill="#ffffff" stroke="none" x="40" y="95" width="504" height="225"/></g><g transform="translate(-6,-62) scale(1,1)"><path fill="none" stroke="#000000" d="M 40 95 L 544 95 L 544 320 L 40 320 L 40 95 Z Z" stroke-miterlimit="10"/></g><g transform="translate(-6,-62) scale(1,1)"><rect fill="#ffffff" stroke="none" x="40" y="80" width="201.6" height="15"/></g><g transform="translate(-6,-62) scale(1,1)"><path fill="none" stroke="#000000" d="M 40 80 L 241.6 80 L 241.6 95 L 40 95 L 40 80 Z Z" stroke-miterlimit="10"/></g><g transform="translate(-6,-62) scale(1,1)"><rect fill="#ffffff" stroke="none" x="40" y="94" width="504" height="226"/></g><g transform="translate(-6,-62) scale(1,1)"><path fill="none" stroke="#000000" d="M 40 94 L 544 94 L 544 320 L 40 320 L 40 94 Z Z" stroke-miterlimit="10"/></g><g transform="translate(-6,-62) scale(1,1)"><path fill="none" stroke="#000000" d="M 232.6 83 L 226.6 90 L 238.6 90 L 232.6 83" stroke-miterlimit="10"/></g><g transform="translate(-6,-62) scale(1,1)"><g><path fill="none" stroke="none"/><text fill="#000000" stroke="none" font-family="Arial" font-size="32px" font-style="normal" font-weight="bold" text-decoration="none" x="219.0859375" y="128.5">Personne</text></g></g><g transform="translate(-6,-62) scale(1,1)"><rect fill="#C0C0C0" stroke="none" x="79" y="135" width="44.1375" height="15" opacity="0.2"/></g><g transform="translate(-6,-62) scale(1,1)"><rect fill="#C0C0C0" stroke="none" x="79" y="149" width="110.34375" height="44" opacity="0.2"/></g><g transform="translate(-6,-62) scale(1,1)"><rect fill="#ffffff" stroke="none" x="72" y="143" width="110.34375" height="43"/></g><g transform="translate(-6,-62) scale(1,1)"><path fill="none" stroke="#000000" d="M 72 143 L 182.34375 143 L 182.34375 186 L 72 186 L 72 143 Z Z" stroke-miterlimit="10"/></g><g transform="translate(-6,-62) scale(1,1)"><rect fill="#ffffff" stroke="none" x="72" y="128" width="44.1375" height="15"/></g><g transform="translate(-6,-62) scale(1,1)"><path fill="none" stroke="#000000" d="M 72 128 L 116.1375 128 L 116.1375 143 L 72 143 L 72 128 Z Z" stroke-miterlimit="10"/></g><g transform="translate(-6,-62) scale(1,1)"><rect fill="#ffffff" stroke="none" x="72" y="142" width="110.34375" height="44"/></g><g transform="translate(-6,-62) scale(1,1)"><path fill="none" stroke="#000000" d="M 72 142 L 182.34375 142 L 182.34375 186 L 72 186 L 72 142 Z Z" stroke-miterlimit="10"/></g><g transform="translate(-6,-62) scale(1,1)"><g><path fill="none" stroke="none"/><text fill="#000000" stroke="none" font-family="Arial" font-size="32px" font-style="normal" font-weight="bold" text-decoration="none" x="76.5" y="176.5">Patron</text></g></g><g transform="translate(-6,-62) scale(1,1)"><rect fill="#C0C0C0" stroke="none" x="831" y="487" width="179.20000000000005" height="15" opacity="0.2"/></g><g transform="translate(-6,-62) scale(1,1)"><rect fill="#C0C0C0" stroke="none" x="831" y="501" width="448" height="274" opacity="0.2"/></g><g transform="translate(-6,-62) scale(1,1)"><rect fill="#ffffff" stroke="none" x="824" y="495" width="448" height="273"/></g><g transform="translate(-6,-62) scale(1,1)"><path fill="none" stroke="#000000" d="M 824 495 L 1272 495 L 1272 768 L 824 768 L 824 495 Z Z" stroke-miterlimit="10"/></g><g transform="translate(-6,-62) scale(1,1)"><rect fill="#ffffff" stroke="none" x="824" y="480" width="179.20000000000005" height="15"/></g><g transform="translate(-6,-62) scale(1,1)"><path fill="none" stroke="#000000" d="M 824 480 L 1003.2 480 L 1003.2 495 L 824 495 L 824 480 Z Z" stroke-miterlimit="10"/></g><g transform="translate(-6,-62) scale(1,1)"><rect fill="#ffffff" stroke="none" x="824" y="494" width="448" height="274"/></g><g transform="translate(-6,-62) scale(1,1)"><path fill="none" stroke="#000000" d="M 824 494 L 1272 494 L 1272 768 L 824 768 L 824 494 Z Z" stroke-miterlimit="10"/></g><g transform="translate(-6,-62) scale(1,1)"><path fill="none" stroke="#000000" d="M 994.2 483 L 988.2 490 L 1000.2 490 L 994.2 483" stroke-miterlimit="10"/></g><g transform="translate(-6,-62) scale(1,1)"><g><path fill="none" stroke="none"/><text fill="#000000" stroke="none" font-family="Arial" font-size="32px" font-style="normal" font-weight="bold" text-decoration="none" x="1005.3125" y="528.5">Vente</text></g></g><g transform="translate(-6,-62) scale(1,1)"><rect fill="#C0C0C0" stroke="none" x="231" y="151" width="39.15625" height="15" opacity="0.2"/></g><g transform="translate(-6,-62) scale(1,1)"><rect fill="#C0C0C0" stroke="none" x="231" y="165" width="97.890625" height="44" opacity="0.2"/></g><g transform="translate(-6,-62) scale(1,1)"><rect fill="#ffffff" stroke="none" x="224" y="159" width="97.890625" height="43"/></g><g transform="translate(-6,-62) scale(1,1)"><path fill="none" stroke="#000000" d="M 224 159 L 321.890625 159 L 321.890625 202 L 224 202 L 224 159 Z Z" stroke-miterlimit="10"/></g><g transform="translate(-6,-62) scale(1,1)"><rect fill="#ffffff" stroke="none" x="224" y="144" width="39.15625" height="15"/></g><g transform="translate(-6,-62) scale(1,1)"><path fill="none" stroke="#000000" d="M 224 144 L 263.15625 144 L 263.15625 159 L 224 159 L 224 144 Z Z" stroke-miterlimit="10"/></g><g transform="translate(-6,-62) scale(1,1)"><rect fill="#ffffff" stroke="none" x="224" y="158" width="97.890625" height="44"/></g><g transform="translate(-6,-62) scale(1,1)"><path fill="none" stroke="#000000" d="M 224 158 L 321.890625 158 L 321.890625 202 L 224 202 L 224 158 Z Z" stroke-miterlimit="10"/></g><g transform="translate(-6,-62) scale(1,1)"><g><path fill="none" stroke="none"/><text fill="#000000" stroke="none" font-family="Arial" font-size="32px" font-style="normal" font-weight="bold" text-decoration="none" x="228.5" y="193">Client</text></g></g><g transform="translate(-6,-62) scale(1,1)"><rect fill="#C0C0C0" stroke="none" x="375" y="151" width="61.93124999999998" height="15" opacity="0.2"/></g><g transform="translate(-6,-62) scale(1,1)"><rect fill="#C0C0C0" stroke="none" x="375" y="165" width="154.828125" height="44" opacity="0.2"/></g><g transform="translate(-6,-62) scale(1,1)"><rect fill="#ffffff" stroke="none" x="368" y="159" width="154.828125" height="43"/></g><g transform="translate(-6,-62) scale(1,1)"><path fill="none" stroke="#000000" d="M 368 159 L 522.828125 159 L 522.828125 202 L 368 202 L 368 159 Z Z" stroke-miterlimit="10"/></g><g transform="translate(-6,-62) scale(1,1)"><rect fill="#ffffff" stroke="none" x="368" y="144" width="61.93124999999998" height="15"/></g><g transform="translate(-6,-62) scale(1,1)"><path fill="none" stroke="#000000" d="M 368 144 L 429.93125 144 L 429.93125 159 L 368 159 L 368 144 Z Z" stroke-miterlimit="10"/></g><g transform="translate(-6,-62) scale(1,1)"><rect fill="#ffffff" stroke="none" x="368" y="158" width="154.828125" height="44"/></g><g transform="translate(-6,-62) scale(1,1)"><path fill="none" stroke="#000000" d="M 368 158 L 522.828125 158 L 522.828125 202 L 368 202 L 368 158 Z Z" stroke-miterlimit="10"/></g><g transform="translate(-6,-62) scale(1,1)"><g><path fill="none" stroke="none"/><text fill="#000000" stroke="none" font-family="Arial" font-size="32px" font-style="normal" font-weight="bold" text-decoration="none" x="372.5" y="193">Employer</text></g></g><g transform="translate(-6,-62) scale(1,1)"><rect fill="#C0C0C0" stroke="none" x="23" y="511" width="121.6" height="15" opacity="0.2"/></g><g transform="translate(-6,-62) scale(1,1)"><rect fill="#C0C0C0" stroke="none" x="23" y="525" width="304" height="225" opacity="0.2"/></g><g transform="translate(-6,-62) scale(1,1)"><rect fill="#ffffff" stroke="none" x="16" y="519" width="304" height="224"/></g><g transform="translate(-6,-62) scale(1,1)"><path fill="none" stroke="#000000" d="M 16 519 L 320 519 L 320 743 L 16 743 L 16 519 Z Z" stroke-miterlimit="10"/></g><g transform="translate(-6,-62) scale(1,1)"><rect fill="#ffffff" stroke="none" x="16" y="504" width="121.6" height="15"/></g><g transform="translate(-6,-62) scale(1,1)"><path fill="none" stroke="#000000" d="M 16 504 L 137.6 504 L 137.6 519 L 16 519 L 16 504 Z Z" stroke-miterlimit="10"/></g><g transform="translate(-6,-62) scale(1,1)"><rect fill="#ffffff" stroke="none" x="16" y="518" width="304" height="225"/></g><g transform="translate(-6,-62) scale(1,1)"><path fill="none" stroke="#000000" d="M 16 518 L 320 518 L 320 743 L 16 743 L 16 518 Z Z" stroke-miterlimit="10"/></g><g transform="translate(-6,-62) scale(1,1)"><path fill="none" stroke="#000000" d="M 128.6 507 L 122.6 514 L 134.6 514 L 128.6 507" stroke-miterlimit="10"/></g><g transform="translate(-6,-62) scale(1,1)"><g><path fill="none" stroke="none"/><text fill="#000000" stroke="none" font-family="Arial" font-size="32px" font-style="normal" font-weight="bold" text-decoration="none" x="46.234375" y="553">Authentification</text></g></g><g transform="translate(-6,-62) scale(1,1)"><rect fill="#C0C0C0" stroke="none" x="31" y="575" width="101.01249999999999" height="15" opacity="0.2"/></g><g transform="translate(-6,-62) scale(1,1)"><rect fill="#C0C0C0" stroke="none" x="31" y="589" width="252.53125" height="50" opacity="0.2"/></g><g transform="translate(-6,-62) scale(1,1)"><rect fill="#ffffff" stroke="none" x="24" y="583" width="252.53125" height="49"/></g><g transform="translate(-6,-62) scale(1,1)"><path fill="none" stroke="#000000" d="M 24 583 L 276.53125 583 L 276.53125 632 L 24 632 L 24 583 Z Z" stroke-miterlimit="10"/></g><g transform="translate(-6,-62) scale(1,1)"><rect fill="#ffffff" stroke="none" x="24" y="568" width="101.0125" height="15"/></g><g transform="translate(-6,-62) scale(1,1)"><path fill="none" stroke="#000000" d="M 24 568 L 125.0125 568 L 125.0125 583 L 24 583 L 24 568 Z Z" stroke-miterlimit="10"/></g><g transform="translate(-6,-62) scale(1,1)"><rect fill="#ffffff" stroke="none" x="24" y="582" width="252.53125" height="50"/></g><g transform="translate(-6,-62) scale(1,1)"><path fill="none" stroke="#000000" d="M 24 582 L 276.53125 582 L 276.53125 632 L 24 632 L 24 582 Z Z" stroke-miterlimit="10"/></g><g transform="translate(-6,-62) scale(1,1)"><g><path fill="none" stroke="none"/><text fill="#000000" stroke="none" font-family="Arial" font-size="32px" font-style="normal" font-weight="bold" text-decoration="none" x="28.5" y="617">Authentification</text></g></g><g transform="translate(-6,-62) scale(1,1)"><path fill="none" stroke="#000000" d="M 171 655 L 162 633" stroke-miterlimit="10" stroke-dasharray="3"/></g><g transform="translate(-6,-62) scale(1,1)"><path fill="none" stroke="#000000" d="M 169.7440288476488 640.8121710943107 L 162 633 L 161.9518161553001 643.9998944684534" stroke-miterlimit="10"/></g><g transform="translate(-6,-62) scale(1,1)"><path fill="none" stroke="#000000" d="M 257 321 L 203 503" stroke-miterlimit="10" stroke-dasharray="3"/></g><g transform="translate(-6,-62) scale(1,1)"><path fill="none" stroke="#000000" d="M 201.85511244116626 492.0597425771773 L 203 503 L 209.92637245505696 494.45451203184814" stroke-miterlimit="10"/></g><g transform="translate(-6,-62) scale(1,1)"><rect fill="#C0C0C0" stroke="none" x="151" y="239" width="54.837500000000006" height="15" opacity="0.2"/></g><g transform="translate(-6,-62) scale(1,1)"><rect fill="#C0C0C0" stroke="none" x="151" y="253" width="137.09375" height="44" opacity="0.2"/></g><g transform="translate(-6,-62) scale(1,1)"><rect fill="#ffffff" stroke="none" x="144" y="247" width="137.09375" height="43"/></g><g transform="translate(-6,-62) scale(1,1)"><path fill="none" stroke="#000000" d="M 144 247 L 281.09375 247 L 281.09375 290 L 144 290 L 144 247 Z Z" stroke-miterlimit="10"/></g><g transform="translate(-6,-62) scale(1,1)"><rect fill="#ffffff" stroke="none" x="144" y="232" width="54.837500000000006" height="15"/></g><g transform="translate(-6,-62) scale(1,1)"><path fill="none" stroke="#000000" d="M 144 232 L 198.8375 232 L 198.8375 247 L 144 247 L 144 232 Z Z" stroke-miterlimit="10"/></g><g transform="translate(-6,-62) scale(1,1)"><rect fill="#ffffff" stroke="none" x="144" y="246" width="137.09375" height="44"/></g><g transform="translate(-6,-62) scale(1,1)"><path fill="none" stroke="#000000" d="M 144 246 L 281.09375 246 L 281.09375 290 L 144 290 L 144 246 Z Z" stroke-miterlimit="10"/></g><g transform="translate(-6,-62) scale(1,1)"><g><path fill="none" stroke="none"/><text fill="#000000" stroke="none" font-family="Arial" font-size="32px" font-style="normal" font-weight="bold" text-decoration="none" x="148.5" y="281">Declarer</text></g></g><g transform="translate(-6,-62) scale(1,1)"><path fill="none" stroke="#000000" d="M 187 231 L 152 187" stroke-miterlimit="10" stroke-dasharray="3"/></g><g transform="translate(-6,-62) scale(1,1)"><path fill="none" stroke="#000000" d="M 161.6208776240823 192.33279605295687 L 152 187 L 155.03213155722386 197.5738440606852" stroke-miterlimit="10"/></g><g transform="translate(-6,-62) scale(1,1)"><path fill="none" stroke="#000000" d="M 367 202 L 282 235" stroke-miterlimit="10" stroke-dasharray="3"/></g><g transform="translate(-6,-62) scale(1,1)"><path fill="none" stroke="#000000" d="M 289.95025473103806 227.39779967959228 L 282 235 L 292.99724643097625 235.24611163397861" stroke-miterlimit="10"/></g><g transform="translate(-6,-62) scale(1,1)"><rect fill="#C0C0C0" stroke="none" x="831" y="79" width="176" height="15" opacity="0.2"/></g><g transform="translate(-6,-62) scale(1,1)"><rect fill="#C0C0C0" stroke="none" x="831" y="93" width="440" height="241" opacity="0.2"/></g><g transform="translate(-6,-62) scale(1,1)"><rect fill="#ffffff" stroke="none" x="824" y="87" width="440" height="240"/></g><g transform="translate(-6,-62) scale(1,1)"><path fill="none" stroke="#000000" d="M 824 87 L 1264 87 L 1264 327 L 824 327 L 824 87 Z Z" stroke-miterlimit="10"/></g><g transform="translate(-6,-62) scale(1,1)"><rect fill="#ffffff" stroke="none" x="824" y="72" width="176" height="15"/></g><g transform="translate(-6,-62) scale(1,1)"><path fill="none" stroke="#000000" d="M 824 72 L 1000 72 L 1000 87 L 824 87 L 824 72 Z Z" stroke-miterlimit="10"/></g><g transform="translate(-6,-62) scale(1,1)"><rect fill="#ffffff" stroke="none" x="824" y="86" width="440" height="241"/></g><g transform="translate(-6,-62) scale(1,1)"><path fill="none" stroke="#000000" d="M 824 86 L 1264 86 L 1264 327 L 824 327 L 824 86 Z Z" stroke-miterlimit="10"/></g><g transform="translate(-6,-62) scale(1,1)"><g><path fill="none" stroke="none"/><text fill="#000000" stroke="none" font-family="Arial" font-size="32px" font-style="normal" font-weight="bold" text-decoration="none" x="972.8671875" y="121">Livraison</text></g></g><g transform="translate(-6,-62) scale(1,1)"><rect fill="#C0C0C0" stroke="none" x="847" y="143" width="60.50625000000002" height="15" opacity="0.2"/></g><g transform="translate(-6,-62) scale(1,1)"><rect fill="#C0C0C0" stroke="none" x="847" y="157" width="151.265625" height="44" opacity="0.2"/></g><g transform="translate(-6,-62) scale(1,1)"><rect fill="#ffffff" stroke="none" x="840" y="151" width="151.265625" height="43"/></g><g transform="translate(-6,-62) scale(1,1)"><path fill="none" stroke="#000000" d="M 840 151 L 991.265625 151 L 991.265625 194 L 840 194 L 840 151 Z Z" stroke-miterlimit="10"/></g><g transform="translate(-6,-62) scale(1,1)"><rect fill="#ffffff" stroke="none" x="840" y="136" width="60.50625000000002" height="15"/></g><g transform="translate(-6,-62) scale(1,1)"><path fill="none" stroke="#000000" d="M 840 136 L 900.50625 136 L 900.50625 151 L 840 151 L 840 136 Z Z" stroke-miterlimit="10"/></g><g transform="translate(-6,-62) scale(1,1)"><rect fill="#ffffff" stroke="none" x="840" y="150" width="151.265625" height="44"/></g><g transform="translate(-6,-62) scale(1,1)"><path fill="none" stroke="#000000" d="M 840 150 L 991.265625 150 L 991.265625 194 L 840 194 L 840 150 Z Z" stroke-miterlimit="10"/></g><g transform="translate(-6,-62) scale(1,1)"><g><path fill="none" stroke="none"/><text fill="#000000" stroke="none" font-family="Arial" font-size="32px" font-style="normal" font-weight="bold" text-decoration="none" x="844.5" y="185">Livraison</text></g></g><g transform="translate(-6,-62) scale(1,1)"><rect fill="#C0C0C0" stroke="none" x="1079" y="191" width="73.29999999999995" height="15" opacity="0.2"/></g><g transform="translate(-6,-62) scale(1,1)"><rect fill="#C0C0C0" stroke="none" x="1079" y="205" width="183.25" height="44" opacity="0.2"/></g><g transform="translate(-6,-62) scale(1,1)"><rect fill="#ffffff" stroke="none" x="1072" y="199" width="183.25" height="43"/></g><g transform="translate(-6,-62) scale(1,1)"><path fill="none" stroke="#000000" d="M 1072 199 L 1255.25 199 L 1255.25 242 L 1072 242 L 1072 199 Z Z" stroke-miterlimit="10"/></g><g transform="translate(-6,-62) scale(1,1)"><rect fill="#ffffff" stroke="none" x="1072" y="184" width="73.29999999999995" height="15"/></g><g transform="translate(-6,-62) scale(1,1)"><path fill="none" stroke="#000000" d="M 1072 184 L 1145.3 184 L 1145.3 199 L 1072 199 L 1072 184 Z Z" stroke-miterlimit="10"/></g><g transform="translate(-6,-62) scale(1,1)"><rect fill="#ffffff" stroke="none" x="1072" y="198" width="183.25" height="44"/></g><g transform="translate(-6,-62) scale(1,1)"><path fill="none" stroke="#000000" d="M 1072 198 L 1255.25 198 L 1255.25 242 L 1072 242 L 1072 198 Z Z" stroke-miterlimit="10"/></g><g transform="translate(-6,-62) scale(1,1)"><g><path fill="none" stroke="none"/><text fill="#000000" stroke="none" font-family="Arial" font-size="32px" font-style="normal" font-weight="bold" text-decoration="none" x="1076.5" y="233">Commande</text></g></g><g transform="translate(-6,-62) scale(1,1)"><path fill="none" stroke="#000000" d="M 992 180 L 1071 195" stroke-miterlimit="10" stroke-dasharray="3"/></g><g transform="translate(-6,-62) scale(1,1)"><path fill="none" stroke="#000000" d="M 1060.2304619982417 197.23987750305292 L 1071 195 L 1061.8009540772746 188.96861922014637" stroke-miterlimit="10"/></g><g transform="translate(-6,-62) scale(1,1)"><rect fill="#C0C0C0" stroke="none" x="895" y="551" width="42.731250000000045" height="15" opacity="0.2"/></g><g transform="translate(-6,-62) scale(1,1)"><rect fill="#C0C0C0" stroke="none" x="895" y="565" width="106.828125" height="44" opacity="0.2"/></g><g transform="translate(-6,-62) scale(1,1)"><rect fill="#ffffff" stroke="none" x="888" y="559" width="106.828125" height="43"/></g><g transform="translate(-6,-62) scale(1,1)"><path fill="none" stroke="#000000" d="M 888 559 L 994.828125 559 L 994.828125 602 L 888 602 L 888 559 Z Z" stroke-miterlimit="10"/></g><g transform="translate(-6,-62) scale(1,1)"><rect fill="#ffffff" stroke="none" x="888" y="544" width="42.731250000000045" height="15"/></g><g transform="translate(-6,-62) scale(1,1)"><path fill="none" stroke="#000000" d="M 888 544 L 930.73125 544 L 930.73125 559 L 888 559 L 888 544 Z Z" stroke-miterlimit="10"/></g><g transform="translate(-6,-62) scale(1,1)"><rect fill="#ffffff" stroke="none" x="888" y="558" width="106.828125" height="44"/></g><g transform="translate(-6,-62) scale(1,1)"><path fill="none" stroke="#000000" d="M 888 558 L 994.828125 558 L 994.828125 602 L 888 602 L 888 558 Z Z" stroke-miterlimit="10"/></g><g transform="translate(-6,-62) scale(1,1)"><g><path fill="none" stroke="none"/><text fill="#000000" stroke="none" font-family="Arial" font-size="32px" font-style="normal" font-weight="bold" text-decoration="none" x="892.5" y="593">Panier</text></g></g><g transform="translate(-6,-62) scale(1,1)"><rect fill="#C0C0C0" stroke="none" x="1119" y="559" width="41.200000000000045" height="15" opacity="0.2"/></g><g transform="translate(-6,-62) scale(1,1)"><rect fill="#C0C0C0" stroke="none" x="1119" y="573" width="103" height="44" opacity="0.2"/></g><g transform="translate(-6,-62) scale(1,1)"><rect fill="#ffffff" stroke="none" x="1112" y="567" width="103" height="43"/></g><g transform="translate(-6,-62) scale(1,1)"><path fill="none" stroke="#000000" d="M 1112 567 L 1215 567 L 1215 610 L 1112 610 L 1112 567 Z Z" stroke-miterlimit="10"/></g><g transform="translate(-6,-62) scale(1,1)"><rect fill="#ffffff" stroke="none" x="1112" y="552" width="41.200000000000045" height="15"/></g><g transform="translate(-6,-62) scale(1,1)"><path fill="none" stroke="#000000" d="M 1112 552 L 1153.2 552 L 1153.2 567 L 1112 567 L 1112 552 Z Z" stroke-miterlimit="10"/></g><g transform="translate(-6,-62) scale(1,1)"><rect fill="#ffffff" stroke="none" x="1112" y="566" width="103" height="44"/></g><g transform="translate(-6,-62) scale(1,1)"><path fill="none" stroke="#000000" d="M 1112 566 L 1215 566 L 1215 610 L 1112 610 L 1112 566 Z Z" stroke-miterlimit="10"/></g><g transform="translate(-6,-62) scale(1,1)"><g><path fill="none" stroke="none"/><text fill="#000000" stroke="none" font-family="Arial" font-size="32px" font-style="normal" font-weight="bold" text-decoration="none" x="1119.046875" y="601">Achat</text></g></g><g transform="translate(-6,-62) scale(1,1)"><path fill="none" stroke="#000000" d="M 1163 243 L 1163 551" stroke-miterlimit="10" stroke-dasharray="3"/></g><g transform="translate(-6,-62) scale(1,1)"><path fill="none" stroke="#000000" d="M 1158.7904822439841 540.8373251423759 L 1163 551 L 1167.2095177560159 540.8373251423759" stroke-miterlimit="10"/></g><g transform="translate(-6,-62) scale(1,1)"><rect fill="#C0C0C0" stroke="none" x="911" y="703" width="43.4375" height="15" opacity="0.2"/></g><g transform="translate(-6,-62) scale(1,1)"><rect fill="#C0C0C0" stroke="none" x="911" y="717" width="108.59375" height="44" opacity="0.2"/></g><g transform="translate(-6,-62) scale(1,1)"><rect fill="#ffffff" stroke="none" x="904" y="711" width="108.59375" height="43"/></g><g transform="translate(-6,-62) scale(1,1)"><path fill="none" stroke="#000000" d="M 904 711 L 1012.59375 711 L 1012.59375 754 L 904 754 L 904 711 Z Z" stroke-miterlimit="10"/></g><g transform="translate(-6,-62) scale(1,1)"><rect fill="#ffffff" stroke="none" x="904" y="696" width="43.4375" height="15"/></g><g transform="translate(-6,-62) scale(1,1)"><path fill="none" stroke="#000000" d="M 904 696 L 947.4375 696 L 947.4375 711 L 904 711 L 904 696 Z Z" stroke-miterlimit="10"/></g><g transform="translate(-6,-62) scale(1,1)"><rect fill="#ffffff" stroke="none" x="904" y="710" width="108.59375" height="44"/></g><g transform="translate(-6,-62) scale(1,1)"><path fill="none" stroke="#000000" d="M 904 710 L 1012.59375 710 L 1012.59375 754 L 904 754 L 904 710 Z Z" stroke-miterlimit="10"/></g><g transform="translate(-6,-62) scale(1,1)"><g><path fill="none" stroke="none"/><text fill="#000000" stroke="none" font-family="Arial" font-size="32px" font-style="normal" font-weight="bold" text-decoration="none" x="908.5" y="745">Article</text></g></g><g transform="translate(-6,-62) scale(1,1)"><path fill="none" stroke="#000000" d="M 1111 579 L 996 575" stroke-miterlimit="10" stroke-dasharray="3"/></g><g transform="translate(-6,-62) scale(1,1)"><path fill="none" stroke="#000000" d="M 1006.302862395088 571.1462970446748 L 996 575 L 1006.0102033575877 579.5602443728095" stroke-miterlimit="10"/></g><g transform="translate(-6,-62) scale(1,1)"><path fill="none" stroke="#000000" d="M 944 603 L 955 695" stroke-miterlimit="10" stroke-dasharray="3"/></g><g transform="translate(-6,-62) scale(1,1)"><path fill="none" stroke="#000000" d="M 949.6137437230551 685.408949832314 L 955 695 L 957.9732382736348 684.4094450490924" stroke-miterlimit="10"/></g><g transform="translate(-6,-62) scale(1,1)"><path fill="none" stroke="#000000" d="M 823 199 L 545 200" stroke-miterlimit="10" stroke-dasharray="3"/></g><g transform="translate(-6,-62) scale(1,1)"><path fill="none" stroke="#000000" d="M 555.1474670571313 195.75395332992738 L 545 200 L 555.1777511616076 204.17293437432176" stroke-miterlimit="10"/></g><g transform="translate(-6,-62) scale(1,1)"><rect fill="#C0C0C0" stroke="none" x="95" y="663" width="75.41874999999999" height="15" opacity="0.2"/></g><g transform="translate(-6,-62) scale(1,1)"><rect fill="#C0C0C0" stroke="none" x="95" y="677" width="188.546875" height="44" opacity="0.2"/></g><g transform="translate(-6,-62) scale(1,1)"><rect fill="#ffffff" stroke="none" x="88" y="671" width="188.546875" height="43"/></g><g transform="translate(-6,-62) scale(1,1)"><path fill="none" stroke="#000000" d="M 88 671 L 276.546875 671 L 276.546875 714 L 88 714 L 88 671 Z Z" stroke-miterlimit="10"/></g><g transform="translate(-6,-62) scale(1,1)"><rect fill="#ffffff" stroke="none" x="88" y="656" width="75.41874999999999" height="15"/></g><g transform="translate(-6,-62) scale(1,1)"><path fill="none" stroke="#000000" d="M 88 656 L 163.41875 656 L 163.41875 671 L 88 671 L 88 656 Z Z" stroke-miterlimit="10"/></g><g transform="translate(-6,-62) scale(1,1)"><rect fill="#ffffff" stroke="none" x="88" y="670" width="188.546875" height="44"/></g><g transform="translate(-6,-62) scale(1,1)"><path fill="none" stroke="#000000" d="M 88 670 L 276.546875 670 L 276.546875 714 L 88 714 L 88 670 Z Z" stroke-miterlimit="10"/></g><g transform="translate(-6,-62) scale(1,1)"><g><path fill="none" stroke="none"/><text fill="#000000" stroke="none" font-family="Arial" font-size="32px" font-style="normal" font-weight="bold" text-decoration="none" x="92.5" y="705">Authentifier</text></g></g><g transform="translate(-6,-62) scale(1,1)"><path fill="none" stroke="#000000" d="M 479 518 L 321 571" stroke-miterlimit="10" stroke-dasharray="3"/></g><g transform="translate(-6,-62) scale(1,1)"><path fill="none" stroke="#000000" d="M 329.2963026313233 563.7770253600405 L 321 571 L 331.97378619763833 571.7589575011307" stroke-miterlimit="10"/></g><g transform="translate(-6,-62) scale(1,1)"><path fill="none" stroke="#000000" d="M 497 399 L 416 321" stroke-miterlimit="10" stroke-dasharray="3"/></g><g transform="translate(-6,-62) scale(1,1)"><path fill="none" stroke="#000000" d="M 426.240277121105 325.0170542046347 L 416 321 L 420.4004831250717 331.08145566205394" stroke-miterlimit="10"/></g><g transform="translate(-6,-62) scale(1,1)"><path fill="none" stroke="#000000" d="M 688 418 L 835 328" stroke-miterlimit="10" stroke-dasharray="3"/></g><g transform="translate(-6,-62) scale(1,1)"><path fill="none" stroke="#000000" d="M 828.5307654382929 336.89657260891033 L 835 328 L 824.1347335512515 329.71638719340945" stroke-miterlimit="10"/></g><g transform="translate(-6,-62) scale(1,1)"><path fill="none" stroke="#000000" d="M 688 515 L 823 556" stroke-miterlimit="10" stroke-dasharray="3"/></g><g transform="translate(-6,-62) scale(1,1)"><path fill="none" stroke="#000000" d="M 812.0526161281545 557.0746098652327 L 823 556 L 814.4991667051297 549.0188945508017" stroke-miterlimit="10"/></g></g></svg>