<svg version="1.1" xmlns="http://www.w3.org/2000/svg" xmlns:xlink="http://www.w3.org/1999/xlink" width="2132" height="1108"><defs/><g><g transform="translate(2,2) scale(1,1)"><path fill="none" stroke="#000000" d="M 8 8 L 2120 8 L 2120 1096 L 8 1096 L 8 8" stroke-miterlimit="10"/></g><g transform="translate(2,2) scale(1,1)"><path fill="#ffffff" stroke="none" d="M 8 8 L 8 49 L 331.71875 49 L 352.21875 28.5 L 352.21875 8 L 8 8"/></g><g transform="translate(2,2) scale(1,1)"><path fill="none" stroke="#000000" d="M 8 8 L 8 49 L 331.71875 49 L 352.21875 28.5 L 352.21875 8 L 8 8 L 8 8" stroke-miterlimit="10"/></g><g transform="translate(2,2) scale(1,1)"><g><path fill="none" stroke="none"/><text fill="#000000" stroke="none" font-family="Arial" font-size="32px" font-style="normal" font-weight="normal" text-decoration="none" x="52.796875" y="40">Remettre au panier</text></g></g><g transform="translate(2,2) scale(1,1)"><g><path fill="none" stroke="none"/><text fill="#000000" stroke="none" font-family="Arial" font-size="32px" font-style="normal" font-weight="bold" text-decoration="none" x="11.2265625" y="40">sd</text></g></g><g transform="translate(2,2) scale(1,1)"><path fill="#ffffff" stroke="none" d="M 205.5396590909091 47.3 C 205.5396590909091 43.82060576 208.4180608130909 41 211.96875 41 C 215.5194391869091 41 218.39784090909092 43.82060576 218.39784090909092 47.3 C 218.39784090909092 50.779394239999995 215.5194391869091 53.6 211.96875 53.6 C 208.4180608130909 53.6 205.5396590909091 50.779394239999995 205.5396590909091 47.3 Z"/></g><g transform="translate(2,2) scale(1,1)"><path fill="none" stroke="#000000" d="M 205.5396590909091 47.3 C 205.5396590909091 43.82060576 208.4180608130909 41 211.96875 41 C 215.5194391869091 41 218.39784090909092 43.82060576 218.39784090909092 47.3 C 218.39784090909092 50.779394239999995 215.5194391869091 53.6 211.96875 53.6 C 208.4180608130909 53.6 205.5396590909091 50.779394239999995 205.5396590909091 47.3 Z" stroke-miterlimit="10"/></g><g transform="translate(2,2) scale(1,1)"><path fill="none" stroke="#000000" d="M 211.96875 53.6 L 211.96875 66.4" stroke-miterlimit="10"/></g><g transform="translate(2,2) scale(1,1)"><path fill="none" stroke="#000000" d="M 205.1614772727273 58.4 L 218.77602272727273 58.4" stroke-miterlimit="10"/></g><g transform="translate(2,2) scale(1,1)"><path fill="none" stroke="#000000" d="M 211.96875 66.4 L 202.51420454545456 79" stroke-miterlimit="10"/></g><g transform="translate(2,2) scale(1,1)"><path fill="none" stroke="#000000" d="M 211.96875 66.4 L 221.42329545454547 79" stroke-miterlimit="10"/></g><g transform="translate(2,2) scale(1,1)"><g><path fill="none" stroke="none"/><text fill="#000000" stroke="none" font-family="Arial" font-size="32px" font-style="normal" font-weight="bold" text-decoration="none" x="79.5" y="113.5">personne: Actor1</text></g></g><g transform="translate(2,2) scale(1,1)"><path fill="none" stroke="#000000" d="M 212.5 124 L 212.5 896" stroke-miterlimit="10" stroke-dasharray="3"/></g><g transform="translate(2,2) scale(1,1)"><rect fill="#C0C0C0" stroke="none" x="967" y="47" width="167" height="39" opacity="0.2"/></g><g transform="translate(2,2) scale(1,1)"><rect fill="#ffffff" stroke="none" x="960" y="40" width="167" height="39"/></g><g transform="translate(2,2) scale(1,1)"><path fill="none" stroke="#000000" d="M 960 40 L 1127 40 L 1127 79 L 960 79 L 960 40 Z Z" stroke-miterlimit="10"/></g><g transform="translate(2,2) scale(1,1)"><g><path fill="none" stroke="none"/><text fill="#000000" stroke="none" font-family="Arial" font-size="32px" font-style="normal" font-weight="bold" text-decoration="none" x="1043.5" y="62.5"></text></g></g><g transform="translate(2,2) scale(1,1)"><path fill="none" stroke="#000000" d="M 1044.5 80 L 1044.5 1008" stroke-miterlimit="10" stroke-dasharray="3"/></g><g transform="translate(2,2) scale(1,1)"><rect fill="#C0C0C0" stroke="none" x="1823" y="47" width="199" height="39" opacity="0.2"/></g><g transform="translate(2,2) scale(1,1)"><rect fill="#ffffff" stroke="none" x="1816" y="40" width="199" height="39"/></g><g transform="translate(2,2) scale(1,1)"><path fill="none" stroke="#000000" d="M 1816 40 L 2015 40 L 2015 79 L 1816 79 L 1816 40 Z Z" stroke-miterlimit="10"/></g><g transform="translate(2,2) scale(1,1)"><g><path fill="none" stroke="none"/><text fill="#000000" stroke="none" font-family="Arial" font-size="32px" font-style="normal" font-weight="bold" text-decoration="none" x="1861.2578125" y="74">:Panier</text></g></g><g transform="translate(2,2) scale(1,1)"><path fill="none" stroke="#000000" d="M 1916.5 80 L 1916.5 1024" stroke-miterlimit="10" stroke-dasharray="3"/></g><g transform="translate(2,2) scale(1,1)"><rect fill="#C0C0C0" stroke="none" x="1359" y="47" width="205.640625" height="39" opacity="0.2"/></g><g transform="translate(2,2) scale(1,1)"><rect fill="#ffffff" stroke="none" x="1352" y="40" width="205.640625" height="39"/></g><g transform="translate(2,2) scale(1,1)"><path fill="none" stroke="#000000" d="M 1352 40 L 1557.640625 40 L 1557.640625 79 L 1352 79 L 1352 40 Z Z" stroke-miterlimit="10"/></g><g transform="translate(2,2) scale(1,1)"><g><path fill="none" stroke="none"/><text fill="#000000" stroke="none" font-family="Arial" font-size="32px" font-style="normal" font-weight="bold" text-decoration="none" x="1361.5" y="74">:Notification</text></g></g><g transform="translate(2,2) scale(1,1)"><path fill="none" stroke="#000000" d="M 1455.5 80 L 1455.5 1024" stroke-miterlimit="10" stroke-dasharray="3"/></g><g transform="translate(2,2) scale(1,1)"><path fill="#ffffff" stroke="none" d="M 1128 96 L 1373 96 L 1383 106 L 1383 202 L 1128 202 L 1128 96"/></g><g transform="translate(2,2) scale(1,1)"><path fill="none" stroke="#000000" d="M 1128 96 L 1373 96 L 1383 106 L 1383 202 L 1128 202 L 1128 96 L 1128 96" stroke-miterlimit="10"/></g><g transform="translate(2,2) scale(1,1)"><path fill="none" stroke="#000000" d="M 1373 96 L 1373 106 L 1383 106 L 1373 96" stroke-miterlimit="10"/></g><g transform="translate(2,2) scale(1,1)"><g><path fill="none" stroke="none"/><text fill="#000000" stroke="none" font-family="Arial" font-size="32px" font-style="normal" font-weight="normal" text-decoration="none" x="1133" y="124">Affichege d'une</text><text fill="#000000" stroke="none" font-family="Arial" font-size="32px" font-style="normal" font-weight="normal" text-decoration="none" x="1133" y="156">inerface de</text><text fill="#000000" stroke="none" font-family="Arial" font-size="32px" font-style="normal" font-weight="normal" text-decoration="none" x="1133" y="182">pop-up</text></g></g><g transform="translate(2,2) scale(1,1)"><path fill="none" stroke="#000000" d="M 833 232 L 1127 174" stroke-miterlimit="10" stroke-dasharray="3"/></g><g transform="translate(2,2) scale(1,1)"><path fill="#000000" stroke="none" d="M 1040 663 C 1040 659.1340064 1043.1340064 656 1047 656 C 1050.8659936 656 1054 659.1340064 1054 663 C 1054 666.8659936 1050.8659936 670 1047 670 C 1043.1340064 670 1040 666.8659936 1040 663 Z"/></g><g transform="translate(2,2) scale(1,1)"><path fill="#ffffff" stroke="none" d="M 568 648 L 893 648 L 903 658 L 903 783 L 568 783 L 568 648"/></g><g transform="translate(2,2) scale(1,1)"><path fill="none" stroke="#000000" d="M 568 648 L 893 648 L 903 658 L 903 783 L 568 783 L 568 648 L 568 648" stroke-miterlimit="10"/></g><g transform="translate(2,2) scale(1,1)"><path fill="none" stroke="#000000" d="M 893 648 L 893 658 L 903 658 L 893 648" stroke-miterlimit="10"/></g><g transform="translate(2,2) scale(1,1)"><g><path fill="none" stroke="none"/><text fill="#000000" stroke="none" font-family="Arial" font-size="32px" font-style="normal" font-weight="normal" text-decoration="none" x="573" y="676">Dans le tableau de</text><text fill="#000000" stroke="none" font-family="Arial" font-size="32px" font-style="normal" font-weight="normal" text-decoration="none" x="573" y="709">côté, supprimer ses</text><text fill="#000000" stroke="none" font-family="Arial" font-size="32px" font-style="normal" font-weight="normal" text-decoration="none" x="573" y="740">informations</text></g></g><g transform="translate(2,2) scale(1,1)"><path fill="none" stroke="#000000" d="M 1476 664 L 905 704" stroke-miterlimit="10" stroke-dasharray="3"/></g><g transform="translate(2,2) scale(1,1)"><path fill="#ffffff" stroke="none" d="M 1536 368 L 1797 368 L 1807 378 L 1807 495 L 1536 495 L 1536 368"/></g><g transform="translate(2,2) scale(1,1)"><path fill="none" stroke="#000000" d="M 1536 368 L 1797 368 L 1807 378 L 1807 495 L 1536 495 L 1536 368 L 1536 368" stroke-miterlimit="10"/></g><g transform="translate(2,2) scale(1,1)"><path fill="none" stroke="#000000" d="M 1797 368 L 1797 378 L 1807 378 L 1797 368" stroke-miterlimit="10"/></g><g transform="translate(2,2) scale(1,1)"><g><path fill="none" stroke="none"/><text fill="#000000" stroke="none" font-family="Arial" font-size="32px" font-style="normal" font-weight="normal" text-decoration="none" x="1541" y="397">Insérer le cet</text><text fill="#000000" stroke="none" font-family="Arial" font-size="32px" font-style="normal" font-weight="normal" text-decoration="none" x="1541" y="428">id"ntifiant dans le</text><text fill="#000000" stroke="none" font-family="Arial" font-size="32px" font-style="normal" font-weight="normal" text-decoration="none" x="1541" y="460">panier</text></g></g><g transform="translate(2,2) scale(1,1)"><path fill="none" stroke="#000000" d="M 1476 584 L 1588 497" stroke-miterlimit="10" stroke-dasharray="3"/></g><g transform="translate(2,2) scale(1,1)"><path fill="#ffffff" stroke="none" d="M 216 384 L 453 384 L 463 394 L 463 522 L 216 522 L 216 384"/></g><g transform="translate(2,2) scale(1,1)"><path fill="none" stroke="#000000" d="M 216 384 L 453 384 L 463 394 L 463 522 L 216 522 L 216 384 L 216 384" stroke-miterlimit="10"/></g><g transform="translate(2,2) scale(1,1)"><path fill="none" stroke="#000000" d="M 453 384 L 453 394 L 463 394 L 453 384" stroke-miterlimit="10"/></g><g transform="translate(2,2) scale(1,1)"><g><path fill="none" stroke="none"/><text fill="#000000" stroke="none" font-family="Arial" font-size="32px" font-style="normal" font-weight="normal" text-decoration="none" x="221" y="412">Compter le</text><text fill="#000000" stroke="none" font-family="Arial" font-size="32px" font-style="normal" font-weight="normal" text-decoration="none" x="221" y="444">nombre d'article</text><text fill="#000000" stroke="none" font-family="Arial" font-size="32px" font-style="normal" font-weight="normal" text-decoration="none" x="221" y="476">dans tableau de</text><text fill="#000000" stroke="none" font-family="Arial" font-size="32px" font-style="normal" font-weight="normal" text-decoration="none" x="221" y="509">côté</text></g></g><g transform="translate(2,2) scale(1,1)"><path fill="none" stroke="#000000" d="M 1074 426 L 465 448" stroke-miterlimit="10" stroke-dasharray="3"/></g><g transform="translate(2,2) scale(1,1)"><path fill="#ffffff" stroke="none" d="M 8 960 L 2085 960 L 2095 970 L 2095 1047 L 8 1047 L 8 960"/></g><g transform="translate(2,2) scale(1,1)"><path fill="none" stroke="#000000" d="M 8 960 L 2085 960 L 2095 970 L 2095 1047 L 8 1047 L 8 960 L 8 960" stroke-miterlimit="10"/></g><g transform="translate(2,2) scale(1,1)"><path fill="none" stroke="#000000" d="M 2085 960 L 2085 970 L 2095 970 L 2085 960" stroke-miterlimit="10"/></g><g transform="translate(2,2) scale(1,1)"><g><path fill="none" stroke="none"/><text fill="#000000" stroke="none" font-family="Arial" font-size="32px" font-style="normal" font-weight="normal" text-decoration="none" x="13" y="989">Dans le cas de la méthode remettre , on affichera un interface de pop-up  avecc les informations de l'articles;  Recuperer identifiant; Insérer dans</text><text fill="#000000" stroke="none" font-family="Arial" font-size="32px" font-style="normal" font-weight="normal" text-decoration="none" x="13" y="1021">le panier; Supprimerson identifiant dans le tableau d''article  de côté </text></g></g><g transform="translate(2,2) scale(1,1)"><g><path fill="none" stroke="none"/></g></g><g transform="translate(2,2) scale(1,1)"><g><path fill="none" stroke="none"/></g></g><g transform="translate(2,2) scale(1,1)"><g><path fill="none" stroke="none"/></g></g><g transform="translate(2,2) scale(1,1)"><path fill="none" stroke="#000000" d="M 212 163 L 1037 163" stroke-miterlimit="10"/></g><g transform="translate(2,2) scale(1,1)"><path fill="#000000" stroke="none" d="M 1026.837325142376 167.209517756016 L 1037 163 L 1026.837325142376 158.790482243984"/></g><g transform="translate(2,2) scale(1,1)"><path fill="none" stroke="#000000" d="M 1026.837325142376 167.209517756016 L 1037 163 L 1026.837325142376 158.790482243984 L 1026.837325142376 167.209517756016" stroke-miterlimit="10"/></g><g transform="translate(2,2) scale(1,1)"><g><path fill="none" stroke="none"/><text fill="#000000" stroke="none" font-family="Arial" font-size="32px" font-style="normal" font-weight="normal" text-decoration="none" x="424.5" y="164">1 : Cliquer boutton remettre </text></g></g><g transform="translate(2,2) scale(1,1)"><rect fill="#ffffff" stroke="none" x="1037" y="163" width="13" height="28"/></g><g transform="translate(2,2) scale(1,1)"><path fill="none" stroke="#000000" d="M 1037 163 L 1050 163 L 1050 191 L 1037 191 L 1037 163 Z Z" stroke-miterlimit="10"/></g><g transform="translate(2,2) scale(1,1)"><path fill="none" stroke="#000000" d="M 1455 232 L 212 232" stroke-miterlimit="10" stroke-dasharray="3"/></g><g transform="translate(2,2) scale(1,1)"><path fill="none" stroke="#000000" d="M 222.16267485762415 227.790482243984 L 212 232 L 222.16267485762415 236.209517756016" stroke-miterlimit="10"/></g><g transform="translate(2,2) scale(1,1)"><g><path fill="none" stroke="none"/><text fill="#000000" stroke="none" font-family="Arial" font-size="32px" font-style="normal" font-weight="normal" text-decoration="none" x="732.5" y="253">2 : getpopup()</text></g></g><g transform="translate(2,2) scale(1,1)"><path fill="none" stroke="#000000" d="M 212 316 L 1037 316" stroke-miterlimit="10"/></g><g transform="translate(2,2) scale(1,1)"><path fill="#000000" stroke="none" d="M 1026.837325142376 320.209517756016 L 1037 316 L 1026.837325142376 311.790482243984"/></g><g transform="translate(2,2) scale(1,1)"><path fill="none" stroke="#000000" d="M 1026.837325142376 320.209517756016 L 1037 316 L 1026.837325142376 311.790482243984 L 1026.837325142376 320.209517756016" stroke-miterlimit="10"/></g><g transform="translate(2,2) scale(1,1)"><g><path fill="none" stroke="none"/><text fill="#000000" stroke="none" font-family="Arial" font-size="32px" font-style="normal" font-weight="normal" text-decoration="none" x="278.5" y="317.5">3 : Sélectionner image à remettre dans le panier </text></g></g><g transform="translate(2,2) scale(1,1)"><rect fill="#ffffff" stroke="none" x="1037" y="316" width="13" height="28"/></g><g transform="translate(2,2) scale(1,1)"><path fill="none" stroke="#000000" d="M 1037 316 L 1050 316 L 1050 344 L 1037 344 L 1037 316 Z Z" stroke-miterlimit="10"/></g><g transform="translate(2,2) scale(1,1)"><path fill="none" stroke="#000000" d="M 1044 360 L 1074 360 L 1074 380 L 1050 380" stroke-miterlimit="10"/></g><g transform="translate(2,2) scale(1,1)"><path fill="#000000" stroke="none" d="M 1060.162674857624 375.790482243984 L 1050 380 L 1060.162674857624 384.209517756016"/></g><g transform="translate(2,2) scale(1,1)"><path fill="none" stroke="#000000" d="M 1060.162674857624 375.790482243984 L 1050 380 L 1060.162674857624 384.209517756016 L 1060.162674857624 375.790482243984" stroke-miterlimit="10"/></g><g transform="translate(2,2) scale(1,1)"><g><path fill="none" stroke="none"/><text fill="#000000" stroke="none" font-family="Arial" font-size="32px" font-style="normal" font-weight="normal" text-decoration="none" x="1134.5" y="379">4 : getid(id)</text></g></g><g transform="translate(2,2) scale(1,1)"><rect fill="#ffffff" stroke="none" x="1037" y="380" width="13" height="28"/></g><g transform="translate(2,2) scale(1,1)"><path fill="none" stroke="#000000" d="M 1037 380 L 1050 380 L 1050 408 L 1037 408 L 1037 380 Z Z" stroke-miterlimit="10"/></g><g transform="translate(2,2) scale(1,1)"><path fill="none" stroke="#000000" d="M 1044 416 L 1074 416 L 1074 436 L 1050 436" stroke-miterlimit="10"/></g><g transform="translate(2,2) scale(1,1)"><path fill="#000000" stroke="none" d="M 1060.162674857624 431.790482243984 L 1050 436 L 1060.162674857624 440.209517756016"/></g><g transform="translate(2,2) scale(1,1)"><path fill="none" stroke="#000000" d="M 1060.162674857624 431.790482243984 L 1050 436 L 1060.162674857624 440.209517756016 L 1060.162674857624 431.790482243984" stroke-miterlimit="10"/></g><g transform="translate(2,2) scale(1,1)"><g><path fill="none" stroke="none"/><text fill="#000000" stroke="none" font-family="Arial" font-size="32px" font-style="normal" font-weight="normal" text-decoration="none" x="1126.5" y="435">5 : Compter()</text></g></g><g transform="translate(2,2) scale(1,1)"><rect fill="#ffffff" stroke="none" x="1037" y="436" width="13" height="28"/></g><g transform="translate(2,2) scale(1,1)"><path fill="none" stroke="#000000" d="M 1037 436 L 1050 436 L 1050 464 L 1037 464 L 1037 436 Z Z" stroke-miterlimit="10"/></g><g transform="translate(2,2) scale(1,1)"><path fill="none" stroke="#000000" d="M 1044 584 L 1909 584" stroke-miterlimit="10"/></g><g transform="translate(2,2) scale(1,1)"><path fill="#000000" stroke="none" d="M 1898.837325142376 588.209517756016 L 1909 584 L 1898.837325142376 579.790482243984"/></g><g transform="translate(2,2) scale(1,1)"><path fill="none" stroke="#000000" d="M 1898.837325142376 588.209517756016 L 1909 584 L 1898.837325142376 579.790482243984 L 1898.837325142376 588.209517756016" stroke-miterlimit="10"/></g><g transform="translate(2,2) scale(1,1)"><g><path fill="none" stroke="none"/><text fill="#000000" stroke="none" font-family="Arial" font-size="32px" font-style="normal" font-weight="normal" text-decoration="none" x="1364.5" y="585">6 : Remettre(id)</text></g></g><g transform="translate(2,2) scale(1,1)"><rect fill="#ffffff" stroke="none" x="1909" y="584" width="13" height="28"/></g><g transform="translate(2,2) scale(1,1)"><path fill="none" stroke="#000000" d="M 1909 584 L 1922 584 L 1922 612 L 1909 612 L 1909 584 Z Z" stroke-miterlimit="10"/></g><g transform="translate(2,2) scale(1,1)"><path fill="none" stroke="#000000" d="M 1044 664 L 1909 664" stroke-miterlimit="10"/></g><g transform="translate(2,2) scale(1,1)"><path fill="#000000" stroke="none" d="M 1898.837325142376 668.209517756016 L 1909 664 L 1898.837325142376 659.790482243984"/></g><g transform="translate(2,2) scale(1,1)"><path fill="none" stroke="#000000" d="M 1898.837325142376 668.209517756016 L 1909 664 L 1898.837325142376 659.790482243984 L 1898.837325142376 668.209517756016" stroke-miterlimit="10"/></g><g transform="translate(2,2) scale(1,1)"><g><path fill="none" stroke="none"/><text fill="#000000" stroke="none" font-family="Arial" font-size="32px" font-style="normal" font-weight="normal" text-decoration="none" x="1359.5" y="665">7 : supprimer(id)</text></g></g><g transform="translate(2,2) scale(1,1)"><rect fill="#ffffff" stroke="none" x="1909" y="664" width="13" height="28"/></g><g transform="translate(2,2) scale(1,1)"><path fill="none" stroke="#000000" d="M 1909 664 L 1922 664 L 1922 692 L 1909 692 L 1909 664 Z Z" stroke-miterlimit="10"/></g><g transform="translate(2,2) scale(1,1)"><path fill="none" stroke="#000000" d="M 1455 857 L 1044 857" stroke-miterlimit="10" stroke-dasharray="3"/></g><g transform="translate(2,2) scale(1,1)"><path fill="none" stroke="#000000" d="M 1054.162674857624 852.790482243984 L 1044 857 L 1054.162674857624 861.209517756016" stroke-miterlimit="10"/></g><g transform="translate(2,2) scale(1,1)"><g><path fill="none" stroke="none"/><text fill="#000000" stroke="none" font-family="Arial" font-size="32px" font-style="normal" font-weight="normal" text-decoration="none" x="1051.5" y="890">8 : Alerter(message_erreur)</text></g></g><g transform="translate(2,2) scale(1,1)"><path fill="none" stroke="#000000" d="M 512 536 L 2040 536 L 2040 928 L 512 928 L 512 536" stroke-miterlimit="10"/></g><g transform="translate(2,2) scale(1,1)"><path fill="#ffffff" stroke="none" d="M 512 536 L 512 577 L 757.453125 577 L 777.953125 556.5 L 777.953125 536 L 512 536"/></g><g transform="translate(2,2) scale(1,1)"><path fill="none" stroke="#000000" d="M 512 536 L 512 577 L 757.453125 577 L 777.953125 556.5 L 777.953125 536 L 512 536 L 512 536" stroke-miterlimit="10"/></g><g transform="translate(2,2) scale(1,1)"><g><path fill="none" stroke="none"/><text fill="#000000" stroke="none" font-family="Arial" font-size="32px" font-style="normal" font-weight="normal" text-decoration="none" x="556.796875" y="567.5">Compter &gt;= 0</text></g></g><g transform="translate(2,2) scale(1,1)"><g><path fill="none" stroke="none"/><text fill="#000000" stroke="none" font-family="Arial" font-size="32px" font-style="normal" font-weight="bold" text-decoration="none" x="515.2265625" y="568">alt</text></g></g><g transform="translate(2,2) scale(1,1)"><path fill="none" stroke="#000000" d="M 512 812 L 2040 812" stroke-miterlimit="10" stroke-dasharray="10,3"/></g></g></svg>