<svg version="1.1" xmlns="http://www.w3.org/2000/svg" xmlns:xlink="http://www.w3.org/1999/xlink" width="4820" height="1492"><defs/><g><g transform="translate(2,2) scale(1,1)"><path fill="none" stroke="#000000" d="M 8 8 L 4808 8 L 4808 1480 L 8 1480 L 8 8" stroke-miterlimit="10"/></g><g transform="translate(2,2) scale(1,1)"><path fill="#ffffff" stroke="none" d="M 8 8 L 8 49 L 482.984375 49 L 503.484375 28.5 L 503.484375 8 L 8 8"/></g><g transform="translate(2,2) scale(1,1)"><path fill="none" stroke="#000000" d="M 8 8 L 8 49 L 482.984375 49 L 503.484375 28.5 L 503.484375 8 L 8 8 L 8 8" stroke-miterlimit="10"/></g><g transform="translate(2,2) scale(1,1)"><g><path fill="none" stroke="none"/><text fill="#000000" stroke="none" font-family="Arial" font-size="32px" font-style="normal" font-weight="normal" text-decoration="none" x="52.796875" y="40">Connexion de Authentification</text></g></g><g transform="translate(2,2) scale(1,1)"><g><path fill="none" stroke="none"/><text fill="#000000" stroke="none" font-family="Arial" font-size="32px" font-style="normal" font-weight="bold" text-decoration="none" x="11.2265625" y="40">sd</text></g></g><g transform="translate(2,2) scale(1,1)"><path fill="#ffffff" stroke="none" d="M 187.43809659090908 47.3 C 187.43809659090908 43.82060576 190.3164983130909 41 193.8671875 41 C 197.4178766869091 41 200.2962784090909 43.82060576 200.2962784090909 47.3 C 200.2962784090909 50.779394239999995 197.4178766869091 53.6 193.8671875 53.6 C 190.3164983130909 53.6 187.43809659090908 50.779394239999995 187.43809659090908 47.3 Z"/></g><g transform="translate(2,2) scale(1,1)"><path fill="none" stroke="#000000" d="M 187.43809659090908 47.3 C 187.43809659090908 43.82060576 190.3164983130909 41 193.8671875 41 C 197.4178766869091 41 200.2962784090909 43.82060576 200.2962784090909 47.3 C 200.2962784090909 50.779394239999995 197.4178766869091 53.6 193.8671875 53.6 C 190.3164983130909 53.6 187.43809659090908 50.779394239999995 187.43809659090908 47.3 Z" stroke-miterlimit="10"/></g><g transform="translate(2,2) scale(1,1)"><path fill="none" stroke="#000000" d="M 193.8671875 53.6 L 193.8671875 66.4" stroke-miterlimit="10"/></g><g transform="translate(2,2) scale(1,1)"><path fill="none" stroke="#000000" d="M 187.05991477272727 58.4 L 200.6744602272727 58.4" stroke-miterlimit="10"/></g><g transform="translate(2,2) scale(1,1)"><path fill="none" stroke="#000000" d="M 193.8671875 66.4 L 184.41264204545453 79" stroke-miterlimit="10"/></g><g transform="translate(2,2) scale(1,1)"><path fill="none" stroke="#000000" d="M 193.8671875 66.4 L 203.32173295454544 79" stroke-miterlimit="10"/></g><g transform="translate(2,2) scale(1,1)"><g><path fill="none" stroke="none"/><text fill="#000000" stroke="none" font-family="Arial" font-size="32px" font-style="normal" font-weight="bold" text-decoration="none" x="60.5" y="113.5">Personne: Actor1</text></g></g><g transform="translate(2,2) scale(1,1)"><path fill="none" stroke="#000000" d="M 194.5 124 L 194.5 1320" stroke-miterlimit="10" stroke-dasharray="3"/></g><g transform="translate(2,2) scale(1,1)"><rect fill="#C0C0C0" stroke="none" x="671" y="47" width="167" height="39" opacity="0.2"/></g><g transform="translate(2,2) scale(1,1)"><rect fill="#ffffff" stroke="none" x="664" y="40" width="167" height="39"/></g><g transform="translate(2,2) scale(1,1)"><path fill="none" stroke="#000000" d="M 664 40 L 831 40 L 831 79 L 664 79 L 664 40 Z Z" stroke-miterlimit="10"/></g><g transform="translate(2,2) scale(1,1)"><g><path fill="none" stroke="none"/><text fill="#000000" stroke="none" font-family="Arial" font-size="32px" font-style="normal" font-weight="bold" text-decoration="none" x="747.5" y="62.5"></text></g></g><g transform="translate(2,2) scale(1,1)"><path fill="none" stroke="#000000" d="M 748.5 80 L 748.5 1344" stroke-miterlimit="10" stroke-dasharray="3"/></g><g transform="translate(2,2) scale(1,1)"><rect fill="#C0C0C0" stroke="none" x="1119" y="47" width="199" height="39" opacity="0.2"/></g><g transform="translate(2,2) scale(1,1)"><rect fill="#ffffff" stroke="none" x="1112" y="40" width="199" height="39"/></g><g transform="translate(2,2) scale(1,1)"><path fill="none" stroke="#000000" d="M 1112 40 L 1311 40 L 1311 79 L 1112 79 L 1112 40 Z Z" stroke-miterlimit="10"/></g><g transform="translate(2,2) scale(1,1)"><g><path fill="none" stroke="none"/><text fill="#000000" stroke="none" font-family="Arial" font-size="32px" font-style="normal" font-weight="bold" text-decoration="none" x="1134.15625" y="71">:personne</text></g></g><g transform="translate(2,2) scale(1,1)"><path fill="none" stroke="#000000" d="M 1212.5 80 L 1212.5 1352" stroke-miterlimit="10" stroke-dasharray="3"/></g><g transform="translate(2,2) scale(1,1)"><rect fill="#C0C0C0" stroke="none" x="1615" y="47" width="262.53125" height="39" opacity="0.2"/></g><g transform="translate(2,2) scale(1,1)"><rect fill="#ffffff" stroke="none" x="1608" y="40" width="262.53125" height="39"/></g><g transform="translate(2,2) scale(1,1)"><path fill="none" stroke="#000000" d="M 1608 40 L 1870.53125 40 L 1870.53125 79 L 1608 79 L 1608 40 Z Z" stroke-miterlimit="10"/></g><g transform="translate(2,2) scale(1,1)"><g><path fill="none" stroke="none"/><text fill="#000000" stroke="none" font-family="Arial" font-size="32px" font-style="normal" font-weight="bold" text-decoration="none" x="1617.5" y="74">Authentification</text></g></g><g transform="translate(2,2) scale(1,1)"><path fill="none" stroke="#000000" d="M 1740.5 80 L 1740.5 1352" stroke-miterlimit="10" stroke-dasharray="3"/></g><g transform="translate(2,2) scale(1,1)"><rect fill="#C0C0C0" stroke="none" x="2087" y="47" width="223" height="39" opacity="0.2"/></g><g transform="translate(2,2) scale(1,1)"><rect fill="#ffffff" stroke="none" x="2080" y="40" width="223" height="39"/></g><g transform="translate(2,2) scale(1,1)"><path fill="none" stroke="#000000" d="M 2080 40 L 2303 40 L 2303 79 L 2080 79 L 2080 40 Z Z" stroke-miterlimit="10"/></g><g transform="translate(2,2) scale(1,1)"><g><path fill="none" stroke="none"/><text fill="#000000" stroke="none" font-family="Arial" font-size="32px" font-style="normal" font-weight="bold" text-decoration="none" x="2101.7265625" y="74">Authentifier</text></g></g><g transform="translate(2,2) scale(1,1)"><path fill="none" stroke="#000000" d="M 2192.5 80 L 2192.5 1376" stroke-miterlimit="10" stroke-dasharray="3"/></g><g transform="translate(2,2) scale(1,1)"><rect fill="#C0C0C0" stroke="none" x="2647" y="47" width="194.984375" height="39" opacity="0.2"/></g><g transform="translate(2,2) scale(1,1)"><rect fill="#ffffff" stroke="none" x="2640" y="40" width="194.984375" height="39"/></g><g transform="translate(2,2) scale(1,1)"><path fill="none" stroke="#000000" d="M 2640 40 L 2834.984375 40 L 2834.984375 79 L 2640 79 L 2640 40 Z Z" stroke-miterlimit="10"/></g><g transform="translate(2,2) scale(1,1)"><g><path fill="none" stroke="none"/><text fill="#000000" stroke="none" font-family="Arial" font-size="32px" font-style="normal" font-weight="bold" text-decoration="none" x="2649.5" y="74">Notification</text></g></g><g transform="translate(2,2) scale(1,1)"><path fill="none" stroke="#000000" d="M 2738.5 80 L 2738.5 1384" stroke-miterlimit="10" stroke-dasharray="3"/></g><g transform="translate(2,2) scale(1,1)"><rect fill="#C0C0C0" stroke="none" x="3087" y="47" width="367" height="39" opacity="0.2"/></g><g transform="translate(2,2) scale(1,1)"><rect fill="#ffffff" stroke="none" x="3080" y="40" width="367" height="39"/></g><g transform="translate(2,2) scale(1,1)"><path fill="none" stroke="#000000" d="M 3080 40 L 3447 40 L 3447 79 L 3080 79 L 3080 40 Z Z" stroke-miterlimit="10"/></g><g transform="translate(2,2) scale(1,1)"><g><path fill="none" stroke="none"/><text fill="#000000" stroke="none" font-family="Arial" font-size="32px" font-style="normal" font-weight="bold" text-decoration="none" x="3235.0625" y="73.5">:BD</text></g></g><g transform="translate(2,2) scale(1,1)"><path fill="none" stroke="#000000" d="M 3264.5 80 L 3264.5 1368" stroke-miterlimit="10" stroke-dasharray="3"/></g><g transform="translate(2,2) scale(1,1)"><path fill="none" stroke="#000000" d="M 194 155 L 741 155" stroke-miterlimit="10"/></g><g transform="translate(2,2) scale(1,1)"><path fill="#000000" stroke="none" d="M 730.8373251423759 159.209517756016 L 741 155 L 730.8373251423758 150.790482243984"/></g><g transform="translate(2,2) scale(1,1)"><path fill="none" stroke="#000000" d="M 730.8373251423759 159.209517756016 L 741 155 L 730.8373251423758 150.790482243984 L 730.8373251423759 159.209517756016" stroke-miterlimit="10"/></g><g transform="translate(2,2) scale(1,1)"><g><path fill="none" stroke="none"/><text fill="#000000" stroke="none" font-family="Arial" font-size="32px" font-style="normal" font-weight="normal" text-decoration="none" x="320.5" y="156">1 : saisie information</text></g></g><g transform="translate(2,2) scale(1,1)"><rect fill="#ffffff" stroke="none" x="741" y="155" width="13" height="28"/></g><g transform="translate(2,2) scale(1,1)"><path fill="none" stroke="#000000" d="M 741 155 L 754 155 L 754 183 L 741 183 L 741 155 Z Z" stroke-miterlimit="10"/></g><g transform="translate(2,2) scale(1,1)"><path fill="none" stroke="#000000" d="M 748 224 L 778 224 L 778 244 L 754 244" stroke-miterlimit="10"/></g><g transform="translate(2,2) scale(1,1)"><path fill="#000000" stroke="none" d="M 764.1626748576241 239.790482243984 L 754 244 L 764.1626748576241 248.209517756016"/></g><g transform="translate(2,2) scale(1,1)"><path fill="none" stroke="#000000" d="M 764.1626748576241 239.790482243984 L 754 244 L 764.1626748576241 248.209517756016 L 764.1626748576241 239.790482243984" stroke-miterlimit="10"/></g><g transform="translate(2,2) scale(1,1)"><g><path fill="none" stroke="none"/><text fill="#000000" stroke="none" font-family="Arial" font-size="32px" font-style="normal" font-weight="normal" text-decoration="none" x="685.5" y="249">2 : Verifier(pseudo,mot_passe)</text></g></g><g transform="translate(2,2) scale(1,1)"><rect fill="#ffffff" stroke="none" x="741" y="244" width="13" height="28"/></g><g transform="translate(2,2) scale(1,1)"><path fill="none" stroke="#000000" d="M 741 244 L 754 244 L 754 272 L 741 272 L 741 244 Z Z" stroke-miterlimit="10"/></g><g transform="translate(2,2) scale(1,1)"><path fill="none" stroke="#000000" d="M 2192 277 L 1218 277" stroke-miterlimit="10"/></g><g transform="translate(2,2) scale(1,1)"><path fill="#000000" stroke="none" d="M 1228.162674857624 272.790482243984 L 1218 277 L 1228.162674857624 281.209517756016"/></g><g transform="translate(2,2) scale(1,1)"><path fill="none" stroke="#000000" d="M 1228.162674857624 272.790482243984 L 1218 277 L 1228.162674857624 281.209517756016 L 1228.162674857624 272.790482243984" stroke-miterlimit="10"/></g><g transform="translate(2,2) scale(1,1)"><g><path fill="none" stroke="none"/><text fill="#000000" stroke="none" font-family="Arial" font-size="32px" font-style="normal" font-weight="normal" text-decoration="none" x="1475.5" y="298">3 : EstCient(pseudo,mot_passe)</text></g></g><g transform="translate(2,2) scale(1,1)"><rect fill="#ffffff" stroke="none" x="1205" y="277" width="13" height="28"/></g><g transform="translate(2,2) scale(1,1)"><path fill="none" stroke="#000000" d="M 1205 277 L 1218 277 L 1218 305 L 1205 305 L 1205 277 Z Z" stroke-miterlimit="10"/></g><g transform="translate(2,2) scale(1,1)"><path fill="none" stroke="#000000" d="M 2192 362 L 1218 362" stroke-miterlimit="10"/></g><g transform="translate(2,2) scale(1,1)"><path fill="#000000" stroke="none" d="M 1228.162674857624 357.790482243984 L 1218 362 L 1228.162674857624 366.209517756016"/></g><g transform="translate(2,2) scale(1,1)"><path fill="none" stroke="#000000" d="M 1228.162674857624 357.790482243984 L 1218 362 L 1228.162674857624 366.209517756016 L 1228.162674857624 357.790482243984" stroke-miterlimit="10"/></g><g transform="translate(2,2) scale(1,1)"><g><path fill="none" stroke="none"/><text fill="#000000" stroke="none" font-family="Arial" font-size="32px" font-style="normal" font-weight="normal" text-decoration="none" x="1445.5" y="383">4 : EstEmployer(pseudo,mot_passe)</text></g></g><g transform="translate(2,2) scale(1,1)"><rect fill="#ffffff" stroke="none" x="1205" y="362" width="13" height="28"/></g><g transform="translate(2,2) scale(1,1)"><path fill="none" stroke="#000000" d="M 1205 362 L 1218 362 L 1218 390 L 1205 390 L 1205 362 Z Z" stroke-miterlimit="10"/></g><g transform="translate(2,2) scale(1,1)"><path fill="none" stroke="#000000" d="M 2192 456 L 1218 456" stroke-miterlimit="10"/></g><g transform="translate(2,2) scale(1,1)"><path fill="#000000" stroke="none" d="M 1228.162674857624 451.790482243984 L 1218 456 L 1228.162674857624 460.209517756016"/></g><g transform="translate(2,2) scale(1,1)"><path fill="none" stroke="#000000" d="M 1228.162674857624 451.790482243984 L 1218 456 L 1228.162674857624 460.209517756016 L 1228.162674857624 451.790482243984" stroke-miterlimit="10"/></g><g transform="translate(2,2) scale(1,1)"><g><path fill="none" stroke="none"/><text fill="#000000" stroke="none" font-family="Arial" font-size="32px" font-style="normal" font-weight="normal" text-decoration="none" x="1465.5" y="477">5 : EstPatron(pseudo,mot_passe)</text></g></g><g transform="translate(2,2) scale(1,1)"><rect fill="#ffffff" stroke="none" x="1205" y="456" width="13" height="28"/></g><g transform="translate(2,2) scale(1,1)"><path fill="none" stroke="#000000" d="M 1205 456 L 1218 456 L 1218 484 L 1205 484 L 1205 456 Z Z" stroke-miterlimit="10"/></g><g transform="translate(2,2) scale(1,1)"><path fill="none" stroke="#000000" d="M 2192 728 L 3257 728" stroke-miterlimit="10"/></g><g transform="translate(2,2) scale(1,1)"><path fill="#000000" stroke="none" d="M 3246.837325142376 732.209517756016 L 3257 728 L 3246.837325142376 723.790482243984"/></g><g transform="translate(2,2) scale(1,1)"><path fill="none" stroke="#000000" d="M 3246.837325142376 732.209517756016 L 3257 728 L 3246.837325142376 723.790482243984 L 3246.837325142376 732.209517756016" stroke-miterlimit="10"/></g><g transform="translate(2,2) scale(1,1)"><g><path fill="none" stroke="none"/><text fill="#000000" stroke="none" font-family="Arial" font-size="32px" font-style="normal" font-weight="normal" text-decoration="none" x="2636.5" y="729">6 : Decripter</text></g></g><g transform="translate(2,2) scale(1,1)"><rect fill="#ffffff" stroke="none" x="3257" y="728" width="13" height="28"/></g><g transform="translate(2,2) scale(1,1)"><path fill="none" stroke="#000000" d="M 3257 728 L 3270 728 L 3270 756 L 3257 756 L 3257 728 Z Z" stroke-miterlimit="10"/></g><g transform="translate(2,2) scale(1,1)"><path fill="none" stroke="#000000" d="M 2192 856 L 3257 856" stroke-miterlimit="10"/></g><g transform="translate(2,2) scale(1,1)"><path fill="#000000" stroke="none" d="M 3246.837325142376 860.209517756016 L 3257 856 L 3246.837325142376 851.790482243984"/></g><g transform="translate(2,2) scale(1,1)"><path fill="none" stroke="#000000" d="M 3246.837325142376 860.209517756016 L 3257 856 L 3246.837325142376 851.790482243984 L 3246.837325142376 860.209517756016" stroke-miterlimit="10"/></g><g transform="translate(2,2) scale(1,1)"><g><path fill="none" stroke="none"/><text fill="#000000" stroke="none" font-family="Arial" font-size="32px" font-style="normal" font-weight="normal" text-decoration="none" x="2482.5" y="857">7 : connexion(pseudo,mot_passe)</text></g></g><g transform="translate(2,2) scale(1,1)"><rect fill="#ffffff" stroke="none" x="3257" y="856" width="13" height="28"/></g><g transform="translate(2,2) scale(1,1)"><path fill="none" stroke="#000000" d="M 3257 856 L 3270 856 L 3270 884 L 3257 884 L 3257 856 Z Z" stroke-miterlimit="10"/></g><g transform="translate(2,2) scale(1,1)"><path fill="none" stroke="#000000" d="M 2738 976 L 748 976" stroke-miterlimit="10" stroke-dasharray="3"/></g><g transform="translate(2,2) scale(1,1)"><path fill="none" stroke="#000000" d="M 758.1626748576241 971.790482243984 L 748 976 L 758.1626748576241 980.209517756016" stroke-miterlimit="10"/></g><g transform="translate(2,2) scale(1,1)"><g><path fill="none" stroke="none"/><text fill="#000000" stroke="none" font-family="Arial" font-size="32px" font-style="normal" font-weight="normal" text-decoration="none" x="1530.5" y="997">8 : Alerter(message_success)</text></g></g><g transform="translate(2,2) scale(1,1)"><path fill="none" stroke="#000000" d="M 2738 1128 L 748 1128" stroke-miterlimit="10" stroke-dasharray="3"/></g><g transform="translate(2,2) scale(1,1)"><path fill="none" stroke="#000000" d="M 758.1626748576241 1123.7904822439841 L 748 1128 L 758.1626748576241 1132.2095177560159" stroke-miterlimit="10"/></g><g transform="translate(2,2) scale(1,1)"><g><path fill="none" stroke="none"/><text fill="#000000" stroke="none" font-family="Arial" font-size="32px" font-style="normal" font-weight="normal" text-decoration="none" x="1545.5" y="1149">9 : Alerter(message_erreur)</text></g></g><g transform="translate(2,2) scale(1,1)"><path fill="none" stroke="#000000" d="M 1160 248 L 2279 248 L 2279 527 L 1160 527 L 1160 248" stroke-miterlimit="10"/></g><g transform="translate(2,2) scale(1,1)"><path fill="#ffffff" stroke="none" d="M 1160 248 L 1160 289 L 1222.25 289 L 1242.75 268.5 L 1242.75 248 L 1160 248"/></g><g transform="translate(2,2) scale(1,1)"><path fill="none" stroke="#000000" d="M 1160 248 L 1160 289 L 1222.25 289 L 1242.75 268.5 L 1242.75 248 L 1160 248 L 1160 248" stroke-miterlimit="10"/></g><g transform="translate(2,2) scale(1,1)"><g><path fill="none" stroke="none"/><text fill="#000000" stroke="none" font-family="Arial" font-size="32px" font-style="normal" font-weight="bold" text-decoration="none" x="1163.2265625" y="277">par</text></g></g><g transform="translate(2,2) scale(1,1)"><path fill="none" stroke="#000000" d="M 1160 352 L 2279 352" stroke-miterlimit="10" stroke-dasharray="10,3"/></g><g transform="translate(2,2) scale(1,1)"><path fill="none" stroke="#000000" d="M 1160 456 L 2279 456" stroke-miterlimit="10" stroke-dasharray="10,3"/></g><g transform="translate(2,2) scale(1,1)"><path fill="none" stroke="#000000" d="M 1072 632 L 3392 632 L 3392 1216 L 1072 1216 L 1072 632" stroke-miterlimit="10"/></g><g transform="translate(2,2) scale(1,1)"><path fill="#ffffff" stroke="none" d="M 1072 632 L 1072 673 L 2830.609375 673 L 2851.109375 652.5 L 2851.109375 632 L 1072 632"/></g><g transform="translate(2,2) scale(1,1)"><path fill="none" stroke="#000000" d="M 1072 632 L 1072 673 L 2830.609375 673 L 2851.109375 652.5 L 2851.109375 632 L 1072 632 L 1072 632" stroke-miterlimit="10"/></g><g transform="translate(2,2) scale(1,1)"><g><path fill="none" stroke="none"/><text fill="#000000" stroke="none" font-family="Arial" font-size="32px" font-style="normal" font-weight="normal" text-decoration="none" x="1116.796875" y="664">EstCient(pseudo,mot_passe) == true || EstEmployer(pseudo,mot_passe) == true || EstPatron(pseudo,mot_passe) ==true</text></g></g><g transform="translate(2,2) scale(1,1)"><g><path fill="none" stroke="none"/><text fill="#000000" stroke="none" font-family="Arial" font-size="32px" font-style="normal" font-weight="bold" text-decoration="none" x="1075.2265625" y="664">alt</text></g></g><g transform="translate(2,2) scale(1,1)"><path fill="none" stroke="#000000" d="M 1072 1084 L 3392 1084" stroke-miterlimit="10" stroke-dasharray="10,3"/></g><g transform="translate(2,2) scale(1,1)"><path fill="none" stroke="#000000" d="M 2088 680 L 3319 680 L 3319 895 L 2088 895 L 2088 680" stroke-miterlimit="10"/></g><g transform="translate(2,2) scale(1,1)"><path fill="#ffffff" stroke="none" d="M 2088 680 L 2088 721 L 2150.25 721 L 2170.75 700.5 L 2170.75 680 L 2088 680"/></g><g transform="translate(2,2) scale(1,1)"><path fill="none" stroke="#000000" d="M 2088 680 L 2088 721 L 2150.25 721 L 2170.75 700.5 L 2170.75 680 L 2088 680 L 2088 680" stroke-miterlimit="10"/></g><g transform="translate(2,2) scale(1,1)"><g><path fill="none" stroke="none"/><text fill="#000000" stroke="none" font-family="Arial" font-size="32px" font-style="normal" font-weight="bold" text-decoration="none" x="2091.2265625" y="709">par</text></g></g><g transform="translate(2,2) scale(1,1)"><path fill="none" stroke="#000000" d="M 2088 812 L 3319 812" stroke-miterlimit="10" stroke-dasharray="10,3"/></g></g></svg>