<svg version="1.1" xmlns="http://www.w3.org/2000/svg" xmlns:xlink="http://www.w3.org/1999/xlink" width="1796" height="628"><defs/><g><g transform="translate(-62,10) scale(1,1)"><path fill="none" stroke="#000000" d="M 72 0 L 1848 0 L 1848 608 L 72 608 L 72 0" stroke-miterlimit="10"/></g><g transform="translate(-62,10) scale(1,1)"><path fill="#ffffff" stroke="none" d="M 72 0 L 72 41 L 381.46875 41 L 401.96875 20.5 L 401.96875 0 L 72 0"/></g><g transform="translate(-62,10) scale(1,1)"><path fill="none" stroke="#000000" d="M 72 0 L 72 41 L 381.46875 41 L 401.96875 20.5 L 401.96875 0 L 72 0 L 72 0" stroke-miterlimit="10"/></g><g transform="translate(-62,10) scale(1,1)"><g><path fill="none" stroke="none"/><text fill="#000000" stroke="none" font-family="Arial" font-size="32px" font-style="normal" font-weight="normal" text-decoration="none" x="116.796875" y="32">Retirer  du Panier </text></g></g><g transform="translate(-62,10) scale(1,1)"><g><path fill="none" stroke="none"/><text fill="#000000" stroke="none" font-family="Arial" font-size="32px" font-style="normal" font-weight="bold" text-decoration="none" x="75.2265625" y="32">sd</text></g></g><g transform="translate(-62,10) scale(1,1)"><path fill="#ffffff" stroke="none" d="M 250.43809659090908 47.3 C 250.43809659090908 43.82060576 253.3164983130909 41 256.8671875 41 C 260.4178766869091 41 263.2962784090909 43.82060576 263.2962784090909 47.3 C 263.2962784090909 50.779394239999995 260.4178766869091 53.6 256.8671875 53.6 C 253.3164983130909 53.6 250.43809659090908 50.779394239999995 250.43809659090908 47.3 Z"/></g><g transform="translate(-62,10) scale(1,1)"><path fill="none" stroke="#000000" d="M 250.43809659090908 47.3 C 250.43809659090908 43.82060576 253.3164983130909 41 256.8671875 41 C 260.4178766869091 41 263.2962784090909 43.82060576 263.2962784090909 47.3 C 263.2962784090909 50.779394239999995 260.4178766869091 53.6 256.8671875 53.6 C 253.3164983130909 53.6 250.43809659090908 50.779394239999995 250.43809659090908 47.3 Z" stroke-miterlimit="10"/></g><g transform="translate(-62,10) scale(1,1)"><path fill="none" stroke="#000000" d="M 256.8671875 53.6 L 256.8671875 66.4" stroke-miterlimit="10"/></g><g transform="translate(-62,10) scale(1,1)"><path fill="none" stroke="#000000" d="M 250.05991477272727 58.4 L 263.67446022727273 58.4" stroke-miterlimit="10"/></g><g transform="translate(-62,10) scale(1,1)"><path fill="none" stroke="#000000" d="M 256.8671875 66.4 L 247.41264204545453 79" stroke-miterlimit="10"/></g><g transform="translate(-62,10) scale(1,1)"><path fill="none" stroke="#000000" d="M 256.8671875 66.4 L 266.32173295454544 79" stroke-miterlimit="10"/></g><g transform="translate(-62,10) scale(1,1)"><g><path fill="none" stroke="none"/><text fill="#000000" stroke="none" font-family="Arial" font-size="32px" font-style="normal" font-weight="bold" text-decoration="none" x="123.5" y="113.5">Personne: Actor1</text></g></g><g transform="translate(-62,10) scale(1,1)"><path fill="none" stroke="#000000" d="M 257.5 124 L 257.5 576" stroke-miterlimit="10" stroke-dasharray="3"/></g><g transform="translate(-62,10) scale(1,1)"><rect fill="#C0C0C0" stroke="none" x="807" y="47" width="95" height="39" opacity="0.2"/></g><g transform="translate(-62,10) scale(1,1)"><rect fill="#ffffff" stroke="none" x="800" y="40" width="95" height="39"/></g><g transform="translate(-62,10) scale(1,1)"><path fill="none" stroke="#000000" d="M 800 40 L 895 40 L 895 79 L 800 79 L 800 40 Z Z" stroke-miterlimit="10"/></g><g transform="translate(-62,10) scale(1,1)"><g><path fill="none" stroke="none"/><text fill="#000000" stroke="none" font-family="Arial" font-size="32px" font-style="normal" font-weight="bold" text-decoration="none" x="847.5" y="62.5"></text></g></g><g transform="translate(-62,10) scale(1,1)"><path fill="none" stroke="#000000" d="M 848.5 80 L 848.5 568" stroke-miterlimit="10" stroke-dasharray="3"/></g><g transform="translate(-62,10) scale(1,1)"><rect fill="#C0C0C0" stroke="none" x="1223" y="47" width="127.484375" height="39" opacity="0.2"/></g><g transform="translate(-62,10) scale(1,1)"><rect fill="#ffffff" stroke="none" x="1216" y="40" width="127.484375" height="39"/></g><g transform="translate(-62,10) scale(1,1)"><path fill="none" stroke="#000000" d="M 1216 40 L 1343.484375 40 L 1343.484375 79 L 1216 79 L 1216 40 Z Z" stroke-miterlimit="10"/></g><g transform="translate(-62,10) scale(1,1)"><g><path fill="none" stroke="none"/><text fill="#000000" stroke="none" font-family="Arial" font-size="32px" font-style="normal" font-weight="bold" text-decoration="none" x="1225.5" y="74">:Panier</text></g></g><g transform="translate(-62,10) scale(1,1)"><path fill="none" stroke="#000000" d="M 1280.5 80 L 1280.5 576" stroke-miterlimit="10" stroke-dasharray="3"/></g><g transform="translate(-62,10) scale(1,1)"><path fill="#ffffff" stroke="none" d="M 1360 80 L 1821 80 L 1831 90 L 1831 271 L 1360 271 L 1360 80"/></g><g transform="translate(-62,10) scale(1,1)"><path fill="none" stroke="#000000" d="M 1360 80 L 1821 80 L 1831 90 L 1831 271 L 1360 271 L 1360 80 L 1360 80" stroke-miterlimit="10"/></g><g transform="translate(-62,10) scale(1,1)"><path fill="none" stroke="#000000" d="M 1821 80 L 1821 90 L 1831 90 L 1821 80" stroke-miterlimit="10"/></g><g transform="translate(-62,10) scale(1,1)"><g><path fill="none" stroke="none"/><text fill="#000000" stroke="none" font-family="Arial" font-size="32px" font-style="normal" font-weight="normal" text-decoration="none" x="1365" y="109">Créer un tableau puis inserer</text><text fill="#000000" stroke="none" font-family="Arial" font-size="32px" font-style="normal" font-weight="normal" text-decoration="none" x="1365" y="140">identifiant et en fin le suppirmer</text><text fill="#000000" stroke="none" font-family="Arial" font-size="32px" font-style="normal" font-weight="normal" text-decoration="none" x="1365" y="172">dans Panier dans le cas de la</text><text fill="#000000" stroke="none" font-family="Arial" font-size="32px" font-style="normal" font-weight="normal" text-decoration="none" x="1365" y="205">méthode retirer et dans le cas</text><text fill="#000000" stroke="none" font-family="Arial" font-size="32px" font-style="normal" font-weight="normal" text-decoration="none" x="1365" y="236">de la methode remettre </text></g></g><g transform="translate(-62,10) scale(1,1)"><path fill="none" stroke="#000000" d="M 1060 344 L 1359 250" stroke-miterlimit="10" stroke-dasharray="3"/></g><g transform="translate(-62,10) scale(1,1)"><path fill="none" stroke="#000000" d="M 257 156 L 841 156" stroke-miterlimit="10"/></g><g transform="translate(-62,10) scale(1,1)"><path fill="#000000" stroke="none" d="M 830.8373251423759 160.209517756016 L 841 156 L 830.8373251423758 151.790482243984"/></g><g transform="translate(-62,10) scale(1,1)"><path fill="none" stroke="#000000" d="M 830.8373251423759 160.209517756016 L 841 156 L 830.8373251423758 151.790482243984 L 830.8373251423759 160.209517756016" stroke-miterlimit="10"/></g><g transform="translate(-62,10) scale(1,1)"><g><path fill="none" stroke="none"/><text fill="#000000" stroke="none" font-family="Arial" font-size="32px" font-style="normal" font-weight="normal" text-decoration="none" x="392.5" y="157.5">1 : sélectionner image</text></g></g><g transform="translate(-62,10) scale(1,1)"><rect fill="#ffffff" stroke="none" x="841" y="156" width="13" height="28"/></g><g transform="translate(-62,10) scale(1,1)"><path fill="none" stroke="#000000" d="M 841 156 L 854 156 L 854 184 L 841 184 L 841 156 Z Z" stroke-miterlimit="10"/></g><g transform="translate(-62,10) scale(1,1)"><path fill="none" stroke="#000000" d="M 257 218 L 841 218" stroke-miterlimit="10"/></g><g transform="translate(-62,10) scale(1,1)"><path fill="#000000" stroke="none" d="M 830.8373251423759 222.209517756016 L 841 218 L 830.8373251423758 213.790482243984"/></g><g transform="translate(-62,10) scale(1,1)"><path fill="none" stroke="#000000" d="M 830.8373251423759 222.209517756016 L 841 218 L 830.8373251423758 213.790482243984 L 830.8373251423759 222.209517756016" stroke-miterlimit="10"/></g><g transform="translate(-62,10) scale(1,1)"><g><path fill="none" stroke="none"/><text fill="#000000" stroke="none" font-family="Arial" font-size="32px" font-style="normal" font-weight="normal" text-decoration="none" x="342.5" y="219.5">2 : Cliquer sur mettre de côté</text></g></g><g transform="translate(-62,10) scale(1,1)"><rect fill="#ffffff" stroke="none" x="841" y="218" width="13" height="28"/></g><g transform="translate(-62,10) scale(1,1)"><path fill="none" stroke="#000000" d="M 841 218 L 854 218 L 854 246 L 841 246 L 841 218 Z Z" stroke-miterlimit="10"/></g><g transform="translate(-62,10) scale(1,1)"><path fill="none" stroke="#000000" d="M 848 264 L 878 264 L 878 284 L 854 284" stroke-miterlimit="10"/></g><g transform="translate(-62,10) scale(1,1)"><path fill="#000000" stroke="none" d="M 864.1626748576241 279.790482243984 L 854 284 L 864.1626748576241 288.209517756016"/></g><g transform="translate(-62,10) scale(1,1)"><path fill="none" stroke="#000000" d="M 864.1626748576241 279.790482243984 L 854 284 L 864.1626748576241 288.209517756016 L 864.1626748576241 279.790482243984" stroke-miterlimit="10"/></g><g transform="translate(-62,10) scale(1,1)"><g><path fill="none" stroke="none"/><text fill="#000000" stroke="none" font-family="Arial" font-size="32px" font-style="normal" font-weight="normal" text-decoration="none" x="845.5" y="284">3 : getId(id)</text></g></g><g transform="translate(-62,10) scale(1,1)"><rect fill="#ffffff" stroke="none" x="841" y="284" width="13" height="28"/></g><g transform="translate(-62,10) scale(1,1)"><path fill="none" stroke="#000000" d="M 841 284 L 854 284 L 854 312 L 841 312 L 841 284 Z Z" stroke-miterlimit="10"/></g><g transform="translate(-62,10) scale(1,1)"><path fill="none" stroke="#000000" d="M 848 344 L 1273 344" stroke-miterlimit="10"/></g><g transform="translate(-62,10) scale(1,1)"><path fill="#000000" stroke="none" d="M 1262.837325142376 348.209517756016 L 1273 344 L 1262.837325142376 339.790482243984"/></g><g transform="translate(-62,10) scale(1,1)"><path fill="none" stroke="#000000" d="M 1262.837325142376 348.209517756016 L 1273 344 L 1262.837325142376 339.790482243984 L 1262.837325142376 348.209517756016" stroke-miterlimit="10"/></g><g transform="translate(-62,10) scale(1,1)"><g><path fill="none" stroke="none"/><text fill="#000000" stroke="none" font-family="Arial" font-size="32px" font-style="normal" font-weight="normal" text-decoration="none" x="962.34375" y="345">4 : Retirer (id)</text></g></g><g transform="translate(-62,10) scale(1,1)"><rect fill="#ffffff" stroke="none" x="1273" y="344" width="13" height="28"/></g><g transform="translate(-62,10) scale(1,1)"><path fill="none" stroke="#000000" d="M 1273 344 L 1286 344 L 1286 372 L 1273 372 L 1273 344 Z Z" stroke-miterlimit="10"/></g><g transform="translate(-62,10) scale(1,1)"><path fill="none" stroke="#000000" d="M 1280 424 L 1310 424 L 1310 444 L 1286 444" stroke-miterlimit="10"/></g><g transform="translate(-62,10) scale(1,1)"><path fill="#000000" stroke="none" d="M 1296.162674857624 439.790482243984 L 1286 444 L 1296.162674857624 448.209517756016"/></g><g transform="translate(-62,10) scale(1,1)"><path fill="none" stroke="#000000" d="M 1296.162674857624 439.790482243984 L 1286 444 L 1296.162674857624 448.209517756016 L 1296.162674857624 439.790482243984" stroke-miterlimit="10"/></g><g transform="translate(-62,10) scale(1,1)"><g><path fill="none" stroke="none"/><text fill="#000000" stroke="none" font-family="Arial" font-size="32px" font-style="normal" font-weight="normal" text-decoration="none" x="1319.5" y="441">5 : supprimer | Enregistrer(id)</text></g></g><g transform="translate(-62,10) scale(1,1)"><rect fill="#ffffff" stroke="none" x="1273" y="444" width="13" height="28"/></g><g transform="translate(-62,10) scale(1,1)"><path fill="none" stroke="#000000" d="M 1273 444 L 1286 444 L 1286 472 L 1273 472 L 1273 444 Z Z" stroke-miterlimit="10"/></g><g transform="translate(-62,10) scale(1,1)"><path fill="none" stroke="#000000" d="M 1280 504 L 848 504" stroke-miterlimit="10" stroke-dasharray="3"/></g><g transform="translate(-62,10) scale(1,1)"><path fill="none" stroke="#000000" d="M 858.1626748576241 499.790482243984 L 848 504 L 858.1626748576241 508.209517756016" stroke-miterlimit="10"/></g><g transform="translate(-62,10) scale(1,1)"><g><path fill="none" stroke="none"/><text fill="#000000" stroke="none" font-family="Arial" font-size="32px" font-style="normal" font-weight="normal" text-decoration="none" x="1040.5" y="524.5">6 : </text></g></g></g></svg>