<svg version="1.1" xmlns="http://www.w3.org/2000/svg" xmlns:xlink="http://www.w3.org/1999/xlink" width="2716" height="1524"><defs/><g><g transform="translate(-46,10) scale(1,1)"><path fill="none" stroke="#000000" d="M 56 0 L 2752 0 L 2752 1504 L 56 1504 L 56 0" stroke-miterlimit="10"/></g><g transform="translate(-46,10) scale(1,1)"><path fill="#ffffff" stroke="none" d="M 56 0 L 56 41 L 315.09375 41 L 335.59375 20.5 L 335.59375 0 L 56 0"/></g><g transform="translate(-46,10) scale(1,1)"><path fill="none" stroke="#000000" d="M 56 0 L 56 41 L 315.09375 41 L 335.59375 20.5 L 335.59375 0 L 56 0 L 56 0" stroke-miterlimit="10"/></g><g transform="translate(-46,10) scale(1,1)"><g><path fill="none" stroke="none"/><text fill="#000000" stroke="none" font-family="Arial" font-size="32px" font-style="normal" font-weight="normal" text-decoration="none" x="100.796875" y="32">Afficher Panier</text></g></g><g transform="translate(-46,10) scale(1,1)"><g><path fill="none" stroke="none"/><text fill="#000000" stroke="none" font-family="Arial" font-size="32px" font-style="normal" font-weight="bold" text-decoration="none" x="59.2265625" y="32">sd</text></g></g><g transform="translate(-46,10) scale(1,1)"><path fill="#ffffff" stroke="none" d="M 227.43809659090908 47.3 C 227.43809659090908 43.82060576 230.3164983130909 41 233.8671875 41 C 237.4178766869091 41 240.2962784090909 43.82060576 240.2962784090909 47.3 C 240.2962784090909 50.779394239999995 237.4178766869091 53.6 233.8671875 53.6 C 230.3164983130909 53.6 227.43809659090908 50.779394239999995 227.43809659090908 47.3 Z"/></g><g transform="translate(-46,10) scale(1,1)"><path fill="none" stroke="#000000" d="M 227.43809659090908 47.3 C 227.43809659090908 43.82060576 230.3164983130909 41 233.8671875 41 C 237.4178766869091 41 240.2962784090909 43.82060576 240.2962784090909 47.3 C 240.2962784090909 50.779394239999995 237.4178766869091 53.6 233.8671875 53.6 C 230.3164983130909 53.6 227.43809659090908 50.779394239999995 227.43809659090908 47.3 Z" stroke-miterlimit="10"/></g><g transform="translate(-46,10) scale(1,1)"><path fill="none" stroke="#000000" d="M 233.8671875 53.6 L 233.8671875 66.4" stroke-miterlimit="10"/></g><g transform="translate(-46,10) scale(1,1)"><path fill="none" stroke="#000000" d="M 227.05991477272727 58.4 L 240.6744602272727 58.4" stroke-miterlimit="10"/></g><g transform="translate(-46,10) scale(1,1)"><path fill="none" stroke="#000000" d="M 233.8671875 66.4 L 224.41264204545453 79" stroke-miterlimit="10"/></g><g transform="translate(-46,10) scale(1,1)"><path fill="none" stroke="#000000" d="M 233.8671875 66.4 L 243.32173295454544 79" stroke-miterlimit="10"/></g><g transform="translate(-46,10) scale(1,1)"><g><path fill="none" stroke="none"/><text fill="#000000" stroke="none" font-family="Arial" font-size="32px" font-style="normal" font-weight="bold" text-decoration="none" x="100.5" y="113.5">Personne: Actor1</text></g></g><g transform="translate(-46,10) scale(1,1)"><path fill="none" stroke="#000000" d="M 234.5 124 L 234.5 1360" stroke-miterlimit="10" stroke-dasharray="3"/></g><g transform="translate(-46,10) scale(1,1)"><rect fill="#C0C0C0" stroke="none" x="1055" y="47" width="71.736328125" height="39" opacity="0.2"/></g><g transform="translate(-46,10) scale(1,1)"><rect fill="#ffffff" stroke="none" x="1048" y="40" width="71.736328125" height="39"/></g><g transform="translate(-46,10) scale(1,1)"><path fill="none" stroke="#000000" d="M 1048 40 L 1119.736328125 40 L 1119.736328125 79 L 1048 79 L 1048 40 Z Z" stroke-miterlimit="10"/></g><g transform="translate(-46,10) scale(1,1)"><g><path fill="none" stroke="none"/><text fill="#000000" stroke="none" font-family="Arial" font-size="32px" font-style="normal" font-weight="bold" text-decoration="none" x="1083.8681640625" y="62.5"></text></g></g><g transform="translate(-46,10) scale(1,1)"><path fill="none" stroke="#000000" d="M 1084.5 80 L 1084.5 1432" stroke-miterlimit="10" stroke-dasharray="3"/></g><g transform="translate(-46,10) scale(1,1)"><rect fill="#C0C0C0" stroke="none" x="1559" y="47" width="125.6875" height="39" opacity="0.2"/></g><g transform="translate(-46,10) scale(1,1)"><rect fill="#ffffff" stroke="none" x="1552" y="40" width="125.6875" height="39"/></g><g transform="translate(-46,10) scale(1,1)"><path fill="none" stroke="#000000" d="M 1552 40 L 1677.6875 40 L 1677.6875 79 L 1552 79 L 1552 40 Z Z" stroke-miterlimit="10"/></g><g transform="translate(-46,10) scale(1,1)"><g><path fill="none" stroke="none"/><text fill="#000000" stroke="none" font-family="Arial" font-size="32px" font-style="normal" font-weight="bold" text-decoration="none" x="1561.5" y="74">:panier</text></g></g><g transform="translate(-46,10) scale(1,1)"><path fill="none" stroke="#000000" d="M 1615.5 80 L 1615.5 1440" stroke-miterlimit="10" stroke-dasharray="3"/></g><g transform="translate(-46,10) scale(1,1)"><rect fill="#C0C0C0" stroke="none" x="2047" y="307" width="129.25" height="39" opacity="0.2"/></g><g transform="translate(-46,10) scale(1,1)"><rect fill="#ffffff" stroke="none" x="2040" y="300" width="129.25" height="39"/></g><g transform="translate(-46,10) scale(1,1)"><path fill="none" stroke="#000000" d="M 2040 300 L 2169.25 300 L 2169.25 339 L 2040 339 L 2040 300 Z Z" stroke-miterlimit="10"/></g><g transform="translate(-46,10) scale(1,1)"><g><path fill="none" stroke="none"/><text fill="#000000" stroke="none" font-family="Arial" font-size="32px" font-style="normal" font-weight="bold" text-decoration="none" x="2049.5" y="334">:Article</text></g></g><g transform="translate(-46,10) scale(1,1)"><path fill="none" stroke="#000000" d="M 2105.5 340 L 2105.5 1456" stroke-miterlimit="10" stroke-dasharray="3"/></g><g transform="translate(-46,10) scale(1,1)"><rect fill="#C0C0C0" stroke="none" x="2407" y="47" width="205.640625" height="39" opacity="0.2"/></g><g transform="translate(-46,10) scale(1,1)"><rect fill="#ffffff" stroke="none" x="2400" y="40" width="205.640625" height="39"/></g><g transform="translate(-46,10) scale(1,1)"><path fill="none" stroke="#000000" d="M 2400 40 L 2605.640625 40 L 2605.640625 79 L 2400 79 L 2400 40 Z Z" stroke-miterlimit="10"/></g><g transform="translate(-46,10) scale(1,1)"><g><path fill="none" stroke="none"/><text fill="#000000" stroke="none" font-family="Arial" font-size="32px" font-style="normal" font-weight="bold" text-decoration="none" x="2409.5" y="74">:Notification</text></g></g><g transform="translate(-46,10) scale(1,1)"><path fill="none" stroke="#000000" d="M 2503.5 80 L 2503.5 1424" stroke-miterlimit="10" stroke-dasharray="3"/></g><g transform="translate(-46,10) scale(1,1)"><path fill="#ffffff" stroke="none" d="M 2192 392 L 2411.65625 392 L 2421.65625 402 L 2421.65625 503 L 2192 503 L 2192 392"/></g><g transform="translate(-46,10) scale(1,1)"><path fill="none" stroke="#000000" d="M 2192 392 L 2411.65625 392 L 2421.65625 402 L 2421.65625 503 L 2192 503 L 2192 392 L 2192 392" stroke-miterlimit="10"/></g><g transform="translate(-46,10) scale(1,1)"><path fill="none" stroke="#000000" d="M 2411.65625 392 L 2411.65625 402 L 2421.65625 402 L 2411.65625 392" stroke-miterlimit="10"/></g><g transform="translate(-46,10) scale(1,1)"><g><path fill="none" stroke="none"/><text fill="#000000" stroke="none" font-family="Arial" font-size="32px" font-style="normal" font-weight="normal" text-decoration="none" x="2197" y="420">Principalement</text><text fill="#000000" stroke="none" font-family="Arial" font-size="32px" font-style="normal" font-weight="normal" text-decoration="none" x="2197" y="452">l'article le plus</text><text fill="#000000" stroke="none" font-family="Arial" font-size="32px" font-style="normal" font-weight="normal" text-decoration="none" x="2197" y="485">récent </text></g></g><g transform="translate(-46,10) scale(1,1)"><path fill="none" stroke="#000000" d="M 1594 467 L 2191 451" stroke-miterlimit="10" stroke-dasharray="3"/></g><g transform="translate(-46,10) scale(1,1)"><path fill="#000000" stroke="none" d="M 1608 935.5 C 1608 931.6340064 1611.1340064 928.5 1615 928.5 C 1618.8659936 928.5 1622 931.6340064 1622 935.5 C 1622 939.3659936 1618.8659936 942.5 1615 942.5 C 1611.1340064 942.5 1608 939.3659936 1608 935.5 Z"/></g><g transform="translate(-46,10) scale(1,1)"><path fill="none" stroke="#000000" d="M 234 160 L 1077 160" stroke-miterlimit="10"/></g><g transform="translate(-46,10) scale(1,1)"><path fill="#000000" stroke="none" d="M 1066.837325142376 164.209517756016 L 1077 160 L 1066.837325142376 155.790482243984"/></g><g transform="translate(-46,10) scale(1,1)"><path fill="none" stroke="#000000" d="M 1066.837325142376 164.209517756016 L 1077 160 L 1066.837325142376 155.790482243984 L 1066.837325142376 164.209517756016" stroke-miterlimit="10"/></g><g transform="translate(-46,10) scale(1,1)"><g><path fill="none" stroke="none"/><text fill="#000000" stroke="none" font-family="Arial" font-size="32px" font-style="normal" font-weight="normal" text-decoration="none" x="490.5" y="161.5">1 : Cliquer icône panier</text></g></g><g transform="translate(-46,10) scale(1,1)"><rect fill="#ffffff" stroke="none" x="1077" y="160" width="13" height="28"/></g><g transform="translate(-46,10) scale(1,1)"><path fill="none" stroke="#000000" d="M 1077 160 L 1090 160 L 1090 188 L 1077 188 L 1077 160 Z Z" stroke-miterlimit="10"/></g><g transform="translate(-46,10) scale(1,1)"><path fill="none" stroke="#000000" d="M 1084 248 L 1608 248" stroke-miterlimit="10"/></g><g transform="translate(-46,10) scale(1,1)"><path fill="#000000" stroke="none" d="M 1597.837325142376 252.209517756016 L 1608 248 L 1597.837325142376 243.790482243984"/></g><g transform="translate(-46,10) scale(1,1)"><path fill="none" stroke="#000000" d="M 1597.837325142376 252.209517756016 L 1608 248 L 1597.837325142376 243.790482243984 L 1597.837325142376 252.209517756016" stroke-miterlimit="10"/></g><g transform="translate(-46,10) scale(1,1)"><g><path fill="none" stroke="none"/><text fill="#000000" stroke="none" font-family="Arial" font-size="32px" font-style="normal" font-weight="normal" text-decoration="none" x="1259.5" y="249">2 : Afficher()</text></g></g><g transform="translate(-46,10) scale(1,1)"><rect fill="#ffffff" stroke="none" x="1608" y="248" width="13" height="28"/></g><g transform="translate(-46,10) scale(1,1)"><path fill="none" stroke="#000000" d="M 1608 248 L 1621 248 L 1621 276 L 1608 276 L 1608 248 Z Z" stroke-miterlimit="10"/></g><g transform="translate(-46,10) scale(1,1)"><path fill="none" stroke="#000000" d="M 1615 320 L 2040 320" stroke-miterlimit="10" stroke-dasharray="3"/></g><g transform="translate(-46,10) scale(1,1)"><path fill="none" stroke="#000000" d="M 2029.837325142376 324.209517756016 L 2040 320 L 2029.837325142376 315.790482243984" stroke-miterlimit="10"/></g><g transform="translate(-46,10) scale(1,1)"><g><path fill="none" stroke="none"/><text fill="#000000" stroke="none" font-family="Arial" font-size="32px" font-style="normal" font-weight="normal" text-decoration="none" x="1727.5" y="321">3 : Afficher(id)</text></g></g><g transform="translate(-46,10) scale(1,1)"><g><path fill="none" stroke="none"/><text fill="#000000" stroke="none" font-family="Arial" font-size="32px" font-style="normal" font-weight="normal" text-decoration="none" x="1766.5" y="281">«create»</text></g></g><g transform="translate(-46,10) scale(1,1)"><path fill="none" stroke="#000000" d="M 1084 368 L 1608 368" stroke-miterlimit="10"/></g><g transform="translate(-46,10) scale(1,1)"><path fill="#000000" stroke="none" d="M 1597.837325142376 372.209517756016 L 1608 368 L 1597.837325142376 363.790482243984"/></g><g transform="translate(-46,10) scale(1,1)"><path fill="none" stroke="#000000" d="M 1597.837325142376 372.209517756016 L 1608 368 L 1597.837325142376 363.790482243984 L 1597.837325142376 372.209517756016" stroke-miterlimit="10"/></g><g transform="translate(-46,10) scale(1,1)"><g><path fill="none" stroke="none"/><text fill="#000000" stroke="none" font-family="Arial" font-size="32px" font-style="normal" font-weight="normal" text-decoration="none" x="1251.5" y="369">4 : Compter()</text></g></g><g transform="translate(-46,10) scale(1,1)"><rect fill="#ffffff" stroke="none" x="1608" y="368" width="13" height="28"/></g><g transform="translate(-46,10) scale(1,1)"><path fill="none" stroke="#000000" d="M 1608 368 L 1621 368 L 1621 396 L 1608 396 L 1608 368 Z Z" stroke-miterlimit="10"/></g><g transform="translate(-46,10) scale(1,1)"><path fill="none" stroke="#000000" d="M 2105 467 L 1084 467" stroke-miterlimit="10" stroke-dasharray="3"/></g><g transform="translate(-46,10) scale(1,1)"><path fill="none" stroke="#000000" d="M 1094.162674857624 462.790482243984 L 1084 467 L 1094.162674857624 471.209517756016" stroke-miterlimit="10"/></g><g transform="translate(-46,10) scale(1,1)"><g><path fill="none" stroke="none"/><text fill="#000000" stroke="none" font-family="Arial" font-size="32px" font-style="normal" font-weight="normal" text-decoration="none" x="1504.5" y="488">5 : Affichage</text></g></g><g transform="translate(-46,10) scale(1,1)"><path fill="none" stroke="#000000" d="M 2503 584 L 1084 584" stroke-miterlimit="10" stroke-dasharray="3"/></g><g transform="translate(-46,10) scale(1,1)"><path fill="none" stroke="#000000" d="M 1094.162674857624 579.790482243984 L 1084 584 L 1094.162674857624 588.209517756016" stroke-miterlimit="10"/></g><g transform="translate(-46,10) scale(1,1)"><g><path fill="none" stroke="none"/><text fill="#000000" stroke="none" font-family="Arial" font-size="32px" font-style="normal" font-weight="normal" text-decoration="none" x="1591.5" y="605">6 : Alerter (message_erreur)</text></g></g><g transform="translate(-46,10) scale(1,1)"><path fill="none" stroke="#000000" d="M 234 706 L 1077 706" stroke-miterlimit="10"/></g><g transform="translate(-46,10) scale(1,1)"><path fill="#000000" stroke="none" d="M 1066.837325142376 710.209517756016 L 1077 706 L 1066.837325142376 701.790482243984"/></g><g transform="translate(-46,10) scale(1,1)"><path fill="none" stroke="#000000" d="M 1066.837325142376 710.209517756016 L 1077 706 L 1066.837325142376 701.790482243984 L 1066.837325142376 710.209517756016" stroke-miterlimit="10"/></g><g transform="translate(-46,10) scale(1,1)"><g><path fill="none" stroke="none"/><text fill="#000000" stroke="none" font-family="Arial" font-size="32px" font-style="normal" font-weight="normal" text-decoration="none" x="490.5" y="707.5">7 : Cliquer icône panier</text></g></g><g transform="translate(-46,10) scale(1,1)"><rect fill="#ffffff" stroke="none" x="1077" y="706" width="13" height="28"/></g><g transform="translate(-46,10) scale(1,1)"><path fill="none" stroke="#000000" d="M 1077 706 L 1090 706 L 1090 734 L 1077 734 L 1077 706 Z Z" stroke-miterlimit="10"/></g><g transform="translate(-46,10) scale(1,1)"><path fill="none" stroke="#000000" d="M 1084 770 L 1608 770" stroke-miterlimit="10"/></g><g transform="translate(-46,10) scale(1,1)"><path fill="#000000" stroke="none" d="M 1597.837325142376 774.209517756016 L 1608 770 L 1597.837325142376 765.790482243984"/></g><g transform="translate(-46,10) scale(1,1)"><path fill="none" stroke="#000000" d="M 1597.837325142376 774.209517756016 L 1608 770 L 1597.837325142376 765.790482243984 L 1597.837325142376 774.209517756016" stroke-miterlimit="10"/></g><g transform="translate(-46,10) scale(1,1)"><g><path fill="none" stroke="none"/><text fill="#000000" stroke="none" font-family="Arial" font-size="32px" font-style="normal" font-weight="normal" text-decoration="none" x="1259.5" y="771">8 : Afficher()</text></g></g><g transform="translate(-46,10) scale(1,1)"><rect fill="#ffffff" stroke="none" x="1608" y="770" width="13" height="28"/></g><g transform="translate(-46,10) scale(1,1)"><path fill="none" stroke="#000000" d="M 1608 770 L 1621 770 L 1621 798 L 1608 798 L 1608 770 Z Z" stroke-miterlimit="10"/></g><g transform="translate(-46,10) scale(1,1)"><path fill="none" stroke="#000000" d="M 1615 834 L 2098 834" stroke-miterlimit="10"/></g><g transform="translate(-46,10) scale(1,1)"><path fill="#000000" stroke="none" d="M 2087.837325142376 838.209517756016 L 2098 834 L 2087.837325142376 829.790482243984"/></g><g transform="translate(-46,10) scale(1,1)"><path fill="none" stroke="#000000" d="M 2087.837325142376 838.209517756016 L 2098 834 L 2087.837325142376 829.790482243984 L 2087.837325142376 838.209517756016" stroke-miterlimit="10"/></g><g transform="translate(-46,10) scale(1,1)"><g><path fill="none" stroke="none"/><text fill="#000000" stroke="none" font-family="Arial" font-size="32px" font-style="normal" font-weight="normal" text-decoration="none" x="1756.5" y="835">9 : Afficher(id)</text></g></g><g transform="translate(-46,10) scale(1,1)"><rect fill="#ffffff" stroke="none" x="2098" y="834" width="13" height="28"/></g><g transform="translate(-46,10) scale(1,1)"><path fill="none" stroke="#000000" d="M 2098 834 L 2111 834 L 2111 862 L 2098 862 L 2098 834 Z Z" stroke-miterlimit="10"/></g><g transform="translate(-46,10) scale(1,1)"><path fill="none" stroke="#000000" d="M 1608 936 L 1090 936" stroke-miterlimit="10"/></g><g transform="translate(-46,10) scale(1,1)"><path fill="#000000" stroke="none" d="M 1100.162674857624 931.790482243984 L 1090 936 L 1100.162674857624 940.209517756016"/></g><g transform="translate(-46,10) scale(1,1)"><path fill="none" stroke="#000000" d="M 1100.162674857624 931.790482243984 L 1090 936 L 1100.162674857624 940.209517756016 L 1100.162674857624 931.790482243984" stroke-miterlimit="10"/></g><g transform="translate(-46,10) scale(1,1)"><g><path fill="none" stroke="none"/><text fill="#000000" stroke="none" font-family="Arial" font-size="32px" font-style="normal" font-weight="normal" text-decoration="none" x="799.5" y="921.5">10 : Générer une interface possedant  image aligner sur la verticale</text></g></g><g transform="translate(-46,10) scale(1,1)"><rect fill="#ffffff" stroke="none" x="1077" y="936" width="13" height="28"/></g><g transform="translate(-46,10) scale(1,1)"><path fill="none" stroke="#000000" d="M 1077 936 L 1090 936 L 1090 964 L 1077 964 L 1077 936 Z Z" stroke-miterlimit="10"/></g><g transform="translate(-46,10) scale(1,1)"><path fill="none" stroke="#000000" d="M 2105 992 L 1084 992" stroke-miterlimit="10" stroke-dasharray="3"/></g><g transform="translate(-46,10) scale(1,1)"><path fill="none" stroke="#000000" d="M 1094.162674857624 987.790482243984 L 1084 992 L 1094.162674857624 996.209517756016" stroke-miterlimit="10"/></g><g transform="translate(-46,10) scale(1,1)"><g><path fill="none" stroke="none"/><text fill="#000000" stroke="none" font-family="Arial" font-size="32px" font-style="normal" font-weight="normal" text-decoration="none" x="1496.5" y="1013">11 : Affichage</text></g></g><g transform="translate(-46,10) scale(1,1)"><path fill="none" stroke="#000000" d="M 234 1122 L 1077 1122" stroke-miterlimit="10"/></g><g transform="translate(-46,10) scale(1,1)"><path fill="#000000" stroke="none" d="M 1066.837325142376 1126.2095177560159 L 1077 1122 L 1066.837325142376 1117.7904822439841"/></g><g transform="translate(-46,10) scale(1,1)"><path fill="none" stroke="#000000" d="M 1066.837325142376 1126.2095177560159 L 1077 1122 L 1066.837325142376 1117.7904822439841 L 1066.837325142376 1126.2095177560159" stroke-miterlimit="10"/></g><g transform="translate(-46,10) scale(1,1)"><g><path fill="none" stroke="none"/><text fill="#000000" stroke="none" font-family="Arial" font-size="32px" font-style="normal" font-weight="normal" text-decoration="none" x="268.5" y="1123.5">12 : Cliquer sur image contenu dans  interface générer</text></g></g><g transform="translate(-46,10) scale(1,1)"><rect fill="#ffffff" stroke="none" x="1077" y="1122" width="13" height="28"/></g><g transform="translate(-46,10) scale(1,1)"><path fill="none" stroke="#000000" d="M 1077 1122 L 1090 1122 L 1090 1150 L 1077 1150 L 1077 1122 Z Z" stroke-miterlimit="10"/></g><g transform="translate(-46,10) scale(1,1)"><path fill="none" stroke="#000000" d="M 1084 1176 L 1114 1176 L 1114 1196 L 1090 1196" stroke-miterlimit="10"/></g><g transform="translate(-46,10) scale(1,1)"><path fill="#000000" stroke="none" d="M 1100.162674857624 1191.7904822439841 L 1090 1196 L 1100.162674857624 1200.2095177560159"/></g><g transform="translate(-46,10) scale(1,1)"><path fill="none" stroke="#000000" d="M 1100.162674857624 1191.7904822439841 L 1090 1196 L 1100.162674857624 1200.2095177560159 L 1100.162674857624 1191.7904822439841" stroke-miterlimit="10"/></g><g transform="translate(-46,10) scale(1,1)"><g><path fill="none" stroke="none"/><text fill="#000000" stroke="none" font-family="Arial" font-size="32px" font-style="normal" font-weight="normal" text-decoration="none" x="1045.5" y="1196">13 : getId()</text></g></g><g transform="translate(-46,10) scale(1,1)"><rect fill="#ffffff" stroke="none" x="1077" y="1196" width="13" height="28"/></g><g transform="translate(-46,10) scale(1,1)"><path fill="none" stroke="#000000" d="M 1077 1196 L 1090 1196 L 1090 1224 L 1077 1224 L 1077 1196 Z Z" stroke-miterlimit="10"/></g><g transform="translate(-46,10) scale(1,1)"><path fill="none" stroke="#000000" d="M 1084 1258 L 1608 1258" stroke-miterlimit="10"/></g><g transform="translate(-46,10) scale(1,1)"><path fill="#000000" stroke="none" d="M 1597.837325142376 1262.2095177560159 L 1608 1258 L 1597.837325142376 1253.7904822439841"/></g><g transform="translate(-46,10) scale(1,1)"><path fill="none" stroke="#000000" d="M 1597.837325142376 1262.2095177560159 L 1608 1258 L 1597.837325142376 1253.7904822439841 L 1597.837325142376 1262.2095177560159" stroke-miterlimit="10"/></g><g transform="translate(-46,10) scale(1,1)"><g><path fill="none" stroke="none"/><text fill="#000000" stroke="none" font-family="Arial" font-size="32px" font-style="normal" font-weight="normal" text-decoration="none" x="1250.5" y="1259">14 : Afficher()</text></g></g><g transform="translate(-46,10) scale(1,1)"><rect fill="#ffffff" stroke="none" x="1608" y="1258" width="13" height="28"/></g><g transform="translate(-46,10) scale(1,1)"><path fill="none" stroke="#000000" d="M 1608 1258 L 1621 1258 L 1621 1286 L 1608 1286 L 1608 1258 Z Z" stroke-miterlimit="10"/></g><g transform="translate(-46,10) scale(1,1)"><path fill="none" stroke="#000000" d="M 1615 1322 L 2098 1322" stroke-miterlimit="10"/></g><g transform="translate(-46,10) scale(1,1)"><path fill="#000000" stroke="none" d="M 2087.837325142376 1326.2095177560159 L 2098 1322 L 2087.837325142376 1317.7904822439841"/></g><g transform="translate(-46,10) scale(1,1)"><path fill="none" stroke="#000000" d="M 2087.837325142376 1326.2095177560159 L 2098 1322 L 2087.837325142376 1317.7904822439841 L 2087.837325142376 1326.2095177560159" stroke-miterlimit="10"/></g><g transform="translate(-46,10) scale(1,1)"><g><path fill="none" stroke="none"/><text fill="#000000" stroke="none" font-family="Arial" font-size="32px" font-style="normal" font-weight="normal" text-decoration="none" x="1751.5" y="1323">15 : Aficher(id)</text></g></g><g transform="translate(-46,10) scale(1,1)"><rect fill="#ffffff" stroke="none" x="2098" y="1322" width="13" height="28"/></g><g transform="translate(-46,10) scale(1,1)"><path fill="none" stroke="#000000" d="M 2098 1322 L 2111 1322 L 2111 1350 L 2098 1350 L 2098 1322 Z Z" stroke-miterlimit="10"/></g><g transform="translate(-46,10) scale(1,1)"><path fill="none" stroke="#000000" d="M 992 424 L 2127 424 L 2127 648 L 992 648 L 992 424" stroke-miterlimit="10"/></g><g transform="translate(-46,10) scale(1,1)"><path fill="#ffffff" stroke="none" d="M 992 424 L 992 465 L 1500.609375 465 L 1521.109375 444.5 L 1521.109375 424 L 992 424"/></g><g transform="translate(-46,10) scale(1,1)"><path fill="none" stroke="#000000" d="M 992 424 L 992 465 L 1500.609375 465 L 1521.109375 444.5 L 1521.109375 424 L 992 424 L 992 424" stroke-miterlimit="10"/></g><g transform="translate(-46,10) scale(1,1)"><g><path fill="none" stroke="none"/><text fill="#000000" stroke="none" font-family="Arial" font-size="32px" font-style="normal" font-weight="normal" text-decoration="none" x="1036.796875" y="456">Compter() &gt; 0  &amp;&amp; compter() &lt; 2</text></g></g><g transform="translate(-46,10) scale(1,1)"><g><path fill="none" stroke="none"/><text fill="#000000" stroke="none" font-family="Arial" font-size="32px" font-style="normal" font-weight="bold" text-decoration="none" x="995.2265625" y="456">alt</text></g></g><g transform="translate(-46,10) scale(1,1)"><path fill="none" stroke="#000000" d="M 992 553 L 2127 553" stroke-miterlimit="10" stroke-dasharray="10,3"/></g><g transform="translate(-46,10) scale(1,1)"><path fill="none" stroke="#000000" d="M 512 872 L 2160 872 L 2160 1048 L 512 1048 L 512 872" stroke-miterlimit="10"/></g><g transform="translate(-46,10) scale(1,1)"><path fill="#ffffff" stroke="none" d="M 512 872 L 512 913 L 771.65625 913 L 792.15625 892.5 L 792.15625 872 L 512 872"/></g><g transform="translate(-46,10) scale(1,1)"><path fill="none" stroke="#000000" d="M 512 872 L 512 913 L 771.65625 913 L 792.15625 892.5 L 792.15625 872 L 512 872 L 512 872" stroke-miterlimit="10"/></g><g transform="translate(-46,10) scale(1,1)"><g><path fill="none" stroke="none"/><text fill="#000000" stroke="none" font-family="Arial" font-size="32px" font-style="normal" font-weight="normal" text-decoration="none" x="556.796875" y="904">compter() &gt;= 2</text></g></g><g transform="translate(-46,10) scale(1,1)"><g><path fill="none" stroke="none"/><text fill="#000000" stroke="none" font-family="Arial" font-size="32px" font-style="normal" font-weight="bold" text-decoration="none" x="515.2265625" y="904">alt</text></g></g></g></svg>