<svg version="1.1" xmlns="http://www.w3.org/2000/svg" xmlns:xlink="http://www.w3.org/1999/xlink" width="3220" height="1724"><defs/><g><g transform="translate(10,10) scale(1,1)"><path fill="none" stroke="#000000" d="M 0 0 L 3200 0 L 3200 1688 L 0 1688 L 0 0" stroke-miterlimit="10"/></g><g transform="translate(10,10) scale(1,1)"><path fill="#ffffff" stroke="none" d="M 0 0 L 0 41 L 291.6875 41 L 312.1875 20.5 L 312.1875 0 L 0 0"/></g><g transform="translate(10,10) scale(1,1)"><path fill="none" stroke="#000000" d="M 0 0 L 0 41 L 291.6875 41 L 312.1875 20.5 L 312.1875 0 L 0 0 L 0 0" stroke-miterlimit="10"/></g><g transform="translate(10,10) scale(1,1)"><g><path fill="none" stroke="none"/><text fill="#000000" stroke="none" font-family="Arial" font-size="32px" font-style="normal" font-weight="normal" text-decoration="none" x="44.796875" y="32">Refuter Livraison</text></g></g><g transform="translate(10,10) scale(1,1)"><g><path fill="none" stroke="none"/><text fill="#000000" stroke="none" font-family="Arial" font-size="32px" font-style="normal" font-weight="bold" text-decoration="none" x="3.2265625" y="32">sd</text></g></g><g transform="translate(10,10) scale(1,1)"><path fill="#ffffff" stroke="none" d="M 448.438096590909 47.3 C 448.438096590909 43.82060576 451.3164983130909 41 454.8671875 41 C 458.4178766869091 41 461.2962784090909 43.82060576 461.2962784090909 47.3 C 461.2962784090909 50.779394239999995 458.4178766869091 53.6 454.8671875 53.6 C 451.3164983130909 53.6 448.438096590909 50.779394239999995 448.438096590909 47.3 Z"/></g><g transform="translate(10,10) scale(1,1)"><path fill="none" stroke="#000000" d="M 448.438096590909 47.3 C 448.438096590909 43.82060576 451.3164983130909 41 454.8671875 41 C 458.4178766869091 41 461.2962784090909 43.82060576 461.2962784090909 47.3 C 461.2962784090909 50.779394239999995 458.4178766869091 53.6 454.8671875 53.6 C 451.3164983130909 53.6 448.438096590909 50.779394239999995 448.438096590909 47.3 Z" stroke-miterlimit="10"/></g><g transform="translate(10,10) scale(1,1)"><path fill="none" stroke="#000000" d="M 454.8671875 53.6 L 454.8671875 66.4" stroke-miterlimit="10"/></g><g transform="translate(10,10) scale(1,1)"><path fill="none" stroke="#000000" d="M 448.0599147727272 58.4 L 461.67446022727273 58.4" stroke-miterlimit="10"/></g><g transform="translate(10,10) scale(1,1)"><path fill="none" stroke="#000000" d="M 454.8671875 66.4 L 445.4126420454545 79" stroke-miterlimit="10"/></g><g transform="translate(10,10) scale(1,1)"><path fill="none" stroke="#000000" d="M 454.8671875 66.4 L 464.32173295454544 79" stroke-miterlimit="10"/></g><g transform="translate(10,10) scale(1,1)"><g><path fill="none" stroke="none"/><text fill="#000000" stroke="none" font-family="Arial" font-size="32px" font-style="normal" font-weight="bold" text-decoration="none" x="321.5" y="113.5">Personne: Actor1</text></g></g><g transform="translate(10,10) scale(1,1)"><path fill="none" stroke="#000000" d="M 455.5 124 L 455.5 1448" stroke-miterlimit="10" stroke-dasharray="3"/></g><g transform="translate(10,10) scale(1,1)"><rect fill="#C0C0C0" stroke="none" x="759" y="47" width="88" height="39" opacity="0.2"/></g><g transform="translate(10,10) scale(1,1)"><rect fill="#ffffff" stroke="none" x="752" y="40" width="88" height="39"/></g><g transform="translate(10,10) scale(1,1)"><path fill="none" stroke="#000000" d="M 752 40 L 840 40 L 840 79 L 752 79 L 752 40 Z Z" stroke-miterlimit="10"/></g><g transform="translate(10,10) scale(1,1)"><g><path fill="none" stroke="none"/><text fill="#000000" stroke="none" font-family="Arial" font-size="32px" font-style="normal" font-weight="bold" text-decoration="none" x="796" y="62.5"></text></g></g><g transform="translate(10,10) scale(1,1)"><path fill="none" stroke="#000000" d="M 797.5 80 L 797.5 1472" stroke-miterlimit="10" stroke-dasharray="3"/></g><g transform="translate(10,10) scale(1,1)"><rect fill="#C0C0C0" stroke="none" x="1263" y="47" width="239" height="39" opacity="0.2"/></g><g transform="translate(10,10) scale(1,1)"><rect fill="#ffffff" stroke="none" x="1256" y="40" width="239" height="39"/></g><g transform="translate(10,10) scale(1,1)"><path fill="none" stroke="#000000" d="M 1256 40 L 1495 40 L 1495 79 L 1256 79 L 1256 40 Z Z" stroke-miterlimit="10"/></g><g transform="translate(10,10) scale(1,1)"><g><path fill="none" stroke="none"/><text fill="#000000" stroke="none" font-family="Arial" font-size="32px" font-style="normal" font-weight="bold" text-decoration="none" x="1282.1796875" y="74">:Notification</text></g></g><g transform="translate(10,10) scale(1,1)"><path fill="none" stroke="#000000" d="M 1376.5 80 L 1376.5 1528" stroke-miterlimit="10" stroke-dasharray="3"/></g><g transform="translate(10,10) scale(1,1)"><rect fill="#C0C0C0" stroke="none" x="1751" y="47" width="203.90625" height="39" opacity="0.2"/></g><g transform="translate(10,10) scale(1,1)"><rect fill="#ffffff" stroke="none" x="1744" y="40" width="203.90625" height="39"/></g><g transform="translate(10,10) scale(1,1)"><path fill="none" stroke="#000000" d="M 1744 40 L 1947.90625 40 L 1947.90625 79 L 1744 79 L 1744 40 Z Z" stroke-miterlimit="10"/></g><g transform="translate(10,10) scale(1,1)"><g><path fill="none" stroke="none"/><text fill="#000000" stroke="none" font-family="Arial" font-size="32px" font-style="normal" font-weight="bold" text-decoration="none" x="1753.5" y="74">:Commande</text></g></g><g transform="translate(10,10) scale(1,1)"><path fill="none" stroke="#000000" d="M 1846.5 80 L 1846.5 1560" stroke-miterlimit="10" stroke-dasharray="3"/></g><g transform="translate(10,10) scale(1,1)"><rect fill="#C0C0C0" stroke="none" x="2119" y="47" width="171.921875" height="39" opacity="0.2"/></g><g transform="translate(10,10) scale(1,1)"><rect fill="#ffffff" stroke="none" x="2112" y="40" width="171.921875" height="39"/></g><g transform="translate(10,10) scale(1,1)"><path fill="none" stroke="#000000" d="M 2112 40 L 2283.921875 40 L 2283.921875 79 L 2112 79 L 2112 40 Z Z" stroke-miterlimit="10"/></g><g transform="translate(10,10) scale(1,1)"><g><path fill="none" stroke="none"/><text fill="#000000" stroke="none" font-family="Arial" font-size="32px" font-style="normal" font-weight="bold" text-decoration="none" x="2121.5" y="74">:Livraison</text></g></g><g transform="translate(10,10) scale(1,1)"><path fill="none" stroke="#000000" d="M 2198.5 80 L 2198.5 1560" stroke-miterlimit="10" stroke-dasharray="3"/></g><g transform="translate(10,10) scale(1,1)"><rect fill="#C0C0C0" stroke="none" x="2695" y="47" width="183" height="39" opacity="0.2"/></g><g transform="translate(10,10) scale(1,1)"><rect fill="#ffffff" stroke="none" x="2688" y="40" width="183" height="39"/></g><g transform="translate(10,10) scale(1,1)"><path fill="none" stroke="#000000" d="M 2688 40 L 2871 40 L 2871 79 L 2688 79 L 2688 40 Z Z" stroke-miterlimit="10"/></g><g transform="translate(10,10) scale(1,1)"><g><path fill="none" stroke="none"/><text fill="#000000" stroke="none" font-family="Arial" font-size="32px" font-style="normal" font-weight="bold" text-decoration="none" x="2751.0625" y="73.5">:BD</text></g></g><g transform="translate(10,10) scale(1,1)"><path fill="none" stroke="#000000" d="M 2780.5 80 L 2780.5 1600" stroke-miterlimit="10" stroke-dasharray="3"/></g><g transform="translate(10,10) scale(1,1)"><path fill="#ffffff" stroke="none" d="M 1720 384 L 2117 384 L 2127 394 L 2127 503 L 1720 503 L 1720 384"/></g><g transform="translate(10,10) scale(1,1)"><path fill="none" stroke="#000000" d="M 1720 384 L 2117 384 L 2127 394 L 2127 503 L 1720 503 L 1720 384 L 1720 384" stroke-miterlimit="10"/></g><g transform="translate(10,10) scale(1,1)"><path fill="none" stroke="#000000" d="M 2117 384 L 2117 394 L 2127 394 L 2117 384" stroke-miterlimit="10"/></g><g transform="translate(10,10) scale(1,1)"><g><path fill="none" stroke="none"/><text fill="#000000" stroke="none" font-family="Arial" font-size="32px" font-style="normal" font-weight="normal" text-decoration="none" x="1725" y="412">verifier que la commande</text><text fill="#000000" stroke="none" font-family="Arial" font-size="32px" font-style="normal" font-weight="normal" text-decoration="none" x="1725" y="443">est en cours et qu'aucun</text><text fill="#000000" stroke="none" font-family="Arial" font-size="32px" font-style="normal" font-weight="normal" text-decoration="none" x="1725" y="477">n'employer n'a refuté</text></g></g><g transform="translate(10,10) scale(1,1)"><path fill="none" stroke="#000000" d="M 1318 400 L 1719 429" stroke-miterlimit="10" stroke-dasharray="3"/></g><g transform="translate(10,10) scale(1,1)"><path fill="#ffffff" stroke="none" d="M 2616 1069 L 2941 1069 L 2951 1079 L 2951 1143 L 2616 1143 L 2616 1069"/></g><g transform="translate(10,10) scale(1,1)"><path fill="none" stroke="#000000" d="M 2616 1069 L 2941 1069 L 2951 1079 L 2951 1143 L 2616 1143 L 2616 1069 L 2616 1069" stroke-miterlimit="10"/></g><g transform="translate(10,10) scale(1,1)"><path fill="none" stroke="#000000" d="M 2941 1069 L 2941 1079 L 2951 1079 L 2941 1069" stroke-miterlimit="10"/></g><g transform="translate(10,10) scale(1,1)"><g><path fill="none" stroke="none"/><text fill="#000000" stroke="none" font-family="Arial" font-size="32px" font-style="normal" font-weight="normal" text-decoration="none" x="2621" y="1098">insérer la date de refu</text><text fill="#000000" stroke="none" font-family="Arial" font-size="32px" font-style="normal" font-weight="normal" text-decoration="none" x="2621" y="1129">de l'employer</text></g></g><g transform="translate(10,10) scale(1,1)"><path fill="none" stroke="#000000" d="M 2485 1085 L 2615 1094" stroke-miterlimit="10" stroke-dasharray="3"/></g><g transform="translate(10,10) scale(1,1)"><path fill="#ffffff" stroke="none" d="M 2400 1504 L 2925 1504 L 2935 1514 L 2935 1703 L 2400 1703 L 2400 1504"/></g><g transform="translate(10,10) scale(1,1)"><path fill="none" stroke="#000000" d="M 2400 1504 L 2925 1504 L 2935 1514 L 2935 1703 L 2400 1703 L 2400 1504 L 2400 1504" stroke-miterlimit="10"/></g><g transform="translate(10,10) scale(1,1)"><path fill="none" stroke="#000000" d="M 2925 1504 L 2925 1514 L 2935 1514 L 2925 1504" stroke-miterlimit="10"/></g><g transform="translate(10,10) scale(1,1)"><g><path fill="none" stroke="none"/><text fill="#000000" stroke="none" font-family="Arial" font-size="32px" font-style="normal" font-weight="normal" text-decoration="none" x="2405" y="1532">un mail au client l'informant que</text><text fill="#000000" stroke="none" font-family="Arial" font-size="32px" font-style="normal" font-weight="normal" text-decoration="none" x="2405" y="1565">nous n' avons pas pû lui livré sa</text><text fill="#000000" stroke="none" font-family="Arial" font-size="32px" font-style="normal" font-weight="normal" text-decoration="none" x="2405" y="1596">commande et qu'il renseigne un</text><text fill="#000000" stroke="none" font-family="Arial" font-size="32px" font-style="normal" font-weight="normal" text-decoration="none" x="2405" y="1628">nouveau lieu dans l'onglet achat</text><text fill="#000000" stroke="none" font-family="Arial" font-size="32px" font-style="normal" font-weight="normal" text-decoration="none" x="2405" y="1660">effectuer</text></g></g><g transform="translate(10,10) scale(1,1)"><path fill="none" stroke="#000000" d="M 2074 1280 L 2483 1503" stroke-miterlimit="10" stroke-dasharray="3"/></g><g transform="translate(10,10) scale(1,1)"><path fill="none" stroke="#000000" d="M 455 163 L 790 163" stroke-miterlimit="10"/></g><g transform="translate(10,10) scale(1,1)"><path fill="#000000" stroke="none" d="M 779.8373251423759 167.209517756016 L 790 163 L 779.8373251423758 158.790482243984"/></g><g transform="translate(10,10) scale(1,1)"><path fill="none" stroke="#000000" d="M 779.8373251423759 167.209517756016 L 790 163 L 779.8373251423758 158.790482243984 L 779.8373251423759 167.209517756016" stroke-miterlimit="10"/></g><g transform="translate(10,10) scale(1,1)"><g><path fill="none" stroke="none"/><text fill="#000000" stroke="none" font-family="Arial" font-size="32px" font-style="normal" font-weight="normal" text-decoration="none" x="397.5" y="164">1 : cliquer sur livraison  encours</text></g></g><g transform="translate(10,10) scale(1,1)"><rect fill="#ffffff" stroke="none" x="790" y="163" width="13" height="28"/></g><g transform="translate(10,10) scale(1,1)"><path fill="none" stroke="#000000" d="M 790 163 L 803 163 L 803 191 L 790 191 L 790 163 Z Z" stroke-miterlimit="10"/></g><g transform="translate(10,10) scale(1,1)"><path fill="none" stroke="#000000" d="M 1376 224 L 797 224" stroke-miterlimit="10" stroke-dasharray="3"/></g><g transform="translate(10,10) scale(1,1)"><path fill="none" stroke="#000000" d="M 807.1626748576241 219.790482243984 L 797 224 L 807.1626748576241 228.209517756016" stroke-miterlimit="10"/></g><g transform="translate(10,10) scale(1,1)"><g><path fill="none" stroke="none"/><text fill="#000000" stroke="none" font-family="Arial" font-size="32px" font-style="normal" font-weight="normal" text-decoration="none" x="985.5" y="245">2 : getpopup()</text></g></g><g transform="translate(10,10) scale(1,1)"><path fill="none" stroke="#000000" d="M 2198 249 L 797 249" stroke-miterlimit="10" stroke-dasharray="3"/></g><g transform="translate(10,10) scale(1,1)"><path fill="none" stroke="#000000" d="M 807.1626748576241 244.790482243984 L 797 249 L 807.1626748576241 253.209517756016" stroke-miterlimit="10"/></g><g transform="translate(10,10) scale(1,1)"><g><path fill="none" stroke="none"/><text fill="#000000" stroke="none" font-family="Arial" font-size="32px" font-style="normal" font-weight="normal" text-decoration="none" x="1427.5" y="270">3 : getId()</text></g></g><g transform="translate(10,10) scale(1,1)"><path fill="none" stroke="#000000" d="M 1846 280 L 797 280" stroke-miterlimit="10" stroke-dasharray="3"/></g><g transform="translate(10,10) scale(1,1)"><path fill="none" stroke="#000000" d="M 807.1626748576241 275.790482243984 L 797 280 L 807.1626748576241 284.209517756016" stroke-miterlimit="10"/></g><g transform="translate(10,10) scale(1,1)"><g><path fill="none" stroke="none"/><text fill="#000000" stroke="none" font-family="Arial" font-size="32px" font-style="normal" font-weight="normal" text-decoration="none" x="1251.5" y="301">4 : getId()</text></g></g><g transform="translate(10,10) scale(1,1)"><path fill="none" stroke="#000000" d="M 455 320 L 790 320" stroke-miterlimit="10"/></g><g transform="translate(10,10) scale(1,1)"><path fill="#000000" stroke="none" d="M 779.8373251423759 324.209517756016 L 790 320 L 779.8373251423758 315.790482243984"/></g><g transform="translate(10,10) scale(1,1)"><path fill="none" stroke="#000000" d="M 779.8373251423759 324.209517756016 L 790 320 L 779.8373251423758 315.790482243984 L 779.8373251423759 324.209517756016" stroke-miterlimit="10"/></g><g transform="translate(10,10) scale(1,1)"><g><path fill="none" stroke="none"/><text fill="#000000" stroke="none" font-family="Arial" font-size="32px" font-style="normal" font-weight="normal" text-decoration="none" x="486.5" y="321">5 : Option pas reçu</text></g></g><g transform="translate(10,10) scale(1,1)"><rect fill="#ffffff" stroke="none" x="790" y="320" width="13" height="28"/></g><g transform="translate(10,10) scale(1,1)"><path fill="none" stroke="#000000" d="M 790 320 L 803 320 L 803 348 L 790 348 L 790 320 Z Z" stroke-miterlimit="10"/></g><g transform="translate(10,10) scale(1,1)"><path fill="none" stroke="#000000" d="M 797 400 L 1839 400" stroke-miterlimit="10"/></g><g transform="translate(10,10) scale(1,1)"><path fill="#000000" stroke="none" d="M 1828.837325142376 404.209517756016 L 1839 400 L 1828.837325142376 395.790482243984"/></g><g transform="translate(10,10) scale(1,1)"><path fill="none" stroke="#000000" d="M 1828.837325142376 404.209517756016 L 1839 400 L 1828.837325142376 395.790482243984 L 1828.837325142376 404.209517756016" stroke-miterlimit="10"/></g><g transform="translate(10,10) scale(1,1)"><g><path fill="none" stroke="none"/><text fill="#000000" stroke="none" font-family="Arial" font-size="32px" font-style="normal" font-weight="normal" text-decoration="none" x="1222.5" y="401">6 : Verifier(id)</text></g></g><g transform="translate(10,10) scale(1,1)"><rect fill="#ffffff" stroke="none" x="1839" y="400" width="13" height="28"/></g><g transform="translate(10,10) scale(1,1)"><path fill="none" stroke="#000000" d="M 1839 400 L 1852 400 L 1852 428 L 1839 428 L 1839 400 Z Z" stroke-miterlimit="10"/></g><g transform="translate(10,10) scale(1,1)"><path fill="none" stroke="#000000" d="M 1376 488 L 797 488" stroke-miterlimit="10" stroke-dasharray="3"/></g><g transform="translate(10,10) scale(1,1)"><path fill="none" stroke="#000000" d="M 807.1626748576241 483.790482243984 L 797 488 L 807.1626748576241 492.209517756016" stroke-miterlimit="10"/></g><g transform="translate(10,10) scale(1,1)"><g><path fill="none" stroke="none"/><text fill="#000000" stroke="none" font-family="Arial" font-size="32px" font-style="normal" font-weight="normal" text-decoration="none" x="828.5" y="509">7 : Alerter()(message_soulagement)</text></g></g><g transform="translate(10,10) scale(1,1)"><path fill="none" stroke="#000000" d="M 455 643 L 790 643" stroke-miterlimit="10"/></g><g transform="translate(10,10) scale(1,1)"><path fill="#000000" stroke="none" d="M 779.8373251423759 647.209517756016 L 790 643 L 779.8373251423758 638.790482243984"/></g><g transform="translate(10,10) scale(1,1)"><path fill="none" stroke="#000000" d="M 779.8373251423759 647.209517756016 L 790 643 L 779.8373251423758 638.790482243984 L 779.8373251423759 647.209517756016" stroke-miterlimit="10"/></g><g transform="translate(10,10) scale(1,1)"><g><path fill="none" stroke="none"/><text fill="#000000" stroke="none" font-family="Arial" font-size="32px" font-style="normal" font-weight="normal" text-decoration="none" x="377.5" y="644">8 : Cliquer sur commande encours</text></g></g><g transform="translate(10,10) scale(1,1)"><rect fill="#ffffff" stroke="none" x="790" y="643" width="13" height="28"/></g><g transform="translate(10,10) scale(1,1)"><path fill="none" stroke="#000000" d="M 790 643 L 803 643 L 803 671 L 790 671 L 790 643 Z Z" stroke-miterlimit="10"/></g><g transform="translate(10,10) scale(1,1)"><path fill="none" stroke="#000000" d="M 1376 712 L 797 712" stroke-miterlimit="10" stroke-dasharray="3"/></g><g transform="translate(10,10) scale(1,1)"><path fill="none" stroke="#000000" d="M 807.1626748576241 707.790482243984 L 797 712 L 807.1626748576241 716.209517756016" stroke-miterlimit="10"/></g><g transform="translate(10,10) scale(1,1)"><g><path fill="none" stroke="none"/><text fill="#000000" stroke="none" font-family="Arial" font-size="32px" font-style="normal" font-weight="normal" text-decoration="none" x="985.5" y="733">9 : getpopup()</text></g></g><g transform="translate(10,10) scale(1,1)"><path fill="none" stroke="#000000" d="M 1846 790 L 797 790" stroke-miterlimit="10" stroke-dasharray="3"/></g><g transform="translate(10,10) scale(1,1)"><path fill="none" stroke="#000000" d="M 807.1626748576241 785.790482243984 L 797 790 L 807.1626748576241 794.209517756016" stroke-miterlimit="10"/></g><g transform="translate(10,10) scale(1,1)"><g><path fill="none" stroke="none"/><text fill="#000000" stroke="none" font-family="Arial" font-size="32px" font-style="normal" font-weight="normal" text-decoration="none" x="1242.5" y="811">10 : getId()</text></g></g><g transform="translate(10,10) scale(1,1)"><path fill="none" stroke="#000000" d="M 455 848 L 790 848" stroke-miterlimit="10"/></g><g transform="translate(10,10) scale(1,1)"><path fill="#000000" stroke="none" d="M 779.8373251423759 852.209517756016 L 790 848 L 779.8373251423758 843.790482243984"/></g><g transform="translate(10,10) scale(1,1)"><path fill="none" stroke="#000000" d="M 779.8373251423759 852.209517756016 L 790 848 L 779.8373251423758 843.790482243984 L 779.8373251423759 852.209517756016" stroke-miterlimit="10"/></g><g transform="translate(10,10) scale(1,1)"><g><path fill="none" stroke="none"/><text fill="#000000" stroke="none" font-family="Arial" font-size="32px" font-style="normal" font-weight="normal" text-decoration="none" x="486.5" y="849.5">11 : je n'ai pas livré</text></g></g><g transform="translate(10,10) scale(1,1)"><rect fill="#ffffff" stroke="none" x="790" y="848" width="13" height="28"/></g><g transform="translate(10,10) scale(1,1)"><path fill="none" stroke="#000000" d="M 790 848 L 803 848 L 803 876 L 790 876 L 790 848 Z Z" stroke-miterlimit="10"/></g><g transform="translate(10,10) scale(1,1)"><path fill="none" stroke="#000000" d="M 2198 929 L 2773 929" stroke-miterlimit="10"/></g><g transform="translate(10,10) scale(1,1)"><path fill="#000000" stroke="none" d="M 2762.837325142376 933.209517756016 L 2773 929 L 2762.837325142376 924.790482243984"/></g><g transform="translate(10,10) scale(1,1)"><path fill="none" stroke="#000000" d="M 2762.837325142376 933.209517756016 L 2773 929 L 2762.837325142376 924.790482243984 L 2762.837325142376 933.209517756016" stroke-miterlimit="10"/></g><g transform="translate(10,10) scale(1,1)"><g><path fill="none" stroke="none"/><text fill="#000000" stroke="none" font-family="Arial" font-size="32px" font-style="normal" font-weight="normal" text-decoration="none" x="2138.5" y="930">12 : Modifier(getId(),cammande_encours = false)</text></g></g><g transform="translate(10,10) scale(1,1)"><rect fill="#ffffff" stroke="none" x="2773" y="929" width="13" height="28"/></g><g transform="translate(10,10) scale(1,1)"><path fill="none" stroke="#000000" d="M 2773 929 L 2786 929 L 2786 957 L 2773 957 L 2773 929 Z Z" stroke-miterlimit="10"/></g><g transform="translate(10,10) scale(1,1)"><path fill="none" stroke="#000000" d="M 2198 1085 L 2773 1085" stroke-miterlimit="10"/></g><g transform="translate(10,10) scale(1,1)"><path fill="#000000" stroke="none" d="M 2762.837325142376 1089.2095177560159 L 2773 1085 L 2762.837325142376 1080.7904822439841"/></g><g transform="translate(10,10) scale(1,1)"><path fill="none" stroke="#000000" d="M 2762.837325142376 1089.2095177560159 L 2773 1085 L 2762.837325142376 1080.7904822439841 L 2762.837325142376 1089.2095177560159" stroke-miterlimit="10"/></g><g transform="translate(10,10) scale(1,1)"><g><path fill="none" stroke="none"/><text fill="#000000" stroke="none" font-family="Arial" font-size="32px" font-style="normal" font-weight="normal" text-decoration="none" x="2344.5" y="1086">13 : Modifier (getI())</text></g></g><g transform="translate(10,10) scale(1,1)"><rect fill="#ffffff" stroke="none" x="2773" y="1085" width="13" height="28"/></g><g transform="translate(10,10) scale(1,1)"><path fill="none" stroke="#000000" d="M 2773 1085 L 2786 1085 L 2786 1113 L 2773 1113 L 2773 1085 Z Z" stroke-miterlimit="10"/></g><g transform="translate(10,10) scale(1,1)"><path fill="none" stroke="#000000" d="M 1376 1280 L 2773 1280" stroke-miterlimit="10"/></g><g transform="translate(10,10) scale(1,1)"><path fill="#000000" stroke="none" d="M 2762.837325142376 1284.2095177560159 L 2773 1280 L 2762.837325142376 1275.7904822439841"/></g><g transform="translate(10,10) scale(1,1)"><path fill="none" stroke="#000000" d="M 2762.837325142376 1284.2095177560159 L 2773 1280 L 2762.837325142376 1275.7904822439841 L 2762.837325142376 1284.2095177560159" stroke-miterlimit="10"/></g><g transform="translate(10,10) scale(1,1)"><g><path fill="none" stroke="none"/><text fill="#000000" stroke="none" font-family="Arial" font-size="32px" font-style="normal" font-weight="normal" text-decoration="none" x="1973.5" y="1281">14 : Envoyer()</text></g></g><g transform="translate(10,10) scale(1,1)"><rect fill="#ffffff" stroke="none" x="2773" y="1280" width="13" height="28"/></g><g transform="translate(10,10) scale(1,1)"><path fill="none" stroke="#000000" d="M 2773 1280 L 2786 1280 L 2786 1308 L 2773 1308 L 2773 1280 Z Z" stroke-miterlimit="10"/></g><g transform="translate(10,10) scale(1,1)"><path fill="none" stroke="#000000" d="M 192 120 L 2176 120 L 2176 551 L 192 551 L 192 120" stroke-miterlimit="10"/></g><g transform="translate(10,10) scale(1,1)"><path fill="#ffffff" stroke="none" d="M 192 120 L 192 161 L 449.921875 161 L 470.421875 140.5 L 470.421875 120 L 192 120"/></g><g transform="translate(10,10) scale(1,1)"><path fill="none" stroke="#000000" d="M 192 120 L 192 161 L 449.921875 161 L 470.421875 140.5 L 470.421875 120 L 192 120 L 192 120" stroke-miterlimit="10"/></g><g transform="translate(10,10) scale(1,1)"><g><path fill="none" stroke="none"/><text fill="#000000" stroke="none" font-family="Arial" font-size="32px" font-style="normal" font-weight="normal" text-decoration="none" x="236.796875" y="152">statut == client</text></g></g><g transform="translate(10,10) scale(1,1)"><g><path fill="none" stroke="none"/><text fill="#000000" stroke="none" font-family="Arial" font-size="32px" font-style="normal" font-weight="bold" text-decoration="none" x="195.2265625" y="152">alt</text></g></g><g transform="translate(10,10) scale(1,1)"><path fill="none" stroke="#000000" d="M 88 600 L 2983 600 L 2983 1431 L 88 1431 L 88 600" stroke-miterlimit="10"/></g><g transform="translate(10,10) scale(1,1)"><path fill="#ffffff" stroke="none" d="M 88 600 L 88 641 L 526.75 641 L 547.25 620.5 L 547.25 600 L 88 600"/></g><g transform="translate(10,10) scale(1,1)"><path fill="none" stroke="#000000" d="M 88 600 L 88 641 L 526.75 641 L 547.25 620.5 L 547.25 600 L 88 600 L 88 600" stroke-miterlimit="10"/></g><g transform="translate(10,10) scale(1,1)"><g><path fill="none" stroke="none"/><text fill="#000000" stroke="none" font-family="Arial" font-size="32px" font-style="normal" font-weight="normal" text-decoration="none" x="132.796875" y="632">statut == Employer | Patron</text></g></g><g transform="translate(10,10) scale(1,1)"><g><path fill="none" stroke="none"/><text fill="#000000" stroke="none" font-family="Arial" font-size="32px" font-style="normal" font-weight="bold" text-decoration="none" x="91.2265625" y="632">alt</text></g></g></g></svg>