<svg version="1.1" xmlns="http://www.w3.org/2000/svg" xmlns:xlink="http://www.w3.org/1999/xlink" width="4564" height="2468"><defs/><g><g transform="translate(-30,10) scale(1,1)"><path fill="#ffffff" stroke="none" d="M 189.43809659090908 47.3 C 189.43809659090908 43.82060576 192.3164983130909 41 195.8671875 41 C 199.4178766869091 41 202.2962784090909 43.82060576 202.2962784090909 47.3 C 202.2962784090909 50.779394239999995 199.4178766869091 53.6 195.8671875 53.6 C 192.3164983130909 53.6 189.43809659090908 50.779394239999995 189.43809659090908 47.3 Z"/></g><g transform="translate(-30,10) scale(1,1)"><path fill="none" stroke="#000000" d="M 189.43809659090908 47.3 C 189.43809659090908 43.82060576 192.3164983130909 41 195.8671875 41 C 199.4178766869091 41 202.2962784090909 43.82060576 202.2962784090909 47.3 C 202.2962784090909 50.779394239999995 199.4178766869091 53.6 195.8671875 53.6 C 192.3164983130909 53.6 189.43809659090908 50.779394239999995 189.43809659090908 47.3 Z" stroke-miterlimit="10"/></g><g transform="translate(-30,10) scale(1,1)"><path fill="none" stroke="#000000" d="M 195.8671875 53.6 L 195.8671875 66.4" stroke-miterlimit="10"/></g><g transform="translate(-30,10) scale(1,1)"><path fill="none" stroke="#000000" d="M 189.05991477272727 58.4 L 202.6744602272727 58.4" stroke-miterlimit="10"/></g><g transform="translate(-30,10) scale(1,1)"><path fill="none" stroke="#000000" d="M 195.8671875 66.4 L 186.41264204545453 79" stroke-miterlimit="10"/></g><g transform="translate(-30,10) scale(1,1)"><path fill="none" stroke="#000000" d="M 195.8671875 66.4 L 205.32173295454544 79" stroke-miterlimit="10"/></g><g transform="translate(-30,10) scale(1,1)"><g><path fill="none" stroke="none"/><text fill="#000000" stroke="none" font-family="Arial" font-size="32px" font-style="normal" font-weight="bold" text-decoration="none" x="62.5" y="113.5">Personne: Actor1</text></g></g><g transform="translate(-30,10) scale(1,1)"><path fill="none" stroke="#000000" d="M 196.5 124 L 196.5 2264" stroke-miterlimit="10" stroke-dasharray="3"/></g><g transform="translate(-30,10) scale(1,1)"><rect fill="#C0C0C0" stroke="none" x="623" y="47" width="215" height="39" opacity="0.2"/></g><g transform="translate(-30,10) scale(1,1)"><rect fill="#ffffff" stroke="none" x="616" y="40" width="215" height="39"/></g><g transform="translate(-30,10) scale(1,1)"><path fill="none" stroke="#000000" d="M 616 40 L 831 40 L 831 79 L 616 79 L 616 40 Z Z" stroke-miterlimit="10"/></g><g transform="translate(-30,10) scale(1,1)"><g><path fill="none" stroke="none"/><text fill="#000000" stroke="none" font-family="Arial" font-size="32px" font-style="normal" font-weight="bold" text-decoration="none" x="723.5" y="62.5"></text></g></g><g transform="translate(-30,10) scale(1,1)"><path fill="none" stroke="#000000" d="M 724.5 80 L 724.5 2304" stroke-miterlimit="10" stroke-dasharray="3"/></g><g transform="translate(-30,10) scale(1,1)"><rect fill="#C0C0C0" stroke="none" x="1191" y="47" width="472" height="39" opacity="0.2"/></g><g transform="translate(-30,10) scale(1,1)"><rect fill="#ffffff" stroke="none" x="1184" y="40" width="472" height="39"/></g><g transform="translate(-30,10) scale(1,1)"><path fill="none" stroke="#000000" d="M 1184 40 L 1656 40 L 1656 79 L 1184 79 L 1184 40 Z Z" stroke-miterlimit="10"/></g><g transform="translate(-30,10) scale(1,1)"><g><path fill="none" stroke="none"/><text fill="#000000" stroke="none" font-family="Arial" font-size="32px" font-style="normal" font-weight="bold" text-decoration="none" x="1364.875" y="74">:Article</text></g></g><g transform="translate(-30,10) scale(1,1)"><path fill="none" stroke="#000000" d="M 1421.5 80 L 1421.5 2392" stroke-miterlimit="10" stroke-dasharray="3"/></g><g transform="translate(-30,10) scale(1,1)"><rect fill="#C0C0C0" stroke="none" x="2263" y="47" width="464" height="39" opacity="0.2"/></g><g transform="translate(-30,10) scale(1,1)"><rect fill="#ffffff" stroke="none" x="2256" y="40" width="464" height="39"/></g><g transform="translate(-30,10) scale(1,1)"><path fill="none" stroke="#000000" d="M 2256 40 L 2720 40 L 2720 79 L 2256 79 L 2256 40 Z Z" stroke-miterlimit="10"/></g><g transform="translate(-30,10) scale(1,1)"><g><path fill="none" stroke="none"/><text fill="#000000" stroke="none" font-family="Arial" font-size="32px" font-style="normal" font-weight="bold" text-decoration="none" x="2394.6796875" y="74">:Notification</text></g></g><g transform="translate(-30,10) scale(1,1)"><path fill="none" stroke="#000000" d="M 2489.5 80 L 2489.5 2400" stroke-miterlimit="10" stroke-dasharray="3"/></g><g transform="translate(-30,10) scale(1,1)"><rect fill="#C0C0C0" stroke="none" x="3143" y="47" width="727" height="39" opacity="0.2"/></g><g transform="translate(-30,10) scale(1,1)"><rect fill="#ffffff" stroke="none" x="3136" y="40" width="727" height="39"/></g><g transform="translate(-30,10) scale(1,1)"><path fill="none" stroke="#000000" d="M 3136 40 L 3863 40 L 3863 79 L 3136 79 L 3136 40 Z Z" stroke-miterlimit="10"/></g><g transform="translate(-30,10) scale(1,1)"><g><path fill="none" stroke="none"/><text fill="#000000" stroke="none" font-family="Arial" font-size="32px" font-style="normal" font-weight="bold" text-decoration="none" x="3471.0625" y="73.5">:BD</text></g></g><g transform="translate(-30,10) scale(1,1)"><path fill="none" stroke="#000000" d="M 3500.5 80 L 3500.5 2408" stroke-miterlimit="10" stroke-dasharray="3"/></g><g transform="translate(-30,10) scale(1,1)"><path fill="#ffffff" stroke="none" d="M 3584 176 L 3765 176 L 3775 186 L 3775 378 L 3584 378 L 3584 176"/></g><g transform="translate(-30,10) scale(1,1)"><path fill="none" stroke="#000000" d="M 3584 176 L 3765 176 L 3775 186 L 3775 378 L 3584 378 L 3584 176 L 3584 176" stroke-miterlimit="10"/></g><g transform="translate(-30,10) scale(1,1)"><path fill="none" stroke="#000000" d="M 3765 176 L 3765 186 L 3775 186 L 3765 176" stroke-miterlimit="10"/></g><g transform="translate(-30,10) scale(1,1)"><g><path fill="none" stroke="none"/><text fill="#000000" stroke="none" font-family="Arial" font-size="32px" font-style="normal" font-weight="normal" text-decoration="none" x="3589" y="204">Affiche des</text><text fill="#000000" stroke="none" font-family="Arial" font-size="32px" font-style="normal" font-weight="normal" text-decoration="none" x="3589" y="236">information</text><text fill="#000000" stroke="none" font-family="Arial" font-size="32px" font-style="normal" font-weight="normal" text-decoration="none" x="3589" y="266">contenant</text><text fill="#000000" stroke="none" font-family="Arial" font-size="32px" font-style="normal" font-weight="normal" text-decoration="none" x="3589" y="300">au moins le</text><text fill="#000000" stroke="none" font-family="Arial" font-size="32px" font-style="normal" font-weight="normal" text-decoration="none" x="3589" y="333">caractère</text><text fill="#000000" stroke="none" font-family="Arial" font-size="32px" font-style="normal" font-weight="normal" text-decoration="none" x="3589" y="364">saisie</text></g></g><g transform="translate(-30,10) scale(1,1)"><path fill="none" stroke="#000000" d="M 2457 344 L 3583 282" stroke-miterlimit="10" stroke-dasharray="3"/></g><g transform="translate(-30,10) scale(1,1)"><path fill="#ffffff" stroke="none" d="M 984 288 L 1296.396484375 288 L 1306.396484375 298 L 1306.396484375 399 L 984 399 L 984 288"/></g><g transform="translate(-30,10) scale(1,1)"><path fill="none" stroke="#000000" d="M 984 288 L 1296.396484375 288 L 1306.396484375 298 L 1306.396484375 399 L 984 399 L 984 288 L 984 288" stroke-miterlimit="10"/></g><g transform="translate(-30,10) scale(1,1)"><path fill="none" stroke="#000000" d="M 1296.396484375 288 L 1296.396484375 298 L 1306.396484375 298 L 1296.396484375 288" stroke-miterlimit="10"/></g><g transform="translate(-30,10) scale(1,1)"><g><path fill="none" stroke="none"/><text fill="#000000" stroke="none" font-family="Arial" font-size="32px" font-style="normal" font-weight="normal" text-decoration="none" x="989" y="316">aussi si la touche</text><text fill="#000000" stroke="none" font-family="Arial" font-size="32px" font-style="normal" font-weight="normal" text-decoration="none" x="989" y="348">appuyer  produit un</text><text fill="#000000" stroke="none" font-family="Arial" font-size="32px" font-style="normal" font-weight="normal" text-decoration="none" x="989" y="381">caractère pas vide</text></g></g><g transform="translate(-30,10) scale(1,1)"><path fill="none" stroke="#000000" d="M 754 250 L 983 305" stroke-miterlimit="10" stroke-dasharray="3"/></g><g transform="translate(-30,10) scale(1,1)"><path fill="#ffffff" stroke="none" d="M 1096 1848 L 1341 1848 L 1351 1858 L 1351 2018 L 1096 2018 L 1096 1848"/></g><g transform="translate(-30,10) scale(1,1)"><path fill="none" stroke="#000000" d="M 1096 1848 L 1341 1848 L 1351 1858 L 1351 2018 L 1096 2018 L 1096 1848 L 1096 1848" stroke-miterlimit="10"/></g><g transform="translate(-30,10) scale(1,1)"><path fill="none" stroke="#000000" d="M 1341 1848 L 1341 1858 L 1351 1858 L 1341 1848" stroke-miterlimit="10"/></g><g transform="translate(-30,10) scale(1,1)"><g><path fill="none" stroke="none"/><text fill="#000000" stroke="none" font-family="Arial" font-size="32px" font-style="normal" font-weight="normal" text-decoration="none" x="1101" y="1877">cas où les</text><text fill="#000000" stroke="none" font-family="Arial" font-size="32px" font-style="normal" font-weight="normal" text-decoration="none" x="1101" y="1908">tauches</text><text fill="#000000" stroke="none" font-family="Arial" font-size="32px" font-style="normal" font-weight="normal" text-decoration="none" x="1101" y="1941">appuyées ne</text><text fill="#000000" stroke="none" font-family="Arial" font-size="32px" font-style="normal" font-weight="normal" text-decoration="none" x="1101" y="1972">produisent pas</text><text fill="#000000" stroke="none" font-family="Arial" font-size="32px" font-style="normal" font-weight="normal" text-decoration="none" x="1101" y="2005">de caraxtère</text></g></g><g transform="translate(-30,10) scale(1,1)"><path fill="none" stroke="#000000" d="M 754 1914 L 1095 1928" stroke-miterlimit="10" stroke-dasharray="3"/></g><g transform="translate(-30,10) scale(1,1)"><path fill="#ffffff" stroke="none" d="M 2584 1864 L 2717 1864 L 2727 1874 L 2727 2066 L 2584 2066 L 2584 1864"/></g><g transform="translate(-30,10) scale(1,1)"><path fill="none" stroke="#000000" d="M 2584 1864 L 2717 1864 L 2727 1874 L 2727 2066 L 2584 2066 L 2584 1864 L 2584 1864" stroke-miterlimit="10"/></g><g transform="translate(-30,10) scale(1,1)"><path fill="none" stroke="#000000" d="M 2717 1864 L 2717 1874 L 2727 1874 L 2717 1864" stroke-miterlimit="10"/></g><g transform="translate(-30,10) scale(1,1)"><g><path fill="none" stroke="none"/><text fill="#000000" stroke="none" font-family="Arial" font-size="32px" font-style="normal" font-weight="normal" text-decoration="none" x="2589" y="1892">Mettre le</text><text fill="#000000" stroke="none" font-family="Arial" font-size="32px" font-style="normal" font-weight="normal" text-decoration="none" x="2589" y="1924">champs</text><text fill="#000000" stroke="none" font-family="Arial" font-size="32px" font-style="normal" font-weight="normal" text-decoration="none" x="2589" y="1956">de saisie</text><text fill="#000000" stroke="none" font-family="Arial" font-size="32px" font-style="normal" font-weight="normal" text-decoration="none" x="2589" y="1989">à l'état</text><text fill="#000000" stroke="none" font-family="Arial" font-size="32px" font-style="normal" font-weight="normal" text-decoration="none" x="2589" y="2020">initial</text></g></g><g transform="translate(-30,10) scale(1,1)"><path fill="none" stroke="#000000" d="M 1606 2048 L 2583 1971" stroke-miterlimit="10" stroke-dasharray="3"/></g><g transform="translate(-30,10) scale(1,1)"><path fill="#ffffff" stroke="none" d="M 216 360 L 476 360 L 486 370 L 486 532 L 216 532 L 216 360"/></g><g transform="translate(-30,10) scale(1,1)"><path fill="none" stroke="#000000" d="M 216 360 L 476 360 L 486 370 L 486 532 L 216 532 L 216 360 L 216 360" stroke-miterlimit="10"/></g><g transform="translate(-30,10) scale(1,1)"><path fill="none" stroke="#000000" d="M 476 360 L 476 370 L 486 370 L 476 360" stroke-miterlimit="10"/></g><g transform="translate(-30,10) scale(1,1)"><g><path fill="none" stroke="none"/><text fill="#000000" stroke="none" font-family="Arial" font-size="32px" font-style="normal" font-weight="normal" text-decoration="none" x="221" y="388">Le nombre</text><text fill="#000000" stroke="none" font-family="Arial" font-size="32px" font-style="normal" font-weight="normal" text-decoration="none" x="221" y="421">d'élément touvé</text><text fill="#000000" stroke="none" font-family="Arial" font-size="32px" font-style="normal" font-weight="normal" text-decoration="none" x="221" y="453">doit être au moins</text><text fill="#000000" stroke="none" font-family="Arial" font-size="32px" font-style="normal" font-weight="normal" text-decoration="none" x="221" y="485">suppérieur à zéro</text></g></g><g transform="translate(-30,10) scale(1,1)"><g><path fill="none" stroke="none"/></g></g><g transform="translate(-30,10) scale(1,1)"><path fill="#ffffff" stroke="none" d="M 2560 1112 L 3045 1112 L 3055 1122 L 3055 1250 L 2560 1250 L 2560 1112"/></g><g transform="translate(-30,10) scale(1,1)"><path fill="none" stroke="#000000" d="M 2560 1112 L 3045 1112 L 3055 1122 L 3055 1250 L 2560 1250 L 2560 1112 L 2560 1112" stroke-miterlimit="10"/></g><g transform="translate(-30,10) scale(1,1)"><path fill="none" stroke="#000000" d="M 3045 1112 L 3045 1122 L 3055 1122 L 3045 1112" stroke-miterlimit="10"/></g><g transform="translate(-30,10) scale(1,1)"><g><path fill="none" stroke="none"/><text fill="#000000" stroke="none" font-family="Arial" font-size="32px" font-style="normal" font-weight="normal" text-decoration="none" x="2565" y="1141">Signaler que l'élément rechercher</text><text fill="#000000" stroke="none" font-family="Arial" font-size="32px" font-style="normal" font-weight="normal" text-decoration="none" x="2565" y="1172">est intouvalle en lui demandant de</text><text fill="#000000" stroke="none" font-family="Arial" font-size="32px" font-style="normal" font-weight="normal" text-decoration="none" x="2565" y="1204">verifier l'orthographe de ce</text><text fill="#000000" stroke="none" font-family="Arial" font-size="32px" font-style="normal" font-weight="normal" text-decoration="none" x="2565" y="1236">dernier</text></g></g><g transform="translate(-30,10) scale(1,1)"><path fill="none" stroke="#000000" d="M 1606 1184 L 2559 1182" stroke-miterlimit="10" stroke-dasharray="3"/></g><g transform="translate(-30,10) scale(1,1)"><path fill="none" stroke="#000000" d="M 196 160 L 717 160" stroke-miterlimit="10"/></g><g transform="translate(-30,10) scale(1,1)"><path fill="#000000" stroke="none" d="M 706.8373251423759 164.209517756016 L 717 160 L 706.8373251423758 155.790482243984"/></g><g transform="translate(-30,10) scale(1,1)"><path fill="none" stroke="#000000" d="M 706.8373251423759 164.209517756016 L 717 160 L 706.8373251423758 155.790482243984 L 706.8373251423759 164.209517756016" stroke-miterlimit="10"/></g><g transform="translate(-30,10) scale(1,1)"><g><path fill="none" stroke="none"/><text fill="#000000" stroke="none" font-family="Arial" font-size="32px" font-style="normal" font-weight="normal" text-decoration="none" x="249.5" y="161.5">1 : A chaque caractère saisie</text></g></g><g transform="translate(-30,10) scale(1,1)"><rect fill="#ffffff" stroke="none" x="717" y="160" width="13" height="28"/></g><g transform="translate(-30,10) scale(1,1)"><path fill="none" stroke="#000000" d="M 717 160 L 730 160 L 730 188 L 717 188 L 717 160 Z Z" stroke-miterlimit="10"/></g><g transform="translate(-30,10) scale(1,1)"><path fill="none" stroke="#000000" d="M 724 240 L 754 240 L 754 260 L 730 260" stroke-miterlimit="10"/></g><g transform="translate(-30,10) scale(1,1)"><path fill="#000000" stroke="none" d="M 740.1626748576241 255.790482243984 L 730 260 L 740.1626748576241 264.209517756016"/></g><g transform="translate(-30,10) scale(1,1)"><path fill="none" stroke="#000000" d="M 740.1626748576241 255.790482243984 L 730 260 L 740.1626748576241 264.209517756016 L 740.1626748576241 255.790482243984" stroke-miterlimit="10"/></g><g transform="translate(-30,10) scale(1,1)"><g><path fill="none" stroke="none"/><text fill="#000000" stroke="none" font-family="Arial" font-size="32px" font-style="normal" font-weight="normal" text-decoration="none" x="758.5" y="250">2 : Verifier (recherche)</text></g></g><g transform="translate(-30,10) scale(1,1)"><rect fill="#ffffff" stroke="none" x="717" y="260" width="13" height="28"/></g><g transform="translate(-30,10) scale(1,1)"><path fill="none" stroke="#000000" d="M 717 260 L 730 260 L 730 288 L 717 288 L 717 260 Z Z" stroke-miterlimit="10"/></g><g transform="translate(-30,10) scale(1,1)"><path fill="none" stroke="#000000" d="M 1421 344 L 3493 344" stroke-miterlimit="10"/></g><g transform="translate(-30,10) scale(1,1)"><path fill="none" stroke="#000000" d="M 3482.837325142376 348.209517756016 L 3493 344 L 3482.837325142376 339.790482243984" stroke-miterlimit="10"/></g><g transform="translate(-30,10) scale(1,1)"><g><path fill="none" stroke="none"/><text fill="#000000" stroke="none" font-family="Arial" font-size="32px" font-style="normal" font-weight="normal" text-decoration="none" x="2270.5" y="345">3 : Rechercher(recherche)</text></g></g><g transform="translate(-30,10) scale(1,1)"><rect fill="#ffffff" stroke="none" x="3493" y="344" width="13" height="28"/></g><g transform="translate(-30,10) scale(1,1)"><path fill="none" stroke="#000000" d="M 3493 344 L 3506 344 L 3506 372 L 3493 372 L 3493 344 Z Z" stroke-miterlimit="10"/></g><g transform="translate(-30,10) scale(1,1)"><path fill="none" stroke="#000000" d="M 2489 512 L 730 512" stroke-miterlimit="10"/></g><g transform="translate(-30,10) scale(1,1)"><path fill="none" stroke="#000000" d="M 740.1626748576241 507.790482243984 L 730 512 L 740.1626748576241 516.209517756016" stroke-miterlimit="10"/></g><g transform="translate(-30,10) scale(1,1)"><g><path fill="none" stroke="none"/><text fill="#000000" stroke="none" font-family="Arial" font-size="32px" font-style="normal" font-weight="normal" text-decoration="none" x="1508.5" y="533">4 : getpopup()</text></g></g><g transform="translate(-30,10) scale(1,1)"><rect fill="#ffffff" stroke="none" x="717" y="512" width="13" height="28"/></g><g transform="translate(-30,10) scale(1,1)"><path fill="none" stroke="#000000" d="M 717 512 L 730 512 L 730 540 L 717 540 L 717 512 Z Z" stroke-miterlimit="10"/></g><g transform="translate(-30,10) scale(1,1)"><path fill="none" stroke="#000000" d="M 724 664 L 754 664 L 754 684 L 730 684" stroke-miterlimit="10"/></g><g transform="translate(-30,10) scale(1,1)"><path fill="#000000" stroke="none" d="M 740.1626748576241 679.790482243984 L 730 684 L 740.1626748576241 688.209517756016"/></g><g transform="translate(-30,10) scale(1,1)"><path fill="none" stroke="#000000" d="M 740.1626748576241 679.790482243984 L 730 684 L 740.1626748576241 688.209517756016 L 740.1626748576241 679.790482243984" stroke-miterlimit="10"/></g><g transform="translate(-30,10) scale(1,1)"><g><path fill="none" stroke="none"/><text fill="#000000" stroke="none" font-family="Arial" font-size="32px" font-style="normal" font-weight="normal" text-decoration="none" x="737.5" y="673">5 : getId()</text></g></g><g transform="translate(-30,10) scale(1,1)"><rect fill="#ffffff" stroke="none" x="717" y="684" width="13" height="28"/></g><g transform="translate(-30,10) scale(1,1)"><path fill="none" stroke="#000000" d="M 717 684 L 730 684 L 730 712 L 717 712 L 717 684 Z Z" stroke-miterlimit="10"/></g><g transform="translate(-30,10) scale(1,1)"><rect fill="#ffffff" stroke="none" x="1184" y="704" width="2416" height="136"/></g><g transform="translate(-30,10) scale(1,1)"><path fill="none" stroke="#000000" d="M 1184 704 L 3600 704 L 3600 840 L 1184 840 L 1184 704 Z Z" stroke-miterlimit="10"/></g><g transform="translate(-30,10) scale(1,1)"><path fill="none" stroke="#000000" d="M 1184 704 L 1184 745 L 1231.34375 745 L 1251.84375 724.5 L 1251.84375 704 L 1184 704 L 1184 704" stroke-miterlimit="10"/></g><g transform="translate(-30,10) scale(1,1)"><g><path fill="none" stroke="none"/><text fill="#000000" stroke="none" font-family="Arial" font-size="32px" font-style="normal" font-weight="normal" text-decoration="none" x="2425.921875" y="724.5"></text></g></g><g transform="translate(-30,10) scale(1,1)"><g><path fill="none" stroke="none"/><text fill="#000000" stroke="none" font-family="Arial" font-size="32px" font-style="normal" font-weight="bold" text-decoration="none" x="1187.21875" y="736">ref</text></g></g><g transform="translate(-30,10) scale(1,1)"><path fill="none" stroke="#000000" d="M 1421 792 L 3493 792" stroke-miterlimit="10"/></g><g transform="translate(-30,10) scale(1,1)"><path fill="#000000" stroke="none" d="M 3482.837325142376 796.209517756016 L 3493 792 L 3482.837325142376 787.790482243984"/></g><g transform="translate(-30,10) scale(1,1)"><path fill="none" stroke="#000000" d="M 3482.837325142376 796.209517756016 L 3493 792 L 3482.837325142376 787.790482243984 L 3482.837325142376 796.209517756016" stroke-miterlimit="10"/></g><g transform="translate(-30,10) scale(1,1)"><g><path fill="none" stroke="none"/><text fill="#000000" stroke="none" font-family="Arial" font-size="32px" font-style="normal" font-weight="normal" text-decoration="none" x="2370.5" y="793">6 : Afficher()</text></g></g><g transform="translate(-30,10) scale(1,1)"><rect fill="#ffffff" stroke="none" x="3493" y="792" width="13" height="28"/></g><g transform="translate(-30,10) scale(1,1)"><path fill="none" stroke="#000000" d="M 3493 792 L 3506 792 L 3506 820 L 3493 820 L 3493 792 Z Z" stroke-miterlimit="10"/></g><g transform="translate(-30,10) scale(1,1)"><path fill="none" stroke="#000000" d="M 2489 927 L 724 927" stroke-miterlimit="10" stroke-dasharray="3"/></g><g transform="translate(-30,10) scale(1,1)"><path fill="none" stroke="#000000" d="M 734.1626748576241 922.790482243984 L 724 927 L 734.1626748576241 931.209517756016" stroke-miterlimit="10"/></g><g transform="translate(-30,10) scale(1,1)"><g><path fill="none" stroke="none"/><text fill="#000000" stroke="none" font-family="Arial" font-size="32px" font-style="normal" font-weight="normal" text-decoration="none" x="1520.5" y="948">7 : Cacher()</text></g></g><g transform="translate(-30,10) scale(1,1)"><path fill="none" stroke="#000000" d="M 2489 1128 L 724 1128" stroke-miterlimit="10" stroke-dasharray="3"/></g><g transform="translate(-30,10) scale(1,1)"><path fill="none" stroke="#000000" d="M 734.1626748576241 1123.7904822439841 L 724 1128 L 734.1626748576241 1132.2095177560159" stroke-miterlimit="10"/></g><g transform="translate(-30,10) scale(1,1)"><g><path fill="none" stroke="none"/><text fill="#000000" stroke="none" font-family="Arial" font-size="32px" font-style="normal" font-weight="normal" text-decoration="none" x="1520.5" y="1149">8 : Cacher()</text></g></g><g transform="translate(-30,10) scale(1,1)"><path fill="none" stroke="#000000" d="M 2489 1184 L 724 1184" stroke-miterlimit="10" stroke-dasharray="3"/></g><g transform="translate(-30,10) scale(1,1)"><path fill="none" stroke="#000000" d="M 734.1626748576241 1179.7904822439841 L 724 1184 L 734.1626748576241 1188.2095177560159" stroke-miterlimit="10"/></g><g transform="translate(-30,10) scale(1,1)"><g><path fill="none" stroke="none"/><text fill="#000000" stroke="none" font-family="Arial" font-size="32px" font-style="normal" font-weight="normal" text-decoration="none" x="1460.5" y="1205">9 : Alerter(message)</text></g></g><g transform="translate(-30,10) scale(1,1)"><path fill="none" stroke="#000000" d="M 2489 1392 L 724 1392" stroke-miterlimit="10" stroke-dasharray="3"/></g><g transform="translate(-30,10) scale(1,1)"><path fill="none" stroke="#000000" d="M 734.1626748576241 1387.7904822439841 L 724 1392 L 734.1626748576241 1396.2095177560159" stroke-miterlimit="10"/></g><g transform="translate(-30,10) scale(1,1)"><g><path fill="none" stroke="none"/><text fill="#000000" stroke="none" font-family="Arial" font-size="32px" font-style="normal" font-weight="normal" text-decoration="none" x="1511.5" y="1413">10 : Cacher()</text></g></g><g transform="translate(-30,10) scale(1,1)"><path fill="none" stroke="#000000" d="M 196 1808 L 717 1808" stroke-miterlimit="10"/></g><g transform="translate(-30,10) scale(1,1)"><path fill="#000000" stroke="none" d="M 706.8373251423759 1812.2095177560159 L 717 1808 L 706.8373251423758 1803.7904822439841"/></g><g transform="translate(-30,10) scale(1,1)"><path fill="none" stroke="#000000" d="M 706.8373251423759 1812.2095177560159 L 717 1808 L 706.8373251423758 1803.7904822439841 L 706.8373251423759 1812.2095177560159" stroke-miterlimit="10"/></g><g transform="translate(-30,10) scale(1,1)"><g><path fill="none" stroke="none"/><text fill="#000000" stroke="none" font-family="Arial" font-size="32px" font-style="normal" font-weight="normal" text-decoration="none" x="237.5" y="1809.5">11 : A chaque caractère saisie </text></g></g><g transform="translate(-30,10) scale(1,1)"><rect fill="#ffffff" stroke="none" x="717" y="1808" width="13" height="28"/></g><g transform="translate(-30,10) scale(1,1)"><path fill="none" stroke="#000000" d="M 717 1808 L 730 1808 L 730 1836 L 717 1836 L 717 1808 Z Z" stroke-miterlimit="10"/></g><g transform="translate(-30,10) scale(1,1)"><path fill="none" stroke="#000000" d="M 724 1904 L 754 1904 L 754 1924 L 730 1924" stroke-miterlimit="10"/></g><g transform="translate(-30,10) scale(1,1)"><path fill="#000000" stroke="none" d="M 740.1626748576241 1919.7904822439841 L 730 1924 L 740.1626748576241 1928.2095177560159"/></g><g transform="translate(-30,10) scale(1,1)"><path fill="none" stroke="#000000" d="M 740.1626748576241 1919.7904822439841 L 730 1924 L 740.1626748576241 1928.2095177560159 L 740.1626748576241 1919.7904822439841" stroke-miterlimit="10"/></g><g transform="translate(-30,10) scale(1,1)"><g><path fill="none" stroke="none"/><text fill="#000000" stroke="none" font-family="Arial" font-size="32px" font-style="normal" font-weight="normal" text-decoration="none" x="666.5" y="1924">12 : verichier (recherche)</text></g></g><g transform="translate(-30,10) scale(1,1)"><rect fill="#ffffff" stroke="none" x="717" y="1924" width="13" height="28"/></g><g transform="translate(-30,10) scale(1,1)"><path fill="none" stroke="#000000" d="M 717 1924 L 730 1924 L 730 1952 L 717 1952 L 717 1924 Z Z" stroke-miterlimit="10"/></g><g transform="translate(-30,10) scale(1,1)"><path fill="none" stroke="#000000" d="M 2489 2048 L 724 2048" stroke-miterlimit="10" stroke-dasharray="3"/></g><g transform="translate(-30,10) scale(1,1)"><path fill="none" stroke="#000000" d="M 734.1626748576241 2043.7904822439841 L 724 2048 L 734.1626748576241 2052.209517756016" stroke-miterlimit="10"/></g><g transform="translate(-30,10) scale(1,1)"><g><path fill="none" stroke="none"/><text fill="#000000" stroke="none" font-family="Arial" font-size="32px" font-style="normal" font-weight="normal" text-decoration="none" x="1491.5" y="2069">13 : Reinitialiser</text></g></g><g transform="translate(-30,10) scale(1,1)"><path fill="none" stroke="#000000" d="M 112 608 L 3696 608 L 3696 1000 L 112 1000 L 112 608" stroke-miterlimit="10"/></g><g transform="translate(-30,10) scale(1,1)"><path fill="#ffffff" stroke="none" d="M 112 608 L 112 649 L 489.078125 649 L 509.578125 628.5 L 509.578125 608 L 112 608"/></g><g transform="translate(-30,10) scale(1,1)"><path fill="none" stroke="#000000" d="M 112 608 L 112 649 L 489.078125 649 L 509.578125 628.5 L 509.578125 608 L 112 608 L 112 608" stroke-miterlimit="10"/></g><g transform="translate(-30,10) scale(1,1)"><g><path fill="none" stroke="none"/><text fill="#000000" stroke="none" font-family="Arial" font-size="32px" font-style="normal" font-weight="normal" text-decoration="none" x="156.796875" y="640">click information popup</text></g></g><g transform="translate(-30,10) scale(1,1)"><g><path fill="none" stroke="none"/><text fill="#000000" stroke="none" font-family="Arial" font-size="32px" font-style="normal" font-weight="bold" text-decoration="none" x="115.2265625" y="640">alt</text></g></g><g transform="translate(-30,10) scale(1,1)"><path fill="none" stroke="#000000" d="M 512 440 L 3768 440 L 3768 1520 L 512 1520 L 512 440" stroke-miterlimit="10"/></g><g transform="translate(-30,10) scale(1,1)"><path fill="#ffffff" stroke="none" d="M 512 440 L 512 481 L 760.078125 481 L 780.578125 460.5 L 780.578125 440 L 512 440"/></g><g transform="translate(-30,10) scale(1,1)"><path fill="none" stroke="#000000" d="M 512 440 L 512 481 L 760.078125 481 L 780.578125 460.5 L 780.578125 440 L 512 440 L 512 440" stroke-miterlimit="10"/></g><g transform="translate(-30,10) scale(1,1)"><g><path fill="none" stroke="none"/><text fill="#000000" stroke="none" font-family="Arial" font-size="32px" font-style="normal" font-weight="normal" text-decoration="none" x="556.796875" y="472">Compter() &gt; 0</text></g></g><g transform="translate(-30,10) scale(1,1)"><g><path fill="none" stroke="none"/><text fill="#000000" stroke="none" font-family="Arial" font-size="32px" font-style="normal" font-weight="bold" text-decoration="none" x="515.2265625" y="472">alt</text></g></g><g transform="translate(-30,10) scale(1,1)"><path fill="none" stroke="#000000" d="M 512 1084 L 3768 1084" stroke-miterlimit="10" stroke-dasharray="10,3"/></g><g transform="translate(-30,10) scale(1,1)"><path fill="none" stroke="#000000" d="M 512 1276 L 3768 1276" stroke-miterlimit="10" stroke-dasharray="10,3"/></g><g transform="translate(-30,10) scale(1,1)"><path fill="none" stroke="#000000" d="M 608 1312 L 3176 1312 L 3176 1472 L 608 1472 L 608 1312" stroke-miterlimit="10"/></g><g transform="translate(-30,10) scale(1,1)"><path fill="#ffffff" stroke="none" d="M 608 1312 L 608 1353 L 986.90625 1353 L 1007.40625 1332.5 L 1007.40625 1312 L 608 1312"/></g><g transform="translate(-30,10) scale(1,1)"><path fill="none" stroke="#000000" d="M 608 1312 L 608 1353 L 986.90625 1353 L 1007.40625 1332.5 L 1007.40625 1312 L 608 1312 L 608 1312" stroke-miterlimit="10"/></g><g transform="translate(-30,10) scale(1,1)"><g><path fill="none" stroke="none"/><text fill="#000000" stroke="none" font-family="Arial" font-size="32px" font-style="normal" font-weight="normal" text-decoration="none" x="670.59375" y="1344">click en dehors popup</text></g></g><g transform="translate(-30,10) scale(1,1)"><g><path fill="none" stroke="none"/><text fill="#000000" stroke="none" font-family="Arial" font-size="32px" font-style="normal" font-weight="bold" text-decoration="none" x="611.2265625" y="1341">seq</text></g></g><g transform="translate(-30,10) scale(1,1)"><path fill="none" stroke="#000000" d="M 40 0 L 4584 0 L 4584 2448 L 40 2448 L 40 0" stroke-miterlimit="10"/></g><g transform="translate(-30,10) scale(1,1)"><path fill="#ffffff" stroke="none" d="M 40 0 L 40 41 L 370.796875 41 L 391.296875 20.5 L 391.296875 0 L 40 0"/></g><g transform="translate(-30,10) scale(1,1)"><path fill="none" stroke="#000000" d="M 40 0 L 40 41 L 370.796875 41 L 391.296875 20.5 L 391.296875 0 L 40 0 L 40 0" stroke-miterlimit="10"/></g><g transform="translate(-30,10) scale(1,1)"><g><path fill="none" stroke="none"/><text fill="#000000" stroke="none" font-family="Arial" font-size="32px" font-style="normal" font-weight="normal" text-decoration="none" x="102.59375" y="32">Rechercher Article</text></g></g><g transform="translate(-30,10) scale(1,1)"><g><path fill="none" stroke="none"/><text fill="#000000" stroke="none" font-family="Arial" font-size="32px" font-style="normal" font-weight="bold" text-decoration="none" x="43.2265625" y="29">seq</text></g></g></g></svg>