<svg version="1.1" xmlns="http://www.w3.org/2000/svg" xmlns:xlink="http://www.w3.org/1999/xlink" width="2588" height="1724"><defs/><g><g transform="translate(2,10) scale(1,1)"><path fill="none" stroke="#000000" d="M 8 0 L 2576 0 L 2576 1704 L 8 1704 L 8 0" stroke-miterlimit="10"/></g><g transform="translate(2,10) scale(1,1)"><path fill="#ffffff" stroke="none" d="M 8 0 L 8 41 L 426 41 L 446.5 20.5 L 446.5 0 L 8 0"/></g><g transform="translate(2,10) scale(1,1)"><path fill="none" stroke="#000000" d="M 8 0 L 8 41 L 426 41 L 446.5 20.5 L 446.5 0 L 8 0 L 8 0" stroke-miterlimit="10"/></g><g transform="translate(2,10) scale(1,1)"><g><path fill="none" stroke="none"/><text fill="#000000" stroke="none" font-family="Arial" font-size="32px" font-style="normal" font-weight="normal" text-decoration="none" x="52.796875" y="32">Modifier de Athentification</text></g></g><g transform="translate(2,10) scale(1,1)"><g><path fill="none" stroke="none"/><text fill="#000000" stroke="none" font-family="Arial" font-size="32px" font-style="normal" font-weight="bold" text-decoration="none" x="11.2265625" y="32">sd</text></g></g><g transform="translate(2,10) scale(1,1)"><rect fill="#C0C0C0" stroke="none" x="543" y="47" width="159" height="39" opacity="0.2"/></g><g transform="translate(2,10) scale(1,1)"><rect fill="#ffffff" stroke="none" x="536" y="40" width="159" height="39"/></g><g transform="translate(2,10) scale(1,1)"><path fill="none" stroke="#000000" d="M 536 40 L 695 40 L 695 79 L 536 79 L 536 40 Z Z" stroke-miterlimit="10"/></g><g transform="translate(2,10) scale(1,1)"><g><path fill="none" stroke="none"/><text fill="#000000" stroke="none" font-family="Arial" font-size="32px" font-style="normal" font-weight="bold" text-decoration="none" x="615.5" y="62.5"></text></g></g><g transform="translate(2,10) scale(1,1)"><path fill="none" stroke="#000000" d="M 616.5 80 L 616.5 1664" stroke-miterlimit="10" stroke-dasharray="3"/></g><g transform="translate(2,10) scale(1,1)"><rect fill="#C0C0C0" stroke="none" x="991" y="47" width="273.1875" height="39" opacity="0.2"/></g><g transform="translate(2,10) scale(1,1)"><rect fill="#ffffff" stroke="none" x="984" y="40" width="273.1875" height="39"/></g><g transform="translate(2,10) scale(1,1)"><path fill="none" stroke="#000000" d="M 984 40 L 1257.1875 40 L 1257.1875 79 L 984 79 L 984 40 Z Z" stroke-miterlimit="10"/></g><g transform="translate(2,10) scale(1,1)"><g><path fill="none" stroke="none"/><text fill="#000000" stroke="none" font-family="Arial" font-size="32px" font-style="normal" font-weight="bold" text-decoration="none" x="993.5" y="74">:Authentification</text></g></g><g transform="translate(2,10) scale(1,1)"><path fill="none" stroke="#000000" d="M 1121.5 80 L 1121.5 1680" stroke-miterlimit="10" stroke-dasharray="3"/></g><g transform="translate(2,10) scale(1,1)"><rect fill="#C0C0C0" stroke="none" x="1487" y="47" width="194.984375" height="39" opacity="0.2"/></g><g transform="translate(2,10) scale(1,1)"><rect fill="#ffffff" stroke="none" x="1480" y="40" width="194.984375" height="39"/></g><g transform="translate(2,10) scale(1,1)"><path fill="none" stroke="#000000" d="M 1480 40 L 1674.984375 40 L 1674.984375 79 L 1480 79 L 1480 40 Z Z" stroke-miterlimit="10"/></g><g transform="translate(2,10) scale(1,1)"><g><path fill="none" stroke="none"/><text fill="#000000" stroke="none" font-family="Arial" font-size="32px" font-style="normal" font-weight="bold" text-decoration="none" x="1489.5" y="74">Notification</text></g></g><g transform="translate(2,10) scale(1,1)"><path fill="none" stroke="#000000" d="M 1578.5 80 L 1578.5 1696" stroke-miterlimit="10" stroke-dasharray="3"/></g><g transform="translate(2,10) scale(1,1)"><rect fill="#C0C0C0" stroke="none" x="2023" y="47" width="207" height="39" opacity="0.2"/></g><g transform="translate(2,10) scale(1,1)"><rect fill="#ffffff" stroke="none" x="2016" y="40" width="207" height="39"/></g><g transform="translate(2,10) scale(1,1)"><path fill="none" stroke="#000000" d="M 2016 40 L 2223 40 L 2223 79 L 2016 79 L 2016 40 Z Z" stroke-miterlimit="10"/></g><g transform="translate(2,10) scale(1,1)"><g><path fill="none" stroke="none"/><text fill="#000000" stroke="none" font-family="Arial" font-size="32px" font-style="normal" font-weight="bold" text-decoration="none" x="2091.0625" y="73.5">:BD</text></g></g><g transform="translate(2,10) scale(1,1)"><path fill="none" stroke="#000000" d="M 2120.5 80 L 2120.5 1696" stroke-miterlimit="10" stroke-dasharray="3"/></g><g transform="translate(2,10) scale(1,1)"><path fill="#ffffff" stroke="none" d="M 227.43809659090908 47.3 C 227.43809659090908 43.82060576 230.3164983130909 41 233.8671875 41 C 237.4178766869091 41 240.2962784090909 43.82060576 240.2962784090909 47.3 C 240.2962784090909 50.779394239999995 237.4178766869091 53.6 233.8671875 53.6 C 230.3164983130909 53.6 227.43809659090908 50.779394239999995 227.43809659090908 47.3 Z"/></g><g transform="translate(2,10) scale(1,1)"><path fill="none" stroke="#000000" d="M 227.43809659090908 47.3 C 227.43809659090908 43.82060576 230.3164983130909 41 233.8671875 41 C 237.4178766869091 41 240.2962784090909 43.82060576 240.2962784090909 47.3 C 240.2962784090909 50.779394239999995 237.4178766869091 53.6 233.8671875 53.6 C 230.3164983130909 53.6 227.43809659090908 50.779394239999995 227.43809659090908 47.3 Z" stroke-miterlimit="10"/></g><g transform="translate(2,10) scale(1,1)"><path fill="none" stroke="#000000" d="M 233.8671875 53.6 L 233.8671875 66.4" stroke-miterlimit="10"/></g><g transform="translate(2,10) scale(1,1)"><path fill="none" stroke="#000000" d="M 227.05991477272727 58.4 L 240.6744602272727 58.4" stroke-miterlimit="10"/></g><g transform="translate(2,10) scale(1,1)"><path fill="none" stroke="#000000" d="M 233.8671875 66.4 L 224.41264204545453 79" stroke-miterlimit="10"/></g><g transform="translate(2,10) scale(1,1)"><path fill="none" stroke="#000000" d="M 233.8671875 66.4 L 243.32173295454544 79" stroke-miterlimit="10"/></g><g transform="translate(2,10) scale(1,1)"><g><path fill="none" stroke="none"/><text fill="#000000" stroke="none" font-family="Arial" font-size="32px" font-style="normal" font-weight="bold" text-decoration="none" x="100.5" y="113.5">Personne: Actor1</text></g></g><g transform="translate(2,10) scale(1,1)"><path fill="none" stroke="#000000" d="M 234.5 124 L 234.5 1664" stroke-miterlimit="10" stroke-dasharray="3"/></g><g transform="translate(2,10) scale(1,1)"><path fill="#ffffff" stroke="none" d="M 1712 288 L 2013 288 L 2023 298 L 2023 458 L 1712 458 L 1712 288"/></g><g transform="translate(2,10) scale(1,1)"><path fill="none" stroke="#000000" d="M 1712 288 L 2013 288 L 2023 298 L 2023 458 L 1712 458 L 1712 288 L 1712 288" stroke-miterlimit="10"/></g><g transform="translate(2,10) scale(1,1)"><path fill="none" stroke="#000000" d="M 2013 288 L 2013 298 L 2023 298 L 2013 288" stroke-miterlimit="10"/></g><g transform="translate(2,10) scale(1,1)"><g><path fill="none" stroke="none"/><text fill="#000000" stroke="none" font-family="Arial" font-size="32px" font-style="normal" font-weight="normal" text-decoration="none" x="1717" y="316">le lien de</text><text fill="#000000" stroke="none" font-family="Arial" font-size="32px" font-style="normal" font-weight="normal" text-decoration="none" x="1717" y="349">réinitialisation de mot</text><text fill="#000000" stroke="none" font-family="Arial" font-size="32px" font-style="normal" font-weight="normal" text-decoration="none" x="1717" y="380">de passe par e-mail</text><text fill="#000000" stroke="none" font-family="Arial" font-size="32px" font-style="normal" font-weight="normal" text-decoration="none" x="1717" y="412">qui expire dans 15</text><text fill="#000000" stroke="none" font-family="Arial" font-size="32px" font-style="normal" font-weight="normal" text-decoration="none" x="1717" y="444">minute.</text></g></g><g transform="translate(2,10) scale(1,1)"><path fill="none" stroke="#000000" d="M 1845 626 L 1860 460" stroke-miterlimit="10" stroke-dasharray="3"/></g><g transform="translate(2,10) scale(1,1)"><path fill="none" stroke="#000000" d="M 234 168 L 609 168" stroke-miterlimit="10"/></g><g transform="translate(2,10) scale(1,1)"><path fill="#000000" stroke="none" d="M 598.8373251423759 172.209517756016 L 609 168 L 598.8373251423758 163.790482243984"/></g><g transform="translate(2,10) scale(1,1)"><path fill="none" stroke="#000000" d="M 598.8373251423759 172.209517756016 L 609 168 L 598.8373251423758 163.790482243984 L 598.8373251423759 172.209517756016" stroke-miterlimit="10"/></g><g transform="translate(2,10) scale(1,1)"><g><path fill="none" stroke="none"/><text fill="#000000" stroke="none" font-family="Arial" font-size="32px" font-style="normal" font-weight="normal" text-decoration="none" x="169.5" y="169">1 : Cliquer option mot passe oublier</text></g></g><g transform="translate(2,10) scale(1,1)"><rect fill="#ffffff" stroke="none" x="609" y="168" width="13" height="28"/></g><g transform="translate(2,10) scale(1,1)"><path fill="none" stroke="#000000" d="M 609 168 L 622 168 L 622 196 L 609 196 L 609 168 Z Z" stroke-miterlimit="10"/></g><g transform="translate(2,10) scale(1,1)"><path fill="none" stroke="#000000" d="M 1578 256 L 234 256" stroke-miterlimit="10" stroke-dasharray="3"/></g><g transform="translate(2,10) scale(1,1)"><path fill="none" stroke="#000000" d="M 244.16267485762415 251.790482243984 L 234 256 L 244.16267485762415 260.209517756016" stroke-miterlimit="10"/></g><g transform="translate(2,10) scale(1,1)"><g><path fill="none" stroke="none"/><text fill="#000000" stroke="none" font-family="Arial" font-size="32px" font-style="normal" font-weight="normal" text-decoration="none" x="805.5" y="277">2 : getpopup()</text></g></g><g transform="translate(2,10) scale(1,1)"><path fill="none" stroke="#000000" d="M 234 376 L 609 376" stroke-miterlimit="10"/></g><g transform="translate(2,10) scale(1,1)"><path fill="#000000" stroke="none" d="M 598.8373251423759 380.209517756016 L 609 376 L 598.8373251423758 371.790482243984"/></g><g transform="translate(2,10) scale(1,1)"><path fill="none" stroke="#000000" d="M 598.8373251423759 380.209517756016 L 609 376 L 598.8373251423758 371.790482243984 L 598.8373251423759 380.209517756016" stroke-miterlimit="10"/></g><g transform="translate(2,10) scale(1,1)"><g><path fill="none" stroke="none"/><text fill="#000000" stroke="none" font-family="Arial" font-size="32px" font-style="normal" font-weight="normal" text-decoration="none" x="251.5" y="377">3 : Saisie addresse mail</text></g></g><g transform="translate(2,10) scale(1,1)"><rect fill="#ffffff" stroke="none" x="609" y="376" width="13" height="28"/></g><g transform="translate(2,10) scale(1,1)"><path fill="none" stroke="#000000" d="M 609 376 L 622 376 L 622 404 L 609 404 L 609 376 Z Z" stroke-miterlimit="10"/></g><g transform="translate(2,10) scale(1,1)"><path fill="none" stroke="#000000" d="M 616 432 L 646 432 L 646 452 L 622 452" stroke-miterlimit="10"/></g><g transform="translate(2,10) scale(1,1)"><path fill="#000000" stroke="none" d="M 632.1626748576241 447.790482243984 L 622 452 L 632.1626748576241 456.209517756016"/></g><g transform="translate(2,10) scale(1,1)"><path fill="none" stroke="#000000" d="M 632.1626748576241 447.790482243984 L 622 452 L 632.1626748576241 456.209517756016 L 632.1626748576241 447.790482243984" stroke-miterlimit="10"/></g><g transform="translate(2,10) scale(1,1)"><g><path fill="none" stroke="none"/><text fill="#000000" stroke="none" font-family="Arial" font-size="32px" font-style="normal" font-weight="normal" text-decoration="none" x="583.5" y="457">4 : Verifier(addresse_mail)</text></g></g><g transform="translate(2,10) scale(1,1)"><rect fill="#ffffff" stroke="none" x="609" y="452" width="13" height="28"/></g><g transform="translate(2,10) scale(1,1)"><path fill="none" stroke="#000000" d="M 609 452 L 622 452 L 622 480 L 609 480 L 609 452 Z Z" stroke-miterlimit="10"/></g><g transform="translate(2,10) scale(1,1)"><path fill="none" stroke="#000000" d="M 1578 626 L 2113 626" stroke-miterlimit="10"/></g><g transform="translate(2,10) scale(1,1)"><path fill="#000000" stroke="none" d="M 2102.837325142376 630.209517756016 L 2113 626 L 2102.837325142376 621.790482243984"/></g><g transform="translate(2,10) scale(1,1)"><path fill="none" stroke="#000000" d="M 2102.837325142376 630.209517756016 L 2113 626 L 2102.837325142376 621.790482243984 L 2102.837325142376 630.209517756016" stroke-miterlimit="10"/></g><g transform="translate(2,10) scale(1,1)"><g><path fill="none" stroke="none"/><text fill="#000000" stroke="none" font-family="Arial" font-size="32px" font-style="normal" font-weight="normal" text-decoration="none" x="1753.5" y="627">5 : Envoyer()</text></g></g><g transform="translate(2,10) scale(1,1)"><rect fill="#ffffff" stroke="none" x="2113" y="626" width="13" height="28"/></g><g transform="translate(2,10) scale(1,1)"><path fill="none" stroke="#000000" d="M 2113 626 L 2126 626 L 2126 654 L 2113 654 L 2113 626 Z Z" stroke-miterlimit="10"/></g><g transform="translate(2,10) scale(1,1)"><path fill="none" stroke="#000000" d="M 234 912 L 609 912" stroke-miterlimit="10"/></g><g transform="translate(2,10) scale(1,1)"><path fill="#000000" stroke="none" d="M 598.8373251423759 916.209517756016 L 609 912 L 598.8373251423758 907.790482243984"/></g><g transform="translate(2,10) scale(1,1)"><path fill="none" stroke="#000000" d="M 598.8373251423759 916.209517756016 L 609 912 L 598.8373251423758 907.790482243984 L 598.8373251423759 916.209517756016" stroke-miterlimit="10"/></g><g transform="translate(2,10) scale(1,1)"><g><path fill="none" stroke="none"/><text fill="#000000" stroke="none" font-family="Arial" font-size="32px" font-style="normal" font-weight="normal" text-decoration="none" x="271.5" y="913">6 : Saisie information</text></g></g><g transform="translate(2,10) scale(1,1)"><rect fill="#ffffff" stroke="none" x="609" y="912" width="13" height="28"/></g><g transform="translate(2,10) scale(1,1)"><path fill="none" stroke="#000000" d="M 609 912 L 622 912 L 622 940 L 609 940 L 609 912 Z Z" stroke-miterlimit="10"/></g><g transform="translate(2,10) scale(1,1)"><path fill="none" stroke="#000000" d="M 616 1008 L 1114 1008" stroke-miterlimit="10"/></g><g transform="translate(2,10) scale(1,1)"><path fill="#000000" stroke="none" d="M 1103.837325142376 1012.209517756016 L 1114 1008 L 1103.837325142376 1003.790482243984"/></g><g transform="translate(2,10) scale(1,1)"><path fill="none" stroke="#000000" d="M 1103.837325142376 1012.209517756016 L 1114 1008 L 1103.837325142376 1003.790482243984 L 1103.837325142376 1012.209517756016" stroke-miterlimit="10"/></g><g transform="translate(2,10) scale(1,1)"><g><path fill="none" stroke="none"/><text fill="#000000" stroke="none" font-family="Arial" font-size="32px" font-style="normal" font-weight="normal" text-decoration="none" x="704.5" y="1009">7 : Verifier(mot_passe)</text></g></g><g transform="translate(2,10) scale(1,1)"><rect fill="#ffffff" stroke="none" x="1114" y="1008" width="13" height="28"/></g><g transform="translate(2,10) scale(1,1)"><path fill="none" stroke="#000000" d="M 1114 1008 L 1127 1008 L 1127 1036 L 1114 1036 L 1114 1008 Z Z" stroke-miterlimit="10"/></g><g transform="translate(2,10) scale(1,1)"><path fill="none" stroke="#000000" d="M 1121 1236 L 2113 1236" stroke-miterlimit="10"/></g><g transform="translate(2,10) scale(1,1)"><path fill="#000000" stroke="none" d="M 2102.837325142376 1240.2095177560159 L 2113 1236 L 2102.837325142376 1231.7904822439841"/></g><g transform="translate(2,10) scale(1,1)"><path fill="none" stroke="#000000" d="M 2102.837325142376 1240.2095177560159 L 2113 1236 L 2102.837325142376 1231.7904822439841 L 2102.837325142376 1240.2095177560159" stroke-miterlimit="10"/></g><g transform="translate(2,10) scale(1,1)"><g><path fill="none" stroke="none"/><text fill="#000000" stroke="none" font-family="Arial" font-size="32px" font-style="normal" font-weight="normal" text-decoration="none" x="1393.5" y="1237">8 : Modifier(mot_passe, getId())</text></g></g><g transform="translate(2,10) scale(1,1)"><rect fill="#ffffff" stroke="none" x="2113" y="1236" width="13" height="28"/></g><g transform="translate(2,10) scale(1,1)"><path fill="none" stroke="#000000" d="M 2113 1236 L 2126 1236 L 2126 1264 L 2113 1264 L 2113 1236 Z Z" stroke-miterlimit="10"/></g><g transform="translate(2,10) scale(1,1)"><rect fill="#ffffff" stroke="none" x="976" y="1328" width="1207" height="103"/></g><g transform="translate(2,10) scale(1,1)"><path fill="none" stroke="#000000" d="M 976 1328 L 2183 1328 L 2183 1431 L 976 1431 L 976 1328 Z Z" stroke-miterlimit="10"/></g><g transform="translate(2,10) scale(1,1)"><path fill="none" stroke="#000000" d="M 976 1328 L 976 1369 L 1023.34375 1369 L 1043.84375 1348.5 L 1043.84375 1328 L 976 1328 L 976 1328" stroke-miterlimit="10"/></g><g transform="translate(2,10) scale(1,1)"><g><path fill="none" stroke="none"/><text fill="#000000" stroke="none" font-family="Arial" font-size="32px" font-style="normal" font-weight="normal" text-decoration="none" x="1613.421875" y="1348.5"></text></g></g><g transform="translate(2,10) scale(1,1)"><g><path fill="none" stroke="none"/><text fill="#000000" stroke="none" font-family="Arial" font-size="32px" font-style="normal" font-weight="bold" text-decoration="none" x="979.21875" y="1360">ref</text></g></g><g transform="translate(2,10) scale(1,1)"><path fill="none" stroke="#000000" d="M 1121 1379 L 2113 1379" stroke-miterlimit="10"/></g><g transform="translate(2,10) scale(1,1)"><path fill="#000000" stroke="none" d="M 2102.837325142376 1383.2095177560159 L 2113 1379 L 2102.837325142376 1374.7904822439841"/></g><g transform="translate(2,10) scale(1,1)"><path fill="none" stroke="#000000" d="M 2102.837325142376 1383.2095177560159 L 2113 1379 L 2102.837325142376 1374.7904822439841 L 2102.837325142376 1383.2095177560159" stroke-miterlimit="10"/></g><g transform="translate(2,10) scale(1,1)"><g><path fill="none" stroke="none"/><text fill="#000000" stroke="none" font-family="Arial" font-size="32px" font-style="normal" font-weight="normal" text-decoration="none" x="1372.5" y="1380">9 : Connexion(pseudo,mot_passe)</text></g></g><g transform="translate(2,10) scale(1,1)"><rect fill="#ffffff" stroke="none" x="2113" y="1379" width="13" height="28"/></g><g transform="translate(2,10) scale(1,1)"><path fill="none" stroke="#000000" d="M 2113 1379 L 2126 1379 L 2126 1407 L 2113 1407 L 2113 1379 Z Z" stroke-miterlimit="10"/></g><g transform="translate(2,10) scale(1,1)"><path fill="none" stroke="#000000" d="M 544 536 L 2264 536 L 2264 704 L 544 704 L 544 536" stroke-miterlimit="10"/></g><g transform="translate(2,10) scale(1,1)"><path fill="#ffffff" stroke="none" d="M 544 536 L 544 577 L 1033.109375 577 L 1053.609375 556.5 L 1053.609375 536 L 544 536"/></g><g transform="translate(2,10) scale(1,1)"><path fill="none" stroke="#000000" d="M 544 536 L 544 577 L 1033.109375 577 L 1053.609375 556.5 L 1053.609375 536 L 544 536 L 544 536" stroke-miterlimit="10"/></g><g transform="translate(2,10) scale(1,1)"><g><path fill="none" stroke="none"/><text fill="#000000" stroke="none" font-family="Arial" font-size="32px" font-style="normal" font-weight="normal" text-decoration="none" x="588.796875" y="568">Verifier(addresse_mail) == true</text></g></g><g transform="translate(2,10) scale(1,1)"><g><path fill="none" stroke="none"/><text fill="#000000" stroke="none" font-family="Arial" font-size="32px" font-style="normal" font-weight="bold" text-decoration="none" x="547.2265625" y="568">alt</text></g></g><g transform="translate(2,10) scale(1,1)"><path fill="none" stroke="#000000" d="M 472 1096 L 2295 1096 L 2295 1519 L 472 1519 L 472 1096" stroke-miterlimit="10"/></g><g transform="translate(2,10) scale(1,1)"><path fill="#ffffff" stroke="none" d="M 472 1096 L 472 1137 L 1505.4375 1137 L 1525.9375 1116.5 L 1525.9375 1096 L 472 1096"/></g><g transform="translate(2,10) scale(1,1)"><path fill="none" stroke="#000000" d="M 472 1096 L 472 1137 L 1505.4375 1137 L 1525.9375 1116.5 L 1525.9375 1096 L 472 1096 L 472 1096" stroke-miterlimit="10"/></g><g transform="translate(2,10) scale(1,1)"><g><path fill="none" stroke="none"/><text fill="#000000" stroke="none" font-family="Arial" font-size="32px" font-style="normal" font-weight="normal" text-decoration="none" x="516.796875" y="1128">Verifier(mot_passe) ==true  &amp;&amp;  date reinitialiser &lt; date envoyer + 15 </text></g></g><g transform="translate(2,10) scale(1,1)"><g><path fill="none" stroke="none"/><text fill="#000000" stroke="none" font-family="Arial" font-size="32px" font-style="normal" font-weight="bold" text-decoration="none" x="475.2265625" y="1128">alt</text></g></g></g></svg>