<svg version="1.1" xmlns="http://www.w3.org/2000/svg" xmlns:xlink="http://www.w3.org/1999/xlink" width="2172" height="1028"><defs/><g><g transform="translate(2,10) scale(1,1)"><path fill="none" stroke="#000000" d="M 8 0 L 2160 0 L 2160 1008 L 8 1008 L 8 0" stroke-miterlimit="10"/></g><g transform="translate(2,10) scale(1,1)"><path fill="#ffffff" stroke="none" d="M 8 0 L 8 41 L 354.890625 41 L 375.390625 20.5 L 375.390625 0 L 8 0"/></g><g transform="translate(2,10) scale(1,1)"><path fill="none" stroke="#000000" d="M 8 0 L 8 41 L 354.890625 41 L 375.390625 20.5 L 375.390625 0 L 8 0 L 8 0" stroke-miterlimit="10"/></g><g transform="translate(2,10) scale(1,1)"><g><path fill="none" stroke="none"/><text fill="#000000" stroke="none" font-family="Arial" font-size="32px" font-style="normal" font-weight="normal" text-decoration="none" x="52.796875" y="32">Precedente/Suivante</text></g></g><g transform="translate(2,10) scale(1,1)"><g><path fill="none" stroke="none"/><text fill="#000000" stroke="none" font-family="Arial" font-size="32px" font-style="normal" font-weight="bold" text-decoration="none" x="11.2265625" y="32">sd</text></g></g><g transform="translate(2,10) scale(1,1)"><path fill="#ffffff" stroke="none" d="M 189.43809659090908 47.3 C 189.43809659090908 43.82060576 192.3164983130909 41 195.8671875 41 C 199.4178766869091 41 202.2962784090909 43.82060576 202.2962784090909 47.3 C 202.2962784090909 50.779394239999995 199.4178766869091 53.6 195.8671875 53.6 C 192.3164983130909 53.6 189.43809659090908 50.779394239999995 189.43809659090908 47.3 Z"/></g><g transform="translate(2,10) scale(1,1)"><path fill="none" stroke="#000000" d="M 189.43809659090908 47.3 C 189.43809659090908 43.82060576 192.3164983130909 41 195.8671875 41 C 199.4178766869091 41 202.2962784090909 43.82060576 202.2962784090909 47.3 C 202.2962784090909 50.779394239999995 199.4178766869091 53.6 195.8671875 53.6 C 192.3164983130909 53.6 189.43809659090908 50.779394239999995 189.43809659090908 47.3 Z" stroke-miterlimit="10"/></g><g transform="translate(2,10) scale(1,1)"><path fill="none" stroke="#000000" d="M 195.8671875 53.6 L 195.8671875 66.4" stroke-miterlimit="10"/></g><g transform="translate(2,10) scale(1,1)"><path fill="none" stroke="#000000" d="M 189.05991477272727 58.4 L 202.6744602272727 58.4" stroke-miterlimit="10"/></g><g transform="translate(2,10) scale(1,1)"><path fill="none" stroke="#000000" d="M 195.8671875 66.4 L 186.41264204545453 79" stroke-miterlimit="10"/></g><g transform="translate(2,10) scale(1,1)"><path fill="none" stroke="#000000" d="M 195.8671875 66.4 L 205.32173295454544 79" stroke-miterlimit="10"/></g><g transform="translate(2,10) scale(1,1)"><g><path fill="none" stroke="none"/><text fill="#000000" stroke="none" font-family="Arial" font-size="32px" font-style="normal" font-weight="bold" text-decoration="none" x="62.5" y="113.5">Personne: Actor1</text></g></g><g transform="translate(2,10) scale(1,1)"><path fill="none" stroke="#000000" d="M 196.5 124 L 196.5 912" stroke-miterlimit="10" stroke-dasharray="3"/></g><g transform="translate(2,10) scale(1,1)"><rect fill="#C0C0C0" stroke="none" x="663" y="47" width="263" height="39" opacity="0.2"/></g><g transform="translate(2,10) scale(1,1)"><rect fill="#ffffff" stroke="none" x="656" y="40" width="263" height="39"/></g><g transform="translate(2,10) scale(1,1)"><path fill="none" stroke="#000000" d="M 656 40 L 919 40 L 919 79 L 656 79 L 656 40 Z Z" stroke-miterlimit="10"/></g><g transform="translate(2,10) scale(1,1)"><g><path fill="none" stroke="none"/><text fill="#000000" stroke="none" font-family="Arial" font-size="32px" font-style="normal" font-weight="bold" text-decoration="none" x="787.5" y="62.5"></text></g></g><g transform="translate(2,10) scale(1,1)"><path fill="none" stroke="#000000" d="M 788.5 80 L 788.5 928" stroke-miterlimit="10" stroke-dasharray="3"/></g><g transform="translate(2,10) scale(1,1)"><rect fill="#C0C0C0" stroke="none" x="1383" y="47" width="231" height="39" opacity="0.2"/></g><g transform="translate(2,10) scale(1,1)"><rect fill="#ffffff" stroke="none" x="1376" y="40" width="231" height="39"/></g><g transform="translate(2,10) scale(1,1)"><path fill="none" stroke="#000000" d="M 1376 40 L 1607 40 L 1607 79 L 1376 79 L 1376 40 Z Z" stroke-miterlimit="10"/></g><g transform="translate(2,10) scale(1,1)"><g><path fill="none" stroke="none"/><text fill="#000000" stroke="none" font-family="Arial" font-size="32px" font-style="normal" font-weight="bold" text-decoration="none" x="1430.1484375" y="74">:Arrticle</text></g></g><g transform="translate(2,10) scale(1,1)"><path fill="none" stroke="#000000" d="M 1492.5 80 L 1492.5 912" stroke-miterlimit="10" stroke-dasharray="3"/></g><g transform="translate(2,10) scale(1,1)"><path fill="#ffffff" stroke="none" d="M 1808 224 L 2069 224 L 2079 234 L 2079 383 L 1808 383 L 1808 224"/></g><g transform="translate(2,10) scale(1,1)"><path fill="none" stroke="#000000" d="M 1808 224 L 2069 224 L 2079 234 L 2079 383 L 1808 383 L 1808 224 L 1808 224" stroke-miterlimit="10"/></g><g transform="translate(2,10) scale(1,1)"><path fill="none" stroke="#000000" d="M 2069 224 L 2069 234 L 2079 234 L 2069 224" stroke-miterlimit="10"/></g><g transform="translate(2,10) scale(1,1)"><g><path fill="none" stroke="none"/><text fill="#000000" stroke="none" font-family="Arial" font-size="32px" font-style="normal" font-weight="normal" text-decoration="none" x="1813" y="253">Faire dipaître</text><text fill="#000000" stroke="none" font-family="Arial" font-size="32px" font-style="normal" font-weight="normal" text-decoration="none" x="1813" y="285">l'image la plus à</text><text fill="#000000" stroke="none" font-family="Arial" font-size="32px" font-style="normal" font-weight="normal" text-decoration="none" x="1813" y="316">droite parmi celle</text><text fill="#000000" stroke="none" font-family="Arial" font-size="32px" font-style="normal" font-weight="normal" text-decoration="none" x="1813" y="348">aficher</text></g></g><g transform="translate(2,10) scale(1,1)"><path fill="none" stroke="#000000" d="M 1140 406 L 1807 321" stroke-miterlimit="10" stroke-dasharray="3"/></g><g transform="translate(2,10) scale(1,1)"><path fill="#ffffff" stroke="none" d="M 1800 688 L 2037 688 L 2047 698 L 2047 858 L 1800 858 L 1800 688"/></g><g transform="translate(2,10) scale(1,1)"><path fill="none" stroke="#000000" d="M 1800 688 L 2037 688 L 2047 698 L 2047 858 L 1800 858 L 1800 688 L 1800 688" stroke-miterlimit="10"/></g><g transform="translate(2,10) scale(1,1)"><path fill="none" stroke="#000000" d="M 2037 688 L 2037 698 L 2047 698 L 2037 688" stroke-miterlimit="10"/></g><g transform="translate(2,10) scale(1,1)"><g><path fill="none" stroke="none"/><text fill="#000000" stroke="none" font-family="Arial" font-size="32px" font-style="normal" font-weight="normal" text-decoration="none" x="1805" y="716">Sens vers la</text><text fill="#000000" stroke="none" font-family="Arial" font-size="32px" font-style="normal" font-weight="normal" text-decoration="none" x="1805" y="748">droite/ sens vers</text><text fill="#000000" stroke="none" font-family="Arial" font-size="32px" font-style="normal" font-weight="normal" text-decoration="none" x="1805" y="780">la gauche dans</text><text fill="#000000" stroke="none" font-family="Arial" font-size="32px" font-style="normal" font-weight="normal" text-decoration="none" x="1805" y="812">le cas de</text><text fill="#000000" stroke="none" font-family="Arial" font-size="32px" font-style="normal" font-weight="normal" text-decoration="none" x="1805" y="844">suivante</text></g></g><g transform="translate(2,10) scale(1,1)"><path fill="none" stroke="#000000" d="M 1143 576 L 1799 741" stroke-miterlimit="10" stroke-dasharray="3"/></g><g transform="translate(2,10) scale(1,1)"><path fill="#ffffff" stroke="none" d="M 904 536 L 958.71875 536 L 968.71875 546 L 968.71875 578 L 904 578 L 904 536"/></g><g transform="translate(2,10) scale(1,1)"><path fill="none" stroke="#000000" d="M 904 536 L 958.71875 536 L 968.71875 546 L 968.71875 578 L 904 578 L 904 536 L 904 536" stroke-miterlimit="10"/></g><g transform="translate(2,10) scale(1,1)"><path fill="none" stroke="#000000" d="M 958.71875 536 L 958.71875 546 L 968.71875 546 L 958.71875 536" stroke-miterlimit="10"/></g><g transform="translate(2,10) scale(1,1)"><g><path fill="none" stroke="none"/><text fill="#000000" stroke="none" font-family="Arial" font-size="32px" font-style="normal" font-weight="normal" text-decoration="none" x="909" y="564">{1}</text></g></g><g transform="translate(2,10) scale(1,1)"><path fill="none" stroke="#000000" d="M 971 560 L 1143 576" stroke-miterlimit="10" stroke-dasharray="3"/></g><g transform="translate(2,10) scale(1,1)"><path fill="#ffffff" stroke="none" d="M 1520 424 L 2117 424 L 2127 434 L 2127 626 L 1520 626 L 1520 424"/></g><g transform="translate(2,10) scale(1,1)"><path fill="none" stroke="#000000" d="M 1520 424 L 2117 424 L 2127 434 L 2127 626 L 1520 626 L 1520 424 L 1520 424" stroke-miterlimit="10"/></g><g transform="translate(2,10) scale(1,1)"><path fill="none" stroke="#000000" d="M 2117 424 L 2117 434 L 2127 434 L 2117 424" stroke-miterlimit="10"/></g><g transform="translate(2,10) scale(1,1)"><g><path fill="none" stroke="none"/><text fill="#000000" stroke="none" font-family="Arial" font-size="32px" font-style="normal" font-weight="normal" text-decoration="none" x="1525" y="453">Faire apparaître l'image la plus à gauche</text><text fill="#000000" stroke="none" font-family="Arial" font-size="32px" font-style="normal" font-weight="normal" text-decoration="none" x="1525" y="485">qui a disparû précédemment dans le cas</text><text fill="#000000" stroke="none" font-family="Arial" font-size="32px" font-style="normal" font-weight="normal" text-decoration="none" x="1525" y="517">de précédent / Dans le cas de suivant</text><text fill="#000000" stroke="none" font-family="Arial" font-size="32px" font-style="normal" font-weight="normal" text-decoration="none" x="1525" y="548">afficher une nouvelle image qui n'a pas</text><text fill="#000000" stroke="none" font-family="Arial" font-size="32px" font-style="normal" font-weight="normal" text-decoration="none" x="1525" y="581">encore été affichée</text></g></g><g transform="translate(2,10) scale(1,1)"><path fill="none" stroke="#000000" d="M 1140 482 L 1519 506" stroke-miterlimit="10" stroke-dasharray="3"/></g><g transform="translate(2,10) scale(1,1)"><path fill="none" stroke="#000000" d="M 196 160 L 781 160" stroke-miterlimit="10"/></g><g transform="translate(2,10) scale(1,1)"><path fill="#000000" stroke="none" d="M 770.8373251423759 164.209517756016 L 781 160 L 770.8373251423758 155.790482243984"/></g><g transform="translate(2,10) scale(1,1)"><path fill="none" stroke="#000000" d="M 770.8373251423759 164.209517756016 L 781 160 L 770.8373251423758 155.790482243984 L 770.8373251423759 164.209517756016" stroke-miterlimit="10"/></g><g transform="translate(2,10) scale(1,1)"><g><path fill="none" stroke="none"/><text fill="#000000" stroke="none" font-family="Arial" font-size="32px" font-style="normal" font-weight="normal" text-decoration="none" x="282.5" y="161">1 : Cliquer option precedente</text></g></g><g transform="translate(2,10) scale(1,1)"><rect fill="#ffffff" stroke="none" x="781" y="160" width="13" height="28"/></g><g transform="translate(2,10) scale(1,1)"><path fill="none" stroke="#000000" d="M 781 160 L 794 160 L 794 188 L 781 188 L 781 160 Z Z" stroke-miterlimit="10"/></g><g transform="translate(2,10) scale(1,1)"><rect fill="#ffffff" stroke="none" x="736" y="664" width="823" height="103"/></g><g transform="translate(2,10) scale(1,1)"><path fill="none" stroke="#000000" d="M 736 664 L 1559 664 L 1559 767 L 736 767 L 736 664 Z Z" stroke-miterlimit="10"/></g><g transform="translate(2,10) scale(1,1)"><path fill="none" stroke="#000000" d="M 736 664 L 736 705 L 783.34375 705 L 803.84375 684.5 L 803.84375 664 L 736 664 L 736 664" stroke-miterlimit="10"/></g><g transform="translate(2,10) scale(1,1)"><g><path fill="none" stroke="none"/><text fill="#000000" stroke="none" font-family="Arial" font-size="32px" font-style="normal" font-weight="normal" text-decoration="none" x="1181.421875" y="684.5"></text></g></g><g transform="translate(2,10) scale(1,1)"><g><path fill="none" stroke="none"/><text fill="#000000" stroke="none" font-family="Arial" font-size="32px" font-style="normal" font-weight="bold" text-decoration="none" x="739.21875" y="696">ref</text></g></g><g transform="translate(2,10) scale(1,1)"><rect fill="#ffffff" stroke="none" x="688" y="224" width="927" height="135"/></g><g transform="translate(2,10) scale(1,1)"><path fill="none" stroke="#000000" d="M 688 224 L 1615 224 L 1615 359 L 688 359 L 688 224 Z Z" stroke-miterlimit="10"/></g><g transform="translate(2,10) scale(1,1)"><path fill="none" stroke="#000000" d="M 688 224 L 688 265 L 735.34375 265 L 755.84375 244.5 L 755.84375 224 L 688 224 L 688 224" stroke-miterlimit="10"/></g><g transform="translate(2,10) scale(1,1)"><g><path fill="none" stroke="none"/><text fill="#000000" stroke="none" font-family="Arial" font-size="32px" font-style="normal" font-weight="normal" text-decoration="none" x="1185.421875" y="244.5"></text></g></g><g transform="translate(2,10) scale(1,1)"><g><path fill="none" stroke="none"/><text fill="#000000" stroke="none" font-family="Arial" font-size="32px" font-style="normal" font-weight="bold" text-decoration="none" x="691.21875" y="256">ref</text></g></g><g transform="translate(2,10) scale(1,1)"><path fill="none" stroke="#000000" d="M 788 296 L 1485 296" stroke-miterlimit="10"/></g><g transform="translate(2,10) scale(1,1)"><path fill="#000000" stroke="none" d="M 1474.837325142376 300.209517756016 L 1485 296 L 1474.837325142376 291.790482243984"/></g><g transform="translate(2,10) scale(1,1)"><path fill="none" stroke="#000000" d="M 1474.837325142376 300.209517756016 L 1485 296 L 1474.837325142376 291.790482243984 L 1474.837325142376 300.209517756016" stroke-miterlimit="10"/></g><g transform="translate(2,10) scale(1,1)"><g><path fill="none" stroke="none"/><text fill="#000000" stroke="none" font-family="Arial" font-size="32px" font-style="normal" font-weight="normal" text-decoration="none" x="894.5" y="297">2 : ArreterTransitionAutomatique()</text></g></g><g transform="translate(2,10) scale(1,1)"><rect fill="#ffffff" stroke="none" x="1485" y="296" width="13" height="28"/></g><g transform="translate(2,10) scale(1,1)"><path fill="none" stroke="#000000" d="M 1485 296 L 1498 296 L 1498 324 L 1485 324 L 1485 296 Z Z" stroke-miterlimit="10"/></g><g transform="translate(2,10) scale(1,1)"><path fill="none" stroke="#000000" d="M 1492 406 L 788 406" stroke-miterlimit="10" stroke-dasharray="3"/></g><g transform="translate(2,10) scale(1,1)"><path fill="none" stroke="#000000" d="M 798.1626748576241 401.790482243984 L 788 406 L 798.1626748576241 410.209517756016" stroke-miterlimit="10"/></g><g transform="translate(2,10) scale(1,1)"><g><path fill="none" stroke="none"/><text fill="#000000" stroke="none" font-family="Arial" font-size="32px" font-style="normal" font-weight="normal" text-decoration="none" x="968.5" y="427">3 : CacherImage(indice)</text></g></g><g transform="translate(2,10) scale(1,1)"><path fill="none" stroke="#000000" d="M 1492 482 L 788 482" stroke-miterlimit="10" stroke-dasharray="3"/></g><g transform="translate(2,10) scale(1,1)"><path fill="none" stroke="#000000" d="M 798.1626748576241 477.790482243984 L 788 482 L 798.1626748576241 486.209517756016" stroke-miterlimit="10"/></g><g transform="translate(2,10) scale(1,1)"><g><path fill="none" stroke="none"/><text fill="#000000" stroke="none" font-family="Arial" font-size="32px" font-style="normal" font-weight="normal" text-decoration="none" x="965.5" y="503">4 : AfficherImage(indice)</text></g></g><g transform="translate(2,10) scale(1,1)"><path fill="none" stroke="#000000" d="M 1492 576 L 794 576" stroke-miterlimit="10"/></g><g transform="translate(2,10) scale(1,1)"><path fill="none" stroke="#000000" d="M 804.1626748576241 571.790482243984 L 794 576 L 804.1626748576241 580.209517756016" stroke-miterlimit="10"/></g><g transform="translate(2,10) scale(1,1)"><g><path fill="none" stroke="none"/><text fill="#000000" stroke="none" font-family="Arial" font-size="32px" font-style="normal" font-weight="normal" text-decoration="none" x="975.5" y="597">5 : EffectuerTransition()</text></g></g><g transform="translate(2,10) scale(1,1)"><rect fill="#ffffff" stroke="none" x="781" y="576" width="13" height="28"/></g><g transform="translate(2,10) scale(1,1)"><path fill="none" stroke="#000000" d="M 781 576 L 794 576 L 794 604 L 781 604 L 781 576 Z Z" stroke-miterlimit="10"/></g><g transform="translate(2,10) scale(1,1)"><path fill="none" stroke="#000000" d="M 788 714 L 1485 714" stroke-miterlimit="10"/></g><g transform="translate(2,10) scale(1,1)"><path fill="#000000" stroke="none" d="M 1474.837325142376 718.209517756016 L 1485 714 L 1474.837325142376 709.790482243984"/></g><g transform="translate(2,10) scale(1,1)"><path fill="none" stroke="#000000" d="M 1474.837325142376 718.209517756016 L 1485 714 L 1474.837325142376 709.790482243984 L 1474.837325142376 718.209517756016" stroke-miterlimit="10"/></g><g transform="translate(2,10) scale(1,1)"><g><path fill="none" stroke="none"/><text fill="#000000" stroke="none" font-family="Arial" font-size="32px" font-style="normal" font-weight="normal" text-decoration="none" x="894.5" y="715">6 : LancerTransitionAutomatique()</text></g></g><g transform="translate(2,10) scale(1,1)"><rect fill="#ffffff" stroke="none" x="1485" y="714" width="13" height="28"/></g><g transform="translate(2,10) scale(1,1)"><path fill="none" stroke="#000000" d="M 1485 714 L 1498 714 L 1498 742 L 1485 742 L 1485 714 Z Z" stroke-miterlimit="10"/></g></g></svg>