<svg version="1.1" xmlns="http://www.w3.org/2000/svg" xmlns:xlink="http://www.w3.org/1999/xlink" width="3524" height="1956"><defs/><g><g transform="translate(2,10) scale(1,1)"><path fill="none" stroke="#000000" d="M 8 0 L 3512 0 L 3512 1936 L 8 1936 L 8 0" stroke-miterlimit="10"/></g><g transform="translate(2,10) scale(1,1)"><path fill="#ffffff" stroke="none" d="M 8 0 L 8 41 L 263.5 41 L 284 20.5 L 284 0 L 8 0"/></g><g transform="translate(2,10) scale(1,1)"><path fill="none" stroke="#000000" d="M 8 0 L 8 41 L 263.5 41 L 284 20.5 L 284 0 L 8 0 L 8 0" stroke-miterlimit="10"/></g><g transform="translate(2,10) scale(1,1)"><g><path fill="none" stroke="none"/><text fill="#000000" stroke="none" font-family="Arial" font-size="32px" font-style="normal" font-weight="normal" text-decoration="none" x="52.796875" y="32">Afficher Article</text></g></g><g transform="translate(2,10) scale(1,1)"><g><path fill="none" stroke="none"/><text fill="#000000" stroke="none" font-family="Arial" font-size="32px" font-style="normal" font-weight="bold" text-decoration="none" x="11.2265625" y="32">sd</text></g></g><g transform="translate(2,10) scale(1,1)"><path fill="#ffffff" stroke="none" d="M 194.43809659090908 47.3 C 194.43809659090908 43.82060576 197.3164983130909 41 200.8671875 41 C 204.4178766869091 41 207.2962784090909 43.82060576 207.2962784090909 47.3 C 207.2962784090909 50.779394239999995 204.4178766869091 53.6 200.8671875 53.6 C 197.3164983130909 53.6 194.43809659090908 50.779394239999995 194.43809659090908 47.3 Z"/></g><g transform="translate(2,10) scale(1,1)"><path fill="none" stroke="#000000" d="M 194.43809659090908 47.3 C 194.43809659090908 43.82060576 197.3164983130909 41 200.8671875 41 C 204.4178766869091 41 207.2962784090909 43.82060576 207.2962784090909 47.3 C 207.2962784090909 50.779394239999995 204.4178766869091 53.6 200.8671875 53.6 C 197.3164983130909 53.6 194.43809659090908 50.779394239999995 194.43809659090908 47.3 Z" stroke-miterlimit="10"/></g><g transform="translate(2,10) scale(1,1)"><path fill="none" stroke="#000000" d="M 200.8671875 53.6 L 200.8671875 66.4" stroke-miterlimit="10"/></g><g transform="translate(2,10) scale(1,1)"><path fill="none" stroke="#000000" d="M 194.05991477272727 58.4 L 207.6744602272727 58.4" stroke-miterlimit="10"/></g><g transform="translate(2,10) scale(1,1)"><path fill="none" stroke="#000000" d="M 200.8671875 66.4 L 191.41264204545453 79" stroke-miterlimit="10"/></g><g transform="translate(2,10) scale(1,1)"><path fill="none" stroke="#000000" d="M 200.8671875 66.4 L 210.32173295454544 79" stroke-miterlimit="10"/></g><g transform="translate(2,10) scale(1,1)"><g><path fill="none" stroke="none"/><text fill="#000000" stroke="none" font-family="Arial" font-size="32px" font-style="normal" font-weight="bold" text-decoration="none" x="67.5" y="113.5">Personne: Actor1</text></g></g><g transform="translate(2,10) scale(1,1)"><path fill="none" stroke="#000000" d="M 201.5 124 L 201.5 1872" stroke-miterlimit="10" stroke-dasharray="3"/></g><g transform="translate(2,10) scale(1,1)"><rect fill="#C0C0C0" stroke="none" x="919" y="47" width="159" height="39" opacity="0.2"/></g><g transform="translate(2,10) scale(1,1)"><rect fill="#ffffff" stroke="none" x="912" y="40" width="159" height="39"/></g><g transform="translate(2,10) scale(1,1)"><path fill="none" stroke="#000000" d="M 912 40 L 1071 40 L 1071 79 L 912 79 L 912 40 Z Z" stroke-miterlimit="10"/></g><g transform="translate(2,10) scale(1,1)"><g><path fill="none" stroke="none"/><text fill="#000000" stroke="none" font-family="Arial" font-size="32px" font-style="normal" font-weight="bold" text-decoration="none" x="991.5" y="62.5"></text></g></g><g transform="translate(2,10) scale(1,1)"><path fill="none" stroke="#000000" d="M 992.5 80 L 992.5 1856" stroke-miterlimit="10" stroke-dasharray="3"/></g><g transform="translate(2,10) scale(1,1)"><rect fill="#C0C0C0" stroke="none" x="1719" y="47" width="383" height="39" opacity="0.2"/></g><g transform="translate(2,10) scale(1,1)"><rect fill="#ffffff" stroke="none" x="1712" y="40" width="383" height="39"/></g><g transform="translate(2,10) scale(1,1)"><path fill="none" stroke="#000000" d="M 1712 40 L 2095 40 L 2095 79 L 1712 79 L 1712 40 Z Z" stroke-miterlimit="10"/></g><g transform="translate(2,10) scale(1,1)"><g><path fill="none" stroke="none"/><text fill="#000000" stroke="none" font-family="Arial" font-size="32px" font-style="normal" font-weight="bold" text-decoration="none" x="1848.375" y="74">:Article</text></g></g><g transform="translate(2,10) scale(1,1)"><path fill="none" stroke="#000000" d="M 1904.5 80 L 1904.5 1888" stroke-miterlimit="10" stroke-dasharray="3"/></g><g transform="translate(2,10) scale(1,1)"><rect fill="#C0C0C0" stroke="none" x="2943" y="47" width="527" height="39" opacity="0.2"/></g><g transform="translate(2,10) scale(1,1)"><rect fill="#ffffff" stroke="none" x="2936" y="40" width="527" height="39"/></g><g transform="translate(2,10) scale(1,1)"><path fill="none" stroke="#000000" d="M 2936 40 L 3463 40 L 3463 79 L 2936 79 L 2936 40 Z Z" stroke-miterlimit="10"/></g><g transform="translate(2,10) scale(1,1)"><g><path fill="none" stroke="none"/><text fill="#000000" stroke="none" font-family="Arial" font-size="32px" font-style="normal" font-weight="bold" text-decoration="none" x="3171.0625" y="73.5">:BD</text></g></g><g transform="translate(2,10) scale(1,1)"><path fill="none" stroke="#000000" d="M 3200.5 80 L 3200.5 1912" stroke-miterlimit="10" stroke-dasharray="3"/></g><g transform="translate(2,10) scale(1,1)"><rect fill="#C0C0C0" stroke="none" x="2415" y="47" width="319" height="39" opacity="0.2"/></g><g transform="translate(2,10) scale(1,1)"><rect fill="#ffffff" stroke="none" x="2408" y="40" width="319" height="39"/></g><g transform="translate(2,10) scale(1,1)"><path fill="none" stroke="#000000" d="M 2408 40 L 2727 40 L 2727 79 L 2408 79 L 2408 40 Z Z" stroke-miterlimit="10"/></g><g transform="translate(2,10) scale(1,1)"><g><path fill="none" stroke="none"/><text fill="#000000" stroke="none" font-family="Arial" font-size="32px" font-style="normal" font-weight="bold" text-decoration="none" x="2479.5078125" y="74">Notification</text></g></g><g transform="translate(2,10) scale(1,1)"><path fill="none" stroke="#000000" d="M 2568.5 80 L 2568.5 1888" stroke-miterlimit="10" stroke-dasharray="3"/></g><g transform="translate(2,10) scale(1,1)"><path fill="#ffffff" stroke="none" d="M 216 912 L 449.890625 912 L 459.890625 922 L 459.890625 1018 L 216 1018 L 216 912"/></g><g transform="translate(2,10) scale(1,1)"><path fill="none" stroke="#000000" d="M 216 912 L 449.890625 912 L 459.890625 922 L 459.890625 1018 L 216 1018 L 216 912 L 216 912" stroke-miterlimit="10"/></g><g transform="translate(2,10) scale(1,1)"><path fill="none" stroke="#000000" d="M 449.890625 912 L 449.890625 922 L 459.890625 922 L 449.890625 912" stroke-miterlimit="10"/></g><g transform="translate(2,10) scale(1,1)"><g><path fill="none" stroke="none"/><text fill="#000000" stroke="none" font-family="Arial" font-size="32px" font-style="normal" font-weight="normal" text-decoration="none" x="221" y="940">Affichage des</text><text fill="#000000" stroke="none" font-family="Arial" font-size="32px" font-style="normal" font-weight="normal" text-decoration="none" x="221" y="973">sous-catégories</text><text fill="#000000" stroke="none" font-family="Arial" font-size="32px" font-style="normal" font-weight="normal" text-decoration="none" x="221" y="1004">au premier clik </text></g></g><g transform="translate(2,10) scale(1,1)"><path fill="#ffffff" stroke="none" d="M 3216 1424 L 3378.75 1424 L 3388.75 1434 L 3388.75 1658 L 3216 1658 L 3216 1424"/></g><g transform="translate(2,10) scale(1,1)"><path fill="none" stroke="#000000" d="M 3216 1424 L 3378.75 1424 L 3388.75 1434 L 3388.75 1658 L 3216 1658 L 3216 1424 L 3216 1424" stroke-miterlimit="10"/></g><g transform="translate(2,10) scale(1,1)"><path fill="none" stroke="#000000" d="M 3378.75 1424 L 3378.75 1434 L 3388.75 1434 L 3378.75 1424" stroke-miterlimit="10"/></g><g transform="translate(2,10) scale(1,1)"><g><path fill="none" stroke="none"/><text fill="#000000" stroke="none" font-family="Arial" font-size="32px" font-style="normal" font-weight="normal" text-decoration="none" x="3221" y="1452">la</text><text fill="#000000" stroke="none" font-family="Arial" font-size="32px" font-style="normal" font-weight="normal" text-decoration="none" x="3221" y="1484">description</text><text fill="#000000" stroke="none" font-family="Arial" font-size="32px" font-style="normal" font-weight="normal" text-decoration="none" x="3221" y="1516">de l'image</text><text fill="#000000" stroke="none" font-family="Arial" font-size="32px" font-style="normal" font-weight="normal" text-decoration="none" x="3221" y="1548">dont on a</text><text fill="#000000" stroke="none" font-family="Arial" font-size="32px" font-style="normal" font-weight="normal" text-decoration="none" x="3221" y="1581">cliquée</text></g></g><g transform="translate(2,10) scale(1,1)"><path fill="none" stroke="#000000" d="M 2548 1569 L 3215 1544" stroke-miterlimit="10" stroke-dasharray="3"/></g><g transform="translate(2,10) scale(1,1)"><path fill="none" stroke="#000000" d="M 201 192 L 985 192" stroke-miterlimit="10"/></g><g transform="translate(2,10) scale(1,1)"><path fill="#000000" stroke="none" d="M 974.8373251423759 196.209517756016 L 985 192 L 974.8373251423758 187.790482243984"/></g><g transform="translate(2,10) scale(1,1)"><path fill="none" stroke="#000000" d="M 974.8373251423759 196.209517756016 L 985 192 L 974.8373251423758 187.790482243984 L 974.8373251423759 196.209517756016" stroke-miterlimit="10"/></g><g transform="translate(2,10) scale(1,1)"><g><path fill="none" stroke="none"/><text fill="#000000" stroke="none" font-family="Arial" font-size="32px" font-style="normal" font-weight="normal" text-decoration="none" x="429.5" y="193">1 : Ouvrir Page Accueil</text></g></g><g transform="translate(2,10) scale(1,1)"><rect fill="#ffffff" stroke="none" x="985" y="192" width="13" height="160"/></g><g transform="translate(2,10) scale(1,1)"><path fill="none" stroke="#000000" d="M 985 192 L 998 192 L 998 352 L 985 352 L 985 192 Z Z" stroke-miterlimit="10"/></g><g transform="translate(2,10) scale(1,1)"><path fill="none" stroke="#000000" d="M 1904 249 L 3193 249" stroke-miterlimit="10"/></g><g transform="translate(2,10) scale(1,1)"><path fill="#000000" stroke="none" d="M 3182.837325142376 253.209517756016 L 3193 249 L 3182.837325142376 244.790482243984"/></g><g transform="translate(2,10) scale(1,1)"><path fill="none" stroke="#000000" d="M 3182.837325142376 253.209517756016 L 3193 249 L 3182.837325142376 244.790482243984 L 3182.837325142376 253.209517756016" stroke-miterlimit="10"/></g><g transform="translate(2,10) scale(1,1)"><g><path fill="none" stroke="none"/><text fill="#000000" stroke="none" font-family="Arial" font-size="32px" font-style="normal" font-weight="normal" text-decoration="none" x="2464.5" y="249.5">2 : Compter</text></g></g><g transform="translate(2,10) scale(1,1)"><rect fill="#ffffff" stroke="none" x="3193" y="249" width="13" height="28"/></g><g transform="translate(2,10) scale(1,1)"><path fill="none" stroke="#000000" d="M 3193 249 L 3206 249 L 3206 277 L 3193 277 L 3193 249 Z Z" stroke-miterlimit="10"/></g><g transform="translate(2,10) scale(1,1)"><path fill="none" stroke="#000000" d="M 1904 384 L 3193 384" stroke-miterlimit="10"/></g><g transform="translate(2,10) scale(1,1)"><path fill="#000000" stroke="none" d="M 3182.837325142376 388.209517756016 L 3193 384 L 3182.837325142376 379.790482243984"/></g><g transform="translate(2,10) scale(1,1)"><path fill="none" stroke="#000000" d="M 3182.837325142376 388.209517756016 L 3193 384 L 3182.837325142376 379.790482243984 L 3182.837325142376 388.209517756016" stroke-miterlimit="10"/></g><g transform="translate(2,10) scale(1,1)"><g><path fill="none" stroke="none"/><text fill="#000000" stroke="none" font-family="Arial" font-size="32px" font-style="normal" font-weight="normal" text-decoration="none" x="2461.5" y="385">3 : Afficher()</text></g></g><g transform="translate(2,10) scale(1,1)"><rect fill="#ffffff" stroke="none" x="3193" y="384" width="13" height="28"/></g><g transform="translate(2,10) scale(1,1)"><path fill="none" stroke="#000000" d="M 3193 384 L 3206 384 L 3206 412 L 3193 412 L 3193 384 Z Z" stroke-miterlimit="10"/></g><g transform="translate(2,10) scale(1,1)"><path fill="none" stroke="#000000" d="M 1904 424 L 201 424" stroke-miterlimit="10" stroke-dasharray="3"/></g><g transform="translate(2,10) scale(1,1)"><path fill="none" stroke="#000000" d="M 211.16267485762415 419.790482243984 L 201 424 L 211.16267485762415 428.209517756016" stroke-miterlimit="10"/></g><g transform="translate(2,10) scale(1,1)"><g><path fill="none" stroke="none"/><text fill="#000000" stroke="none" font-family="Arial" font-size="32px" font-style="normal" font-weight="normal" text-decoration="none" x="754.5" y="445.5">4 : Affichage image catégorie  et cliquable</text></g></g><g transform="translate(2,10) scale(1,1)"><path fill="none" stroke="#000000" d="M 1904 489 L 201 489" stroke-miterlimit="10" stroke-dasharray="3"/></g><g transform="translate(2,10) scale(1,1)"><path fill="none" stroke="#000000" d="M 211.16267485762415 484.790482243984 L 201 489 L 211.16267485762415 493.209517756016" stroke-miterlimit="10"/></g><g transform="translate(2,10) scale(1,1)"><g><path fill="none" stroke="none"/><text fill="#000000" stroke="none" font-family="Arial" font-size="32px" font-style="normal" font-weight="normal" text-decoration="none" x="942.5" y="510">5 : Pagination()</text></g></g><g transform="translate(2,10) scale(1,1)"><path fill="none" stroke="#000000" d="M 2568 616 L 201 616" stroke-miterlimit="10" stroke-dasharray="3"/></g><g transform="translate(2,10) scale(1,1)"><path fill="none" stroke="#000000" d="M 211.16267485762415 611.790482243984 L 201 616 L 211.16267485762415 620.209517756016" stroke-miterlimit="10"/></g><g transform="translate(2,10) scale(1,1)"><g><path fill="none" stroke="none"/><text fill="#000000" stroke="none" font-family="Arial" font-size="32px" font-style="normal" font-weight="normal" text-decoration="none" x="1186.5" y="637">6 : Alerter(message_erreur)</text></g></g><g transform="translate(2,10) scale(1,1)"><path fill="none" stroke="#000000" d="M 201 816 L 985 816" stroke-miterlimit="10"/></g><g transform="translate(2,10) scale(1,1)"><path fill="#000000" stroke="none" d="M 974.8373251423759 820.209517756016 L 985 816 L 974.8373251423758 811.790482243984"/></g><g transform="translate(2,10) scale(1,1)"><path fill="none" stroke="#000000" d="M 974.8373251423759 820.209517756016 L 985 816 L 974.8373251423758 811.790482243984 L 974.8373251423759 820.209517756016" stroke-miterlimit="10"/></g><g transform="translate(2,10) scale(1,1)"><g><path fill="none" stroke="none"/><text fill="#000000" stroke="none" font-family="Arial" font-size="32px" font-style="normal" font-weight="normal" text-decoration="none" x="405.5" y="817.5">7 : cliquer catégorie image</text></g></g><g transform="translate(2,10) scale(1,1)"><rect fill="#ffffff" stroke="none" x="985" y="816" width="13" height="28"/></g><g transform="translate(2,10) scale(1,1)"><path fill="none" stroke="#000000" d="M 985 816 L 998 816 L 998 844 L 985 844 L 985 816 Z Z" stroke-miterlimit="10"/></g><g transform="translate(2,10) scale(1,1)"><path fill="none" stroke="#000000" d="M 992 880 L 1897 880" stroke-miterlimit="10"/></g><g transform="translate(2,10) scale(1,1)"><path fill="#000000" stroke="none" d="M 1886.837325142376 884.209517756016 L 1897 880 L 1886.837325142376 875.790482243984"/></g><g transform="translate(2,10) scale(1,1)"><path fill="none" stroke="#000000" d="M 1886.837325142376 884.209517756016 L 1897 880 L 1886.837325142376 875.790482243984 L 1886.837325142376 884.209517756016" stroke-miterlimit="10"/></g><g transform="translate(2,10) scale(1,1)"><g><path fill="none" stroke="none"/><text fill="#000000" stroke="none" font-family="Arial" font-size="32px" font-style="normal" font-weight="normal" text-decoration="none" x="1375.5" y="881">8 : getId()</text></g></g><g transform="translate(2,10) scale(1,1)"><rect fill="#ffffff" stroke="none" x="1897" y="880" width="13" height="28"/></g><g transform="translate(2,10) scale(1,1)"><path fill="none" stroke="#000000" d="M 1897 880 L 1910 880 L 1910 908 L 1897 908 L 1897 880 Z Z" stroke-miterlimit="10"/></g><g transform="translate(2,10) scale(1,1)"><path fill="none" stroke="#000000" d="M 1904 964 L 3193 964" stroke-miterlimit="10"/></g><g transform="translate(2,10) scale(1,1)"><path fill="#000000" stroke="none" d="M 3182.837325142376 968.209517756016 L 3193 964 L 3182.837325142376 959.790482243984"/></g><g transform="translate(2,10) scale(1,1)"><path fill="none" stroke="#000000" d="M 3182.837325142376 968.209517756016 L 3193 964 L 3182.837325142376 959.790482243984 L 3182.837325142376 968.209517756016" stroke-miterlimit="10"/></g><g transform="translate(2,10) scale(1,1)"><g><path fill="none" stroke="none"/><text fill="#000000" stroke="none" font-family="Arial" font-size="32px" font-style="normal" font-weight="normal" text-decoration="none" x="2461.5" y="965">9 : Afficher()</text></g></g><g transform="translate(2,10) scale(1,1)"><rect fill="#ffffff" stroke="none" x="3193" y="964" width="13" height="28"/></g><g transform="translate(2,10) scale(1,1)"><path fill="none" stroke="#000000" d="M 3193 964 L 3206 964 L 3206 992 L 3193 992 L 3193 964 Z Z" stroke-miterlimit="10"/></g><g transform="translate(2,10) scale(1,1)"><path fill="none" stroke="#000000" d="M 3200 1069 L 201 1069" stroke-miterlimit="10" stroke-dasharray="3"/></g><g transform="translate(2,10) scale(1,1)"><path fill="none" stroke="#000000" d="M 211.16267485762415 1064.7904822439841 L 201 1069 L 211.16267485762415 1073.2095177560159" stroke-miterlimit="10"/></g><g transform="translate(2,10) scale(1,1)"><g><path fill="none" stroke="none"/><text fill="#000000" stroke="none" font-family="Arial" font-size="32px" font-style="normal" font-weight="normal" text-decoration="none" x="1545.5" y="1090">10 : Affichage  article </text></g></g><g transform="translate(2,10) scale(1,1)"><path fill="none" stroke="#000000" d="M 992 1144 L 201 1144" stroke-miterlimit="10" stroke-dasharray="3"/></g><g transform="translate(2,10) scale(1,1)"><path fill="none" stroke="#000000" d="M 211.16267485762415 1139.7904822439841 L 201 1144 L 211.16267485762415 1148.2095177560159" stroke-miterlimit="10"/></g><g transform="translate(2,10) scale(1,1)"><g><path fill="none" stroke="none"/><text fill="#000000" stroke="none" font-family="Arial" font-size="32px" font-style="normal" font-weight="normal" text-decoration="none" x="454.5" y="1165.5">11 : Afficher résultat</text></g></g><g transform="translate(2,10) scale(1,1)"><path fill="none" stroke="#000000" d="M 201 1288 L 985 1288" stroke-miterlimit="10"/></g><g transform="translate(2,10) scale(1,1)"><path fill="#000000" stroke="none" d="M 974.8373251423759 1292.2095177560159 L 985 1288 L 974.8373251423758 1283.7904822439841"/></g><g transform="translate(2,10) scale(1,1)"><path fill="none" stroke="#000000" d="M 974.8373251423759 1292.2095177560159 L 985 1288 L 974.8373251423758 1283.7904822439841 L 974.8373251423759 1292.2095177560159" stroke-miterlimit="10"/></g><g transform="translate(2,10) scale(1,1)"><g><path fill="none" stroke="none"/><text fill="#000000" stroke="none" font-family="Arial" font-size="32px" font-style="normal" font-weight="normal" text-decoration="none" x="405.5" y="1289.5">12 : cliquer sous-catégorie</text></g></g><g transform="translate(2,10) scale(1,1)"><rect fill="#ffffff" stroke="none" x="985" y="1288" width="13" height="28"/></g><g transform="translate(2,10) scale(1,1)"><path fill="none" stroke="#000000" d="M 985 1288 L 998 1288 L 998 1316 L 985 1316 L 985 1288 Z Z" stroke-miterlimit="10"/></g><g transform="translate(2,10) scale(1,1)"><path fill="none" stroke="#000000" d="M 992 1424 L 1897 1424" stroke-miterlimit="10"/></g><g transform="translate(2,10) scale(1,1)"><path fill="#000000" stroke="none" d="M 1886.837325142376 1428.2095177560159 L 1897 1424 L 1886.837325142376 1419.7904822439841"/></g><g transform="translate(2,10) scale(1,1)"><path fill="none" stroke="#000000" d="M 1886.837325142376 1428.2095177560159 L 1897 1424 L 1886.837325142376 1419.7904822439841 L 1886.837325142376 1428.2095177560159" stroke-miterlimit="10"/></g><g transform="translate(2,10) scale(1,1)"><g><path fill="none" stroke="none"/><text fill="#000000" stroke="none" font-family="Arial" font-size="32px" font-style="normal" font-weight="normal" text-decoration="none" x="1366.5" y="1425">13 : getId()</text></g></g><g transform="translate(2,10) scale(1,1)"><rect fill="#ffffff" stroke="none" x="1897" y="1424" width="13" height="28"/></g><g transform="translate(2,10) scale(1,1)"><path fill="none" stroke="#000000" d="M 1897 1424 L 1910 1424 L 1910 1452 L 1897 1452 L 1897 1424 Z Z" stroke-miterlimit="10"/></g><g transform="translate(2,10) scale(1,1)"><path fill="none" stroke="#000000" d="M 1904 1569 L 3193 1569" stroke-miterlimit="10"/></g><g transform="translate(2,10) scale(1,1)"><path fill="#000000" stroke="none" d="M 3182.837325142376 1573.2095177560159 L 3193 1569 L 3182.837325142376 1564.7904822439841"/></g><g transform="translate(2,10) scale(1,1)"><path fill="none" stroke="#000000" d="M 3182.837325142376 1573.2095177560159 L 3193 1569 L 3182.837325142376 1564.7904822439841 L 3182.837325142376 1573.2095177560159" stroke-miterlimit="10"/></g><g transform="translate(2,10) scale(1,1)"><g><path fill="none" stroke="none"/><text fill="#000000" stroke="none" font-family="Arial" font-size="32px" font-style="normal" font-weight="normal" text-decoration="none" x="2452.5" y="1570">14 : Afficher()</text></g></g><g transform="translate(2,10) scale(1,1)"><rect fill="#ffffff" stroke="none" x="3193" y="1569" width="13" height="28"/></g><g transform="translate(2,10) scale(1,1)"><path fill="none" stroke="#000000" d="M 3193 1569 L 3206 1569 L 3206 1597 L 3193 1597 L 3193 1569 Z Z" stroke-miterlimit="10"/></g><g transform="translate(2,10) scale(1,1)"><path fill="none" stroke="#000000" d="M 992 1609 L 201 1609" stroke-miterlimit="10" stroke-dasharray="3"/></g><g transform="translate(2,10) scale(1,1)"><path fill="none" stroke="#000000" d="M 211.16267485762415 1604.7904822439841 L 201 1609 L 211.16267485762415 1613.2095177560159" stroke-miterlimit="10"/></g><g transform="translate(2,10) scale(1,1)"><g><path fill="none" stroke="none"/><text fill="#000000" stroke="none" font-family="Arial" font-size="32px" font-style="normal" font-weight="normal" text-decoration="none" x="448.5" y="1630.5">15 : Affficher résultat</text></g></g><g transform="translate(2,10) scale(1,1)"><path fill="none" stroke="#000000" d="M 656 328 L 3367 328 L 3367 715 L 656 715 L 656 328" stroke-miterlimit="10"/></g><g transform="translate(2,10) scale(1,1)"><path fill="#ffffff" stroke="none" d="M 656 328 L 656 369 L 891.65625 369 L 912.15625 348.5 L 912.15625 328 L 656 328"/></g><g transform="translate(2,10) scale(1,1)"><path fill="none" stroke="#000000" d="M 656 328 L 656 369 L 891.65625 369 L 912.15625 348.5 L 912.15625 328 L 656 328 L 656 328" stroke-miterlimit="10"/></g><g transform="translate(2,10) scale(1,1)"><g><path fill="none" stroke="none"/><text fill="#000000" stroke="none" font-family="Arial" font-size="32px" font-style="normal" font-weight="normal" text-decoration="none" x="700.796875" y="359.5">Compter  &gt; 0</text></g></g><g transform="translate(2,10) scale(1,1)"><g><path fill="none" stroke="none"/><text fill="#000000" stroke="none" font-family="Arial" font-size="32px" font-style="normal" font-weight="bold" text-decoration="none" x="659.2265625" y="360">alt</text></g></g><g transform="translate(2,10) scale(1,1)"><path fill="none" stroke="#000000" d="M 656 548 L 3367 548" stroke-miterlimit="10" stroke-dasharray="10,3"/></g><g transform="translate(2,10) scale(1,1)"><path fill="none" stroke="#000000" d="M 48 744 L 3368 744 L 3368 1200 L 48 1200 L 48 744" stroke-miterlimit="10"/></g><g transform="translate(2,10) scale(1,1)"><path fill="#ffffff" stroke="none" d="M 48 744 L 48 785 L 167.125 785 L 187.625 764.5 L 187.625 744 L 48 744"/></g><g transform="translate(2,10) scale(1,1)"><path fill="none" stroke="#000000" d="M 48 744 L 48 785 L 167.125 785 L 187.625 764.5 L 187.625 744 L 48 744 L 48 744" stroke-miterlimit="10"/></g><g transform="translate(2,10) scale(1,1)"><g><path fill="none" stroke="none"/><text fill="#000000" stroke="none" font-family="Arial" font-size="32px" font-style="normal" font-weight="normal" text-decoration="none" x="92.796875" y="776">Click</text></g></g><g transform="translate(2,10) scale(1,1)"><g><path fill="none" stroke="none"/><text fill="#000000" stroke="none" font-family="Arial" font-size="32px" font-style="normal" font-weight="bold" text-decoration="none" x="51.2265625" y="776">alt</text></g></g><g transform="translate(2,10) scale(1,1)"><path fill="none" stroke="#000000" d="M 40 1224 L 3399 1224 L 3399 1736 L 40 1736 L 40 1224" stroke-miterlimit="10"/></g><g transform="translate(2,10) scale(1,1)"><path fill="#ffffff" stroke="none" d="M 40 1224 L 40 1265 L 370.796875 1265 L 391.296875 1244.5 L 391.296875 1224 L 40 1224"/></g><g transform="translate(2,10) scale(1,1)"><path fill="none" stroke="#000000" d="M 40 1224 L 40 1265 L 370.796875 1265 L 391.296875 1244.5 L 391.296875 1224 L 40 1224 L 40 1224" stroke-miterlimit="10"/></g><g transform="translate(2,10) scale(1,1)"><g><path fill="none" stroke="none"/><text fill="#000000" stroke="none" font-family="Arial" font-size="32px" font-style="normal" font-weight="normal" text-decoration="none" x="84.796875" y="1256.5">click sous-catégorie</text></g></g><g transform="translate(2,10) scale(1,1)"><g><path fill="none" stroke="none"/><text fill="#000000" stroke="none" font-family="Arial" font-size="32px" font-style="normal" font-weight="bold" text-decoration="none" x="43.2265625" y="1256">alt</text></g></g></g></svg>