<svg version="1.1" xmlns="http://www.w3.org/2000/svg" xmlns:xlink="http://www.w3.org/1999/xlink" width="2132" height="1532"><defs/><g><g transform="translate(2,2) scale(1,1)"><path fill="none" stroke="#000000" d="M 8 8 L 2120 8 L 2120 1520 L 8 1520 L 8 8" stroke-miterlimit="10"/></g><g transform="translate(2,2) scale(1,1)"><path fill="#ffffff" stroke="none" d="M 8 8 L 8 49 L 367.265625 49 L 387.765625 28.5 L 387.765625 8 L 8 8"/></g><g transform="translate(2,2) scale(1,1)"><path fill="none" stroke="#000000" d="M 8 8 L 8 49 L 367.265625 49 L 387.765625 28.5 L 387.765625 8 L 8 8 L 8 8" stroke-miterlimit="10"/></g><g transform="translate(2,2) scale(1,1)"><g><path fill="none" stroke="none"/><text fill="#000000" stroke="none" font-family="Arial" font-size="32px" font-style="normal" font-weight="normal" text-decoration="none" x="52.796875" y="40">Modifier Lieu livraison</text></g></g><g transform="translate(2,2) scale(1,1)"><g><path fill="none" stroke="none"/><text fill="#000000" stroke="none" font-family="Arial" font-size="32px" font-style="normal" font-weight="bold" text-decoration="none" x="11.2265625" y="40">sd</text></g></g><g transform="translate(2,2) scale(1,1)"><path fill="#ffffff" stroke="none" d="M 259.4302840909091 47.3 C 259.4302840909091 43.82060576 262.3086858130909 41 265.859375 41 C 269.4100641869091 41 272.288465909091 43.82060576 272.288465909091 47.3 C 272.288465909091 50.779394239999995 269.4100641869091 53.6 265.859375 53.6 C 262.3086858130909 53.6 259.4302840909091 50.779394239999995 259.4302840909091 47.3 Z"/></g><g transform="translate(2,2) scale(1,1)"><path fill="none" stroke="#000000" d="M 259.4302840909091 47.3 C 259.4302840909091 43.82060576 262.3086858130909 41 265.859375 41 C 269.4100641869091 41 272.288465909091 43.82060576 272.288465909091 47.3 C 272.288465909091 50.779394239999995 269.4100641869091 53.6 265.859375 53.6 C 262.3086858130909 53.6 259.4302840909091 50.779394239999995 259.4302840909091 47.3 Z" stroke-miterlimit="10"/></g><g transform="translate(2,2) scale(1,1)"><path fill="none" stroke="#000000" d="M 265.859375 53.6 L 265.859375 66.4" stroke-miterlimit="10"/></g><g transform="translate(2,2) scale(1,1)"><path fill="none" stroke="#000000" d="M 259.05210227272727 58.4 L 272.6666477272728 58.4" stroke-miterlimit="10"/></g><g transform="translate(2,2) scale(1,1)"><path fill="none" stroke="#000000" d="M 265.859375 66.4 L 256.40482954545456 79" stroke-miterlimit="10"/></g><g transform="translate(2,2) scale(1,1)"><path fill="none" stroke="#000000" d="M 265.859375 66.4 L 275.3139204545455 79" stroke-miterlimit="10"/></g><g transform="translate(2,2) scale(1,1)"><g><path fill="none" stroke="none"/><text fill="#000000" stroke="none" font-family="Arial" font-size="32px" font-style="normal" font-weight="bold" text-decoration="none" x="140.5" y="114">Lifeline1: Actor1</text></g></g><g transform="translate(2,2) scale(1,1)"><path fill="none" stroke="#000000" d="M 266.5 124 L 266.5 1456" stroke-miterlimit="10" stroke-dasharray="3"/></g><g transform="translate(2,2) scale(1,1)"><rect fill="#C0C0C0" stroke="none" x="967" y="47" width="143" height="39" opacity="0.2"/></g><g transform="translate(2,2) scale(1,1)"><rect fill="#ffffff" stroke="none" x="960" y="40" width="143" height="39"/></g><g transform="translate(2,2) scale(1,1)"><path fill="none" stroke="#000000" d="M 960 40 L 1103 40 L 1103 79 L 960 79 L 960 40 Z Z" stroke-miterlimit="10"/></g><g transform="translate(2,2) scale(1,1)"><g><path fill="none" stroke="none"/><text fill="#000000" stroke="none" font-family="Arial" font-size="32px" font-style="normal" font-weight="bold" text-decoration="none" x="1031.5" y="62.5"></text></g></g><g transform="translate(2,2) scale(1,1)"><path fill="none" stroke="#000000" d="M 1032.5 80 L 1032.5 1504" stroke-miterlimit="10" stroke-dasharray="3"/></g><g transform="translate(2,2) scale(1,1)"><rect fill="#C0C0C0" stroke="none" x="1191" y="47" width="205.640625" height="39" opacity="0.2"/></g><g transform="translate(2,2) scale(1,1)"><rect fill="#ffffff" stroke="none" x="1184" y="40" width="205.640625" height="39"/></g><g transform="translate(2,2) scale(1,1)"><path fill="none" stroke="#000000" d="M 1184 40 L 1389.640625 40 L 1389.640625 79 L 1184 79 L 1184 40 Z Z" stroke-miterlimit="10"/></g><g transform="translate(2,2) scale(1,1)"><g><path fill="none" stroke="none"/><text fill="#000000" stroke="none" font-family="Arial" font-size="32px" font-style="normal" font-weight="bold" text-decoration="none" x="1193.5" y="74">:Notification</text></g></g><g transform="translate(2,2) scale(1,1)"><path fill="none" stroke="#000000" d="M 1287.5 80 L 1287.5 1488" stroke-miterlimit="10" stroke-dasharray="3"/></g><g transform="translate(2,2) scale(1,1)"><rect fill="#C0C0C0" stroke="none" x="1479" y="47" width="171.921875" height="39" opacity="0.2"/></g><g transform="translate(2,2) scale(1,1)"><rect fill="#ffffff" stroke="none" x="1472" y="40" width="171.921875" height="39"/></g><g transform="translate(2,2) scale(1,1)"><path fill="none" stroke="#000000" d="M 1472 40 L 1643.921875 40 L 1643.921875 79 L 1472 79 L 1472 40 Z Z" stroke-miterlimit="10"/></g><g transform="translate(2,2) scale(1,1)"><g><path fill="none" stroke="none"/><text fill="#000000" stroke="none" font-family="Arial" font-size="32px" font-style="normal" font-weight="bold" text-decoration="none" x="1481.5" y="74">:Livraison</text></g></g><g transform="translate(2,2) scale(1,1)"><path fill="none" stroke="#000000" d="M 1558.5 80 L 1558.5 1496" stroke-miterlimit="10" stroke-dasharray="3"/></g><g transform="translate(2,2) scale(1,1)"><rect fill="#C0C0C0" stroke="none" x="1847" y="47" width="191" height="39" opacity="0.2"/></g><g transform="translate(2,2) scale(1,1)"><rect fill="#ffffff" stroke="none" x="1840" y="40" width="191" height="39"/></g><g transform="translate(2,2) scale(1,1)"><path fill="none" stroke="#000000" d="M 1840 40 L 2031 40 L 2031 79 L 1840 79 L 1840 40 Z Z" stroke-miterlimit="10"/></g><g transform="translate(2,2) scale(1,1)"><g><path fill="none" stroke="none"/><text fill="#000000" stroke="none" font-family="Arial" font-size="32px" font-style="normal" font-weight="bold" text-decoration="none" x="1907.0625" y="73.5">:BD</text></g></g><g transform="translate(2,2) scale(1,1)"><path fill="none" stroke="#000000" d="M 1936.5 80 L 1936.5 1480" stroke-miterlimit="10" stroke-dasharray="3"/></g><g transform="translate(2,2) scale(1,1)"><path fill="#ffffff" stroke="none" d="M 1952 1152 L 2040 1152 L 2050 1162 L 2050 1226 L 1952 1226 L 1952 1152"/></g><g transform="translate(2,2) scale(1,1)"><path fill="none" stroke="#000000" d="M 1952 1152 L 2040 1152 L 2050 1162 L 2050 1226 L 1952 1226 L 1952 1152 L 1952 1152" stroke-miterlimit="10"/></g><g transform="translate(2,2) scale(1,1)"><path fill="none" stroke="#000000" d="M 2040 1152 L 2040 1162 L 2050 1162 L 2040 1152" stroke-miterlimit="10"/></g><g transform="translate(2,2) scale(1,1)"><g><path fill="none" stroke="none"/><text fill="#000000" stroke="none" font-family="Arial" font-size="32px" font-style="normal" font-weight="normal" text-decoration="none" x="1957" y="1174">un</text><text fill="#000000" stroke="none" font-family="Arial" font-size="32px" font-style="normal" font-weight="normal" text-decoration="none" x="1957" y="1212">mail</text></g></g><g transform="translate(2,2) scale(1,1)"><path fill="none" stroke="#000000" d="M 1608 1183 L 1951 1188" stroke-miterlimit="10" stroke-dasharray="3"/></g><g transform="translate(2,2) scale(1,1)"><path fill="none" stroke="#000000" d="M 266 202 L 1025 202" stroke-miterlimit="10"/></g><g transform="translate(2,2) scale(1,1)"><path fill="#000000" stroke="none" d="M 1014.8373251423759 206.209517756016 L 1025 202 L 1014.8373251423758 197.790482243984"/></g><g transform="translate(2,2) scale(1,1)"><path fill="none" stroke="#000000" d="M 1014.8373251423759 206.209517756016 L 1025 202 L 1014.8373251423758 197.790482243984 L 1014.8373251423759 206.209517756016" stroke-miterlimit="10"/></g><g transform="translate(2,2) scale(1,1)"><g><path fill="none" stroke="none"/><text fill="#000000" stroke="none" font-family="Arial" font-size="32px" font-style="normal" font-weight="normal" text-decoration="none" x="484.5" y="203">1 : cliquer onglet achat</text></g></g><g transform="translate(2,2) scale(1,1)"><rect fill="#ffffff" stroke="none" x="1025" y="202" width="13" height="28"/></g><g transform="translate(2,2) scale(1,1)"><path fill="none" stroke="#000000" d="M 1025 202 L 1038 202 L 1038 230 L 1025 230 L 1025 202 Z Z" stroke-miterlimit="10"/></g><g transform="translate(2,2) scale(1,1)"><path fill="none" stroke="#000000" d="M 1032 285 L 266 285" stroke-miterlimit="10" stroke-dasharray="3"/></g><g transform="translate(2,2) scale(1,1)"><path fill="none" stroke="#000000" d="M 276.16267485762415 280.790482243984 L 266 285 L 276.16267485762415 289.209517756016" stroke-miterlimit="10"/></g><g transform="translate(2,2) scale(1,1)"><g><path fill="none" stroke="none"/><text fill="#000000" stroke="none" font-family="Arial" font-size="32px" font-style="normal" font-weight="normal" text-decoration="none" x="277.5" y="306">2 : afficher description article , modifier  lieu livraison</text></g></g><g transform="translate(2,2) scale(1,1)"><path fill="none" stroke="#000000" d="M 266 368 L 1025 368" stroke-miterlimit="10"/></g><g transform="translate(2,2) scale(1,1)"><path fill="#000000" stroke="none" d="M 1014.8373251423759 372.209517756016 L 1025 368 L 1014.8373251423758 363.790482243984"/></g><g transform="translate(2,2) scale(1,1)"><path fill="none" stroke="#000000" d="M 1014.8373251423759 372.209517756016 L 1025 368 L 1014.8373251423758 363.790482243984 L 1014.8373251423759 372.209517756016" stroke-miterlimit="10"/></g><g transform="translate(2,2) scale(1,1)"><g><path fill="none" stroke="none"/><text fill="#000000" stroke="none" font-family="Arial" font-size="32px" font-style="normal" font-weight="normal" text-decoration="none" x="425.5" y="369">3 : option modifier lieu livraison</text></g></g><g transform="translate(2,2) scale(1,1)"><rect fill="#ffffff" stroke="none" x="1025" y="368" width="13" height="28"/></g><g transform="translate(2,2) scale(1,1)"><path fill="none" stroke="#000000" d="M 1025 368 L 1038 368 L 1038 396 L 1025 396 L 1025 368 Z Z" stroke-miterlimit="10"/></g><g transform="translate(2,2) scale(1,1)"><path fill="none" stroke="#000000" d="M 1287 464 L 1032 464" stroke-miterlimit="10" stroke-dasharray="3"/></g><g transform="translate(2,2) scale(1,1)"><path fill="none" stroke="#000000" d="M 1042.162674857624 459.790482243984 L 1032 464 L 1042.162674857624 468.209517756016" stroke-miterlimit="10"/></g><g transform="translate(2,2) scale(1,1)"><g><path fill="none" stroke="none"/><text fill="#000000" stroke="none" font-family="Arial" font-size="32px" font-style="normal" font-weight="normal" text-decoration="none" x="1058.5" y="485">4 : getpopup()</text></g></g><g transform="translate(2,2) scale(1,1)"><path fill="none" stroke="#000000" d="M 266 560 L 1025 560" stroke-miterlimit="10"/></g><g transform="translate(2,2) scale(1,1)"><path fill="#000000" stroke="none" d="M 1014.8373251423759 564.209517756016 L 1025 560 L 1014.8373251423758 555.790482243984"/></g><g transform="translate(2,2) scale(1,1)"><path fill="none" stroke="#000000" d="M 1014.8373251423759 564.209517756016 L 1025 560 L 1014.8373251423758 555.790482243984 L 1014.8373251423759 564.209517756016" stroke-miterlimit="10"/></g><g transform="translate(2,2) scale(1,1)"><g><path fill="none" stroke="none"/><text fill="#000000" stroke="none" font-family="Arial" font-size="32px" font-style="normal" font-weight="normal" text-decoration="none" x="495.5" y="561">5 : Saisie information</text></g></g><g transform="translate(2,2) scale(1,1)"><rect fill="#ffffff" stroke="none" x="1025" y="560" width="13" height="28"/></g><g transform="translate(2,2) scale(1,1)"><path fill="none" stroke="#000000" d="M 1025 560 L 1038 560 L 1038 588 L 1025 588 L 1025 560 Z Z" stroke-miterlimit="10"/></g><g transform="translate(2,2) scale(1,1)"><path fill="none" stroke="#000000" d="M 1032 648 L 1551 648" stroke-miterlimit="10"/></g><g transform="translate(2,2) scale(1,1)"><path fill="#000000" stroke="none" d="M 1540.837325142376 652.209517756016 L 1551 648 L 1540.837325142376 643.790482243984"/></g><g transform="translate(2,2) scale(1,1)"><path fill="none" stroke="#000000" d="M 1540.837325142376 652.209517756016 L 1551 648 L 1540.837325142376 643.790482243984 L 1540.837325142376 652.209517756016" stroke-miterlimit="10"/></g><g transform="translate(2,2) scale(1,1)"><g><path fill="none" stroke="none"/><text fill="#000000" stroke="none" font-family="Arial" font-size="32px" font-style="normal" font-weight="normal" text-decoration="none" x="1117.5" y="649">6 : verifier(lieu_livraison)</text></g></g><g transform="translate(2,2) scale(1,1)"><rect fill="#ffffff" stroke="none" x="1551" y="648" width="13" height="28"/></g><g transform="translate(2,2) scale(1,1)"><path fill="none" stroke="#000000" d="M 1551 648 L 1564 648 L 1564 676 L 1551 676 L 1551 648 Z Z" stroke-miterlimit="10"/></g><g transform="translate(2,2) scale(1,1)"><path fill="none" stroke="#000000" d="M 1558 768 L 1929 768" stroke-miterlimit="10"/></g><g transform="translate(2,2) scale(1,1)"><path fill="#000000" stroke="none" d="M 1918.837325142376 772.209517756016 L 1929 768 L 1918.837325142376 763.790482243984"/></g><g transform="translate(2,2) scale(1,1)"><path fill="none" stroke="#000000" d="M 1918.837325142376 772.209517756016 L 1929 768 L 1918.837325142376 763.790482243984 L 1918.837325142376 772.209517756016" stroke-miterlimit="10"/></g><g transform="translate(2,2) scale(1,1)"><g><path fill="none" stroke="none"/><text fill="#000000" stroke="none" font-family="Arial" font-size="32px" font-style="normal" font-weight="normal" text-decoration="none" x="1510.5" y="769">7 : Modifier(getId(),lieu_livraison)</text></g></g><g transform="translate(2,2) scale(1,1)"><rect fill="#ffffff" stroke="none" x="1929" y="768" width="13" height="28"/></g><g transform="translate(2,2) scale(1,1)"><path fill="none" stroke="#000000" d="M 1929 768 L 1942 768 L 1942 796 L 1929 796 L 1929 768 Z Z" stroke-miterlimit="10"/></g><g transform="translate(2,2) scale(1,1)"><path fill="none" stroke="#000000" d="M 1287 936 L 1032 936" stroke-miterlimit="10" stroke-dasharray="3"/></g><g transform="translate(2,2) scale(1,1)"><path fill="none" stroke="#000000" d="M 1042.162674857624 931.790482243984 L 1032 936 L 1042.162674857624 940.209517756016" stroke-miterlimit="10"/></g><g transform="translate(2,2) scale(1,1)"><g><path fill="none" stroke="none"/><text fill="#000000" stroke="none" font-family="Arial" font-size="32px" font-style="normal" font-weight="normal" text-decoration="none" x="961.5" y="957">8 : Alerter(message_erreur)</text></g></g><g transform="translate(2,2) scale(1,1)"><path fill="none" stroke="#000000" d="M 1287 1183 L 1929 1183" stroke-miterlimit="10"/></g><g transform="translate(2,2) scale(1,1)"><path fill="#000000" stroke="none" d="M 1918.837325142376 1187.2095177560159 L 1929 1183 L 1918.837325142376 1178.7904822439841"/></g><g transform="translate(2,2) scale(1,1)"><path fill="none" stroke="#000000" d="M 1918.837325142376 1187.2095177560159 L 1929 1183 L 1918.837325142376 1178.7904822439841 L 1918.837325142376 1187.2095177560159" stroke-miterlimit="10"/></g><g transform="translate(2,2) scale(1,1)"><g><path fill="none" stroke="none"/><text fill="#000000" stroke="none" font-family="Arial" font-size="32px" font-style="normal" font-weight="normal" text-decoration="none" x="1516.5" y="1184">9 : Envoyer()</text></g></g><g transform="translate(2,2) scale(1,1)"><rect fill="#ffffff" stroke="none" x="1929" y="1183" width="13" height="28"/></g><g transform="translate(2,2) scale(1,1)"><path fill="none" stroke="#000000" d="M 1929 1183 L 1942 1183 L 1942 1211 L 1929 1211 L 1929 1183 Z Z" stroke-miterlimit="10"/></g><g transform="translate(2,2) scale(1,1)"><path fill="none" stroke="#000000" d="M 1287 1288 L 266 1288" stroke-miterlimit="10" stroke-dasharray="3"/></g><g transform="translate(2,2) scale(1,1)"><path fill="none" stroke="#000000" d="M 276.16267485762415 1283.7904822439841 L 266 1288 L 276.16267485762415 1292.2095177560159" stroke-miterlimit="10"/></g><g transform="translate(2,2) scale(1,1)"><g><path fill="none" stroke="none"/><text fill="#000000" stroke="none" font-family="Arial" font-size="32px" font-style="normal" font-weight="normal" text-decoration="none" x="622.5" y="1309.5">10 : client à contacter</text></g></g><g transform="translate(2,2) scale(1,1)"><path fill="none" stroke="#000000" d="M 584 712 L 2055 712 L 2055 1040 L 584 1040 L 584 712" stroke-miterlimit="10"/></g><g transform="translate(2,2) scale(1,1)"><path fill="#ffffff" stroke="none" d="M 584 712 L 584 753 L 1064.203125 753 L 1084.703125 732.5 L 1084.703125 712 L 584 712"/></g><g transform="translate(2,2) scale(1,1)"><path fill="none" stroke="#000000" d="M 584 712 L 584 753 L 1064.203125 753 L 1084.703125 732.5 L 1084.703125 712 L 584 712 L 584 712" stroke-miterlimit="10"/></g><g transform="translate(2,2) scale(1,1)"><g><path fill="none" stroke="none"/><text fill="#000000" stroke="none" font-family="Arial" font-size="32px" font-style="normal" font-weight="normal" text-decoration="none" x="646.59375" y="744">verifier(lieu_livraison) == true</text></g></g><g transform="translate(2,2) scale(1,1)"><g><path fill="none" stroke="none"/><text fill="#000000" stroke="none" font-family="Arial" font-size="32px" font-style="normal" font-weight="bold" text-decoration="none" x="587.2265625" y="741">seq</text></g></g><g transform="translate(2,2) scale(1,1)"><path fill="none" stroke="#000000" d="M 584 884 L 2055 884" stroke-miterlimit="10" stroke-dasharray="10,3"/></g><g transform="translate(2,2) scale(1,1)"><path fill="none" stroke="#000000" d="M 160 1080 L 2063 1080 L 2063 1455 L 160 1455 L 160 1080" stroke-miterlimit="10"/></g><g transform="translate(2,2) scale(1,1)"><path fill="#ffffff" stroke="none" d="M 160 1080 L 160 1121 L 1041.359375 1121 L 1061.859375 1100.5 L 1061.859375 1080 L 160 1080"/></g><g transform="translate(2,2) scale(1,1)"><path fill="none" stroke="#000000" d="M 160 1080 L 160 1121 L 1041.359375 1121 L 1061.859375 1100.5 L 1061.859375 1080 L 160 1080 L 160 1080" stroke-miterlimit="10"/></g><g transform="translate(2,2) scale(1,1)"><g><path fill="none" stroke="none"/><text fill="#000000" stroke="none" font-family="Arial" font-size="32px" font-style="normal" font-weight="normal" text-decoration="none" x="204.796875" y="1112">confimation == false &amp;&amp; date aujoud'hui - date achat  &gt;=  3</text></g></g><g transform="translate(2,2) scale(1,1)"><g><path fill="none" stroke="none"/><text fill="#000000" stroke="none" font-family="Arial" font-size="32px" font-style="normal" font-weight="bold" text-decoration="none" x="163.2265625" y="1112">alt</text></g></g></g></svg>