<svg version="1.1" xmlns="http://www.w3.org/2000/svg" xmlns:xlink="http://www.w3.org/1999/xlink" width="2508" height="2212"><defs/><g><g transform="translate(-38,-62) scale(1,1)"><path fill="none" stroke="#000000" d="M 456 72 L 2536 72 L 2536 2264 L 456 2264 L 456 72" stroke-miterlimit="10"/></g><g transform="translate(-38,-62) scale(1,1)"><path fill="#ffffff" stroke="none" d="M 456 72 L 456 113 L 827.71875 113 L 848.21875 92.5 L 848.21875 72 L 456 72"/></g><g transform="translate(-38,-62) scale(1,1)"><path fill="none" stroke="#000000" d="M 456 72 L 456 113 L 827.71875 113 L 848.21875 92.5 L 848.21875 72 L 456 72 L 456 72" stroke-miterlimit="10"/></g><g transform="translate(-38,-62) scale(1,1)"><g><path fill="none" stroke="none"/><text fill="#000000" stroke="none" font-family="Arial" font-size="32px" font-style="normal" font-weight="normal" text-decoration="none" x="500.796875" y="104">Restaurant la Terrasse</text></g></g><g transform="translate(-38,-62) scale(1,1)"><g><path fill="none" stroke="none"/><text fill="#000000" stroke="none" font-family="Arial" font-size="32px" font-style="normal" font-weight="bold" text-decoration="none" x="459.2265625" y="101">uc</text></g></g><g transform="translate(-38,-62) scale(1,1)"><path fill="#C0C0C0" stroke="none" d="M 671 258.5 C 671 225.6390544 748.6785872 199 844.5 199 C 940.3214128 199 1018 225.6390544 1018 258.5 C 1018 291.3609456 940.3214128 318 844.5 318 C 748.6785872 318 671 291.3609456 671 258.5 Z" opacity="0.2"/></g><g transform="translate(-38,-62) scale(1,1)"><path fill="#ffffff" stroke="none" d="M 664 251.5 C 664 218.6390544 741.6785872 192 837.5 192 C 933.3214128 192 1011 218.6390544 1011 251.5 C 1011 284.3609456 933.3214128 311 837.5 311 C 741.6785872 311 664 284.3609456 664 251.5 Z"/></g><g transform="translate(-38,-62) scale(1,1)"><path fill="none" stroke="#000000" d="M 664 251.5 C 664 218.6390544 741.6785872 192 837.5 192 C 933.3214128 192 1011 218.6390544 1011 251.5 C 1011 284.3609456 933.3214128 311 837.5 311 C 741.6785872 311 664 284.3609456 664 251.5 Z" stroke-miterlimit="10"/></g><g transform="translate(-38,-62) scale(1,1)"><g><path fill="none" stroke="none"/><text fill="#000000" stroke="none" font-family="Arial" font-size="32px" font-style="normal" font-weight="bold" text-decoration="none" x="719.25" y="263.5">Effectuer Achat</text></g></g><g transform="translate(-38,-62) scale(1,1)"><path fill="#C0C0C0" stroke="none" d="M 639 850.5 C 639 830.8938896 702.5755584 815 781 815 C 859.4244416 815 923 830.8938896 923 850.5 C 923 870.1061104 859.4244416 886 781 886 C 702.5755584 886 639 870.1061104 639 850.5 Z" opacity="0.2"/></g><g transform="translate(-38,-62) scale(1,1)"><path fill="#ffffff" stroke="none" d="M 632 843.5 C 632 823.8938896 695.5755584 808 774 808 C 852.4244416 808 916 823.8938896 916 843.5 C 916 863.1061104 852.4244416 879 774 879 C 695.5755584 879 632 863.1061104 632 843.5 Z"/></g><g transform="translate(-38,-62) scale(1,1)"><path fill="none" stroke="#000000" d="M 632 843.5 C 632 823.8938896 695.5755584 808 774 808 C 852.4244416 808 916 823.8938896 916 843.5 C 916 863.1061104 852.4244416 879 774 879 C 695.5755584 879 632 863.1061104 632 843.5 Z" stroke-miterlimit="10"/></g><g transform="translate(-38,-62) scale(1,1)"><g><path fill="none" stroke="none"/><text fill="#000000" stroke="none" font-family="Arial" font-size="32px" font-style="normal" font-weight="bold" text-decoration="none" x="677.953125" y="856">Créer Article</text></g></g><g transform="translate(-38,-62) scale(1,1)"><path fill="#C0C0C0" stroke="none" d="M 607 622.5 C 607 605.1030288 670.1278432 591 748 591 C 825.8721568 591 889 605.1030288 889 622.5 C 889 639.8969712 825.8721568 654 748 654 C 670.1278432 654 607 639.8969712 607 622.5 Z" opacity="0.2"/></g><g transform="translate(-38,-62) scale(1,1)"><path fill="#ffffff" stroke="none" d="M 600 615.5 C 600 598.1030288 663.1278432 584 741 584 C 818.8721568 584 882 598.1030288 882 615.5 C 882 632.8969712 818.8721568 647 741 647 C 663.1278432 647 600 632.8969712 600 615.5 Z"/></g><g transform="translate(-38,-62) scale(1,1)"><path fill="none" stroke="#000000" d="M 600 615.5 C 600 598.1030288 663.1278432 584 741 584 C 818.8721568 584 882 598.1030288 882 615.5 C 882 632.8969712 818.8721568 647 741 647 C 663.1278432 647 600 632.8969712 600 615.5 Z" stroke-miterlimit="10"/></g><g transform="translate(-38,-62) scale(1,1)"><g><path fill="none" stroke="none"/><text fill="#000000" stroke="none" font-family="Arial" font-size="32px" font-style="normal" font-weight="bold" text-decoration="none" x="645.8359375" y="628">Créer Panier</text></g></g><g transform="translate(-38,-62) scale(1,1)"><path fill="#C0C0C0" stroke="none" d="M 871 486.5 C 871 455.8481936 944.2014352 431 1034.5 431 C 1124.7985648 431 1198 455.8481936 1198 486.5 C 1198 517.1518064 1124.7985648 542 1034.5 542 C 944.2014352 542 871 517.1518064 871 486.5 Z" opacity="0.2"/></g><g transform="translate(-38,-62) scale(1,1)"><path fill="#ffffff" stroke="none" d="M 864 479.5 C 864 448.8481936 937.2014352 424 1027.5 424 C 1117.7985648 424 1191 448.8481936 1191 479.5 C 1191 510.1518064 1117.7985648 535 1027.5 535 C 937.2014352 535 864 510.1518064 864 479.5 Z"/></g><g transform="translate(-38,-62) scale(1,1)"><path fill="none" stroke="#000000" d="M 864 479.5 C 864 448.8481936 937.2014352 424 1027.5 424 C 1117.7985648 424 1191 448.8481936 1191 479.5 C 1191 510.1518064 1117.7985648 535 1027.5 535 C 937.2014352 535 864 510.1518064 864 479.5 Z" stroke-miterlimit="10"/></g><g transform="translate(-38,-62) scale(1,1)"><g><path fill="none" stroke="none"/><text fill="#000000" stroke="none" font-family="Arial" font-size="32px" font-style="normal" font-weight="bold" text-decoration="none" x="916.3671875" y="491">Orange Money</text></g></g><g transform="translate(-38,-62) scale(1,1)"><path fill="#C0C0C0" stroke="none" d="M 1415 373.5 C 1415 338.9822 1474.7699792 311 1548.5 311 C 1622.2300208 311 1682 338.9822 1682 373.5 C 1682 408.0178 1622.2300208 436 1548.5 436 C 1474.7699792 436 1415 408.0178 1415 373.5 Z" opacity="0.2"/></g><g transform="translate(-38,-62) scale(1,1)"><path fill="#ffffff" stroke="none" d="M 1408 366.5 C 1408 331.9822 1467.7699792 304 1541.5 304 C 1615.2300208 304 1675 331.9822 1675 366.5 C 1675 401.0178 1615.2300208 429 1541.5 429 C 1467.7699792 429 1408 401.0178 1408 366.5 Z"/></g><g transform="translate(-38,-62) scale(1,1)"><path fill="none" stroke="#000000" d="M 1408 366.5 C 1408 331.9822 1467.7699792 304 1541.5 304 C 1615.2300208 304 1675 331.9822 1675 366.5 C 1675 401.0178 1615.2300208 429 1541.5 429 C 1467.7699792 429 1408 401.0178 1408 366.5 Z" stroke-miterlimit="10"/></g><g transform="translate(-38,-62) scale(1,1)"><g><path fill="none" stroke="none"/><text fill="#000000" stroke="none" font-family="Arial" font-size="32px" font-style="normal" font-weight="bold" text-decoration="none" x="1451.7265625" y="378">MTN Money</text></g></g><g transform="translate(-38,-62) scale(1,1)"><path fill="#C0C0C0" stroke="none" d="M 2095 202.5 C 2095 165.220776 2168.6491504 135 2259.5 135 C 2350.3508496 135 2424 165.220776 2424 202.5 C 2424 239.779224 2350.3508496 270 2259.5 270 C 2168.6491504 270 2095 239.779224 2095 202.5 Z" opacity="0.2"/></g><g transform="translate(-38,-62) scale(1,1)"><path fill="#ffffff" stroke="none" d="M 2088 195.5 C 2088 158.220776 2161.6491504 128 2252.5 128 C 2343.3508496 128 2417 158.220776 2417 195.5 C 2417 232.779224 2343.3508496 263 2252.5 263 C 2161.6491504 263 2088 232.779224 2088 195.5 Z"/></g><g transform="translate(-38,-62) scale(1,1)"><path fill="none" stroke="#000000" d="M 2088 195.5 C 2088 158.220776 2161.6491504 128 2252.5 128 C 2343.3508496 128 2417 158.220776 2417 195.5 C 2417 232.779224 2343.3508496 263 2252.5 263 C 2161.6491504 263 2088 232.779224 2088 195.5 Z" stroke-miterlimit="10"/></g><g transform="translate(-38,-62) scale(1,1)"><g><path fill="none" stroke="none"/><text fill="#000000" stroke="none" font-family="Arial" font-size="32px" font-style="normal" font-weight="bold" text-decoration="none" x="2140.5078125" y="207.5">Athentification</text></g></g><g transform="translate(-38,-62) scale(1,1)"><path fill="#C0C0C0" stroke="none" d="M 1399 689.5 C 1399 657.1913392 1488.7668976 631 1599.5 631 C 1710.2331024 631 1800 657.1913392 1800 689.5 C 1800 721.8086608 1710.2331024 748 1599.5 748 C 1488.7668976 748 1399 721.8086608 1399 689.5 Z" opacity="0.2"/></g><g transform="translate(-38,-62) scale(1,1)"><path fill="#ffffff" stroke="none" d="M 1392 682.5 C 1392 650.1913392 1481.7668976 624 1592.5 624 C 1703.2331024 624 1793 650.1913392 1793 682.5 C 1793 714.8086608 1703.2331024 741 1592.5 741 C 1481.7668976 741 1392 714.8086608 1392 682.5 Z"/></g><g transform="translate(-38,-62) scale(1,1)"><path fill="none" stroke="#000000" d="M 1392 682.5 C 1392 650.1913392 1481.7668976 624 1592.5 624 C 1703.2331024 624 1793 650.1913392 1793 682.5 C 1793 714.8086608 1703.2331024 741 1592.5 741 C 1481.7668976 741 1392 714.8086608 1392 682.5 Z" stroke-miterlimit="10"/></g><g transform="translate(-38,-62) scale(1,1)"><g><path fill="none" stroke="none"/><text fill="#000000" stroke="none" font-family="Arial" font-size="32px" font-style="normal" font-weight="bold" text-decoration="none" x="1455.3125" y="694.5">S'inscrire en ligne</text></g></g><g transform="translate(-38,-62) scale(1,1)"><path fill="#C0C0C0" stroke="none" d="M 607 1135 C 607 1099.6537728 701.6917648 1071 818.5 1071 C 935.3082352 1071 1030 1099.6537728 1030 1135 C 1030 1170.3462272 935.3082352 1199 818.5 1199 C 701.6917648 1199 607 1170.3462272 607 1135 Z" opacity="0.2"/></g><g transform="translate(-38,-62) scale(1,1)"><path fill="#ffffff" stroke="none" d="M 600 1128 C 600 1092.6537728 694.6917648 1064 811.5 1064 C 928.3082352 1064 1023 1092.6537728 1023 1128 C 1023 1163.3462272 928.3082352 1192 811.5 1192 C 694.6917648 1192 600 1163.3462272 600 1128 Z"/></g><g transform="translate(-38,-62) scale(1,1)"><path fill="none" stroke="#000000" d="M 600 1128 C 600 1092.6537728 694.6917648 1064 811.5 1064 C 928.3082352 1064 1023 1092.6537728 1023 1128 C 1023 1163.3462272 928.3082352 1192 811.5 1192 C 694.6917648 1192 600 1163.3462272 600 1128 Z" stroke-miterlimit="10"/></g><g transform="translate(-38,-62) scale(1,1)"><g><path fill="none" stroke="none"/><text fill="#000000" stroke="none" font-family="Arial" font-size="32px" font-style="normal" font-weight="bold" text-decoration="none" x="666.5703125" y="1140">Effectuer Livraison</text></g></g><g transform="translate(-38,-62) scale(1,1)"><path fill="#C0C0C0" stroke="none" d="M 1087 910.5 C 1087 875.4299152 1186.616632 847 1309.5 847 C 1432.383368 847 1532 875.4299152 1532 910.5 C 1532 945.5700848 1432.383368 974 1309.5 974 C 1186.616632 974 1087 945.5700848 1087 910.5 Z" opacity="0.2"/></g><g transform="translate(-38,-62) scale(1,1)"><path fill="#ffffff" stroke="none" d="M 1080 903.5 C 1080 868.4299152 1179.616632 840 1302.5 840 C 1425.383368 840 1525 868.4299152 1525 903.5 C 1525 938.5700848 1425.383368 967 1302.5 967 C 1179.616632 967 1080 938.5700848 1080 903.5 Z"/></g><g transform="translate(-38,-62) scale(1,1)"><path fill="none" stroke="#000000" d="M 1080 903.5 C 1080 868.4299152 1179.616632 840 1302.5 840 C 1425.383368 840 1525 868.4299152 1525 903.5 C 1525 938.5700848 1425.383368 967 1302.5 967 C 1179.616632 967 1080 938.5700848 1080 903.5 Z" stroke-miterlimit="10"/></g><g transform="translate(-38,-62) scale(1,1)"><g><path fill="none" stroke="none"/><text fill="#000000" stroke="none" font-family="Arial" font-size="32px" font-style="normal" font-weight="bold" text-decoration="none" x="1149.5625" y="916">Générer Commande</text></g></g><g transform="translate(-38,-62) scale(1,1)"><path fill="#C0C0C0" stroke="none" d="M 623 1503 C 623 1463.2354944 709.185176 1431 815.5 1431 C 921.814824 1431 1008 1463.2354944 1008 1503 C 1008 1542.7645056 921.814824 1575 815.5 1575 C 709.185176 1575 623 1542.7645056 623 1503 Z" opacity="0.2"/></g><g transform="translate(-38,-62) scale(1,1)"><path fill="#ffffff" stroke="none" d="M 616 1496 C 616 1456.2354944 702.185176 1424 808.5 1424 C 914.814824 1424 1001 1456.2354944 1001 1496 C 1001 1535.7645056 914.814824 1568 808.5 1568 C 702.185176 1568 616 1535.7645056 616 1496 Z"/></g><g transform="translate(-38,-62) scale(1,1)"><path fill="none" stroke="#000000" d="M 616 1496 C 616 1456.2354944 702.185176 1424 808.5 1424 C 914.814824 1424 1001 1456.2354944 1001 1496 C 1001 1535.7645056 914.814824 1568 808.5 1568 C 702.185176 1568 616 1535.7645056 616 1496 Z" stroke-miterlimit="10"/></g><g transform="translate(-38,-62) scale(1,1)"><g><path fill="none" stroke="none"/><text fill="#000000" stroke="none" font-family="Arial" font-size="32px" font-style="normal" font-weight="bold" text-decoration="none" x="676.9140625" y="1508">Refuter Livraison</text></g></g><g transform="translate(-38,-62) scale(1,1)"><path fill="#C0C0C0" stroke="none" d="M 1127 1499 C 1127 1470.2811904 1222.8110528 1447 1341 1447 C 1459.1889472 1447 1555 1470.2811904 1555 1499 C 1555 1527.7188096 1459.1889472 1551 1341 1551 C 1222.8110528 1551 1127 1527.7188096 1127 1499 Z" opacity="0.2"/></g><g transform="translate(-38,-62) scale(1,1)"><path fill="#ffffff" stroke="none" d="M 1120 1492 C 1120 1463.2811904 1215.8110528 1440 1334 1440 C 1452.1889472 1440 1548 1463.2811904 1548 1492 C 1548 1520.7188096 1452.1889472 1544 1334 1544 C 1215.8110528 1544 1120 1520.7188096 1120 1492 Z"/></g><g transform="translate(-38,-62) scale(1,1)"><path fill="none" stroke="#000000" d="M 1120 1492 C 1120 1463.2811904 1215.8110528 1440 1334 1440 C 1452.1889472 1440 1548 1463.2811904 1548 1492 C 1548 1520.7188096 1452.1889472 1544 1334 1544 C 1215.8110528 1544 1120 1520.7188096 1120 1492 Z" stroke-miterlimit="10"/></g><g transform="translate(-38,-62) scale(1,1)"><g><path fill="none" stroke="none"/><text fill="#000000" stroke="none" font-family="Arial" font-size="32px" font-style="normal" font-weight="bold" text-decoration="none" x="1187.296875" y="1504">Confirmer livraison</text></g></g><g transform="translate(-38,-62) scale(1,1)"><path fill="#C0C0C0" stroke="none" d="M 1151 1081.5 C 1151 1053.6096176 1237.185176 1031 1343.5 1031 C 1449.814824 1031 1536 1053.6096176 1536 1081.5 C 1536 1109.3903824 1449.814824 1132 1343.5 1132 C 1237.185176 1132 1151 1109.3903824 1151 1081.5 Z" opacity="0.2"/></g><g transform="translate(-38,-62) scale(1,1)"><path fill="#ffffff" stroke="none" d="M 1144 1074.5 C 1144 1046.6096176 1230.185176 1024 1336.5 1024 C 1442.814824 1024 1529 1046.6096176 1529 1074.5 C 1529 1102.3903824 1442.814824 1125 1336.5 1125 C 1230.185176 1125 1144 1102.3903824 1144 1074.5 Z"/></g><g transform="translate(-38,-62) scale(1,1)"><path fill="none" stroke="#000000" d="M 1144 1074.5 C 1144 1046.6096176 1230.185176 1024 1336.5 1024 C 1442.814824 1024 1529 1046.6096176 1529 1074.5 C 1529 1102.3903824 1442.814824 1125 1336.5 1125 C 1230.185176 1125 1144 1102.3903824 1144 1074.5 Z" stroke-miterlimit="10"/></g><g transform="translate(-38,-62) scale(1,1)"><g><path fill="none" stroke="none"/><text fill="#000000" stroke="none" font-family="Arial" font-size="32px" font-style="normal" font-weight="bold" text-decoration="none" x="1204.921875" y="1086.5">Confier Livraison</text></g></g><g transform="translate(-38,-62) scale(1,1)"><path fill="#C0C0C0" stroke="none" d="M 1279 1271 C 1279 1213.5623808 1428.7607344 1167 1613.5 1167 C 1798.2392656 1167 1948 1213.5623808 1948 1271 C 1948 1328.4376192 1798.2392656 1375 1613.5 1375 C 1428.7607344 1375 1279 1328.4376192 1279 1271 Z" opacity="0.2"/></g><g transform="translate(-38,-62) scale(1,1)"><path fill="#ffffff" stroke="none" d="M 1272 1264 C 1272 1206.5623808 1421.7607344 1160 1606.5 1160 C 1791.2392656 1160 1941 1206.5623808 1941 1264 C 1941 1321.4376192 1791.2392656 1368 1606.5 1368 C 1421.7607344 1368 1272 1321.4376192 1272 1264 Z"/></g><g transform="translate(-38,-62) scale(1,1)"><path fill="none" stroke="#000000" d="M 1272 1264 C 1272 1206.5623808 1421.7607344 1160 1606.5 1160 C 1791.2392656 1160 1941 1206.5623808 1941 1264 C 1941 1321.4376192 1791.2392656 1368 1606.5 1368 C 1421.7607344 1368 1272 1321.4376192 1272 1264 Z" stroke-miterlimit="10"/></g><g transform="translate(-38,-62) scale(1,1)"><g><path fill="none" stroke="none"/><text fill="#000000" stroke="none" font-family="Arial" font-size="32px" font-style="normal" font-weight="bold" text-decoration="none" x="1374.453125" y="1276.5">Mettre à jour staut commande </text></g></g><g transform="translate(-38,-62) scale(1,1)"><path fill="#C0C0C0" stroke="none" d="M 743 1877.5 C 743 1834.1456432 824.708024 1799 925.5 1799 C 1026.291976 1799 1108 1834.1456432 1108 1877.5 C 1108 1920.8543568 1026.291976 1956 925.5 1956 C 824.708024 1956 743 1920.8543568 743 1877.5 Z" opacity="0.2"/></g><g transform="translate(-38,-62) scale(1,1)"><path fill="#ffffff" stroke="none" d="M 736 1870.5 C 736 1827.1456432 817.708024 1792 918.5 1792 C 1019.291976 1792 1101 1827.1456432 1101 1870.5 C 1101 1913.8543568 1019.291976 1949 918.5 1949 C 817.708024 1949 736 1913.8543568 736 1870.5 Z"/></g><g transform="translate(-38,-62) scale(1,1)"><path fill="none" stroke="#000000" d="M 736 1870.5 C 736 1827.1456432 817.708024 1792 918.5 1792 C 1019.291976 1792 1101 1827.1456432 1101 1870.5 C 1101 1913.8543568 1019.291976 1949 918.5 1949 C 817.708024 1949 736 1913.8543568 736 1870.5 Z" stroke-miterlimit="10"/></g><g transform="translate(-38,-62) scale(1,1)"><g><path fill="none" stroke="none"/><text fill="#000000" stroke="none" font-family="Arial" font-size="32px" font-style="normal" font-weight="bold" text-decoration="none" x="794" y="1883">Gérér Personnel</text></g></g><g transform="translate(-38,-62) scale(1,1)"><path fill="#C0C0C0" stroke="none" d="M 1207 2153.5 C 1207 2125.6096176 1259.8303936 2103 1325 2103 C 1390.1696064 2103 1443 2125.6096176 1443 2153.5 C 1443 2181.3903824 1390.1696064 2204 1325 2204 C 1259.8303936 2204 1207 2181.3903824 1207 2153.5 Z" opacity="0.2"/></g><g transform="translate(-38,-62) scale(1,1)"><path fill="#ffffff" stroke="none" d="M 1200 2146.5 C 1200 2118.6096176 1252.8303936 2096 1318 2096 C 1383.1696064 2096 1436 2118.6096176 1436 2146.5 C 1436 2174.3903824 1383.1696064 2197 1318 2197 C 1252.8303936 2197 1200 2174.3903824 1200 2146.5 Z"/></g><g transform="translate(-38,-62) scale(1,1)"><path fill="none" stroke="#000000" d="M 1200 2146.5 C 1200 2118.6096176 1252.8303936 2096 1318 2096 C 1383.1696064 2096 1436 2118.6096176 1436 2146.5 C 1436 2174.3903824 1383.1696064 2197 1318 2197 C 1252.8303936 2197 1200 2174.3903824 1200 2146.5 Z" stroke-miterlimit="10"/></g><g transform="translate(-38,-62) scale(1,1)"><g><path fill="none" stroke="none"/><text fill="#000000" stroke="none" font-family="Arial" font-size="32px" font-style="normal" font-weight="bold" text-decoration="none" x="1238.8828125" y="2159">Débloquer</text></g></g><g transform="translate(-38,-62) scale(1,1)"><path fill="#C0C0C0" stroke="none" d="M 1415 1925.5 C 1415 1899.8187568 1468.5019664 1879 1534.5 1879 C 1600.4980336 1879 1654 1899.8187568 1654 1925.5 C 1654 1951.1812432 1600.4980336 1972 1534.5 1972 C 1468.5019664 1972 1415 1951.1812432 1415 1925.5 Z" opacity="0.2"/></g><g transform="translate(-38,-62) scale(1,1)"><path fill="#ffffff" stroke="none" d="M 1408 1918.5 C 1408 1892.8187568 1461.5019664 1872 1527.5 1872 C 1593.4980336 1872 1647 1892.8187568 1647 1918.5 C 1647 1944.1812432 1593.4980336 1965 1527.5 1965 C 1461.5019664 1965 1408 1944.1812432 1408 1918.5 Z"/></g><g transform="translate(-38,-62) scale(1,1)"><path fill="none" stroke="#000000" d="M 1408 1918.5 C 1408 1892.8187568 1461.5019664 1872 1527.5 1872 C 1593.4980336 1872 1647 1892.8187568 1647 1918.5 C 1647 1944.1812432 1593.4980336 1965 1527.5 1965 C 1461.5019664 1965 1408 1944.1812432 1408 1918.5 Z" stroke-miterlimit="10"/></g><g transform="translate(-38,-62) scale(1,1)"><g><path fill="none" stroke="none"/><text fill="#000000" stroke="none" font-family="Arial" font-size="32px" font-style="normal" font-weight="bold" text-decoration="none" x="1447.484375" y="1930.5">Supprimer</text></g></g><g transform="translate(-38,-62) scale(1,1)"><path fill="#C0C0C0" stroke="none" d="M 1575 1805.5 C 1575 1770.9822 1667.4531888 1743 1781.5 1743 C 1895.5468112 1743 1988 1770.9822 1988 1805.5 C 1988 1840.0178 1895.5468112 1868 1781.5 1868 C 1667.4531888 1868 1575 1840.0178 1575 1805.5 Z" opacity="0.2"/></g><g transform="translate(-38,-62) scale(1,1)"><path fill="#ffffff" stroke="none" d="M 1568 1798.5 C 1568 1763.9822 1660.4531888 1736 1774.5 1736 C 1888.5468112 1736 1981 1763.9822 1981 1798.5 C 1981 1833.0178 1888.5468112 1861 1774.5 1861 C 1660.4531888 1861 1568 1833.0178 1568 1798.5 Z"/></g><g transform="translate(-38,-62) scale(1,1)"><path fill="none" stroke="#000000" d="M 1568 1798.5 C 1568 1763.9822 1660.4531888 1736 1774.5 1736 C 1888.5468112 1736 1981 1763.9822 1981 1798.5 C 1981 1833.0178 1888.5468112 1861 1774.5 1861 C 1660.4531888 1861 1568 1833.0178 1568 1798.5 Z" stroke-miterlimit="10"/></g><g transform="translate(-38,-62) scale(1,1)"><g><path fill="none" stroke="none"/><text fill="#000000" stroke="none" font-family="Arial" font-size="32px" font-style="normal" font-weight="bold" text-decoration="none" x="1633.09375" y="1811">Déclarer Employer</text></g></g><g transform="translate(-38,-62) scale(1,1)"><path fill="#C0C0C0" stroke="none" d="M 631 2157.5 C 631 2122.9822 674.8760896 2095 729 2095 C 783.1239104 2095 827 2122.9822 827 2157.5 C 827 2192.0178 783.1239104 2220 729 2220 C 674.8760896 2220 631 2192.0178 631 2157.5 Z" opacity="0.2"/></g><g transform="translate(-38,-62) scale(1,1)"><path fill="#ffffff" stroke="none" d="M 624 2150.5 C 624 2115.9822 667.8760896 2088 722 2088 C 776.1239104 2088 820 2115.9822 820 2150.5 C 820 2185.0178 776.1239104 2213 722 2213 C 667.8760896 2213 624 2185.0178 624 2150.5 Z"/></g><g transform="translate(-38,-62) scale(1,1)"><path fill="none" stroke="#000000" d="M 624 2150.5 C 624 2115.9822 667.8760896 2088 722 2088 C 776.1239104 2088 820 2115.9822 820 2150.5 C 820 2185.0178 776.1239104 2213 722 2213 C 667.8760896 2213 624 2185.0178 624 2150.5 Z" stroke-miterlimit="10"/></g><g transform="translate(-38,-62) scale(1,1)"><g><path fill="none" stroke="none"/><text fill="#000000" stroke="none" font-family="Arial" font-size="32px" font-style="normal" font-weight="bold" text-decoration="none" x="657.109375" y="2162.5">Bloquer </text></g></g><g transform="translate(-38,-62) scale(1,1)"><path fill="#C0C0C0" stroke="none" d="M 895 2173.5 C 895 2147.8187568 937.3090864 2127 989.5 2127 C 1041.6909136 2127 1084 2147.8187568 1084 2173.5 C 1084 2199.1812432 1041.6909136 2220 989.5 2220 C 937.3090864 2220 895 2199.1812432 895 2173.5 Z" opacity="0.2"/></g><g transform="translate(-38,-62) scale(1,1)"><path fill="#ffffff" stroke="none" d="M 888 2166.5 C 888 2140.8187568 930.3090864 2120 982.5 2120 C 1034.6909136 2120 1077 2140.8187568 1077 2166.5 C 1077 2192.1812432 1034.6909136 2213 982.5 2213 C 930.3090864 2213 888 2192.1812432 888 2166.5 Z"/></g><g transform="translate(-38,-62) scale(1,1)"><path fill="none" stroke="#000000" d="M 888 2166.5 C 888 2140.8187568 930.3090864 2120 982.5 2120 C 1034.6909136 2120 1077 2140.8187568 1077 2166.5 C 1077 2192.1812432 1034.6909136 2213 982.5 2213 C 930.3090864 2213 888 2192.1812432 888 2166.5 Z" stroke-miterlimit="10"/></g><g transform="translate(-38,-62) scale(1,1)"><g><path fill="none" stroke="none"/><text fill="#000000" stroke="none" font-family="Arial" font-size="32px" font-style="normal" font-weight="bold" text-decoration="none" x="920.28125" y="2178.5">Modifier</text></g></g><g transform="translate(-38,-62) scale(1,1)"><path fill="#C0C0C0" stroke="none" d="M 1807 885.5 C 1807 868.6553136 1853.1146656 855 1910 855 C 1966.8853344 855 2013 868.6553136 2013 885.5 C 2013 902.3446864 1966.8853344 916 1910 916 C 1853.1146656 916 1807 902.3446864 1807 885.5 Z" opacity="0.2"/></g><g transform="translate(-38,-62) scale(1,1)"><path fill="#ffffff" stroke="none" d="M 1800 878.5 C 1800 861.6553136 1846.1146656 848 1903 848 C 1959.8853344 848 2006 861.6553136 2006 878.5 C 2006 895.3446864 1959.8853344 909 1903 909 C 1846.1146656 909 1800 895.3446864 1800 878.5 Z"/></g><g transform="translate(-38,-62) scale(1,1)"><path fill="none" stroke="#000000" d="M 1800 878.5 C 1800 861.6553136 1846.1146656 848 1903 848 C 1959.8853344 848 2006 861.6553136 2006 878.5 C 2006 895.3446864 1959.8853344 909 1903 909 C 1846.1146656 909 1800 895.3446864 1800 878.5 Z" stroke-miterlimit="10"/></g><g transform="translate(-38,-62) scale(1,1)"><g><path fill="none" stroke="none"/><text fill="#000000" stroke="none" font-family="Arial" font-size="32px" font-style="normal" font-weight="bold" text-decoration="none" x="1834.53125" y="890.5">Imprimer</text></g></g><g transform="translate(-38,-62) scale(1,1)"><path fill="#C0C0C0" stroke="none" d="M 1943 697.5 C 1943 656.3547824 2018.4400112 623 2111.5 623 C 2204.5599888 623 2280 656.3547824 2280 697.5 C 2280 738.6452176 2204.5599888 772 2111.5 772 C 2018.4400112 772 1943 738.6452176 1943 697.5 Z" opacity="0.2"/></g><g transform="translate(-38,-62) scale(1,1)"><path fill="#ffffff" stroke="none" d="M 1936 690.5 C 1936 649.3547824 2011.4400112 616 2104.5 616 C 2197.5599888 616 2273 649.3547824 2273 690.5 C 2273 731.6452176 2197.5599888 765 2104.5 765 C 2011.4400112 765 1936 731.6452176 1936 690.5 Z"/></g><g transform="translate(-38,-62) scale(1,1)"><path fill="none" stroke="#000000" d="M 1936 690.5 C 1936 649.3547824 2011.4400112 616 2104.5 616 C 2197.5599888 616 2273 649.3547824 2273 690.5 C 2273 731.6452176 2197.5599888 765 2104.5 765 C 2011.4400112 765 1936 731.6452176 1936 690.5 Z" stroke-miterlimit="10"/></g><g transform="translate(-38,-62) scale(1,1)"><g><path fill="none" stroke="none"/><text fill="#000000" stroke="none" font-family="Arial" font-size="32px" font-style="normal" font-weight="bold" text-decoration="none" x="1989.796875" y="702.5">Liste Employer</text></g></g><g transform="translate(-38,-62) scale(1,1)"><path fill="#C0C0C0" stroke="none" d="M 1687 1005.5 C 1687 988.6553136 1717.8923488 975 1756 975 C 1794.1076512 975 1825 988.6553136 1825 1005.5 C 1825 1022.3446864 1794.1076512 1036 1756 1036 C 1717.8923488 1036 1687 1022.3446864 1687 1005.5 Z" opacity="0.2"/></g><g transform="translate(-38,-62) scale(1,1)"><path fill="#ffffff" stroke="none" d="M 1680 998.5 C 1680 981.6553136 1710.8923488 968 1749 968 C 1787.1076512 968 1818 981.6553136 1818 998.5 C 1818 1015.3446864 1787.1076512 1029 1749 1029 C 1710.8923488 1029 1680 1015.3446864 1680 998.5 Z"/></g><g transform="translate(-38,-62) scale(1,1)"><path fill="none" stroke="#000000" d="M 1680 998.5 C 1680 981.6553136 1710.8923488 968 1749 968 C 1787.1076512 968 1818 981.6553136 1818 998.5 C 1818 1015.3446864 1787.1076512 1029 1749 1029 C 1710.8923488 1029 1680 1015.3446864 1680 998.5 Z" stroke-miterlimit="10"/></g><g transform="translate(-38,-62) scale(1,1)"><g><path fill="none" stroke="none"/><text fill="#000000" stroke="none" font-family="Arial" font-size="32px" font-style="normal" font-weight="bold" text-decoration="none" x="1704.546875" y="1010.5">Achat</text></g></g><g transform="translate(-38,-62) scale(1,1)"><path fill="#C0C0C0" stroke="none" d="M 2143 909.5 C 2143 879.4004784 2190.9055264 855 2250 855 C 2309.0944736 855 2357 879.4004784 2357 909.5 C 2357 939.5995216 2309.0944736 964 2250 964 C 2190.9055264 964 2143 939.5995216 2143 909.5 Z" opacity="0.2"/></g><g transform="translate(-38,-62) scale(1,1)"><path fill="#ffffff" stroke="none" d="M 2136 902.5 C 2136 872.4004784 2183.9055264 848 2243 848 C 2302.0944736 848 2350 872.4004784 2350 902.5 C 2350 932.5995216 2302.0944736 957 2243 957 C 2183.9055264 957 2136 932.5995216 2136 902.5 Z"/></g><g transform="translate(-38,-62) scale(1,1)"><path fill="none" stroke="#000000" d="M 2136 902.5 C 2136 872.4004784 2183.9055264 848 2243 848 C 2302.0944736 848 2350 872.4004784 2350 902.5 C 2350 932.5995216 2302.0944736 957 2243 957 C 2183.9055264 957 2136 932.5995216 2136 902.5 Z" stroke-miterlimit="10"/></g><g transform="translate(-38,-62) scale(1,1)"><g><path fill="none" stroke="none"/><text fill="#000000" stroke="none" font-family="Arial" font-size="32px" font-style="normal" font-weight="bold" text-decoration="none" x="2171.8671875" y="914.5">Livraison</text></g></g><g transform="translate(-38,-62) scale(1,1)"><path fill="#C0C0C0" stroke="none" d="M 1959 1061.5 C 1959 1044.6553136 2019.8892672 1031 2095 1031 C 2170.1107328 1031 2231 1044.6553136 2231 1061.5 C 2231 1078.3446864 2170.1107328 1092 2095 1092 C 2019.8892672 1092 1959 1078.3446864 1959 1061.5 Z" opacity="0.2"/></g><g transform="translate(-38,-62) scale(1,1)"><path fill="#ffffff" stroke="none" d="M 1952 1054.5 C 1952 1037.6553136 2012.8892672 1024 2088 1024 C 2163.1107328 1024 2224 1037.6553136 2224 1054.5 C 2224 1071.3446864 2163.1107328 1085 2088 1085 C 2012.8892672 1085 1952 1071.3446864 1952 1054.5 Z"/></g><g transform="translate(-38,-62) scale(1,1)"><path fill="none" stroke="#000000" d="M 1952 1054.5 C 1952 1037.6553136 2012.8892672 1024 2088 1024 C 2163.1107328 1024 2224 1037.6553136 2224 1054.5 C 2224 1071.3446864 2163.1107328 1085 2088 1085 C 2012.8892672 1085 1952 1071.3446864 1952 1054.5 Z" stroke-miterlimit="10"/></g><g transform="translate(-38,-62) scale(1,1)"><g><path fill="none" stroke="none"/><text fill="#000000" stroke="none" font-family="Arial" font-size="32px" font-style="normal" font-weight="bold" text-decoration="none" x="1996.4296875" y="1066.5">Commande </text></g></g><g transform="translate(-38,-62) scale(1,1)"><path fill="#C0C0C0" stroke="none" d="M 1919 1423 C 1919 1383.2354944 2021.974496 1351 2149 1351 C 2276.025504 1351 2379 1383.2354944 2379 1423 C 2379 1462.7645056 2276.025504 1495 2149 1495 C 2021.974496 1495 1919 1462.7645056 1919 1423 Z" opacity="0.2"/></g><g transform="translate(-38,-62) scale(1,1)"><path fill="#ffffff" stroke="none" d="M 1912 1416 C 1912 1376.2354944 2014.974496 1344 2142 1344 C 2269.025504 1344 2372 1376.2354944 2372 1416 C 2372 1455.7645056 2269.025504 1488 2142 1488 C 2014.974496 1488 1912 1455.7645056 1912 1416 Z"/></g><g transform="translate(-38,-62) scale(1,1)"><path fill="none" stroke="#000000" d="M 1912 1416 C 1912 1376.2354944 2014.974496 1344 2142 1344 C 2269.025504 1344 2372 1376.2354944 2372 1416 C 2372 1455.7645056 2269.025504 1488 2142 1488 C 2014.974496 1488 1912 1455.7645056 1912 1416 Z" stroke-miterlimit="10"/></g><g transform="translate(-38,-62) scale(1,1)"><g><path fill="none" stroke="none"/><text fill="#000000" stroke="none" font-family="Arial" font-size="32px" font-style="normal" font-weight="bold" text-decoration="none" x="1983.75" y="1428.5"> Générer Notification</text></g></g><g transform="translate(-38,-62) scale(1,1)"><path fill="#C0C0C0" stroke="none" d="M 1583 2133.5 C 1583 2094.5639216 1678.8110528 2063 1797 2063 C 1915.1889472 2063 2011 2094.5639216 2011 2133.5 C 2011 2172.4360784 1915.1889472 2204 1797 2204 C 1678.8110528 2204 1583 2172.4360784 1583 2133.5 Z" opacity="0.2"/></g><g transform="translate(-38,-62) scale(1,1)"><path fill="#ffffff" stroke="none" d="M 1576 2126.5 C 1576 2087.5639216 1671.8110528 2056 1790 2056 C 1908.1889472 2056 2004 2087.5639216 2004 2126.5 C 2004 2165.4360784 1908.1889472 2197 1790 2197 C 1671.8110528 2197 1576 2165.4360784 1576 2126.5 Z"/></g><g transform="translate(-38,-62) scale(1,1)"><path fill="none" stroke="#000000" d="M 1576 2126.5 C 1576 2087.5639216 1671.8110528 2056 1790 2056 C 1908.1889472 2056 2004 2087.5639216 2004 2126.5 C 2004 2165.4360784 1908.1889472 2197 1790 2197 C 1671.8110528 2197 1576 2165.4360784 1576 2126.5 Z" stroke-miterlimit="10"/></g><g transform="translate(-38,-62) scale(1,1)"><g><path fill="none" stroke="none"/><text fill="#000000" stroke="none" font-family="Arial" font-size="32px" font-style="normal" font-weight="bold" text-decoration="none" x="1643.28125" y="2139">Démettre Employer</text></g></g><g transform="translate(-38,-62) scale(1,1)"><path fill="none" stroke="#000000" d="M 749 583 L 821 312" stroke-miterlimit="10" stroke-dasharray="3"/></g><g transform="translate(-38,-62) scale(1,1)"><path fill="none" stroke="#000000" d="M 822.4588606881879 322.90283107694785 L 821 312 L 814.3221044967828 320.74103607406533" stroke-miterlimit="10"/></g><g transform="translate(-38,-62) scale(1,1)"><g><path fill="none" stroke="none"/><text fill="#000000" stroke="none" font-family="Arial" font-size="13px" font-style="normal" font-weight="normal" text-decoration="none" x="728.5" y="444">«include»</text></g></g><g transform="translate(-38,-62) scale(1,1)"><path fill="none" stroke="#000000" d="M 746 648 L 769 807" stroke-miterlimit="10" stroke-dasharray="3"/></g><g transform="translate(-38,-62) scale(1,1)"><path fill="none" stroke="#000000" d="M 763.3789153608459 797.5446624872792 L 769 807 L 771.7112262076831 796.3393596603781" stroke-miterlimit="10"/></g><g transform="translate(-38,-62) scale(1,1)"><path fill="none" stroke="#000000" d="M 888 312 L 980 423" stroke-miterlimit="10" stroke-dasharray="3"/></g><g transform="translate(-38,-62) scale(1,1)"><path fill="none" stroke="#000000" d="M 970.273828234734 417.86175294555215 L 980 423 L 976.7558473254071 412.4892686541834" stroke-miterlimit="10"/></g><g transform="translate(-38,-62) scale(1,1)"><g><path fill="none" stroke="none"/><text fill="#000000" stroke="none" font-family="Arial" font-size="13px" font-style="normal" font-weight="normal" text-decoration="none" x="930.5" y="352">«extend»</text></g></g><g transform="translate(-38,-62) scale(1,1)"><path fill="none" stroke="#000000" d="M 1012 280 L 1407 344" stroke-miterlimit="10" stroke-dasharray="3"/></g><g transform="translate(-38,-62) scale(1,1)"><path fill="none" stroke="#000000" d="M 1396.2948828445465 346.52991436377044 L 1407 344 L 1397.641419463539 338.21925866842565" stroke-miterlimit="10"/></g><g transform="translate(-38,-62) scale(1,1)"><g><path fill="none" stroke="none"/><text fill="#000000" stroke="none" font-family="Arial" font-size="13px" font-style="normal" font-weight="normal" text-decoration="none" x="1186.5" y="287">«extend»</text></g></g><g transform="translate(-38,-62) scale(1,1)"><path fill="none" stroke="#000000" d="M 1012 244 L 2087 202" stroke-miterlimit="10" stroke-dasharray="3"/></g><g transform="translate(-38,-62) scale(1,1)"><path fill="none" stroke="#000000" d="M 2077.009412164612 206.6030592765465 L 2087 202 L 2076.680733164908 198.19044202220712" stroke-miterlimit="10"/></g><g transform="translate(-38,-62) scale(1,1)"><g><path fill="none" stroke="none"/><text fill="#000000" stroke="none" font-family="Arial" font-size="13px" font-style="normal" font-weight="normal" text-decoration="none" x="1519.5" y="198">«include»</text></g></g><g transform="translate(-38,-62) scale(1,1)"><path fill="none" stroke="#000000" d="M 2158 264 L 1672 623" stroke-miterlimit="10" stroke-dasharray="3"/></g><g transform="translate(-38,-62) scale(1,1)"><path fill="none" stroke="#000000" d="M 1677.6732079048113 613.5758442251422 L 1672 623 L 1682.6754482359336 620.3476793252129" stroke-miterlimit="10"/></g><g transform="translate(-38,-62) scale(1,1)"><g><path fill="none" stroke="none"/><text fill="#000000" stroke="none" font-family="Arial" font-size="13px" font-style="normal" font-weight="normal" text-decoration="none" x="1905.5" y="472">«extend»</text></g></g><g transform="translate(-38,-62) scale(1,1)"><path fill="none" stroke="#000000" d="M 810 1193 L 809 1423" stroke-miterlimit="10" stroke-dasharray="3"/></g><g transform="translate(-38,-62) scale(1,1)"><path fill="none" stroke="#000000" d="M 804.8347071561548 1412.8191191184155 L 809 1423 L 813.2536630943101 1412.8557232746684" stroke-miterlimit="10"/></g><g transform="translate(-38,-62) scale(1,1)"><g><path fill="none" stroke="none"/><text fill="#000000" stroke="none" font-family="Arial" font-size="13px" font-style="normal" font-weight="normal" text-decoration="none" x="812.5" y="1312">«extend»</text></g></g><g transform="translate(-38,-62) scale(1,1)"><path fill="none" stroke="#000000" d="M 904 1193 L 1258 1439" stroke-miterlimit="10" stroke-dasharray="3"/></g><g transform="translate(-38,-62) scale(1,1)"><path fill="none" stroke="#000000" d="M 1247.25233618622 1436.6574111444893 L 1258 1439 L 1252.0567145006266 1429.7437935700991" stroke-miterlimit="10"/></g><g transform="translate(-38,-62) scale(1,1)"><g><path fill="none" stroke="none"/><text fill="#000000" stroke="none" font-family="Arial" font-size="13px" font-style="normal" font-weight="normal" text-decoration="none" x="1071.5" y="1296">«extend»</text></g></g><g transform="translate(-38,-62) scale(1,1)"><path fill="none" stroke="#000000" d="M 1024 1106 L 1143 1094" stroke-miterlimit="10" stroke-dasharray="3"/></g><g transform="translate(-38,-62) scale(1,1)"><path fill="none" stroke="#000000" d="M 1133.3109525886146 1099.2079132346769 L 1143 1094 L 1132.4662581081002 1090.8313596362425" stroke-miterlimit="10"/></g><g transform="translate(-38,-62) scale(1,1)"><g><path fill="none" stroke="none"/><text fill="#000000" stroke="none" font-family="Arial" font-size="13px" font-style="normal" font-weight="normal" text-decoration="none" x="1052.5" y="1075">«include»</text></g></g><g transform="translate(-38,-62) scale(1,1)"><path fill="none" stroke="#000000" d="M 953 1063 L 1160 968" stroke-miterlimit="10" stroke-dasharray="3"/></g><g transform="translate(-38,-62) scale(1,1)"><path fill="none" stroke="#000000" d="M 1152.5194079249127 976.0647840768455 L 1160 968 L 1149.0077591068728 968.4130861259582" stroke-miterlimit="10"/></g><g transform="translate(-38,-62) scale(1,1)"><g><path fill="none" stroke="none"/><text fill="#000000" stroke="none" font-family="Arial" font-size="13px" font-style="normal" font-weight="normal" text-decoration="none" x="1015.5" y="992">«include»</text></g></g><g transform="translate(-38,-62) scale(1,1)"><path fill="none" stroke="#000000" d="M 1410 1126 L 1457 1159" stroke-miterlimit="10" stroke-dasharray="3"/></g><g transform="translate(-38,-62) scale(1,1)"><path fill="none" stroke="#000000" d="M 1446.2638175701438 1156.6053420217388 L 1457 1159 L 1451.101651494844 1149.715093704742" stroke-miterlimit="10"/></g><g transform="translate(-38,-62) scale(1,1)"><path fill="none" stroke="#000000" d="M 862 1950 L 766 2087" stroke-miterlimit="10" stroke-dasharray="3"/></g><g transform="translate(-38,-62) scale(1,1)"><path fill="none" stroke="#000000" d="M 768.3845990946801 2076.2615789262272 L 766 2087 L 775.279376550761 2081.092955829758" stroke-miterlimit="10"/></g><g transform="translate(-38,-62) scale(1,1)"><g><path fill="none" stroke="none"/><text fill="#000000" stroke="none" font-family="Arial" font-size="13px" font-style="normal" font-weight="normal" text-decoration="none" x="811.5" y="2040">«extend»</text></g></g><g transform="translate(-38,-62) scale(1,1)"><path fill="none" stroke="#000000" d="M 935 1950 L 972 2119" stroke-miterlimit="10" stroke-dasharray="3"/></g><g transform="translate(-38,-62) scale(1,1)"><path fill="none" stroke="#000000" d="M 965.7143970857334 2109.9727525787666 L 972 2119 L 973.9386354224789 2108.1721796884735" stroke-miterlimit="10"/></g><g transform="translate(-38,-62) scale(1,1)"><g><path fill="none" stroke="none"/><text fill="#000000" stroke="none" font-family="Arial" font-size="13px" font-style="normal" font-weight="normal" text-decoration="none" x="955.5" y="2032">«extend»</text></g></g><g transform="translate(-38,-62) scale(1,1)"><path fill="none" stroke="#000000" d="M 1034 1950 L 1244 2095" stroke-miterlimit="10" stroke-dasharray="3"/></g><g transform="translate(-38,-62) scale(1,1)"><path fill="none" stroke="#000000" d="M 1233.2453574454678 2092.689661599625 L 1244 2095 L 1238.0289752701935 2085.761663370712" stroke-miterlimit="10"/></g><g transform="translate(-38,-62) scale(1,1)"><g><path fill="none" stroke="none"/><text fill="#000000" stroke="none" font-family="Arial" font-size="13px" font-style="normal" font-weight="normal" text-decoration="none" x="1129.5" y="2002">«extend»</text></g></g><g transform="translate(-38,-62) scale(1,1)"><path fill="none" stroke="#000000" d="M 1102 1924 L 1575 2063" stroke-miterlimit="10" stroke-dasharray="3"/></g><g transform="translate(-38,-62) scale(1,1)"><path fill="none" stroke="#000000" d="M 1564.062764537073 2064.173405483409 L 1575 2063 L 1566.4364836623304 2056.0959296111305" stroke-miterlimit="10"/></g><g transform="translate(-38,-62) scale(1,1)"><g><path fill="none" stroke="none"/><text fill="#000000" stroke="none" font-family="Arial" font-size="13px" font-style="normal" font-weight="normal" text-decoration="none" x="1319.5" y="1969">«extend»</text></g></g><g transform="translate(-38,-62) scale(1,1)"><path fill="none" stroke="#000000" d="M 1102 1885 L 1407 1909" stroke-miterlimit="10" stroke-dasharray="3"/></g><g transform="translate(-38,-62) scale(1,1)"><path fill="none" stroke="#000000" d="M 1396.5384228547405 1912.3993239965885 L 1407 1909 L 1397.1988628092429 1904.0062329081186" stroke-miterlimit="10"/></g><g transform="translate(-38,-62) scale(1,1)"><g><path fill="none" stroke="none"/><text fill="#000000" stroke="none" font-family="Arial" font-size="13px" font-style="normal" font-weight="normal" text-decoration="none" x="1229.5" y="1872">«extend»</text></g></g><g transform="translate(-38,-62) scale(1,1)"><path fill="none" stroke="#000000" d="M 1102 1855 L 1567 1815" stroke-miterlimit="10" stroke-dasharray="3"/></g><g transform="translate(-38,-62) scale(1,1)"><path fill="none" stroke="#000000" d="M 1557.235494811711 1820.0650210688484 L 1567 1815 L 1556.5139414217942 1811.6769629110652" stroke-miterlimit="10"/></g><g transform="translate(-38,-62) scale(1,1)"><g><path fill="none" stroke="none"/><text fill="#000000" stroke="none" font-family="Arial" font-size="13px" font-style="normal" font-weight="normal" text-decoration="none" x="1304.5" y="1810">«extend»</text></g></g><g transform="translate(-38,-62) scale(1,1)"><path fill="none" stroke="#000000" d="M 1937 910 L 2055 1023" stroke-miterlimit="10" stroke-dasharray="3"/></g><g transform="translate(-38,-62) scale(1,1)"><path fill="none" stroke="#000000" d="M 2044.7486111817425 1019.0113877981299 L 2055 1023 L 2050.571548185496 1012.9307987145645" stroke-miterlimit="10"/></g><g transform="translate(-38,-62) scale(1,1)"><g><path fill="none" stroke="none"/><text fill="#000000" stroke="none" font-family="Arial" font-size="13px" font-style="normal" font-weight="normal" text-decoration="none" x="1989.5" y="949">«extend»</text></g></g><g transform="translate(-38,-62) scale(1,1)"><path fill="none" stroke="#000000" d="M 2007 885 L 2135 894" stroke-miterlimit="10" stroke-dasharray="3"/></g><g transform="translate(-38,-62) scale(1,1)"><path fill="none" stroke="#000000" d="M 2124.5671009608045 897.4863473203277 L 2135 894 L 2125.157606510175 889.0880461737256" stroke-miterlimit="10"/></g><g transform="translate(-38,-62) scale(1,1)"><g><path fill="none" stroke="none"/><text fill="#000000" stroke="none" font-family="Arial" font-size="13px" font-style="normal" font-weight="normal" text-decoration="none" x="2046.5" y="864">«extend»</text></g></g><g transform="translate(-38,-62) scale(1,1)"><path fill="none" stroke="#000000" d="M 1862 910 L 1789 967" stroke-miterlimit="10" stroke-dasharray="3"/></g><g transform="translate(-38,-62) scale(1,1)"><path fill="none" stroke="#000000" d="M 1794.419416316901 957.4276477925168 L 1789 967 L 1799.6007811855711 964.0634308699364" stroke-miterlimit="10"/></g><g transform="translate(-38,-62) scale(1,1)"><g><path fill="none" stroke="none"/><text fill="#000000" stroke="none" font-family="Arial" font-size="13px" font-style="normal" font-weight="normal" text-decoration="none" x="1816.5" y="966">«extend»</text></g></g><g transform="translate(-38,-62) scale(1,1)"><path fill="none" stroke="#000000" d="M 1936 847 L 2023 766" stroke-miterlimit="10" stroke-dasharray="3"/></g><g transform="translate(-38,-62) scale(1,1)"><path fill="none" stroke="#000000" d="M 2018.4304429001525 776.0059556220899 L 2023 766 L 2012.6935561150472 769.8441142603102" stroke-miterlimit="10"/></g><g transform="translate(-38,-62) scale(1,1)"><g><path fill="none" stroke="none"/><text fill="#000000" stroke="none" font-family="Arial" font-size="13px" font-style="normal" font-weight="normal" text-decoration="none" x="1931.5" y="788">«extend»</text></g></g><g transform="translate(-38,-62) scale(1,1)"><path fill="none" stroke="#000000" d="M 830 312 L 808 496 L 1224 839" stroke-miterlimit="10" stroke-dasharray="3"/></g><g transform="translate(-38,-62) scale(1,1)"><path fill="none" stroke="#000000" d="M 1213.4809978403032 835.782766162634 L 1224 839 L 1218.8368701046268 829.287014378498" stroke-miterlimit="10"/></g><g transform="translate(-38,-62) scale(1,1)"><g><path fill="none" stroke="none"/><text fill="#000000" stroke="none" font-family="Arial" font-size="13px" font-style="normal" font-weight="normal" text-decoration="none" x="799.5" y="477">«include»</text></g></g><g transform="translate(-38,-62) scale(1,1)"><path fill="none" stroke="#000000" d="M 1102 1825 L 2520 1480 L 2266 264" stroke-miterlimit="10" stroke-dasharray="3"/></g><g transform="translate(-38,-62) scale(1,1)"><path fill="none" stroke="#000000" d="M 2272.198531370176 273.08725529810516 L 2266 264 L 2263.957363721586 274.80868340891277" stroke-miterlimit="10"/></g><g transform="translate(-38,-62) scale(1,1)"><g><path fill="none" stroke="none"/><text fill="#000000" stroke="none" font-family="Arial" font-size="13px" font-style="normal" font-weight="normal" text-decoration="none" x="2462.5" y="1491">«include»</text></g></g><g transform="translate(-38,-62) scale(1,1)"><path fill="none" stroke="#000000" d="M 2095 1343 L 1936 1093 L 1908 910" stroke-miterlimit="10" stroke-dasharray="3"/></g><g transform="translate(-38,-62) scale(1,1)"><path fill="none" stroke="#000000" d="M 1913.698149648404 919.4090961619272 L 1908 910 L 1905.3759645556672 920.6824359575372" stroke-miterlimit="10"/></g><g transform="translate(-38,-62) scale(1,1)"><path fill="none" stroke="#000000" d="M 2181 1343 L 2384 968 L 2192 276 L 2201 264" stroke-miterlimit="10" stroke-dasharray="3"/></g><g transform="translate(-38,-62) scale(1,1)"><path fill="none" stroke="#000000" d="M 2198.2700092902382 274.6558505397089 L 2201 264 L 2191.5347808806127 269.60442923248974" stroke-miterlimit="10"/></g><g transform="translate(-38,-62) scale(1,1)"><path fill="none" stroke="#000000" d="M 1945 1489 L 1102 1802" stroke-miterlimit="10" stroke-dasharray="3"/></g><g transform="translate(-38,-62) scale(1,1)"><path fill="none" stroke="#000000" d="M 1110.0619425223579 1794.5163456275561 L 1102 1802 L 1112.992396981907 1802.408911472284" stroke-miterlimit="10"/></g><g transform="translate(-38,-62) scale(1,1)"><path fill="none" stroke="#000000" d="M 1911 1406 L 1408 1384 L 963 1193" stroke-miterlimit="10" stroke-dasharray="3"/></g><g transform="translate(-38,-62) scale(1,1)"><path fill="none" stroke="#000000" d="M 973.9991080202739 1193.1400812562313 L 963 1193 L 970.6784914619408 1200.8765962743373" stroke-miterlimit="10"/></g><g transform="translate(-38,-62) scale(1,1)"><path fill="none" stroke="#000000" d="M 2056 1343 L 1608 961 L 1200 456 L 945 312" stroke-miterlimit="10" stroke-dasharray="3"/></g><g transform="translate(-38,-62) scale(1,1)"><path fill="none" stroke="#000000" d="M 955.9190880290397 313.3317344382724 L 945 312 L 951.7792827376647 320.66263964174897" stroke-miterlimit="10"/></g><g transform="translate(-38,-62) scale(1,1)"><path fill="#ffffff" stroke="none" d="M 120.8709090909091 222.05 C 120.8709090909091 192.75129136 143.53832265309092 169 171.5 169 C 199.46167734690908 169 222.1290909090909 192.75129136 222.1290909090909 222.05 C 222.1290909090909 251.34870864 199.46167734690908 275.1 171.5 275.1 C 143.53832265309092 275.1 120.8709090909091 251.34870864 120.8709090909091 222.05 Z"/></g><g transform="translate(-38,-62) scale(1,1)"><path fill="none" stroke="#000000" d="M 120.8709090909091 222.05 C 120.8709090909091 192.75129136 143.53832265309092 169 171.5 169 C 199.46167734690908 169 222.1290909090909 192.75129136 222.1290909090909 222.05 C 222.1290909090909 251.34870864 199.46167734690908 275.1 171.5 275.1 C 143.53832265309092 275.1 120.8709090909091 251.34870864 120.8709090909091 222.05 Z" stroke-miterlimit="10"/></g><g transform="translate(-38,-62) scale(1,1)"><path fill="none" stroke="#000000" d="M 171.5 275.1 L 171.5 375.9" stroke-miterlimit="10"/></g><g transform="translate(-38,-62) scale(1,1)"><path fill="none" stroke="#000000" d="M 117.89272727272729 312.9 L 225.10727272727271 312.9" stroke-miterlimit="10"/></g><g transform="translate(-38,-62) scale(1,1)"><path fill="none" stroke="#000000" d="M 171.5 375.9 L 97.04545454545456 482" stroke-miterlimit="10"/></g><g transform="translate(-38,-62) scale(1,1)"><path fill="none" stroke="#000000" d="M 171.5 375.9 L 245.95454545454544 482" stroke-miterlimit="10"/></g><g transform="translate(-38,-62) scale(1,1)"><g><path fill="none" stroke="none"/><text fill="#000000" stroke="none" font-family="Arial" font-size="32px" font-style="normal" font-weight="bold" text-decoration="none" x="127.0546875" y="517">Client</text></g></g><g transform="translate(-38,-62) scale(1,1)"><path fill="#ffffff" stroke="none" d="M 129.01345454545455 1042.13 C 129.01345454545455 1010.577969376 153.40790914094546 985 183.5 985 C 213.59209085905454 985 237.98654545454545 1010.577969376 237.98654545454545 1042.13 C 237.98654545454545 1073.6820306240002 213.59209085905454 1099.26 183.5 1099.26 C 153.40790914094546 1099.26 129.01345454545455 1073.6820306240002 129.01345454545455 1042.13 Z"/></g><g transform="translate(-38,-62) scale(1,1)"><path fill="none" stroke="#000000" d="M 129.01345454545455 1042.13 C 129.01345454545455 1010.577969376 153.40790914094546 985 183.5 985 C 213.59209085905454 985 237.98654545454545 1010.577969376 237.98654545454545 1042.13 C 237.98654545454545 1073.6820306240002 213.59209085905454 1099.26 183.5 1099.26 C 153.40790914094546 1099.26 129.01345454545455 1073.6820306240002 129.01345454545455 1042.13 Z" stroke-miterlimit="10"/></g><g transform="translate(-38,-62) scale(1,1)"><path fill="none" stroke="#000000" d="M 183.5 1099.26 L 183.5 1207.74" stroke-miterlimit="10"/></g><g transform="translate(-38,-62) scale(1,1)"><path fill="none" stroke="#000000" d="M 125.80836363636364 1139.94 L 241.19163636363635 1139.94" stroke-miterlimit="10"/></g><g transform="translate(-38,-62) scale(1,1)"><path fill="none" stroke="#000000" d="M 183.5 1207.74 L 103.37272727272727 1322" stroke-miterlimit="10"/></g><g transform="translate(-38,-62) scale(1,1)"><path fill="none" stroke="#000000" d="M 183.5 1207.74 L 263.6272727272727 1322" stroke-miterlimit="10"/></g><g transform="translate(-38,-62) scale(1,1)"><g><path fill="none" stroke="none"/><text fill="#000000" stroke="none" font-family="Arial" font-size="32px" font-style="normal" font-weight="bold" text-decoration="none" x="110.5859375" y="1357">Employer</text></g></g><g transform="translate(-38,-62) scale(1,1)"><path fill="#ffffff" stroke="none" d="M 108.01272727272726 1867.65 C 108.01272727272726 1830.84021808 136.43694427927272 1801 171.5 1801 C 206.56305572072728 1801 234.98727272727274 1830.84021808 234.98727272727274 1867.65 C 234.98727272727274 1904.45978192 206.56305572072728 1934.3 171.5 1934.3 C 136.43694427927272 1934.3 108.01272727272726 1904.45978192 108.01272727272726 1867.65 Z"/></g><g transform="translate(-38,-62) scale(1,1)"><path fill="none" stroke="#000000" d="M 108.01272727272726 1867.65 C 108.01272727272726 1830.84021808 136.43694427927272 1801 171.5 1801 C 206.56305572072728 1801 234.98727272727274 1830.84021808 234.98727272727274 1867.65 C 234.98727272727274 1904.45978192 206.56305572072728 1934.3 171.5 1934.3 C 136.43694427927272 1934.3 108.01272727272726 1904.45978192 108.01272727272726 1867.65 Z" stroke-miterlimit="10"/></g><g transform="translate(-38,-62) scale(1,1)"><path fill="none" stroke="#000000" d="M 171.5 1934.3 L 171.5 2060.7" stroke-miterlimit="10"/></g><g transform="translate(-38,-62) scale(1,1)"><path fill="none" stroke="#000000" d="M 104.2781818181818 1981.7 L 238.72181818181818 1981.7" stroke-miterlimit="10"/></g><g transform="translate(-38,-62) scale(1,1)"><path fill="none" stroke="#000000" d="M 171.5 2060.7 L 78.13636363636363 2194" stroke-miterlimit="10"/></g><g transform="translate(-38,-62) scale(1,1)"><path fill="none" stroke="#000000" d="M 171.5 2060.7 L 264.8636363636364 2194" stroke-miterlimit="10"/></g><g transform="translate(-38,-62) scale(1,1)"><g><path fill="none" stroke="none"/><text fill="#000000" stroke="none" font-family="Arial" font-size="32px" font-style="normal" font-weight="bold" text-decoration="none" x="120.828125" y="2228.5">Patron</text></g></g><g transform="translate(-38,-62) scale(1,1)"><path fill="none" stroke="#000000" d="M 272 332 L 663 276" stroke-miterlimit="10"/></g><g transform="translate(-38,-62) scale(1,1)"><path fill="none" stroke="#000000" d="M 653.5367880855275 281.6078177807223 L 663 276 L 652.3431727030639 273.27382466387843" stroke-miterlimit="10"/></g><g transform="translate(-38,-62) scale(1,1)"><path fill="none" stroke="#000000" d="M 304 1054 L 708 648" stroke-miterlimit="10"/></g><g transform="translate(-38,-62) scale(1,1)"><path fill="none" stroke="#000000" d="M 703.8155880237135 658.1730377180422 L 708 648 L 697.8477499605955 652.2345978719839" stroke-miterlimit="10"/></g><g transform="translate(-38,-62) scale(1,1)"><path fill="none" stroke="#000000" d="M 304 1166 L 599 1144" stroke-miterlimit="10"/></g><g transform="translate(-38,-62) scale(1,1)"><path fill="none" stroke="#000000" d="M 589.1785290568098 1148.953656075271 L 599 1144 L 588.5524074923534 1140.5579350973337" stroke-miterlimit="10"/></g><g transform="translate(-38,-62) scale(1,1)"><path fill="none" stroke="#000000" d="M 296 1994 L 735 1907" stroke-miterlimit="10"/></g><g transform="translate(-38,-62) scale(1,1)"><path fill="none" stroke="#000000" d="M 725.8495169337534 1913.1048062749226 L 735 1907 L 724.2128814578964 1904.8463812875523" stroke-miterlimit="10"/></g><g transform="translate(-38,-62) scale(1,1)"><path fill="none" stroke="#000000" d="M 174 1799 L 180 1368" stroke-miterlimit="10"/></g><g transform="translate(-38,-62) scale(1,1)"><path fill="#FFFFFF" stroke="none" d="M 188.13529574645653 1388.4405714968464 L 180 1368 L 171.298856072529 1388.206189506026"/></g><g transform="translate(-38,-62) scale(1,1)"><path fill="none" stroke="#000000" d="M 188.13529574645653 1388.4405714968464 L 180 1368 L 171.298856072529 1388.206189506026 L 188.13529574645653 1388.4405714968464" stroke-miterlimit="10"/></g><g transform="translate(-38,-62) scale(1,1)"><path fill="none" stroke="#000000" d="M 180 983 L 174 528" stroke-miterlimit="10"/></g><g transform="translate(-38,-62) scale(1,1)"><path fill="#FFFFFF" stroke="none" d="M 182.6863068946915 548.212572140409 L 174 528 L 165.8496996829984 548.4345933344092"/></g><g transform="translate(-38,-62) scale(1,1)"><path fill="none" stroke="#000000" d="M 182.6863068946915 548.212572140409 L 174 528 L 165.8496996829984 548.4345933344092 L 182.6863068946915 548.212572140409" stroke-miterlimit="10"/></g></g></svg>