<svg version="1.1" xmlns="http://www.w3.org/2000/svg" xmlns:xlink="http://www.w3.org/1999/xlink" width="3564" height="3708"><defs/><g><g transform="translate(2,-6) scale(1,1)"><path fill="none" stroke="#000000" d="M 8 16 L 3552 16 L 3552 3704 L 8 3704 L 8 16" stroke-miterlimit="10"/></g><g transform="translate(2,-6) scale(1,1)"><path fill="#ffffff" stroke="none" d="M 8 16 L 8 49 L 391.7109375 49 L 408.2109375 32.5 L 408.2109375 16 L 8 16"/></g><g transform="translate(2,-6) scale(1,1)"><path fill="none" stroke="#000000" d="M 8 16 L 8 49 L 391.7109375 49 L 408.2109375 32.5 L 408.2109375 16 L 8 16 L 8 16" stroke-miterlimit="10"/></g><g transform="translate(2,-6) scale(1,1)"><g><path fill="none" stroke="none"/><text fill="#000000" stroke="none" font-family="Arial" font-size="24px" font-style="normal" font-weight="normal" text-decoration="none" x="44.34765625" y="41">Effectuer Achat (Acheter Article)</text></g></g><g transform="translate(2,-6) scale(1,1)"><g><path fill="none" stroke="none"/><text fill="#000000" stroke="none" font-family="Arial" font-size="24px" font-style="normal" font-weight="bold" text-decoration="none" x="11.669921875" y="41">sd</text></g></g><g transform="translate(2,-6) scale(1,1)"><path fill="#ffffff" stroke="none" d="M 203.43809659090908 47.3 C 203.43809659090908 43.82060576 206.3164983130909 41 209.8671875 41 C 213.4178766869091 41 216.2962784090909 43.82060576 216.2962784090909 47.3 C 216.2962784090909 50.779394239999995 213.4178766869091 53.6 209.8671875 53.6 C 206.3164983130909 53.6 203.43809659090908 50.779394239999995 203.43809659090908 47.3 Z"/></g><g transform="translate(2,-6) scale(1,1)"><path fill="none" stroke="#000000" d="M 203.43809659090908 47.3 C 203.43809659090908 43.82060576 206.3164983130909 41 209.8671875 41 C 213.4178766869091 41 216.2962784090909 43.82060576 216.2962784090909 47.3 C 216.2962784090909 50.779394239999995 213.4178766869091 53.6 209.8671875 53.6 C 206.3164983130909 53.6 203.43809659090908 50.779394239999995 203.43809659090908 47.3 Z" stroke-miterlimit="10"/></g><g transform="translate(2,-6) scale(1,1)"><path fill="none" stroke="#000000" d="M 209.8671875 53.6 L 209.8671875 66.4" stroke-miterlimit="10"/></g><g transform="translate(2,-6) scale(1,1)"><path fill="none" stroke="#000000" d="M 203.05991477272727 58.4 L 216.6744602272727 58.4" stroke-miterlimit="10"/></g><g transform="translate(2,-6) scale(1,1)"><path fill="none" stroke="#000000" d="M 209.8671875 66.4 L 200.41264204545453 79" stroke-miterlimit="10"/></g><g transform="translate(2,-6) scale(1,1)"><path fill="none" stroke="#000000" d="M 209.8671875 66.4 L 219.32173295454544 79" stroke-miterlimit="10"/></g><g transform="translate(2,-6) scale(1,1)"><g><path fill="none" stroke="none"/><text fill="#000000" stroke="none" font-family="Arial" font-size="24px" font-style="normal" font-weight="bold" text-decoration="none" x="109.841796875" y="107">Personne: Actor1</text></g></g><g transform="translate(2,-6) scale(1,1)"><path fill="none" stroke="#000000" d="M 210.5 116 L 210.5 3664" stroke-miterlimit="10" stroke-dasharray="3"/></g><g transform="translate(2,-6) scale(1,1)"><rect fill="#C0C0C0" stroke="none" x="607" y="47" width="159" height="39" opacity="0.2"/></g><g transform="translate(2,-6) scale(1,1)"><rect fill="#ffffff" stroke="none" x="600" y="40" width="159" height="39"/></g><g transform="translate(2,-6) scale(1,1)"><path fill="none" stroke="#000000" d="M 600 40 L 759 40 L 759 79 L 600 79 L 600 40 Z Z" stroke-miterlimit="10"/></g><g transform="translate(2,-6) scale(1,1)"><g><path fill="none" stroke="none"/><text fill="#000000" stroke="none" font-family="Arial" font-size="24px" font-style="normal" font-weight="bold" text-decoration="none" x="679.5" y="58.5"></text></g></g><g transform="translate(2,-6) scale(1,1)"><path fill="none" stroke="#000000" d="M 680.5 80 L 680.5 3672" stroke-miterlimit="10" stroke-dasharray="3"/></g><g transform="translate(2,-6) scale(1,1)"><rect fill="#C0C0C0" stroke="none" x="1071" y="47" width="135" height="39" opacity="0.2"/></g><g transform="translate(2,-6) scale(1,1)"><rect fill="#ffffff" stroke="none" x="1064" y="40" width="135" height="39"/></g><g transform="translate(2,-6) scale(1,1)"><path fill="none" stroke="#000000" d="M 1064 40 L 1199 40 L 1199 79 L 1064 79 L 1064 40 Z Z" stroke-miterlimit="10"/></g><g transform="translate(2,-6) scale(1,1)"><g><path fill="none" stroke="none"/><text fill="#000000" stroke="none" font-family="Arial" font-size="24px" font-style="normal" font-weight="bold" text-decoration="none" x="1090.818359375" y="67">:Panier</text></g></g><g transform="translate(2,-6) scale(1,1)"><path fill="none" stroke="#000000" d="M 1132.5 80 L 1132.5 3688" stroke-miterlimit="10" stroke-dasharray="3"/></g><g transform="translate(2,-6) scale(1,1)"><rect fill="#C0C0C0" stroke="none" x="1519" y="1579" width="216.3125" height="39" opacity="0.2"/></g><g transform="translate(2,-6) scale(1,1)"><rect fill="#ffffff" stroke="none" x="1512" y="1572" width="216.3125" height="39"/></g><g transform="translate(2,-6) scale(1,1)"><path fill="none" stroke="#000000" d="M 1512 1572 L 1728.3125 1572 L 1728.3125 1611 L 1512 1611 L 1512 1572 Z Z" stroke-miterlimit="10"/></g><g transform="translate(2,-6) scale(1,1)"><g><path fill="none" stroke="none"/><text fill="#000000" stroke="none" font-family="Arial" font-size="24px" font-style="normal" font-weight="bold" text-decoration="none" x="1546.1640625" y="1599">:MTNMONEY</text></g></g><g transform="translate(2,-6) scale(1,1)"><path fill="none" stroke="#000000" d="M 1621.5 1612 L 1621.5 1968" stroke-miterlimit="10" stroke-dasharray="3"/></g><g transform="translate(2,-6) scale(1,1)"><rect fill="#C0C0C0" stroke="none" x="1335" y="47" width="205.640625" height="39" opacity="0.2"/></g><g transform="translate(2,-6) scale(1,1)"><rect fill="#ffffff" stroke="none" x="1328" y="40" width="205.640625" height="39"/></g><g transform="translate(2,-6) scale(1,1)"><path fill="none" stroke="#000000" d="M 1328 40 L 1533.640625 40 L 1533.640625 79 L 1328 79 L 1328 40 Z Z" stroke-miterlimit="10"/></g><g transform="translate(2,-6) scale(1,1)"><g><path fill="none" stroke="none"/><text fill="#000000" stroke="none" font-family="Arial" font-size="24px" font-style="normal" font-weight="bold" text-decoration="none" x="1360.830078125" y="67">:Notification</text></g></g><g transform="translate(2,-6) scale(1,1)"><path fill="none" stroke="#000000" d="M 1431.5 80 L 1431.5 3680" stroke-miterlimit="10" stroke-dasharray="3"/></g><g transform="translate(2,-6) scale(1,1)"><rect fill="#C0C0C0" stroke="none" x="927" y="47" width="173.6875" height="39" opacity="0.2"/></g><g transform="translate(2,-6) scale(1,1)"><rect fill="#ffffff" stroke="none" x="920" y="40" width="173.6875" height="39"/></g><g transform="translate(2,-6) scale(1,1)"><path fill="none" stroke="#000000" d="M 920 40 L 1093.6875 40 L 1093.6875 79 L 920 79 L 920 40 Z Z" stroke-miterlimit="10"/></g><g transform="translate(2,-6) scale(1,1)"><g><path fill="none" stroke="none"/><text fill="#000000" stroke="none" font-family="Arial" font-size="24px" font-style="normal" font-weight="bold" text-decoration="none" x="948.8359375" y="65">:personne</text></g></g><g transform="translate(2,-6) scale(1,1)"><path fill="none" stroke="#000000" d="M 1007.5 80 L 1007.5 3696" stroke-miterlimit="10" stroke-dasharray="3"/></g><g transform="translate(2,-6) scale(1,1)"><rect fill="#C0C0C0" stroke="none" x="2103" y="47" width="118.5625" height="39" opacity="0.2"/></g><g transform="translate(2,-6) scale(1,1)"><rect fill="#ffffff" stroke="none" x="2096" y="40" width="118.5625" height="39"/></g><g transform="translate(2,-6) scale(1,1)"><path fill="none" stroke="#000000" d="M 2096 40 L 2214.5625 40 L 2214.5625 79 L 2096 79 L 2096 40 Z Z" stroke-miterlimit="10"/></g><g transform="translate(2,-6) scale(1,1)"><g><path fill="none" stroke="none"/><text fill="#000000" stroke="none" font-family="Arial" font-size="24px" font-style="normal" font-weight="bold" text-decoration="none" x="2117.9453125" y="67">:Achat</text></g></g><g transform="translate(2,-6) scale(1,1)"><path fill="none" stroke="#000000" d="M 2156.5 80 L 2156.5 3680" stroke-miterlimit="10" stroke-dasharray="3"/></g><g transform="translate(2,-6) scale(1,1)"><rect fill="#C0C0C0" stroke="none" x="1719" y="1243" width="287.453125" height="39" opacity="0.2"/></g><g transform="translate(2,-6) scale(1,1)"><rect fill="#ffffff" stroke="none" x="1712" y="1236" width="287.453125" height="39"/></g><g transform="translate(2,-6) scale(1,1)"><path fill="none" stroke="#000000" d="M 1712 1236 L 1999.453125 1236 L 1999.453125 1275 L 1712 1275 L 1712 1236 Z Z" stroke-miterlimit="10"/></g><g transform="translate(2,-6) scale(1,1)"><g><path fill="none" stroke="none"/><text fill="#000000" stroke="none" font-family="Arial" font-size="24px" font-style="normal" font-weight="bold" text-decoration="none" x="1755.056640625" y="1263">:ORANGEMONEY</text></g></g><g transform="translate(2,-6) scale(1,1)"><path fill="none" stroke="#000000" d="M 1856.5 1276 L 1856.5 1984" stroke-miterlimit="10" stroke-dasharray="3"/></g><g transform="translate(2,-6) scale(1,1)"><rect fill="#C0C0C0" stroke="none" x="3103" y="47" width="95" height="39" opacity="0.2"/></g><g transform="translate(2,-6) scale(1,1)"><rect fill="#ffffff" stroke="none" x="3096" y="40" width="95" height="39"/></g><g transform="translate(2,-6) scale(1,1)"><path fill="none" stroke="#000000" d="M 3096 40 L 3191 40 L 3191 79 L 3096 79 L 3096 40 Z Z" stroke-miterlimit="10"/></g><g transform="translate(2,-6) scale(1,1)"><g><path fill="none" stroke="none"/><text fill="#000000" stroke="none" font-family="Arial" font-size="24px" font-style="normal" font-weight="bold" text-decoration="none" x="3122.171875" y="67">:BD</text></g></g><g transform="translate(2,-6) scale(1,1)"><path fill="none" stroke="#000000" d="M 3144.5 80 L 3144.5 3680" stroke-miterlimit="10" stroke-dasharray="3"/></g><g transform="translate(2,-6) scale(1,1)"><rect fill="#C0C0C0" stroke="none" x="1599" y="47" width="253.640625" height="39" opacity="0.2"/></g><g transform="translate(2,-6) scale(1,1)"><rect fill="#ffffff" stroke="none" x="1592" y="40" width="253.640625" height="39"/></g><g transform="translate(2,-6) scale(1,1)"><path fill="none" stroke="#000000" d="M 1592 40 L 1845.640625 40 L 1845.640625 79 L 1592 79 L 1592 40 Z Z" stroke-miterlimit="10"/></g><g transform="translate(2,-6) scale(1,1)"><g><path fill="none" stroke="none"/><text fill="#000000" stroke="none" font-family="Arial" font-size="24px" font-style="normal" font-weight="bold" text-decoration="none" x="1630.830078125" y="67">:Athentification</text></g></g><g transform="translate(2,-6) scale(1,1)"><path fill="none" stroke="#000000" d="M 1719.5 80 L 1719.5 3680" stroke-miterlimit="10" stroke-dasharray="3"/></g><g transform="translate(2,-6) scale(1,1)"><path fill="#ffffff" stroke="none" d="M 1160 128 L 1381 128 L 1391 138 L 1391 330 L 1160 330 L 1160 128"/></g><g transform="translate(2,-6) scale(1,1)"><path fill="none" stroke="#000000" d="M 1160 128 L 1381 128 L 1391 138 L 1391 330 L 1160 330 L 1160 128 L 1160 128" stroke-miterlimit="10"/></g><g transform="translate(2,-6) scale(1,1)"><path fill="none" stroke="#000000" d="M 1381 128 L 1381 138 L 1391 138 L 1381 128" stroke-miterlimit="10"/></g><g transform="translate(2,-6) scale(1,1)"><g><path fill="none" stroke="none"/><text fill="#000000" stroke="none" font-family="Arial" font-size="24px" font-style="normal" font-weight="normal" text-decoration="none" x="1165" y="151">de type booléen</text><text fill="#000000" stroke="none" font-family="Arial" font-size="24px" font-style="normal" font-weight="normal" text-decoration="none" x="1165" y="174">vrifie si l'utilisateur</text><text fill="#000000" stroke="none" font-family="Arial" font-size="24px" font-style="normal" font-weight="normal" text-decoration="none" x="1165" y="198">est authentifier</text></g></g><g transform="translate(2,-6) scale(1,1)"><path fill="none" stroke="#000000" d="M 1199 312 L 1276 229" stroke-miterlimit="10" stroke-dasharray="3"/></g><g transform="translate(2,-6) scale(1,1)"><path fill="none" stroke="#000000" d="M 210 160 L 673 160" stroke-miterlimit="10"/></g><g transform="translate(2,-6) scale(1,1)"><path fill="#000000" stroke="none" d="M 662.8373251423759 164.209517756016 L 673 160 L 662.8373251423758 155.790482243984"/></g><g transform="translate(2,-6) scale(1,1)"><path fill="none" stroke="#000000" d="M 662.8373251423759 164.209517756016 L 673 160 L 662.8373251423758 155.790482243984 L 662.8373251423759 164.209517756016" stroke-miterlimit="10"/></g><g transform="translate(2,-6) scale(1,1)"><g><path fill="none" stroke="none"/><text fill="#000000" stroke="none" font-family="Arial" font-size="24px" font-style="normal" font-weight="normal" text-decoration="none" x="242.54296875" y="158">1 : Cliquer boutton payer maontenant</text></g></g><g transform="translate(2,-6) scale(1,1)"><rect fill="#ffffff" stroke="none" x="673" y="160" width="13" height="28"/></g><g transform="translate(2,-6) scale(1,1)"><path fill="none" stroke="#000000" d="M 673 160 L 686 160 L 686 188 L 673 188 L 673 160 Z Z" stroke-miterlimit="10"/></g><g transform="translate(2,-6) scale(1,1)"><path fill="none" stroke="#000000" d="M 1007 216 L 680 216" stroke-miterlimit="10" stroke-dasharray="3"/></g><g transform="translate(2,-6) scale(1,1)"><path fill="none" stroke="#000000" d="M 690.1626748576241 211.790482243984 L 680 216 L 690.1626748576241 220.209517756016" stroke-miterlimit="10"/></g><g transform="translate(2,-6) scale(1,1)"><g><path fill="none" stroke="none"/><text fill="#000000" stroke="none" font-family="Arial" font-size="24px" font-style="normal" font-weight="normal" text-decoration="none" x="790.619140625" y="234">2 : getId()</text></g></g><g transform="translate(2,-6) scale(1,1)"><path fill="none" stroke="#000000" d="M 1132 248 L 680 248" stroke-miterlimit="10" stroke-dasharray="3"/></g><g transform="translate(2,-6) scale(1,1)"><path fill="none" stroke="#000000" d="M 690.1626748576241 243.790482243984 L 680 248 L 690.1626748576241 252.209517756016" stroke-miterlimit="10"/></g><g transform="translate(2,-6) scale(1,1)"><g><path fill="none" stroke="none"/><text fill="#000000" stroke="none" font-family="Arial" font-size="24px" font-style="normal" font-weight="normal" text-decoration="none" x="795.185546875" y="266">3 : getMontantTotal()</text></g></g><g transform="translate(2,-6) scale(1,1)"><path fill="none" stroke="#000000" d="M 1132 280 L 680 280" stroke-miterlimit="10" stroke-dasharray="3"/></g><g transform="translate(2,-6) scale(1,1)"><path fill="none" stroke="#000000" d="M 690.1626748576241 275.790482243984 L 680 280 L 690.1626748576241 284.209517756016" stroke-miterlimit="10"/></g><g transform="translate(2,-6) scale(1,1)"><g><path fill="none" stroke="none"/><text fill="#000000" stroke="none" font-family="Arial" font-size="24px" font-style="normal" font-weight="normal" text-decoration="none" x="765.96875" y="298">4 : getId([id,quantite, prix])</text></g></g><g transform="translate(2,-6) scale(1,1)"><path fill="none" stroke="#000000" d="M 1719 312 L 680 312" stroke-miterlimit="10" stroke-dasharray="3"/></g><g transform="translate(2,-6) scale(1,1)"><path fill="none" stroke="#000000" d="M 690.1626748576241 307.790482243984 L 680 312 L 690.1626748576241 316.209517756016" stroke-miterlimit="10"/></g><g transform="translate(2,-6) scale(1,1)"><g><path fill="none" stroke="none"/><text fill="#000000" stroke="none" font-family="Arial" font-size="24px" font-style="normal" font-weight="normal" text-decoration="none" x="1113.513671875" y="330">5 : getSession()</text></g></g><g transform="translate(2,-6) scale(1,1)"><path fill="none" stroke="#000000" d="M 1431 400 L 210 400" stroke-miterlimit="10" stroke-dasharray="3"/></g><g transform="translate(2,-6) scale(1,1)"><path fill="none" stroke="#000000" d="M 220.16267485762415 395.790482243984 L 210 400 L 220.16267485762415 404.209517756016" stroke-miterlimit="10"/></g><g transform="translate(2,-6) scale(1,1)"><g><path fill="none" stroke="none"/><text fill="#000000" stroke="none" font-family="Arial" font-size="24px" font-style="normal" font-weight="normal" text-decoration="none" x="744.40625" y="418">6 : getpopup()</text></g></g><g transform="translate(2,-6) scale(1,1)"><path fill="none" stroke="#000000" d="M 210 496 L 673 496" stroke-miterlimit="10"/></g><g transform="translate(2,-6) scale(1,1)"><path fill="#000000" stroke="none" d="M 662.8373251423759 500.209517756016 L 673 496 L 662.8373251423758 491.790482243984"/></g><g transform="translate(2,-6) scale(1,1)"><path fill="none" stroke="#000000" d="M 662.8373251423759 500.209517756016 L 673 496 L 662.8373251423758 491.790482243984 L 662.8373251423759 500.209517756016" stroke-miterlimit="10"/></g><g transform="translate(2,-6) scale(1,1)"><g><path fill="none" stroke="none"/><text fill="#000000" stroke="none" font-family="Arial" font-size="24px" font-style="normal" font-weight="normal" text-decoration="none" x="331.958984375" y="494">7 : Saisir information</text></g></g><g transform="translate(2,-6) scale(1,1)"><rect fill="#ffffff" stroke="none" x="673" y="496" width="13" height="28"/></g><g transform="translate(2,-6) scale(1,1)"><path fill="none" stroke="#000000" d="M 673 496 L 686 496 L 686 524 L 673 524 L 673 496 Z Z" stroke-miterlimit="10"/></g><g transform="translate(2,-6) scale(1,1)"><path fill="none" stroke="#000000" d="M 680 568 L 710 568 L 710 588 L 686 588" stroke-miterlimit="10"/></g><g transform="translate(2,-6) scale(1,1)"><path fill="#000000" stroke="none" d="M 696.1626748576241 583.790482243984 L 686 588 L 696.1626748576241 592.209517756016"/></g><g transform="translate(2,-6) scale(1,1)"><path fill="none" stroke="#000000" d="M 696.1626748576241 583.790482243984 L 686 588 L 696.1626748576241 592.209517756016 L 696.1626748576241 583.790482243984" stroke-miterlimit="10"/></g><g transform="translate(2,-6) scale(1,1)"><g><path fill="none" stroke="none"/><text fill="#000000" stroke="none" font-family="Arial" font-size="24px" font-style="normal" font-weight="normal" text-decoration="none" x="630.314453125" y="585">8 : Verifier(lieu_livraison, mode_paiement )</text></g></g><g transform="translate(2,-6) scale(1,1)"><rect fill="#ffffff" stroke="none" x="673" y="588" width="13" height="28"/></g><g transform="translate(2,-6) scale(1,1)"><path fill="none" stroke="#000000" d="M 673 588 L 686 588 L 686 616 L 673 616 L 673 588 Z Z" stroke-miterlimit="10"/></g><g transform="translate(2,-6) scale(1,1)"><path fill="none" stroke="#000000" d="M 2156 806 L 3137 806" stroke-miterlimit="10"/></g><g transform="translate(2,-6) scale(1,1)"><path fill="#000000" stroke="none" d="M 3126.837325142376 810.209517756016 L 3137 806 L 3126.837325142376 801.790482243984"/></g><g transform="translate(2,-6) scale(1,1)"><path fill="none" stroke="#000000" d="M 3126.837325142376 810.209517756016 L 3137 806 L 3126.837325142376 801.790482243984 L 3126.837325142376 810.209517756016" stroke-miterlimit="10"/></g><g transform="translate(2,-6) scale(1,1)"><g><path fill="none" stroke="none"/><text fill="#000000" stroke="none" font-family="Arial" font-size="24px" font-style="normal" font-weight="normal" text-decoration="none" x="2236.009765625" y="804">9 : Enregistrer(lieu_livraison, mode_paiement,getId([id,quantite, prix]),getId())</text></g></g><g transform="translate(2,-6) scale(1,1)"><rect fill="#ffffff" stroke="none" x="3137" y="806" width="13" height="28"/></g><g transform="translate(2,-6) scale(1,1)"><path fill="none" stroke="#000000" d="M 3137 806 L 3150 806 L 3150 834 L 3137 834 L 3137 806 Z Z" stroke-miterlimit="10"/></g><g transform="translate(2,-6) scale(1,1)"><path fill="none" stroke="#000000" d="M 2156 904 L 680 904" stroke-miterlimit="10" stroke-dasharray="3"/></g><g transform="translate(2,-6) scale(1,1)"><path fill="none" stroke="#000000" d="M 690.1626748576241 899.790482243984 L 680 904 L 690.1626748576241 908.209517756016" stroke-miterlimit="10"/></g><g transform="translate(2,-6) scale(1,1)"><g><path fill="none" stroke="none"/><text fill="#000000" stroke="none" font-family="Arial" font-size="24px" font-style="normal" font-weight="normal" text-decoration="none" x="1241.986328125" y="922.5">10 : Page opérateur de paiement</text></g></g><g transform="translate(2,-6) scale(1,1)"><path fill="none" stroke="#000000" d="M 210 1080 L 673 1080" stroke-miterlimit="10"/></g><g transform="translate(2,-6) scale(1,1)"><path fill="#000000" stroke="none" d="M 662.8373251423759 1084.2095177560159 L 673 1080 L 662.8373251423758 1075.7904822439841"/></g><g transform="translate(2,-6) scale(1,1)"><path fill="none" stroke="#000000" d="M 662.8373251423759 1084.2095177560159 L 673 1080 L 662.8373251423758 1075.7904822439841 L 662.8373251423759 1084.2095177560159" stroke-miterlimit="10"/></g><g transform="translate(2,-6) scale(1,1)"><g><path fill="none" stroke="none"/><text fill="#000000" stroke="none" font-family="Arial" font-size="24px" font-style="normal" font-weight="normal" text-decoration="none" x="328.21875" y="1078">11 : saisir information</text></g></g><g transform="translate(2,-6) scale(1,1)"><rect fill="#ffffff" stroke="none" x="673" y="1080" width="13" height="28"/></g><g transform="translate(2,-6) scale(1,1)"><path fill="none" stroke="#000000" d="M 673 1080 L 686 1080 L 686 1108 L 673 1108 L 673 1080 Z Z" stroke-miterlimit="10"/></g><g transform="translate(2,-6) scale(1,1)"><path fill="none" stroke="#000000" d="M 680 1256 L 1712 1256" stroke-miterlimit="10" stroke-dasharray="3"/></g><g transform="translate(2,-6) scale(1,1)"><path fill="none" stroke="#000000" d="M 1701.837325142376 1260.2095177560159 L 1712 1256 L 1701.837325142376 1251.7904822439841" stroke-miterlimit="10"/></g><g transform="translate(2,-6) scale(1,1)"><g><path fill="none" stroke="none"/><text fill="#000000" stroke="none" font-family="Arial" font-size="24px" font-style="normal" font-weight="normal" text-decoration="none" x="876.00390625" y="1254">12 : Payer (montant,numero_telephone,mot _passe ,getId())</text></g></g><g transform="translate(2,-6) scale(1,1)"><g><path fill="none" stroke="none"/><text fill="#000000" stroke="none" font-family="Arial" font-size="24px" font-style="normal" font-weight="normal" text-decoration="none" x="1149.06640625" y="1238.5">«create»</text></g></g><g transform="translate(2,-6) scale(1,1)"><path fill="none" stroke="#000000" d="M 2156 1288 L 3137 1288" stroke-miterlimit="10"/></g><g transform="translate(2,-6) scale(1,1)"><path fill="#000000" stroke="none" d="M 3126.837325142376 1292.2095177560159 L 3137 1288 L 3126.837325142376 1283.7904822439841"/></g><g transform="translate(2,-6) scale(1,1)"><path fill="none" stroke="#000000" d="M 3126.837325142376 1292.2095177560159 L 3137 1288 L 3126.837325142376 1283.7904822439841 L 3126.837325142376 1292.2095177560159" stroke-miterlimit="10"/></g><g transform="translate(2,-6) scale(1,1)"><g><path fill="none" stroke="none"/><text fill="#000000" stroke="none" font-family="Arial" font-size="24px" font-style="normal" font-weight="normal" text-decoration="none" x="2378.55078125" y="1286">13 : Modifier(getId,paiement=true,idorangemoney)</text></g></g><g transform="translate(2,-6) scale(1,1)"><rect fill="#ffffff" stroke="none" x="3137" y="1288" width="13" height="28"/></g><g transform="translate(2,-6) scale(1,1)"><path fill="none" stroke="#000000" d="M 3137 1288 L 3150 1288 L 3150 1316 L 3137 1316 L 3137 1288 Z Z" stroke-miterlimit="10"/></g><g transform="translate(2,-6) scale(1,1)"><path fill="none" stroke="#000000" d="M 1431 1336 L 680 1336" stroke-miterlimit="10" stroke-dasharray="3"/></g><g transform="translate(2,-6) scale(1,1)"><path fill="none" stroke="#000000" d="M 690.1626748576241 1331.7904822439841 L 680 1336 L 690.1626748576241 1340.2095177560159" stroke-miterlimit="10"/></g><g transform="translate(2,-6) scale(1,1)"><g><path fill="none" stroke="none"/><text fill="#000000" stroke="none" font-family="Arial" font-size="24px" font-style="normal" font-weight="normal" text-decoration="none" x="888.6328125" y="1354">14 : Alerter(message_success)</text></g></g><g transform="translate(2,-6) scale(1,1)"><path fill="none" stroke="#000000" d="M 680 1592 L 1512 1592" stroke-miterlimit="10" stroke-dasharray="3"/></g><g transform="translate(2,-6) scale(1,1)"><path fill="none" stroke="#000000" d="M 1501.837325142376 1596.2095177560159 L 1512 1592 L 1501.837325142376 1587.7904822439841" stroke-miterlimit="10"/></g><g transform="translate(2,-6) scale(1,1)"><g><path fill="none" stroke="none"/><text fill="#000000" stroke="none" font-family="Arial" font-size="24px" font-style="normal" font-weight="normal" text-decoration="none" x="779.892578125" y="1590">15 : Payer(montant,numero_telephone,mot _passe ,getId())</text></g></g><g transform="translate(2,-6) scale(1,1)"><g><path fill="none" stroke="none"/><text fill="#000000" stroke="none" font-family="Arial" font-size="24px" font-style="normal" font-weight="normal" text-decoration="none" x="1049.06640625" y="1574.5">«create»</text></g></g><g transform="translate(2,-6) scale(1,1)"><path fill="none" stroke="#000000" d="M 2156 1643 L 3137 1643" stroke-miterlimit="10"/></g><g transform="translate(2,-6) scale(1,1)"><path fill="#000000" stroke="none" d="M 3126.837325142376 1647.2095177560159 L 3137 1643 L 3126.837325142376 1638.7904822439841"/></g><g transform="translate(2,-6) scale(1,1)"><path fill="none" stroke="#000000" d="M 3126.837325142376 1647.2095177560159 L 3137 1643 L 3126.837325142376 1638.7904822439841 L 3126.837325142376 1647.2095177560159" stroke-miterlimit="10"/></g><g transform="translate(2,-6) scale(1,1)"><g><path fill="none" stroke="none"/><text fill="#000000" stroke="none" font-family="Arial" font-size="24px" font-style="normal" font-weight="normal" text-decoration="none" x="2388.427734375" y="1641">16 : Modifier(getId(),paiement=true,idmtnmoney)</text></g></g><g transform="translate(2,-6) scale(1,1)"><rect fill="#ffffff" stroke="none" x="3137" y="1643" width="13" height="28"/></g><g transform="translate(2,-6) scale(1,1)"><path fill="none" stroke="#000000" d="M 3137 1643 L 3150 1643 L 3150 1671 L 3137 1671 L 3137 1643 Z Z" stroke-miterlimit="10"/></g><g transform="translate(2,-6) scale(1,1)"><path fill="none" stroke="#000000" d="M 1431 1688 L 680 1688" stroke-miterlimit="10" stroke-dasharray="3"/></g><g transform="translate(2,-6) scale(1,1)"><path fill="none" stroke="#000000" d="M 690.1626748576241 1683.7904822439841 L 680 1688 L 690.1626748576241 1692.2095177560159" stroke-miterlimit="10"/></g><g transform="translate(2,-6) scale(1,1)"><g><path fill="none" stroke="none"/><text fill="#000000" stroke="none" font-family="Arial" font-size="24px" font-style="normal" font-weight="normal" text-decoration="none" x="885.744140625" y="1706">17 : Alerter (message_success)</text></g></g><g transform="translate(2,-6) scale(1,1)"><path fill="none" stroke="#000000" d="M 1431 1976 L 680 1976" stroke-miterlimit="10" stroke-dasharray="3"/></g><g transform="translate(2,-6) scale(1,1)"><path fill="none" stroke="#000000" d="M 690.1626748576241 1971.7904822439841 L 680 1976 L 690.1626748576241 1980.2095177560159" stroke-miterlimit="10"/></g><g transform="translate(2,-6) scale(1,1)"><g><path fill="none" stroke="none"/><text fill="#000000" stroke="none" font-family="Arial" font-size="24px" font-style="normal" font-weight="normal" text-decoration="none" x="899.853515625" y="1994">18 : Alerter(message_erreur)</text></g></g><g transform="translate(2,-6) scale(1,1)"><rect fill="#ffffff" stroke="none" x="1384" y="2328" width="1952" height="184"/></g><g transform="translate(2,-6) scale(1,1)"><path fill="none" stroke="#000000" d="M 1384 2328 L 3336 2328 L 3336 2512 L 1384 2512 L 1384 2328 Z Z" stroke-miterlimit="10"/></g><g transform="translate(2,-6) scale(1,1)"><path fill="none" stroke="#000000" d="M 1384 2328 L 1384 2361 L 1422.0078125 2361 L 1438.5078125 2344.5 L 1438.5078125 2328 L 1384 2328 L 1384 2328" stroke-miterlimit="10"/></g><g transform="translate(2,-6) scale(1,1)"><g><path fill="none" stroke="none"/><text fill="#000000" stroke="none" font-family="Arial" font-size="24px" font-style="normal" font-weight="normal" text-decoration="none" x="2387.25390625" y="2344.5"></text></g></g><g transform="translate(2,-6) scale(1,1)"><g><path fill="none" stroke="none"/><text fill="#000000" stroke="none" font-family="Arial" font-size="24px" font-style="normal" font-weight="bold" text-decoration="none" x="1387.6640625" y="2353">ref</text></g></g><g transform="translate(2,-6) scale(1,1)"><path fill="none" stroke="#000000" d="M 1719 2424 L 3137 2424" stroke-miterlimit="10"/></g><g transform="translate(2,-6) scale(1,1)"><path fill="#000000" stroke="none" d="M 3126.837325142376 2428.209517756016 L 3137 2424 L 3126.837325142376 2419.790482243984"/></g><g transform="translate(2,-6) scale(1,1)"><path fill="none" stroke="#000000" d="M 3126.837325142376 2428.209517756016 L 3137 2424 L 3126.837325142376 2419.790482243984 L 3126.837325142376 2428.209517756016" stroke-miterlimit="10"/></g><g transform="translate(2,-6) scale(1,1)"><g><path fill="none" stroke="none"/><text fill="#000000" stroke="none" font-family="Arial" font-size="24px" font-style="normal" font-weight="normal" text-decoration="none" x="2102.9375" y="2422">19 : Connexion(numero_telephon|addresse_mail,mot_passe)</text></g></g><g transform="translate(2,-6) scale(1,1)"><rect fill="#ffffff" stroke="none" x="3137" y="2424" width="13" height="28"/></g><g transform="translate(2,-6) scale(1,1)"><path fill="none" stroke="#000000" d="M 3137 2424 L 3150 2424 L 3150 2452 L 3137 2452 L 3137 2424 Z Z" stroke-miterlimit="10"/></g><g transform="translate(2,-6) scale(1,1)"><path fill="none" stroke="#000000" d="M 1431 2688 L 680 2688" stroke-miterlimit="10" stroke-dasharray="3"/></g><g transform="translate(2,-6) scale(1,1)"><path fill="none" stroke="#000000" d="M 690.1626748576241 2683.790482243984 L 680 2688 L 690.1626748576241 2692.209517756016" stroke-miterlimit="10"/></g><g transform="translate(2,-6) scale(1,1)"><g><path fill="none" stroke="none"/><text fill="#000000" stroke="none" font-family="Arial" font-size="24px" font-style="normal" font-weight="normal" text-decoration="none" x="896.96484375" y="2706">20 : Alerter (message_erreur)</text></g></g><g transform="translate(2,-6) scale(1,1)"><path fill="none" stroke="#000000" d="M 1431 2984 L 680 2984" stroke-miterlimit="10" stroke-dasharray="3"/></g><g transform="translate(2,-6) scale(1,1)"><path fill="none" stroke="#000000" d="M 690.1626748576241 2979.790482243984 L 680 2984 L 690.1626748576241 2988.209517756016" stroke-miterlimit="10"/></g><g transform="translate(2,-6) scale(1,1)"><g><path fill="none" stroke="none"/><text fill="#000000" stroke="none" font-family="Arial" font-size="24px" font-style="normal" font-weight="normal" text-decoration="none" x="899.853515625" y="3002">21 : Alerter(message_erreur)</text></g></g><g transform="translate(2,-6) scale(1,1)"><path fill="none" stroke="#000000" d="M 472 728 L 3488 728 L 3488 3259 L 472 3259 L 472 728" stroke-miterlimit="10"/></g><g transform="translate(2,-6) scale(1,1)"><path fill="#ffffff" stroke="none" d="M 472 728 L 472 761 L 1280.41015625 761 L 1296.91015625 744.5 L 1296.91015625 728 L 472 728"/></g><g transform="translate(2,-6) scale(1,1)"><path fill="none" stroke="#000000" d="M 472 728 L 472 761 L 1280.41015625 761 L 1296.91015625 744.5 L 1296.91015625 728 L 472 728 L 472 728" stroke-miterlimit="10"/></g><g transform="translate(2,-6) scale(1,1)"><g><path fill="none" stroke="none"/><text fill="#000000" stroke="none" font-family="Arial" font-size="24px" font-style="normal" font-weight="normal" text-decoration="none" x="508.34765625" y="753">Verifier(lieu_livraison, mode_paiement ) == true &amp;&amp; getSession() == true</text></g></g><g transform="translate(2,-6) scale(1,1)"><g><path fill="none" stroke="none"/><text fill="#000000" stroke="none" font-family="Arial" font-size="24px" font-style="normal" font-weight="bold" text-decoration="none" x="475.669921875" y="753">alt</text></g></g><g transform="translate(2,-6) scale(1,1)"><path fill="none" stroke="#000000" d="M 472 2244 L 3488 2244" stroke-miterlimit="10" stroke-dasharray="10,3"/></g><g transform="translate(2,-6) scale(1,1)"><path fill="none" stroke="#000000" d="M 472 2852 L 3488 2852" stroke-miterlimit="10" stroke-dasharray="10,3"/></g><g transform="translate(2,-6) scale(1,1)"><path fill="none" stroke="#000000" d="M 640 1152 L 3432 1152 L 3432 2072 L 640 2072 L 640 1152" stroke-miterlimit="10"/></g><g transform="translate(2,-6) scale(1,1)"><path fill="#ffffff" stroke="none" d="M 640 1152 L 640 1185 L 1061.609375 1185 L 1078.109375 1168.5 L 1078.109375 1152 L 640 1152"/></g><g transform="translate(2,-6) scale(1,1)"><path fill="none" stroke="#000000" d="M 640 1152 L 640 1185 L 1061.609375 1185 L 1078.109375 1168.5 L 1078.109375 1152 L 640 1152 L 640 1152" stroke-miterlimit="10"/></g><g transform="translate(2,-6) scale(1,1)"><g><path fill="none" stroke="none"/><text fill="#000000" stroke="none" font-family="Arial" font-size="24px" font-style="normal" font-weight="normal" text-decoration="none" x="689.6953125" y="1177">mode_paiement == orange money</text></g></g><g transform="translate(2,-6) scale(1,1)"><g><path fill="none" stroke="none"/><text fill="#000000" stroke="none" font-family="Arial" font-size="24px" font-style="normal" font-weight="bold" text-decoration="none" x="643.669921875" y="1175">seq</text></g></g><g transform="translate(2,-6) scale(1,1)"><path fill="none" stroke="#000000" d="M 640 1361 L 3432 1361" stroke-miterlimit="10" stroke-dasharray="10,3"/></g><g transform="translate(2,-6) scale(1,1)"><path fill="none" stroke="#000000" d="M 640 1786 L 3432 1786" stroke-miterlimit="10" stroke-dasharray="10,3"/></g><g transform="translate(2,-6) scale(1,1)"><path fill="none" stroke="#000000" d="M 664 1512 L 3360 1512 L 3360 1800 L 664 1800 L 664 1512" stroke-miterlimit="10"/></g><g transform="translate(2,-6) scale(1,1)"><path fill="#ffffff" stroke="none" d="M 664 1512 L 664 1545 L 1037.5390625 1545 L 1054.0390625 1528.5 L 1054.0390625 1512 L 664 1512"/></g><g transform="translate(2,-6) scale(1,1)"><path fill="none" stroke="#000000" d="M 664 1512 L 664 1545 L 1037.5390625 1545 L 1054.0390625 1528.5 L 1054.0390625 1512 L 664 1512 L 664 1512" stroke-miterlimit="10"/></g><g transform="translate(2,-6) scale(1,1)"><g><path fill="none" stroke="none"/><text fill="#000000" stroke="none" font-family="Arial" font-size="24px" font-style="normal" font-weight="normal" text-decoration="none" x="700.34765625" y="1537">mode_paiement == mtn money</text></g></g><g transform="translate(2,-6) scale(1,1)"><g><path fill="none" stroke="none"/><text fill="#000000" stroke="none" font-family="Arial" font-size="24px" font-style="normal" font-weight="bold" text-decoration="none" x="667.669921875" y="1537">alt</text></g></g><g transform="translate(2,-6) scale(1,1)"><path fill="none" stroke="#000000" d="M 616 2272 L 3432 2272 L 3432 2800 L 616 2800 L 616 2272" stroke-miterlimit="10"/></g><g transform="translate(2,-6) scale(1,1)"><path fill="#ffffff" stroke="none" d="M 616 2272 L 616 2305 L 1446.65234375 2305 L 1463.15234375 2288.5 L 1463.15234375 2272 L 616 2272"/></g><g transform="translate(2,-6) scale(1,1)"><path fill="none" stroke="#000000" d="M 616 2272 L 616 2305 L 1446.65234375 2305 L 1463.15234375 2288.5 L 1463.15234375 2272 L 616 2272 L 616 2272" stroke-miterlimit="10"/></g><g transform="translate(2,-6) scale(1,1)"><g><path fill="none" stroke="none"/><text fill="#000000" stroke="none" font-family="Arial" font-size="24px" font-style="normal" font-weight="normal" text-decoration="none" x="652.34765625" y="2297">Verifier(lieu_livraison, mode_paiement ) == true &amp;&amp; getSession() == false |</text></g></g><g transform="translate(2,-6) scale(1,1)"><g><path fill="none" stroke="none"/><text fill="#000000" stroke="none" font-family="Arial" font-size="24px" font-style="normal" font-weight="bold" text-decoration="none" x="619.669921875" y="2297">alt</text></g></g><g transform="translate(2,-6) scale(1,1)"><path fill="none" stroke="#000000" d="M 616 2636 L 3432 2636" stroke-miterlimit="10" stroke-dasharray="10,3"/></g><g transform="translate(2,-6) scale(1,1)"><path fill="none" stroke="#000000" d="M 608 2896 L 3424 2896 L 3424 3112 L 608 3112 L 608 2896" stroke-miterlimit="10"/></g><g transform="translate(2,-6) scale(1,1)"><path fill="#ffffff" stroke="none" d="M 608 2896 L 608 2929 L 1162.9453125 2929 L 1179.4453125 2912.5 L 1179.4453125 2896 L 608 2896"/></g><g transform="translate(2,-6) scale(1,1)"><path fill="none" stroke="#000000" d="M 608 2896 L 608 2929 L 1162.9453125 2929 L 1179.4453125 2912.5 L 1179.4453125 2896 L 608 2896 L 608 2896" stroke-miterlimit="10"/></g><g transform="translate(2,-6) scale(1,1)"><g><path fill="none" stroke="none"/><text fill="#000000" stroke="none" font-family="Arial" font-size="24px" font-style="normal" font-weight="normal" text-decoration="none" x="644.34765625" y="2921">Verifier(lieu_livraison, mode_paiement ) == false</text></g></g><g transform="translate(2,-6) scale(1,1)"><g><path fill="none" stroke="none"/><text fill="#000000" stroke="none" font-family="Arial" font-size="24px" font-style="normal" font-weight="bold" text-decoration="none" x="611.669921875" y="2921">alt</text></g></g></g></svg>