<svg version="1.1" xmlns="http://www.w3.org/2000/svg" xmlns:xlink="http://www.w3.org/1999/xlink" width="1332" height="532"><defs/><g><g transform="translate(10,2) scale(1,1)"><path fill="none" stroke="#000000" d="M 0 8 L 1312 8 L 1312 520 L 0 520 L 0 8" stroke-miterlimit="10"/></g><g transform="translate(10,2) scale(1,1)"><path fill="#ffffff" stroke="none" d="M 0 8 L 0 49 L 348.625 49 L 369.125 28.5 L 369.125 8 L 0 8"/></g><g transform="translate(10,2) scale(1,1)"><path fill="none" stroke="#000000" d="M 0 8 L 0 49 L 348.625 49 L 369.125 28.5 L 369.125 8 L 0 8 L 0 8" stroke-miterlimit="10"/></g><g transform="translate(10,2) scale(1,1)"><g><path fill="none" stroke="none"/><text fill="#000000" stroke="none" font-family="Arial" font-size="32px" font-style="normal" font-weight="normal" text-decoration="none" x="44.796875" y="40">Supprimer  du panier</text></g></g><g transform="translate(10,2) scale(1,1)"><g><path fill="none" stroke="none"/><text fill="#000000" stroke="none" font-family="Arial" font-size="32px" font-style="normal" font-weight="bold" text-decoration="none" x="3.2265625" y="40">sd</text></g></g><g transform="translate(10,2) scale(1,1)"><path fill="#ffffff" stroke="none" d="M 291.438096590909 47.3 C 291.438096590909 43.82060576 294.3164983130909 41 297.8671875 41 C 301.4178766869091 41 304.2962784090909 43.82060576 304.2962784090909 47.3 C 304.2962784090909 50.779394239999995 301.4178766869091 53.6 297.8671875 53.6 C 294.3164983130909 53.6 291.438096590909 50.779394239999995 291.438096590909 47.3 Z"/></g><g transform="translate(10,2) scale(1,1)"><path fill="none" stroke="#000000" d="M 291.438096590909 47.3 C 291.438096590909 43.82060576 294.3164983130909 41 297.8671875 41 C 301.4178766869091 41 304.2962784090909 43.82060576 304.2962784090909 47.3 C 304.2962784090909 50.779394239999995 301.4178766869091 53.6 297.8671875 53.6 C 294.3164983130909 53.6 291.438096590909 50.779394239999995 291.438096590909 47.3 Z" stroke-miterlimit="10"/></g><g transform="translate(10,2) scale(1,1)"><path fill="none" stroke="#000000" d="M 297.8671875 53.6 L 297.8671875 66.4" stroke-miterlimit="10"/></g><g transform="translate(10,2) scale(1,1)"><path fill="none" stroke="#000000" d="M 291.0599147727272 58.4 L 304.67446022727273 58.4" stroke-miterlimit="10"/></g><g transform="translate(10,2) scale(1,1)"><path fill="none" stroke="#000000" d="M 297.8671875 66.4 L 288.4126420454545 79" stroke-miterlimit="10"/></g><g transform="translate(10,2) scale(1,1)"><path fill="none" stroke="#000000" d="M 297.8671875 66.4 L 307.32173295454544 79" stroke-miterlimit="10"/></g><g transform="translate(10,2) scale(1,1)"><g><path fill="none" stroke="none"/><text fill="#000000" stroke="none" font-family="Arial" font-size="32px" font-style="normal" font-weight="bold" text-decoration="none" x="164.5" y="113.5">Personne: Actor1</text></g></g><g transform="translate(10,2) scale(1,1)"><path fill="none" stroke="#000000" d="M 298.5 124 L 298.5 488" stroke-miterlimit="10" stroke-dasharray="3"/></g><g transform="translate(10,2) scale(1,1)"><rect fill="#C0C0C0" stroke="none" x="623" y="47" width="135" height="39" opacity="0.2"/></g><g transform="translate(10,2) scale(1,1)"><rect fill="#ffffff" stroke="none" x="616" y="40" width="135" height="39"/></g><g transform="translate(10,2) scale(1,1)"><path fill="none" stroke="#000000" d="M 616 40 L 751 40 L 751 79 L 616 79 L 616 40 Z Z" stroke-miterlimit="10"/></g><g transform="translate(10,2) scale(1,1)"><g><path fill="none" stroke="none"/><text fill="#000000" stroke="none" font-family="Arial" font-size="32px" font-style="normal" font-weight="bold" text-decoration="none" x="683.5" y="62.5"></text></g></g><g transform="translate(10,2) scale(1,1)"><path fill="none" stroke="#000000" d="M 684.5 80 L 684.5 496" stroke-miterlimit="10" stroke-dasharray="3"/></g><g transform="translate(10,2) scale(1,1)"><rect fill="#C0C0C0" stroke="none" x="1007" y="47" width="127.484375" height="39" opacity="0.2"/></g><g transform="translate(10,2) scale(1,1)"><rect fill="#ffffff" stroke="none" x="1000" y="40" width="127.484375" height="39"/></g><g transform="translate(10,2) scale(1,1)"><path fill="none" stroke="#000000" d="M 1000 40 L 1127.484375 40 L 1127.484375 79 L 1000 79 L 1000 40 Z Z" stroke-miterlimit="10"/></g><g transform="translate(10,2) scale(1,1)"><g><path fill="none" stroke="none"/><text fill="#000000" stroke="none" font-family="Arial" font-size="32px" font-style="normal" font-weight="bold" text-decoration="none" x="1009.5" y="74">:Panier</text></g></g><g transform="translate(10,2) scale(1,1)"><path fill="none" stroke="#000000" d="M 1064.5 80 L 1064.5 488" stroke-miterlimit="10" stroke-dasharray="3"/></g><g transform="translate(10,2) scale(1,1)"><path fill="none" stroke="#000000" d="M 298 160 L 677 160" stroke-miterlimit="10"/></g><g transform="translate(10,2) scale(1,1)"><path fill="#000000" stroke="none" d="M 666.8373251423759 164.209517756016 L 677 160 L 666.8373251423758 155.790482243984"/></g><g transform="translate(10,2) scale(1,1)"><path fill="none" stroke="#000000" d="M 666.8373251423759 164.209517756016 L 677 160 L 666.8373251423758 155.790482243984 L 666.8373251423759 164.209517756016" stroke-miterlimit="10"/></g><g transform="translate(10,2) scale(1,1)"><g><path fill="none" stroke="none"/><text fill="#000000" stroke="none" font-family="Arial" font-size="32px" font-style="normal" font-weight="normal" text-decoration="none" x="328.5" y="161.5">1 : Sélectionner article</text></g></g><g transform="translate(10,2) scale(1,1)"><rect fill="#ffffff" stroke="none" x="677" y="160" width="13" height="28"/></g><g transform="translate(10,2) scale(1,1)"><path fill="none" stroke="#000000" d="M 677 160 L 690 160 L 690 188 L 677 188 L 677 160 Z Z" stroke-miterlimit="10"/></g><g transform="translate(10,2) scale(1,1)"><path fill="none" stroke="#000000" d="M 684 240 L 714 240 L 714 260 L 690 260" stroke-miterlimit="10"/></g><g transform="translate(10,2) scale(1,1)"><path fill="#000000" stroke="none" d="M 700.1626748576241 255.790482243984 L 690 260 L 700.1626748576241 264.209517756016"/></g><g transform="translate(10,2) scale(1,1)"><path fill="none" stroke="#000000" d="M 700.1626748576241 255.790482243984 L 690 260 L 700.1626748576241 264.209517756016 L 700.1626748576241 255.790482243984" stroke-miterlimit="10"/></g><g transform="translate(10,2) scale(1,1)"><g><path fill="none" stroke="none"/><text fill="#000000" stroke="none" font-family="Arial" font-size="32px" font-style="normal" font-weight="normal" text-decoration="none" x="726.5" y="262">2 : getId(id)</text></g></g><g transform="translate(10,2) scale(1,1)"><rect fill="#ffffff" stroke="none" x="677" y="260" width="13" height="28"/></g><g transform="translate(10,2) scale(1,1)"><path fill="none" stroke="#000000" d="M 677 260 L 690 260 L 690 288 L 677 288 L 677 260 Z Z" stroke-miterlimit="10"/></g><g transform="translate(10,2) scale(1,1)"><path fill="none" stroke="#000000" d="M 684 340 L 1057 340" stroke-miterlimit="10"/></g><g transform="translate(10,2) scale(1,1)"><path fill="#000000" stroke="none" d="M 1046.837325142376 344.209517756016 L 1057 340 L 1046.837325142376 335.790482243984"/></g><g transform="translate(10,2) scale(1,1)"><path fill="none" stroke="#000000" d="M 1046.837325142376 344.209517756016 L 1057 340 L 1046.837325142376 335.790482243984 L 1046.837325142376 344.209517756016" stroke-miterlimit="10"/></g><g transform="translate(10,2) scale(1,1)"><g><path fill="none" stroke="none"/><text fill="#000000" stroke="none" font-family="Arial" font-size="32px" font-style="normal" font-weight="normal" text-decoration="none" x="750.5" y="341">3 : Supprimer(id)</text></g></g><g transform="translate(10,2) scale(1,1)"><rect fill="#ffffff" stroke="none" x="1057" y="340" width="13" height="28"/></g><g transform="translate(10,2) scale(1,1)"><path fill="none" stroke="#000000" d="M 1057 340 L 1070 340 L 1070 368 L 1057 368 L 1057 340 Z Z" stroke-miterlimit="10"/></g><g transform="translate(10,2) scale(1,1)"><path fill="none" stroke="#000000" d="M 1064 393 L 684 393" stroke-miterlimit="10" stroke-dasharray="3"/></g><g transform="translate(10,2) scale(1,1)"><path fill="none" stroke="#000000" d="M 694.1626748576241 388.790482243984 L 684 393 L 694.1626748576241 397.209517756016" stroke-miterlimit="10"/></g><g transform="translate(10,2) scale(1,1)"><g><path fill="none" stroke="none"/><text fill="#000000" stroke="none" font-family="Arial" font-size="32px" font-style="normal" font-weight="normal" text-decoration="none" x="778.5" y="414">4 : Compter()</text></g></g></g></svg>