<svg version="1.1" xmlns="http://www.w3.org/2000/svg" xmlns:xlink="http://www.w3.org/1999/xlink" width="3412" height="1276"><defs/><g><g transform="translate(-46,10) scale(1,1)"><path fill="none" stroke="#000000" d="M 56 0 L 3448 0 L 3448 1256 L 56 1256 L 56 0" stroke-miterlimit="10"/></g><g transform="translate(-46,10) scale(1,1)"><path fill="#ffffff" stroke="none" d="M 56 0 L 56 41 L 385 41 L 405.5 20.5 L 405.5 0 L 56 0"/></g><g transform="translate(-46,10) scale(1,1)"><path fill="none" stroke="#000000" d="M 56 0 L 56 41 L 385 41 L 405.5 20.5 L 405.5 0 L 56 0 L 56 0" stroke-miterlimit="10"/></g><g transform="translate(-46,10) scale(1,1)"><g><path fill="none" stroke="none"/><text fill="#000000" stroke="none" font-family="Arial" font-size="32px" font-style="normal" font-weight="normal" text-decoration="none" x="100.796875" y="32">Enregistrer/Modifier</text></g></g><g transform="translate(-46,10) scale(1,1)"><g><path fill="none" stroke="none"/><text fill="#000000" stroke="none" font-family="Arial" font-size="32px" font-style="normal" font-weight="bold" text-decoration="none" x="59.2265625" y="32">sd</text></g></g><g transform="translate(-46,10) scale(1,1)"><path fill="#ffffff" stroke="none" d="M 266.438096590909 47.3 C 266.438096590909 43.82060576 269.3164983130909 41 272.8671875 41 C 276.4178766869091 41 279.2962784090909 43.82060576 279.2962784090909 47.3 C 279.2962784090909 50.779394239999995 276.4178766869091 53.6 272.8671875 53.6 C 269.3164983130909 53.6 266.438096590909 50.779394239999995 266.438096590909 47.3 Z"/></g><g transform="translate(-46,10) scale(1,1)"><path fill="none" stroke="#000000" d="M 266.438096590909 47.3 C 266.438096590909 43.82060576 269.3164983130909 41 272.8671875 41 C 276.4178766869091 41 279.2962784090909 43.82060576 279.2962784090909 47.3 C 279.2962784090909 50.779394239999995 276.4178766869091 53.6 272.8671875 53.6 C 269.3164983130909 53.6 266.438096590909 50.779394239999995 266.438096590909 47.3 Z" stroke-miterlimit="10"/></g><g transform="translate(-46,10) scale(1,1)"><path fill="none" stroke="#000000" d="M 272.8671875 53.6 L 272.8671875 66.4" stroke-miterlimit="10"/></g><g transform="translate(-46,10) scale(1,1)"><path fill="none" stroke="#000000" d="M 266.0599147727272 58.4 L 279.67446022727273 58.4" stroke-miterlimit="10"/></g><g transform="translate(-46,10) scale(1,1)"><path fill="none" stroke="#000000" d="M 272.8671875 66.4 L 263.4126420454545 79" stroke-miterlimit="10"/></g><g transform="translate(-46,10) scale(1,1)"><path fill="none" stroke="#000000" d="M 272.8671875 66.4 L 282.32173295454544 79" stroke-miterlimit="10"/></g><g transform="translate(-46,10) scale(1,1)"><g><path fill="none" stroke="none"/><text fill="#000000" stroke="none" font-family="Arial" font-size="32px" font-style="normal" font-weight="bold" text-decoration="none" x="139.5" y="114">Employer: Actor1</text></g></g><g transform="translate(-46,10) scale(1,1)"><path fill="none" stroke="#000000" d="M 273.5 124 L 273.5 1208" stroke-miterlimit="10" stroke-dasharray="3"/></g><g transform="translate(-46,10) scale(1,1)"><rect fill="#C0C0C0" stroke="none" x="2151" y="47" width="175" height="39" opacity="0.2"/></g><g transform="translate(-46,10) scale(1,1)"><rect fill="#ffffff" stroke="none" x="2144" y="40" width="175" height="39"/></g><g transform="translate(-46,10) scale(1,1)"><path fill="none" stroke="#000000" d="M 2144 40 L 2319 40 L 2319 79 L 2144 79 L 2144 40 Z Z" stroke-miterlimit="10"/></g><g transform="translate(-46,10) scale(1,1)"><g><path fill="none" stroke="none"/><text fill="#000000" stroke="none" font-family="Arial" font-size="32px" font-style="normal" font-weight="bold" text-decoration="none" x="2176.375" y="74">:Article</text></g></g><g transform="translate(-46,10) scale(1,1)"><path fill="none" stroke="#000000" d="M 2232.5 80 L 2232.5 1184" stroke-miterlimit="10" stroke-dasharray="3"/></g><g transform="translate(-46,10) scale(1,1)"><rect fill="#C0C0C0" stroke="none" x="2583" y="47" width="205.640625" height="39" opacity="0.2"/></g><g transform="translate(-46,10) scale(1,1)"><rect fill="#ffffff" stroke="none" x="2576" y="40" width="205.640625" height="39"/></g><g transform="translate(-46,10) scale(1,1)"><path fill="none" stroke="#000000" d="M 2576 40 L 2781.640625 40 L 2781.640625 79 L 2576 79 L 2576 40 Z Z" stroke-miterlimit="10"/></g><g transform="translate(-46,10) scale(1,1)"><g><path fill="none" stroke="none"/><text fill="#000000" stroke="none" font-family="Arial" font-size="32px" font-style="normal" font-weight="bold" text-decoration="none" x="2585.5" y="74">:Notification</text></g></g><g transform="translate(-46,10) scale(1,1)"><path fill="none" stroke="#000000" d="M 2679.5 80 L 2679.5 1160" stroke-miterlimit="10" stroke-dasharray="3"/></g><g transform="translate(-46,10) scale(1,1)"><rect fill="#C0C0C0" stroke="none" x="3159" y="47" width="247" height="39" opacity="0.2"/></g><g transform="translate(-46,10) scale(1,1)"><rect fill="#ffffff" stroke="none" x="3152" y="40" width="247" height="39"/></g><g transform="translate(-46,10) scale(1,1)"><path fill="none" stroke="#000000" d="M 3152 40 L 3399 40 L 3399 79 L 3152 79 L 3152 40 Z Z" stroke-miterlimit="10"/></g><g transform="translate(-46,10) scale(1,1)"><g><path fill="none" stroke="none"/><text fill="#000000" stroke="none" font-family="Arial" font-size="32px" font-style="normal" font-weight="bold" text-decoration="none" x="3247.0625" y="73.5">:BD</text></g></g><g transform="translate(-46,10) scale(1,1)"><path fill="none" stroke="#000000" d="M 3276.5 80 L 3276.5 1152" stroke-miterlimit="10" stroke-dasharray="3"/></g><g transform="translate(-46,10) scale(1,1)"><rect fill="#C0C0C0" stroke="none" x="1023" y="47" width="103" height="39" opacity="0.2"/></g><g transform="translate(-46,10) scale(1,1)"><rect fill="#ffffff" stroke="none" x="1016" y="40" width="103" height="39"/></g><g transform="translate(-46,10) scale(1,1)"><path fill="none" stroke="#000000" d="M 1016 40 L 1119 40 L 1119 79 L 1016 79 L 1016 40 Z Z" stroke-miterlimit="10"/></g><g transform="translate(-46,10) scale(1,1)"><g><path fill="none" stroke="none"/><text fill="#000000" stroke="none" font-family="Arial" font-size="32px" font-style="normal" font-weight="bold" text-decoration="none" x="1067.5" y="62.5"></text></g></g><g transform="translate(-46,10) scale(1,1)"><path fill="none" stroke="#000000" d="M 1068.5 80 L 1068.5 1136" stroke-miterlimit="10" stroke-dasharray="3"/></g><g transform="translate(-46,10) scale(1,1)"><rect fill="#C0C0C0" stroke="none" x="1551" y="47" width="175.484375" height="39" opacity="0.2"/></g><g transform="translate(-46,10) scale(1,1)"><rect fill="#ffffff" stroke="none" x="1544" y="40" width="175.484375" height="39"/></g><g transform="translate(-46,10) scale(1,1)"><path fill="none" stroke="#000000" d="M 1544 40 L 1719.484375 40 L 1719.484375 79 L 1544 79 L 1544 40 Z Z" stroke-miterlimit="10"/></g><g transform="translate(-46,10) scale(1,1)"><g><path fill="none" stroke="none"/><text fill="#000000" stroke="none" font-family="Arial" font-size="32px" font-style="normal" font-weight="bold" text-decoration="none" x="1553.5" y="73.5">:Personne</text></g></g><g transform="translate(-46,10) scale(1,1)"><path fill="none" stroke="#000000" d="M 1632.5 80 L 1632.5 1144" stroke-miterlimit="10" stroke-dasharray="3"/></g><g transform="translate(-46,10) scale(1,1)"><path fill="#ffffff" stroke="none" d="M 2752 560 L 3085 560 L 3095 570 L 3095 730 L 2752 730 L 2752 560"/></g><g transform="translate(-46,10) scale(1,1)"><path fill="none" stroke="#000000" d="M 2752 560 L 3085 560 L 3095 570 L 3095 730 L 2752 730 L 2752 560 L 2752 560" stroke-miterlimit="10"/></g><g transform="translate(-46,10) scale(1,1)"><path fill="none" stroke="#000000" d="M 3085 560 L 3085 570 L 3095 570 L 3085 560" stroke-miterlimit="10"/></g><g transform="translate(-46,10) scale(1,1)"><g><path fill="none" stroke="none"/><text fill="#000000" stroke="none" font-family="Arial" font-size="32px" font-style="normal" font-weight="normal" text-decoration="none" x="2757" y="589">Cette méthode prend</text><text fill="#000000" stroke="none" font-family="Arial" font-size="32px" font-style="normal" font-weight="normal" text-decoration="none" x="2757" y="621">en paramètre un</text><text fill="#000000" stroke="none" font-family="Arial" font-size="32px" font-style="normal" font-weight="normal" text-decoration="none" x="2757" y="652">message informant aisi</text><text fill="#000000" stroke="none" font-family="Arial" font-size="32px" font-style="normal" font-weight="normal" text-decoration="none" x="2757" y="684">l'employer que la</text><text fill="#000000" stroke="none" font-family="Arial" font-size="32px" font-style="normal" font-weight="normal" text-decoration="none" x="2757" y="717">sauvegarde a réussi</text></g></g><g transform="translate(-46,10) scale(1,1)"><path fill="none" stroke="#000000" d="M 1476 608 L 2751 641" stroke-miterlimit="10" stroke-dasharray="3"/></g><g transform="translate(-46,10) scale(1,1)"><rect fill="#ffffff" stroke="none" x="1008" y="760" width="266.921875" height="43"/></g><g transform="translate(-46,10) scale(1,1)"><path fill="none" stroke="#000000" d="M 1008 760 L 1274.921875 760 L 1274.921875 803 L 1008 803 L 1008 760 Z Z" stroke-miterlimit="10"/></g><g transform="translate(-46,10) scale(1,1)"><g><path fill="none" stroke="none"/><text fill="#000000" stroke="none" font-family="Arial" font-size="32px" font-style="normal" font-weight="normal" text-decoration="none" x="1013" y="788">verification==false</text></g></g><g transform="translate(-46,10) scale(1,1)"><path fill="#ffffff" stroke="none" d="M 2760 792 L 3135 792 L 3145 802 L 3145 962 L 2760 962 L 2760 792"/></g><g transform="translate(-46,10) scale(1,1)"><path fill="none" stroke="#000000" d="M 2760 792 L 3135 792 L 3145 802 L 3145 962 L 2760 962 L 2760 792 L 2760 792" stroke-miterlimit="10"/></g><g transform="translate(-46,10) scale(1,1)"><path fill="none" stroke="#000000" d="M 3135 792 L 3135 802 L 3145 802 L 3135 792" stroke-miterlimit="10"/></g><g transform="translate(-46,10) scale(1,1)"><g><path fill="none" stroke="none"/><text fill="#000000" stroke="none" font-family="Arial" font-size="32px" font-style="normal" font-weight="normal" text-decoration="none" x="2765" y="820">Mettre en subrillance les</text><text fill="#000000" stroke="none" font-family="Arial" font-size="32px" font-style="normal" font-weight="normal" text-decoration="none" x="2765" y="853">champs erronés, affiché</text><text fill="#000000" stroke="none" font-family="Arial" font-size="32px" font-style="normal" font-weight="normal" text-decoration="none" x="2765" y="885">des images animées</text><text fill="#000000" stroke="none" font-family="Arial" font-size="32px" font-style="normal" font-weight="normal" text-decoration="none" x="2765" y="916">indiquant ainsi le(s)</text><text fill="#000000" stroke="none" font-family="Arial" font-size="32px" font-style="normal" font-weight="normal" text-decoration="none" x="2765" y="949">champ (s) erroné(s)</text></g></g><g transform="translate(-46,10) scale(1,1)"><path fill="none" stroke="#000000" d="M 1476 888 L 2759 878" stroke-miterlimit="10" stroke-dasharray="3"/></g><g transform="translate(-46,10) scale(1,1)"><path fill="#ffffff" stroke="none" d="M 1656 432 L 2133 432 L 2143 442 L 2143 570 L 1656 570 L 1656 432"/></g><g transform="translate(-46,10) scale(1,1)"><path fill="none" stroke="#000000" d="M 1656 432 L 2133 432 L 2143 442 L 2143 570 L 1656 570 L 1656 432 L 1656 432" stroke-miterlimit="10"/></g><g transform="translate(-46,10) scale(1,1)"><path fill="none" stroke="#000000" d="M 2133 432 L 2133 442 L 2143 442 L 2133 432" stroke-miterlimit="10"/></g><g transform="translate(-46,10) scale(1,1)"><g><path fill="none" stroke="none"/><text fill="#000000" stroke="none" font-family="Arial" font-size="32px" font-style="normal" font-weight="normal" text-decoration="none" x="1661" y="460">Dans le cas de modification des</text><text fill="#000000" stroke="none" font-family="Arial" font-size="32px" font-style="normal" font-weight="normal" text-decoration="none" x="1661" y="492">informations, il faudra juste</text><text fill="#000000" stroke="none" font-family="Arial" font-size="32px" font-style="normal" font-weight="normal" text-decoration="none" x="1661" y="524">changer la methode Enregistrer</text><text fill="#000000" stroke="none" font-family="Arial" font-size="32px" font-style="normal" font-weight="normal" text-decoration="none" x="1661" y="556">en methode Modifier</text></g></g><g transform="translate(-46,10) scale(1,1)"><path fill="none" stroke="#000000" d="M 2750 472 L 2145 493" stroke-miterlimit="10" stroke-dasharray="3"/></g><g transform="translate(-46,10) scale(1,1)"><path fill="none" stroke="#000000" d="M 273 160 L 1061 160" stroke-miterlimit="10"/></g><g transform="translate(-46,10) scale(1,1)"><path fill="#000000" stroke="none" d="M 1050.837325142376 164.209517756016 L 1061 160 L 1050.837325142376 155.790482243984"/></g><g transform="translate(-46,10) scale(1,1)"><path fill="none" stroke="#000000" d="M 1050.837325142376 164.209517756016 L 1061 160 L 1050.837325142376 155.790482243984 L 1050.837325142376 164.209517756016" stroke-miterlimit="10"/></g><g transform="translate(-46,10) scale(1,1)"><g><path fill="none" stroke="none"/><text fill="#000000" stroke="none" font-family="Arial" font-size="32px" font-style="normal" font-weight="normal" text-decoration="none" x="525.5" y="161">1 : Remplir Champs</text></g></g><g transform="translate(-46,10) scale(1,1)"><rect fill="#ffffff" stroke="none" x="1061" y="160" width="13" height="496"/></g><g transform="translate(-46,10) scale(1,1)"><path fill="none" stroke="#000000" d="M 1061 160 L 1074 160 L 1074 656 L 1061 656 L 1061 160 Z Z" stroke-miterlimit="10"/></g><g transform="translate(-46,10) scale(1,1)"><path fill="none" stroke="#000000" d="M 1074 232 L 1625 232" stroke-miterlimit="10"/></g><g transform="translate(-46,10) scale(1,1)"><path fill="#000000" stroke="none" d="M 1614.837325142376 236.209517756016 L 1625 232 L 1614.837325142376 227.790482243984"/></g><g transform="translate(-46,10) scale(1,1)"><path fill="none" stroke="#000000" d="M 1614.837325142376 236.209517756016 L 1625 232 L 1614.837325142376 227.790482243984 L 1614.837325142376 236.209517756016" stroke-miterlimit="10"/></g><g transform="translate(-46,10) scale(1,1)"><g><path fill="none" stroke="none"/><text fill="#000000" stroke="none" font-family="Arial" font-size="32px" font-style="normal" font-weight="normal" text-decoration="none" x="1280.5" y="233">2 : getId()</text></g></g><g transform="translate(-46,10) scale(1,1)"><rect fill="#ffffff" stroke="none" x="1625" y="232" width="13" height="28"/></g><g transform="translate(-46,10) scale(1,1)"><path fill="none" stroke="#000000" d="M 1625 232 L 1638 232 L 1638 260 L 1625 260 L 1625 232 Z Z" stroke-miterlimit="10"/></g><g transform="translate(-46,10) scale(1,1)"><path fill="none" stroke="#000000" d="M 1074 304 L 2225 304" stroke-miterlimit="10"/></g><g transform="translate(-46,10) scale(1,1)"><path fill="#000000" stroke="none" d="M 2214.837325142376 308.209517756016 L 2225 304 L 2214.837325142376 299.790482243984"/></g><g transform="translate(-46,10) scale(1,1)"><path fill="none" stroke="#000000" d="M 2214.837325142376 308.209517756016 L 2225 304 L 2214.837325142376 299.790482243984 L 2214.837325142376 308.209517756016" stroke-miterlimit="10"/></g><g transform="translate(-46,10) scale(1,1)"><g><path fill="none" stroke="none"/><text fill="#000000" stroke="none" font-family="Arial" font-size="32px" font-style="normal" font-weight="normal" text-decoration="none" x="1081.5" y="297">3 : verification = verifier(categorie,designation,description,photo,prix,idpersonne)</text></g></g><g transform="translate(-46,10) scale(1,1)"><rect fill="#ffffff" stroke="none" x="2225" y="304" width="13" height="28"/></g><g transform="translate(-46,10) scale(1,1)"><path fill="none" stroke="#000000" d="M 2225 304 L 2238 304 L 2238 332 L 2225 332 L 2225 304 Z Z" stroke-miterlimit="10"/></g><g transform="translate(-46,10) scale(1,1)"><path fill="none" stroke="#000000" d="M 2232 472 L 3269 472" stroke-miterlimit="10"/></g><g transform="translate(-46,10) scale(1,1)"><path fill="#000000" stroke="none" d="M 3258.837325142376 476.209517756016 L 3269 472 L 3258.837325142376 467.790482243984"/></g><g transform="translate(-46,10) scale(1,1)"><path fill="none" stroke="#000000" d="M 3258.837325142376 476.209517756016 L 3269 472 L 3258.837325142376 467.790482243984 L 3258.837325142376 476.209517756016" stroke-miterlimit="10"/></g><g transform="translate(-46,10) scale(1,1)"><g><path fill="none" stroke="none"/><text fill="#000000" stroke="none" font-family="Arial" font-size="32px" font-style="normal" font-weight="normal" text-decoration="none" x="2244.5" y="465">4 : Enregidtrer(categorie,designation,description,photo,prix,idpersonne)</text></g></g><g transform="translate(-46,10) scale(1,1)"><rect fill="#ffffff" stroke="none" x="3269" y="472" width="13" height="28"/></g><g transform="translate(-46,10) scale(1,1)"><path fill="none" stroke="#000000" d="M 3269 472 L 3282 472 L 3282 500 L 3269 500 L 3269 472 Z Z" stroke-miterlimit="10"/></g><g transform="translate(-46,10) scale(1,1)"><path fill="none" stroke="#000000" d="M 2679 608 L 273 608" stroke-miterlimit="10" stroke-dasharray="3"/></g><g transform="translate(-46,10) scale(1,1)"><path fill="none" stroke="#000000" d="M 283.16267485762415 603.790482243984 L 273 608 L 283.16267485762415 612.209517756016" stroke-miterlimit="10"/></g><g transform="translate(-46,10) scale(1,1)"><g><path fill="none" stroke="none"/><text fill="#000000" stroke="none" font-family="Arial" font-size="32px" font-style="normal" font-weight="normal" text-decoration="none" x="1330.5" y="634">5 : Alerter(message)</text></g></g><g transform="translate(-46,10) scale(1,1)"><path fill="none" stroke="#000000" d="M 2679 888 L 273 888" stroke-miterlimit="10" stroke-dasharray="3"/></g><g transform="translate(-46,10) scale(1,1)"><path fill="none" stroke="#000000" d="M 283.16267485762415 883.790482243984 L 273 888 L 283.16267485762415 892.209517756016" stroke-miterlimit="10"/></g><g transform="translate(-46,10) scale(1,1)"><g><path fill="none" stroke="none"/><text fill="#000000" stroke="none" font-family="Arial" font-size="32px" font-style="normal" font-weight="normal" text-decoration="none" x="1313.5" y="914">6 : Subrillance(champ)</text></g></g><g transform="translate(-46,10) scale(1,1)"><path fill="none" stroke="#000000" d="M 952 384 L 3320 384 L 3320 976 L 952 976 L 952 384" stroke-miterlimit="10"/></g><g transform="translate(-46,10) scale(1,1)"><path fill="#ffffff" stroke="none" d="M 952 384 L 952 425 L 1247.265625 425 L 1267.765625 404.5 L 1267.765625 384 L 952 384"/></g><g transform="translate(-46,10) scale(1,1)"><path fill="none" stroke="#000000" d="M 952 384 L 952 425 L 1247.265625 425 L 1267.765625 404.5 L 1267.765625 384 L 952 384 L 952 384" stroke-miterlimit="10"/></g><g transform="translate(-46,10) scale(1,1)"><g><path fill="none" stroke="none"/><text fill="#000000" stroke="none" font-family="Arial" font-size="32px" font-style="normal" font-weight="normal" text-decoration="none" x="996.796875" y="416">verification==true</text></g></g><g transform="translate(-46,10) scale(1,1)"><g><path fill="none" stroke="none"/><text fill="#000000" stroke="none" font-family="Arial" font-size="32px" font-style="normal" font-weight="bold" text-decoration="none" x="955.2265625" y="416">alt</text></g></g><g transform="translate(-46,10) scale(1,1)"><path fill="none" stroke="#000000" d="M 952 757 L 3320 757" stroke-miterlimit="10" stroke-dasharray="10,3"/></g></g></svg>